<svg width="127" height="32" viewBox="0 0 127 32" fill="none" xmlns="http://www.w3.org/2000/svg">
<g clip-path="url(#clip0_372_3573)">
<mask id="mask0_372_3573" style="mask-type:luminance" maskUnits="userSpaceOnUse" x="0" y="0" width="127" height="32">
<path d="M126.222 0H0V32H126.222V0Z" fill="white"/>
</mask>
<g mask="url(#mask0_372_3573)">
<path d="M41.9372 16.5117L45.8212 25.6135L43.0286 25.6185L42.2882 24.1057L37.5508 24.1133L36.8136 25.6305L34.021 25.6342L37.8641 16.5205L41.9372 16.5117ZM39.7142 18.5547L38.4369 21.7541L41.3802 21.7496L40.0947 18.5547H39.7142Z" fill="white"/>
<path d="M53.9001 16.4912C55.0518 16.4912 56.292 16.6538 56.2951 19.0613C56.2983 20.0671 55.929 20.6939 55.5052 20.9229C56.2223 21.2906 56.5821 21.9651 56.5853 23.0725C56.5872 24.9342 55.8914 25.5968 54.1996 25.5986L46.973 25.6125L46.9585 16.5044L53.9001 16.4912ZM49.3523 19.9253L53.5911 19.919C53.9528 19.919 54.189 19.7521 54.1871 19.3072C54.1871 18.8498 53.9465 18.6955 53.5893 18.6961L49.3517 18.7036V19.9253H49.3523ZM49.3605 23.4032L53.502 23.3969C53.9133 23.3969 54.1946 23.1535 54.1946 22.7086C54.1933 22.0831 53.9089 21.9576 53.4994 21.9576L49.358 21.9639L49.3605 23.4032Z" fill="white"/>
<path d="M58.1387 16.4841L67.3823 16.4697L67.3876 18.8271L63.9648 18.8327L63.9755 25.584L61.585 25.5878L61.5743 18.8371L58.1406 18.8415L58.1387 16.4841Z" fill="white"/>
<path d="M74.5376 25.6946C69.5053 25.7028 69.4081 25.3965 69.3986 21.0276C69.3933 16.6712 69.4899 16.3405 74.5222 16.3312C79.5307 16.3242 79.6611 16.6549 79.6688 21.0113C79.6765 25.3539 79.5444 25.6864 74.5376 25.6946ZM74.5346 23.3373C77.2706 23.3341 77.2819 23.321 77.2771 21.0138C77.2724 18.6966 77.2635 18.6841 74.5358 18.6891C71.7998 18.6922 71.7885 18.7054 71.7903 21.0232C71.795 23.3303 71.8051 23.3416 74.5346 23.3373Z" fill="white"/>
<path d="M90.6094 19.9349L88.2153 19.9386C88.2153 18.9335 88.0198 18.6661 85.8361 18.6699C83.4876 18.6731 83.4782 18.7496 83.4811 21.004C83.4864 23.2711 83.4965 23.3225 85.8426 23.3193C87.9955 23.3162 88.2236 23.1242 88.2207 22.0418L90.6106 22.0356C90.6153 25.159 90.4654 25.6666 85.8473 25.6748C81.3389 25.683 81.0995 25.2871 81.093 20.9946C81.0847 16.7279 81.3223 16.3195 85.8337 16.3126C90.4073 16.3044 90.6041 16.8396 90.6094 19.9349Z" fill="white"/>
<path d="M92.3936 16.4291L101.642 16.4141L101.645 18.7714L98.2205 18.7777L98.2341 25.529L95.8424 25.5322L95.83 18.7808L92.3977 18.7852L92.3936 16.4291Z" fill="white"/>
<path d="M110.888 16.3984L114.771 25.5008L111.982 25.5052L111.236 23.9906L106.502 23.9981L105.765 25.5146L102.973 25.519L106.816 16.4053L110.888 16.3984ZM108.665 18.4414L107.387 21.6402L110.332 21.6358L109.046 18.4389L108.665 18.4414Z" fill="white"/>
<path d="M116.148 16.3901L125.392 16.375L125.398 18.7317L121.974 18.738L121.985 25.4894L119.594 25.4925L119.585 18.743L116.15 18.7474L116.148 16.3901Z" fill="white"/>
<path d="M34.5382 31.9776L33.7915 31.9789L35.2227 28.164L35.921 28.1621L37.366 31.9727L36.6193 31.9733L36.3417 31.1739L34.8145 31.1751L34.5382 31.9776ZM36.1539 30.5973L35.575 28.9038L34.9978 30.5979L36.1539 30.5973Z" fill="white"/>
<path d="M38.9353 31.9696H38.2402L38.2339 28.1591L38.9291 28.1578L38.9334 29.6825L40.6334 29.6813L40.6321 28.1559L41.3304 28.1553L41.3348 31.9658L40.6366 31.9671L40.6334 30.2573L38.9334 30.261L38.9353 31.9696Z" fill="white"/>
<path d="M42.954 31.964L42.2061 31.9646L43.6384 28.1491L44.3386 28.1484L45.7823 31.9596H45.0357L44.7562 31.1596L43.2321 31.1621L42.954 31.964ZM44.5716 30.5836L43.9907 28.8913L43.4149 30.5842L44.5716 30.5836Z" fill="white"/>
<path d="M46.1436 31.3787C46.9769 31.5243 46.9988 30.4125 46.9957 29.6407L46.9945 28.1423L49.6018 28.1367L49.6112 31.9503L48.9148 31.9516L48.9085 28.7152L47.6915 28.7171L47.6934 29.8446C47.6946 30.804 47.6017 32.1875 46.1441 31.956L46.1436 31.3787Z" fill="white"/>
<path d="M53.473 28.1331L54.1562 28.1318L54.1606 31.9442L53.4623 31.9448L53.4579 29.1571L51.6481 31.9486L50.9667 31.9499L50.9604 28.1362L51.6575 28.1343L51.6619 30.9246L53.473 28.1331Z" fill="white"/>
<path d="M55.1182 28.7073V28.13L58.2147 28.125L58.2159 28.7029L57.0159 28.7054L57.0222 31.9387L56.3239 31.9412L56.3176 28.7054L55.1182 28.7073Z" fill="white"/>
<path d="M61.6912 28.1208L62.3745 28.1201L62.381 31.9307H61.6835L61.6794 29.1448L59.8678 31.9356H59.1876L59.1782 28.1252L59.8767 28.1239L59.8809 30.9123L61.6912 28.1208Z" fill="white"/>
<path d="M64.2828 28.1164L64.2858 29.1453C64.2858 29.5099 64.3077 29.7829 65.0887 29.781C65.3927 29.7797 65.7246 29.7471 65.7809 29.7408L65.7762 28.1126L66.4742 28.1113L66.4807 31.925L65.7845 31.9262L65.7809 30.32C65.5664 30.3356 65.2452 30.3576 65.0016 30.3576C64.1839 30.3601 63.5889 30.1587 63.5889 29.3029L63.5859 28.1164H64.2828Z" fill="white"/>
<path d="M70.4728 29.6763V30.2523L68.5327 30.2548L68.5345 31.346L70.7585 31.3422L70.7596 31.9188L67.837 31.9232L67.8311 28.1102L70.6933 28.1064L70.6951 28.683L68.5297 28.6856L68.5315 29.6763H70.4728Z" fill="white"/>
<path d="M75.0679 30.6091C75.0181 31.1863 74.7124 32.0265 73.4211 32.0278C73.126 32.0278 71.5289 32.0033 71.5254 30.0758C71.5242 28.5065 72.4285 27.9888 73.3772 27.9863C74.6845 27.9832 74.9796 28.7844 75.0146 29.3278L74.3218 29.3303C74.2756 29.0128 74.0889 28.5629 73.3767 28.5642C72.5263 28.5642 72.2697 29.2576 72.2715 30.0469C72.2727 30.9404 72.7651 31.4511 73.4495 31.4511C74.0848 31.448 74.3538 31.0188 74.3764 30.6103L75.0679 30.6091Z" fill="white"/>
<path d="M78.5309 28.0905L79.4672 28.0898L77.8897 29.6711L79.5774 31.8997L78.6405 31.9029L77.3795 30.141L76.8669 30.6373L76.8687 31.9054L76.1688 31.9073L76.1641 28.0949L76.8627 28.0936L76.8657 29.8085L78.5309 28.0905Z" fill="white"/>
<path d="M82.0956 27.9727C82.428 27.9714 83.9646 28.0122 83.9688 29.9887C83.9705 31.9664 82.434 32.0128 82.1003 32.0135C81.7679 32.014 80.2295 31.9733 80.2295 29.9949C80.2248 28.0191 81.7643 27.9727 82.0956 27.9727ZM82.1009 31.4362C83.0443 31.4343 83.2227 30.5791 83.2209 29.9905C83.2197 29.4033 83.0384 28.548 82.0956 28.5487C81.1522 28.5512 80.9756 29.407 80.9756 29.9943C80.9756 30.5829 81.1587 31.4368 82.1009 31.4362Z" fill="white"/>
<path d="M87.7453 29.6461V30.2221L85.8069 30.2258V31.3151L88.0321 31.3113V31.8886L85.1118 31.8929L85.1064 28.0812L87.9675 28.0762L87.9693 28.6528L85.8021 28.6566L85.8075 29.6486L87.7453 29.6461Z" fill="white"/>
<path d="M90.9819 31.883L90.2358 31.8849L91.6675 28.0699L92.3656 28.0693L93.8121 31.8786L93.0625 31.8798L92.7875 31.0805L91.2598 31.0811L90.9819 31.883ZM92.5985 30.5032L92.0184 28.811L91.4435 30.5057L92.5985 30.5032Z" fill="white"/>
<path d="M95.3809 31.8774L94.6822 31.878L94.6763 28.0669L97.1723 28.0625L97.174 28.6397L95.3749 28.6422L95.3809 31.8774Z" fill="white"/>
<path d="M100.775 29.6237L100.779 30.2003L98.8379 30.2034L98.839 31.2939L101.065 31.2902V31.8662L98.1439 31.8712L98.1362 28.06L100.999 28.0557V28.6316L98.8337 28.6354L98.8385 29.6267L100.775 29.6237Z" fill="white"/>
<path d="M102.751 31.8662L102.053 31.8669L102.046 28.0539L102.743 28.052L102.745 29.578L104.448 29.5742L104.443 28.0488H105.141L105.147 31.8606L104.449 31.8625L104.448 30.1515L102.746 30.1545L102.751 31.8662Z" fill="white"/>
<path d="M106.106 28.623V28.0458L109.202 28.042V28.618L108.003 28.6218L108.007 31.8563L107.311 31.8569L107.306 28.6224H106.106V28.623Z" fill="white"/>
<path d="M113.452 30.5453C113.398 31.1245 113.096 31.964 111.806 31.9646C111.511 31.9653 109.914 31.9414 109.91 30.0126C109.907 28.4446 110.81 27.9257 111.761 27.9238C113.067 27.9213 113.364 28.7213 113.398 29.2678H112.704C112.661 28.9522 112.474 28.4992 111.762 28.5017C110.911 28.5023 110.653 29.1951 110.657 29.9844C110.658 30.8778 111.15 31.3893 111.837 31.3893C112.47 31.3874 112.74 30.9557 112.762 30.5478L113.452 30.5453Z" fill="white"/>
<path d="M114.159 28.6119L114.158 28.0334L117.254 28.0303L117.256 28.6069L116.056 28.6082L116.064 31.8427L115.364 31.8439L115.361 28.6088L114.159 28.6119Z" fill="white"/>
<path d="M120.018 28.0234C120.988 28.0228 121.181 28.5661 121.182 28.9847C121.182 29.4063 120.921 29.7389 120.55 29.8054V29.8148C120.867 29.8688 121.34 30.0852 121.34 30.7673C121.346 31.7304 120.521 31.8358 119.948 31.8364L118.226 31.8402L118.217 28.0266L120.018 28.0234ZM118.919 29.5726L119.841 29.5713C120.227 29.5701 120.462 29.4509 120.462 29.1183C120.458 28.6119 119.97 28.6 119.821 28.6L118.918 28.6026L118.919 29.5726ZM118.92 31.2604L119.877 31.2598C120.301 31.2567 120.623 31.1537 120.623 30.6907C120.621 30.1787 120.179 30.1479 119.89 30.1486L118.92 30.1498L118.92 31.2604Z" fill="white"/>
<path d="M124.195 27.9023C124.53 27.9023 126.067 27.9438 126.07 29.919C126.073 31.8974 124.537 31.9438 124.204 31.9438C123.87 31.9438 122.332 31.9018 122.329 29.9278C122.328 27.9494 123.863 27.9036 124.195 27.9023ZM124.203 31.3672C125.145 31.364 125.323 30.51 125.323 29.9215C125.321 29.3336 125.14 28.4778 124.198 28.4802C123.255 28.4815 123.078 29.3367 123.078 29.9259C123.078 30.5138 123.259 31.3672 124.203 31.3672Z" fill="white"/>
<path d="M34.9913 11.7445L29.1299 1.63183C28.6985 1.20265 28.1753 1.005 27.6617 1.07402C27.1498 1.14241 26.6996 1.47057 26.3932 1.99952L20.6221 12.0406C20.327 12.5545 20.2698 13.0251 20.4701 13.3664C20.666 13.7065 21.105 13.8922 21.6997 13.8916L33.2851 13.8646C33.8986 13.8646 34.4061 13.635 34.7213 13.2234C35.0346 12.8124 35.1213 12.2627 34.9913 11.7445Z" fill="white"/>
<path d="M9.25547 1.21819L9.13867 1.88078C9.15123 2.19137 9.25043 2.50447 9.42626 2.81066L15.2426 12.8229C15.5483 13.3475 15.9396 13.6367 16.3446 13.6367C16.7497 13.6348 17.1409 13.345 17.4423 12.8192L23.2134 2.77929C23.4118 2.4342 23.5098 2.06839 23.494 1.72329L23.376 1.18808C23.1851 0.723137 22.76 0.374273 22.1822 0.204861C22.0887 0.191685 10.5371 0.218038 10.5371 0.218038C9.87023 0.401881 9.44635 0.751996 9.25547 1.21819ZM16.3428 13.0011C16.2215 12.9998 16.0055 12.8706 15.7946 12.5054L9.97701 2.49066C9.85452 2.27984 9.78418 2.05898 9.77855 1.85506L9.84196 1.46102C9.95876 1.17616 10.2395 0.955919 10.6276 0.841099C10.6319 0.852393 22.0906 0.826663 22.0906 0.826663C22.3914 0.927682 22.6708 1.14792 22.7889 1.43278C22.7889 1.43404 22.8573 1.74839 22.8573 1.74839C22.8667 1.97427 22.8002 2.22275 22.6602 2.46368L16.8903 12.5016C16.6781 12.8694 16.462 12.9998 16.3428 13.0011Z" fill="white"/>
<path d="M5.92704 2.77607C5.87118 2.8476 0.120216 12.8498 0.120216 12.8498C0.086305 12.9357 0.0209961 13.5168 0.0209961 13.5168C0.0366954 13.87 0.14973 14.1932 0.351309 14.4542C0.672832 14.8733 1.19405 15.1042 1.81385 15.1017L13.4024 15.0754C14.0109 15.0741 14.4593 14.879 14.6584 14.5282C14.6584 14.527 14.7746 14.0099 14.7746 14.0099L14.4982 13.1686L8.6807 3.15819C8.37178 2.62172 7.90955 2.28855 7.38458 2.21827C6.88348 2.15301 6.36793 2.35066 5.92704 2.77607ZM6.4244 3.16196C6.66618 2.94486 6.99714 2.81059 7.30298 2.85012C7.6276 2.89216 7.92212 3.1149 8.1319 3.47694L13.9494 13.4892L14.1391 14.0375L14.1045 14.2126C14.0455 14.3187 13.8251 14.4397 13.4012 14.441L1.81385 14.4661C1.39437 14.4674 1.05338 14.3262 0.856198 14.0683C0.733745 13.9108 0.667179 13.7157 0.657757 13.4917C0.657757 13.4917 0.707369 13.0838 0.709253 13.0826C0.724323 13.0819 6.4244 3.16196 6.4244 3.16196Z" fill="white"/>
<path d="M0.487058 16.9537C0.255337 17.2517 0.145442 17.6313 0.161141 18.0423L0.22645 18.469C0.264129 18.5549 4.3428 25.583 4.3428 25.583L6.06092 28.537C6.55763 29.0315 7.07639 29.226 7.57435 29.1589C8.10181 29.0873 8.55835 28.7529 8.87046 28.2146L14.6384 18.1772C14.938 17.6589 14.9938 17.1626 14.7954 16.8169C14.5888 16.4649 14.1435 16.2729 13.5351 16.2754L1.94772 16.3011C1.32665 16.3024 0.80858 16.5333 0.487058 16.9537ZM0.797902 18.0178C0.788485 17.7549 0.855051 17.5209 0.993202 17.3408C1.19039 17.0817 1.53075 16.938 1.94898 16.9367L13.5382 16.9116C13.9633 16.9104 14.1819 17.0321 14.244 17.1369C14.261 17.1689 14.2723 17.2141 14.2767 17.2718C14.2811 17.4067 14.2346 17.6069 14.0889 17.8578L8.31598 27.897C8.10809 28.261 7.81488 28.485 7.4902 28.5283C7.1875 28.5697 6.85529 28.4335 6.5558 28.1493C6.55266 28.1217 4.89353 25.2618 4.89353 25.2618L0.812977 18.2362C0.847513 18.3215 0.797902 18.0178 0.797902 18.0178Z" fill="white"/>
<path d="M15.4255 18.4686L9.65444 28.5059C9.45604 28.851 9.35808 29.2168 9.37189 29.5606L9.48993 30.0965C9.6827 30.5627 10.1078 30.9115 10.69 31.0816C10.7785 31.0935 22.3288 31.0678 22.3288 31.0678C22.9976 30.882 23.4215 30.5313 23.6124 30.067L23.7292 29.4063C23.7166 29.0926 23.6186 28.7814 23.4403 28.4758L17.6259 18.4629C17.3201 17.9371 16.9289 17.6504 16.5238 17.6504C16.1181 17.6497 15.7282 17.9396 15.4255 18.4686ZM10.7773 30.4566C10.4746 30.3556 10.197 30.1354 10.079 29.8518L10.0093 29.5349C10.0017 29.3109 10.0664 29.0643 10.2077 28.8228L15.9788 18.7842C16.1897 18.4158 16.4058 18.2854 16.5251 18.2854C16.6463 18.2854 16.8604 18.4139 17.0746 18.7817L22.8908 28.7945C23.0133 29.0054 23.0836 29.2269 23.0912 29.4301C23.0912 29.4301 23.0246 29.8235 23.0246 29.8254C22.9065 30.1059 22.629 30.3261 22.2377 30.4429C22.2352 30.4322 10.7773 30.4566 10.7773 30.4566Z" fill="white"/>
<path d="M18.1471 16.7158C17.9436 17.0684 18.0027 17.5503 18.3073 18.0761L24.1217 28.0909C24.4337 28.6273 24.8947 28.9599 25.419 29.0282C25.9189 29.0916 26.4345 28.8953 26.8753 28.4749C26.9293 28.4027 32.6834 18.3955 32.6834 18.3955C32.7129 18.3114 32.7826 17.7298 32.7826 17.7298C32.7688 17.3778 32.6552 17.0521 32.4523 16.7911C32.1308 16.3707 31.6096 16.1423 30.9885 16.1436L19.4012 16.168C18.7946 16.1724 18.3474 16.3651 18.1471 16.7158ZM18.8567 17.7561C18.723 17.5264 18.6721 17.342 18.6658 17.2102C18.6627 17.1312 18.6765 17.0722 18.6966 17.032C18.7575 16.9291 18.9792 16.8074 19.4012 16.8055L30.9885 16.7792C31.4092 16.7792 31.7502 16.9216 31.9506 17.1782C32.0718 17.3382 32.1371 17.5315 32.1477 17.7561C32.1477 17.7561 32.0962 18.162 32.0962 18.1639C32.0793 18.1671 26.3792 28.0858 26.3792 28.0858C26.1368 28.2998 25.8046 28.4366 25.4994 28.3977C25.1748 28.3569 24.8815 28.1335 24.6724 27.7721L18.8567 17.7561Z" fill="white"/>
<mask id="mask1_372_3573" style="mask-type:luminance" maskUnits="userSpaceOnUse" x="0" y="0" width="127" height="32">
<path d="M126.222 0H0V32H126.222V0Z" fill="white"/>
</mask>
<g mask="url(#mask1_372_3573)">
<path d="M41.9372 16.5117L45.8212 25.6135L43.0286 25.6185L42.2882 24.1057L37.5508 24.1133L36.8136 25.6305L34.021 25.6342L37.8641 16.5205L41.9372 16.5117ZM39.7142 18.5547L38.4369 21.7541L41.3802 21.7496L40.0947 18.5547H39.7142Z" fill="white"/>
<path d="M53.9001 16.4912C55.0518 16.4912 56.292 16.6538 56.2951 19.0613C56.2983 20.0671 55.929 20.6939 55.5052 20.9229C56.2223 21.2906 56.5821 21.9651 56.5853 23.0725C56.5872 24.9342 55.8914 25.5968 54.1996 25.5986L46.973 25.6125L46.9585 16.5044L53.9001 16.4912ZM49.3523 19.9253L53.5911 19.919C53.9528 19.919 54.189 19.7521 54.1871 19.3072C54.1871 18.8498 53.9465 18.6955 53.5893 18.6961L49.3517 18.7036V19.9253H49.3523ZM49.3605 23.4032L53.502 23.3969C53.9133 23.3969 54.1946 23.1535 54.1946 22.7086C54.1933 22.0831 53.9089 21.9576 53.4994 21.9576L49.358 21.9639L49.3605 23.4032Z" fill="white"/>
<path d="M58.1387 16.4841L67.3823 16.4697L67.3876 18.8271L63.9648 18.8327L63.9755 25.584L61.585 25.5878L61.5743 18.8371L58.1406 18.8415L58.1387 16.4841Z" fill="white"/>
<path d="M74.5376 25.6946C69.5053 25.7028 69.4081 25.3965 69.3986 21.0276C69.3933 16.6712 69.4899 16.3405 74.5222 16.3312C79.5307 16.3242 79.6611 16.6549 79.6688 21.0113C79.6765 25.3539 79.5444 25.6864 74.5376 25.6946ZM74.5346 23.3373C77.2706 23.3341 77.2819 23.321 77.2771 21.0138C77.2724 18.6966 77.2635 18.6841 74.5358 18.6891C71.7998 18.6922 71.7885 18.7054 71.7903 21.0232C71.795 23.3303 71.8051 23.3416 74.5346 23.3373Z" fill="white"/>
<path d="M90.6094 19.9349L88.2153 19.9386C88.2153 18.9335 88.0198 18.6661 85.8361 18.6699C83.4876 18.6731 83.4782 18.7496 83.4811 21.004C83.4864 23.2711 83.4965 23.3225 85.8426 23.3193C87.9955 23.3162 88.2236 23.1242 88.2207 22.0418L90.6106 22.0356C90.6153 25.159 90.4654 25.6666 85.8473 25.6748C81.3389 25.683 81.0995 25.2871 81.093 20.9946C81.0847 16.7279 81.3223 16.3195 85.8337 16.3126C90.4073 16.3044 90.6041 16.8396 90.6094 19.9349Z" fill="white"/>
<path d="M92.3936 16.4291L101.642 16.4141L101.645 18.7714L98.2205 18.7777L98.2341 25.529L95.8424 25.5322L95.83 18.7808L92.3977 18.7852L92.3936 16.4291Z" fill="white"/>
<path d="M110.888 16.3984L114.771 25.5008L111.982 25.5052L111.236 23.9906L106.502 23.9981L105.765 25.5146L102.973 25.519L106.816 16.4053L110.888 16.3984ZM108.665 18.4414L107.387 21.6402L110.332 21.6358L109.046 18.4389L108.665 18.4414Z" fill="white"/>
<path d="M116.148 16.3901L125.392 16.375L125.398 18.7317L121.974 18.738L121.985 25.4894L119.594 25.4925L119.585 18.743L116.15 18.7474L116.148 16.3901Z" fill="white"/>
<path d="M34.5382 31.9776L33.7915 31.9789L35.2227 28.164L35.921 28.1621L37.366 31.9727L36.6193 31.9733L36.3417 31.1739L34.8145 31.1751L34.5382 31.9776ZM36.1539 30.5973L35.575 28.9038L34.9978 30.5979L36.1539 30.5973Z" fill="white"/>
<path d="M38.9353 31.9696H38.2402L38.2339 28.1591L38.9291 28.1578L38.9334 29.6825L40.6334 29.6813L40.6321 28.1559L41.3304 28.1553L41.3348 31.9658L40.6366 31.9671L40.6334 30.2573L38.9334 30.261L38.9353 31.9696Z" fill="white"/>
<path d="M42.954 31.964L42.2061 31.9646L43.6384 28.1491L44.3386 28.1484L45.7823 31.9596H45.0357L44.7562 31.1596L43.2321 31.1621L42.954 31.964ZM44.5716 30.5836L43.9907 28.8913L43.4149 30.5842L44.5716 30.5836Z" fill="white"/>
<path d="M46.1436 31.3787C46.9769 31.5243 46.9988 30.4125 46.9957 29.6407L46.9945 28.1423L49.6018 28.1367L49.6112 31.9503L48.9148 31.9516L48.9085 28.7152L47.6915 28.7171L47.6934 29.8446C47.6946 30.804 47.6017 32.1875 46.1441 31.956L46.1436 31.3787Z" fill="white"/>
<path d="M53.473 28.1331L54.1562 28.1318L54.1606 31.9442L53.4623 31.9448L53.4579 29.1571L51.6481 31.9486L50.9667 31.9499L50.9604 28.1362L51.6575 28.1343L51.6619 30.9246L53.473 28.1331Z" fill="white"/>
<path d="M55.1182 28.7073V28.13L58.2147 28.125L58.2159 28.7029L57.0159 28.7054L57.0222 31.9387L56.3239 31.9412L56.3176 28.7054L55.1182 28.7073Z" fill="white"/>
<path d="M61.6912 28.1208L62.3745 28.1201L62.381 31.9307H61.6835L61.6794 29.1448L59.8678 31.9356H59.1876L59.1782 28.1252L59.8767 28.1239L59.8809 30.9123L61.6912 28.1208Z" fill="white"/>
<path d="M64.2828 28.1164L64.2858 29.1453C64.2858 29.5099 64.3077 29.7829 65.0887 29.781C65.3927 29.7797 65.7246 29.7471 65.7809 29.7408L65.7762 28.1126L66.4742 28.1113L66.4807 31.925L65.7845 31.9262L65.7809 30.32C65.5664 30.3356 65.2452 30.3576 65.0016 30.3576C64.1839 30.3601 63.5889 30.1587 63.5889 29.3029L63.5859 28.1164H64.2828Z" fill="white"/>
<path d="M70.4728 29.6763V30.2523L68.5327 30.2548L68.5345 31.346L70.7585 31.3422L70.7596 31.9188L67.837 31.9232L67.8311 28.1102L70.6933 28.1064L70.6951 28.683L68.5297 28.6856L68.5315 29.6763H70.4728Z" fill="white"/>
<path d="M75.0679 30.6091C75.0181 31.1863 74.7124 32.0265 73.4211 32.0278C73.126 32.0278 71.5289 32.0033 71.5254 30.0758C71.5242 28.5065 72.4285 27.9888 73.3772 27.9863C74.6845 27.9832 74.9796 28.7844 75.0146 29.3278L74.3218 29.3303C74.2756 29.0128 74.0889 28.5629 73.3767 28.5642C72.5263 28.5642 72.2697 29.2576 72.2715 30.0469C72.2727 30.9404 72.7651 31.4511 73.4495 31.4511C74.0848 31.448 74.3538 31.0188 74.3764 30.6103L75.0679 30.6091Z" fill="white"/>
<path d="M78.5309 28.0905L79.4672 28.0898L77.8897 29.6711L79.5774 31.8997L78.6405 31.9029L77.3795 30.141L76.8669 30.6373L76.8687 31.9054L76.1688 31.9073L76.1641 28.0949L76.8627 28.0936L76.8657 29.8085L78.5309 28.0905Z" fill="white"/>
<path d="M82.0956 27.9727C82.428 27.9714 83.9646 28.0122 83.9688 29.9887C83.9705 31.9664 82.434 32.0128 82.1003 32.0135C81.7679 32.014 80.2295 31.9733 80.2295 29.9949C80.2248 28.0191 81.7643 27.9727 82.0956 27.9727ZM82.1009 31.4362C83.0443 31.4343 83.2227 30.5791 83.2209 29.9905C83.2197 29.4033 83.0384 28.548 82.0956 28.5487C81.1522 28.5512 80.9756 29.407 80.9756 29.9943C80.9756 30.5829 81.1587 31.4368 82.1009 31.4362Z" fill="white"/>
<path d="M87.7453 29.6461V30.2221L85.8069 30.2258V31.3151L88.0321 31.3113V31.8886L85.1118 31.8929L85.1064 28.0812L87.9675 28.0762L87.9693 28.6528L85.8021 28.6566L85.8075 29.6486L87.7453 29.6461Z" fill="white"/>
<path d="M90.9819 31.883L90.2358 31.8849L91.6675 28.0699L92.3656 28.0693L93.8121 31.8786L93.0625 31.8798L92.7875 31.0805L91.2598 31.0811L90.9819 31.883ZM92.5985 30.5032L92.0184 28.811L91.4435 30.5057L92.5985 30.5032Z" fill="white"/>
<path d="M95.3809 31.8774L94.6822 31.878L94.6763 28.0669L97.1723 28.0625L97.174 28.6397L95.3749 28.6422L95.3809 31.8774Z" fill="white"/>
<path d="M100.775 29.6237L100.779 30.2003L98.8379 30.2034L98.839 31.2939L101.065 31.2902V31.8662L98.1439 31.8712L98.1362 28.06L100.999 28.0557V28.6316L98.8337 28.6354L98.8385 29.6267L100.775 29.6237Z" fill="white"/>
<path d="M102.751 31.8662L102.053 31.8669L102.046 28.0539L102.743 28.052L102.745 29.578L104.448 29.5742L104.443 28.0488H105.141L105.147 31.8606L104.449 31.8625L104.448 30.1515L102.746 30.1545L102.751 31.8662Z" fill="white"/>
<path d="M106.106 28.623V28.0458L109.202 28.042V28.618L108.003 28.6218L108.007 31.8563L107.311 31.8569L107.306 28.6224H106.106V28.623Z" fill="white"/>
<path d="M113.452 30.5453C113.398 31.1245 113.096 31.964 111.806 31.9646C111.511 31.9653 109.914 31.9414 109.91 30.0126C109.907 28.4446 110.81 27.9257 111.761 27.9238C113.067 27.9213 113.364 28.7213 113.398 29.2678H112.704C112.661 28.9522 112.474 28.4992 111.762 28.5017C110.911 28.5023 110.653 29.1951 110.657 29.9844C110.658 30.8778 111.15 31.3893 111.837 31.3893C112.47 31.3874 112.74 30.9557 112.762 30.5478L113.452 30.5453Z" fill="white"/>
<path d="M114.159 28.6119L114.158 28.0334L117.254 28.0303L117.256 28.6069L116.056 28.6082L116.064 31.8427L115.364 31.8439L115.361 28.6088L114.159 28.6119Z" fill="white"/>
<path d="M120.018 28.0234C120.988 28.0228 121.181 28.5661 121.182 28.9847C121.182 29.4063 120.921 29.7389 120.55 29.8054V29.8148C120.867 29.8688 121.34 30.0852 121.34 30.7673C121.346 31.7304 120.521 31.8358 119.948 31.8364L118.226 31.8402L118.217 28.0266L120.018 28.0234ZM118.919 29.5726L119.841 29.5713C120.227 29.5701 120.462 29.4509 120.462 29.1183C120.458 28.6119 119.97 28.6 119.821 28.6L118.918 28.6026L118.919 29.5726ZM118.92 31.2604L119.877 31.2598C120.301 31.2567 120.623 31.1537 120.623 30.6907C120.621 30.1787 120.179 30.1479 119.89 30.1486L118.92 30.1498L118.92 31.2604Z" fill="white"/>
<path d="M124.195 27.9023C124.53 27.9023 126.067 27.9438 126.07 29.919C126.073 31.8974 124.537 31.9438 124.204 31.9438C123.87 31.9438 122.332 31.9018 122.329 29.9278C122.328 27.9494 123.863 27.9036 124.195 27.9023ZM124.203 31.3672C125.145 31.364 125.323 30.51 125.323 29.9215C125.321 29.3336 125.14 28.4778 124.198 28.4802C123.255 28.4815 123.078 29.3367 123.078 29.9259C123.078 30.5138 123.259 31.3672 124.203 31.3672Z" fill="white"/>
<path d="M34.9913 11.7445L29.1299 1.63183C28.6985 1.20265 28.1753 1.005 27.6617 1.07402C27.1498 1.14241 26.6996 1.47057 26.3932 1.99952L20.6221 12.0406C20.327 12.5545 20.2698 13.0251 20.4701 13.3664C20.666 13.7065 21.105 13.8922 21.6997 13.8916L33.2851 13.8646C33.8986 13.8646 34.4061 13.635 34.7213 13.2234C35.0346 12.8124 35.1213 12.2627 34.9913 11.7445Z" fill="white"/>
<path d="M9.25547 1.21819L9.13867 1.88078C9.15123 2.19137 9.25043 2.50447 9.42626 2.81066L15.2426 12.8229C15.5483 13.3475 15.9396 13.6367 16.3446 13.6367C16.7497 13.6348 17.1409 13.345 17.4423 12.8192L23.2134 2.77929C23.4118 2.4342 23.5098 2.06839 23.494 1.72329L23.376 1.18808C23.1851 0.723137 22.76 0.374273 22.1822 0.204861C22.0887 0.191685 10.5371 0.218038 10.5371 0.218038C9.87023 0.401881 9.44635 0.751996 9.25547 1.21819ZM16.3428 13.0011C16.2215 12.9998 16.0055 12.8706 15.7946 12.5054L9.97701 2.49066C9.85452 2.27984 9.78418 2.05898 9.77855 1.85506L9.84196 1.46102C9.95876 1.17616 10.2395 0.955919 10.6276 0.841099C10.6319 0.852393 22.0906 0.826663 22.0906 0.826663C22.3914 0.927682 22.6708 1.14792 22.7889 1.43278C22.7889 1.43404 22.8573 1.74839 22.8573 1.74839C22.8667 1.97427 22.8002 2.22275 22.6602 2.46368L16.8903 12.5016C16.6781 12.8694 16.462 12.9998 16.3428 13.0011Z" fill="white"/>
<path d="M5.92704 2.77607C5.87118 2.8476 0.120216 12.8498 0.120216 12.8498C0.086305 12.9357 0.0209961 13.5168 0.0209961 13.5168C0.0366954 13.87 0.14973 14.1932 0.351309 14.4542C0.672832 14.8733 1.19405 15.1042 1.81385 15.1017L13.4024 15.0754C14.0109 15.0741 14.4593 14.879 14.6584 14.5282C14.6584 14.527 14.7746 14.0099 14.7746 14.0099L14.4982 13.1686L8.6807 3.15819C8.37178 2.62172 7.90955 2.28855 7.38458 2.21827C6.88348 2.15301 6.36793 2.35066 5.92704 2.77607ZM6.4244 3.16196C6.66618 2.94486 6.99714 2.81059 7.30298 2.85012C7.6276 2.89216 7.92212 3.1149 8.1319 3.47694L13.9494 13.4892L14.1391 14.0375L14.1045 14.2126C14.0455 14.3187 13.8251 14.4397 13.4012 14.441L1.81385 14.4661C1.39437 14.4674 1.05338 14.3262 0.856198 14.0683C0.733745 13.9108 0.667179 13.7157 0.657757 13.4917C0.657757 13.4917 0.707369 13.0838 0.709253 13.0826C0.724323 13.0819 6.4244 3.16196 6.4244 3.16196Z" fill="white"/>
<path d="M0.487058 16.9537C0.255337 17.2517 0.145442 17.6313 0.161141 18.0423L0.22645 18.469C0.264129 18.5549 4.3428 25.583 4.3428 25.583L6.06092 28.537C6.55763 29.0315 7.07639 29.226 7.57435 29.1589C8.10181 29.0873 8.55835 28.7529 8.87046 28.2146L14.6384 18.1772C14.938 17.6589 14.9938 17.1626 14.7954 16.8169C14.5888 16.4649 14.1435 16.2729 13.5351 16.2754L1.94772 16.3011C1.32665 16.3024 0.80858 16.5333 0.487058 16.9537ZM0.797902 18.0178C0.788485 17.7549 0.855051 17.5209 0.993202 17.3408C1.19039 17.0817 1.53075 16.938 1.94898 16.9367L13.5382 16.9116C13.9633 16.9104 14.1819 17.0321 14.244 17.1369C14.261 17.1689 14.2723 17.2141 14.2767 17.2718C14.2811 17.4067 14.2346 17.6069 14.0889 17.8578L8.31598 27.897C8.10809 28.261 7.81488 28.485 7.4902 28.5283C7.1875 28.5697 6.85529 28.4335 6.5558 28.1493C6.55266 28.1217 4.89353 25.2618 4.89353 25.2618L0.812977 18.2362C0.847513 18.3215 0.797902 18.0178 0.797902 18.0178Z" fill="white"/>
<path d="M15.4255 18.4686L9.65444 28.5059C9.45604 28.851 9.35808 29.2168 9.37189 29.5606L9.48993 30.0965C9.6827 30.5627 10.1078 30.9115 10.69 31.0816C10.7785 31.0935 22.3288 31.0678 22.3288 31.0678C22.9976 30.882 23.4215 30.5313 23.6124 30.067L23.7292 29.4063C23.7166 29.0926 23.6186 28.7814 23.4403 28.4758L17.6259 18.4629C17.3201 17.9371 16.9289 17.6504 16.5238 17.6504C16.1181 17.6497 15.7282 17.9396 15.4255 18.4686ZM10.7773 30.4566C10.4746 30.3556 10.197 30.1354 10.079 29.8518L10.0093 29.5349C10.0017 29.3109 10.0664 29.0643 10.2077 28.8228L15.9788 18.7842C16.1897 18.4158 16.4058 18.2854 16.5251 18.2854C16.6463 18.2854 16.8604 18.4139 17.0746 18.7817L22.8908 28.7945C23.0133 29.0054 23.0836 29.2269 23.0912 29.4301C23.0912 29.4301 23.0246 29.8235 23.0246 29.8254C22.9065 30.1059 22.629 30.3261 22.2377 30.4429C22.2352 30.4322 10.7773 30.4566 10.7773 30.4566Z" fill="white"/>
<path d="M18.1471 16.7158C17.9436 17.0684 18.0027 17.5503 18.3073 18.0761L24.1217 28.0909C24.4337 28.6273 24.8947 28.9599 25.419 29.0282C25.9189 29.0916 26.4345 28.8953 26.8753 28.4749C26.9293 28.4027 32.6834 18.3955 32.6834 18.3955C32.7129 18.3114 32.7826 17.7298 32.7826 17.7298C32.7688 17.3778 32.6552 17.0521 32.4523 16.7911C32.1308 16.3707 31.6096 16.1423 30.9885 16.1436L19.4012 16.168C18.7946 16.1724 18.3474 16.3651 18.1471 16.7158ZM18.8567 17.7561C18.723 17.5264 18.6721 17.342 18.6658 17.2102C18.6627 17.1312 18.6765 17.0722 18.6966 17.032C18.7575 16.9291 18.9792 16.8074 19.4012 16.8055L30.9885 16.7792C31.4092 16.7792 31.7502 16.9216 31.9506 17.1782C32.0718 17.3382 32.1371 17.5315 32.1477 17.7561C32.1477 17.7561 32.0962 18.162 32.0962 18.1639C32.0793 18.1671 26.3792 28.0858 26.3792 28.0858C26.1368 28.2998 25.8046 28.4366 25.4994 28.3977C25.1748 28.3569 24.8815 28.1335 24.6724 27.7721L18.8567 17.7561Z" fill="white"/>
<mask id="mask2_372_3573" style="mask-type:luminance" maskUnits="userSpaceOnUse" x="0" y="0" width="127" height="32">
<path d="M126.222 0H0V32H126.222V0Z" fill="white"/>
</mask>
<g mask="url(#mask2_372_3573)">
<path d="M41.9372 16.5117L45.8212 25.6135L43.0286 25.6185L42.2882 24.1057L37.5508 24.1133L36.8136 25.6305L34.021 25.6342L37.8641 16.5205L41.9372 16.5117ZM39.7142 18.5547L38.4369 21.7541L41.3802 21.7496L40.0947 18.5547H39.7142Z" fill="white"/>
<path d="M53.9001 16.4902C55.0518 16.4902 56.292 16.6528 56.2951 19.0603C56.2983 20.0661 55.929 20.6929 55.5052 20.9219C56.2223 21.2896 56.5821 21.9641 56.5853 23.0716C56.5872 24.9333 55.8914 25.5958 54.1996 25.5977L46.973 25.6115L46.9585 16.5034L53.9001 16.4902ZM49.3523 19.9243L53.5911 19.918C53.9528 19.918 54.189 19.7511 54.1871 19.3062C54.1871 18.8488 53.9465 18.6945 53.5893 18.6951L49.3517 18.7026V19.9243H49.3523ZM49.3605 23.4022L53.502 23.396C53.9133 23.396 54.1946 23.1525 54.1946 22.7077C54.1933 22.0821 53.9089 21.9566 53.4994 21.9566L49.358 21.9629L49.3605 23.4022Z" fill="white"/>
<path d="M58.1392 16.4841L67.3828 16.4697L67.3881 18.8271L63.9653 18.8327L63.976 25.584L61.5854 25.5878L61.5748 18.8371L58.1411 18.8415L58.1392 16.4841Z" fill="white"/>
<path d="M74.5376 25.6946C69.5053 25.7028 69.4081 25.3965 69.3986 21.0276C69.3933 16.6712 69.4899 16.3405 74.5222 16.3312C79.5307 16.3242 79.6611 16.6549 79.6688 21.0113C79.6765 25.3539 79.5444 25.6864 74.5376 25.6946ZM74.5346 23.3373C77.2706 23.3341 77.2819 23.321 77.2771 21.0138C77.2724 18.6966 77.2635 18.6841 74.5358 18.6891C71.7998 18.6922 71.7885 18.7054 71.7903 21.0232C71.795 23.3303 71.8051 23.3416 74.5346 23.3373Z" fill="white"/>
<path d="M90.6094 19.9349L88.2153 19.9386C88.2153 18.9335 88.0198 18.6661 85.8361 18.6699C83.4876 18.6731 83.4782 18.7496 83.4811 21.004C83.4864 23.2711 83.4965 23.3225 85.8426 23.3193C87.9955 23.3162 88.2236 23.1242 88.2207 22.0418L90.6106 22.0356C90.6153 25.159 90.4654 25.6666 85.8473 25.6748C81.3389 25.683 81.0995 25.2871 81.093 20.9946C81.0847 16.7279 81.3223 16.3195 85.8337 16.3126C90.4073 16.3044 90.6041 16.8396 90.6094 19.9349Z" fill="white"/>
<path d="M92.3936 16.4291L101.642 16.4141L101.645 18.7714L98.2205 18.7777L98.2341 25.529L95.8424 25.5322L95.83 18.7808L92.3977 18.7852L92.3936 16.4291Z" fill="white"/>
<path d="M110.888 16.3975L114.771 25.4999L111.982 25.5042L111.236 23.9896L106.502 23.9971L105.765 25.5137L102.973 25.5181L106.816 16.4043L110.888 16.3975ZM108.665 18.4404L107.387 21.6392L110.332 21.6348L109.046 18.4379L108.665 18.4404Z" fill="white"/>
<path d="M116.148 16.3901L125.392 16.375L125.398 18.7317L121.975 18.738L121.985 25.4894L119.595 25.4925L119.585 18.743L116.15 18.7474L116.148 16.3901Z" fill="white"/>
<path d="M34.5387 31.9776L33.792 31.9789L35.2232 28.164L35.9215 28.1621L37.3665 31.9727L36.6198 31.9733L36.3422 31.1739L34.815 31.1751L34.5387 31.9776ZM36.1544 30.5973L35.5755 28.9038L34.9983 30.5979L36.1544 30.5973Z" fill="white"/>
<path d="M38.9353 31.9696H38.2402L38.2339 28.1591L38.9291 28.1578L38.9334 29.6825L40.6334 29.6813L40.6321 28.1559L41.3304 28.1553L41.3348 31.9658L40.6366 31.9671L40.6334 30.2573L38.9334 30.261L38.9353 31.9696Z" fill="white"/>
<path d="M42.954 31.963L42.2061 31.9636L43.6384 28.1481L44.3386 28.1475L45.7823 31.9586H45.0357L44.7562 31.1586L43.2321 31.1611L42.954 31.963ZM44.5716 30.5826L43.9907 28.8903L43.4149 30.5833L44.5716 30.5826Z" fill="white"/>
<path d="M46.1436 31.3787C46.9769 31.5243 46.9988 30.4125 46.9957 29.6407L46.9945 28.1423L49.6018 28.1367L49.6112 31.9503L48.9148 31.9516L48.9085 28.7152L47.6915 28.7171L47.6934 29.8446C47.6946 30.804 47.6017 32.1875 46.1441 31.956L46.1436 31.3787Z" fill="white"/>
<path d="M53.4735 28.1331L54.1567 28.1318L54.1611 31.9442L53.4627 31.9448L53.4584 29.1571L51.6486 31.9486L50.9672 31.9499L50.9609 28.1362L51.658 28.1343L51.6624 30.9246L53.4735 28.1331Z" fill="white"/>
<path d="M55.1182 28.7073V28.13L58.2147 28.125L58.2159 28.7029L57.0159 28.7054L57.0222 31.9387L56.3239 31.9412L56.3176 28.7054L55.1182 28.7073Z" fill="white"/>
<path d="M61.6912 28.1208L62.3745 28.1201L62.381 31.9307H61.6835L61.6794 29.1448L59.8678 31.9356H59.1876L59.1782 28.1252L59.8767 28.1239L59.8809 30.9123L61.6912 28.1208Z" fill="white"/>
<path d="M64.2828 28.1164L64.2858 29.1453C64.2858 29.5099 64.3077 29.7829 65.0887 29.781C65.3927 29.7797 65.7246 29.7471 65.7809 29.7408L65.7762 28.1126L66.4742 28.1113L66.4807 31.925L65.7845 31.9262L65.7809 30.32C65.5664 30.3356 65.2452 30.3576 65.0016 30.3576C64.1839 30.3601 63.5889 30.1587 63.5889 29.3029L63.5859 28.1164H64.2828Z" fill="white"/>
<path d="M70.4728 29.6763V30.2523L68.5327 30.2548L68.5345 31.346L70.7585 31.3422L70.7596 31.9188L67.837 31.9232L67.8311 28.1102L70.6933 28.1064L70.6951 28.683L68.5297 28.6856L68.5315 29.6763H70.4728Z" fill="white"/>
<path d="M75.0679 30.6091C75.0181 31.1863 74.7124 32.0265 73.4211 32.0278C73.126 32.0278 71.5289 32.0033 71.5254 30.0758C71.5242 28.5065 72.4285 27.9888 73.3772 27.9863C74.6845 27.9832 74.9796 28.7844 75.0146 29.3278L74.3218 29.3303C74.2756 29.0128 74.0889 28.5629 73.3767 28.5642C72.5263 28.5642 72.2697 29.2576 72.2715 30.0469C72.2727 30.9404 72.7651 31.4511 73.4495 31.4511C74.0848 31.448 74.3538 31.0188 74.3764 30.6103L75.0679 30.6091Z" fill="white"/>
<path d="M78.5309 28.0905L79.4672 28.0898L77.8897 29.6711L79.5774 31.8997L78.6405 31.9029L77.3795 30.141L76.8669 30.6373L76.8687 31.9054L76.1688 31.9073L76.1641 28.0949L76.8627 28.0936L76.8657 29.8085L78.5309 28.0905Z" fill="white"/>
<path d="M82.0956 27.9717C82.428 27.9704 83.9646 28.0112 83.9688 29.9877C83.9705 31.9654 82.434 32.0118 82.1003 32.0125C81.7679 32.0131 80.2295 31.9723 80.2295 29.9939C80.2248 28.0181 81.7643 27.9717 82.0956 27.9717ZM82.1009 31.4352C83.0443 31.4333 83.2227 30.5781 83.2209 29.9895C83.2197 29.4023 83.0384 28.5471 82.0956 28.5477C81.1522 28.5502 80.9756 29.406 80.9756 29.9933C80.9756 30.5819 81.1587 31.4358 82.1009 31.4352Z" fill="white"/>
<path d="M87.7453 29.6461V30.2221L85.8069 30.2258V31.3151L88.0321 31.3113V31.8886L85.1118 31.8929L85.1064 28.0812L87.9675 28.0762L87.9693 28.6528L85.8021 28.6566L85.8075 29.6486L87.7453 29.6461Z" fill="white"/>
<path d="M90.9819 31.883L90.2358 31.8849L91.6675 28.0699L92.3656 28.0693L93.8121 31.8786L93.0625 31.8798L92.7875 31.0805L91.2598 31.0811L90.9819 31.883ZM92.5985 30.5032L92.0184 28.811L91.4435 30.5057L92.5985 30.5032Z" fill="white"/>
<path d="M95.3809 31.8774L94.6822 31.878L94.6763 28.0669L97.1723 28.0625L97.174 28.6397L95.3749 28.6422L95.3809 31.8774Z" fill="white"/>
<path d="M100.775 29.6237L100.779 30.2003L98.8379 30.2034L98.839 31.2939L101.065 31.2902V31.8662L98.1439 31.8712L98.1362 28.06L100.999 28.0557V28.6316L98.8337 28.6354L98.8385 29.6267L100.775 29.6237Z" fill="white"/>
<path d="M102.751 31.8662L102.053 31.8669L102.046 28.0539L102.743 28.052L102.745 29.578L104.448 29.5742L104.443 28.0488H105.141L105.147 31.8606L104.449 31.8625L104.448 30.1515L102.746 30.1545L102.751 31.8662Z" fill="white"/>
<path d="M106.107 28.6221V28.0448L109.202 28.041V28.617L108.004 28.6208L108.008 31.8553L107.312 31.8559L107.307 28.6214H106.107V28.6221Z" fill="white"/>
<path d="M113.452 30.5453C113.398 31.1245 113.096 31.964 111.806 31.9646C111.511 31.9653 109.914 31.9414 109.91 30.0126C109.907 28.4446 110.81 27.9257 111.761 27.9238C113.067 27.9213 113.364 28.7213 113.398 29.2678H112.704C112.661 28.9522 112.474 28.4992 111.762 28.5017C110.911 28.5023 110.653 29.1951 110.657 29.9844C110.658 30.8778 111.15 31.3893 111.837 31.3893C112.47 31.3874 112.74 30.9557 112.762 30.5478L113.452 30.5453Z" fill="white"/>
<path d="M114.159 28.6119L114.158 28.0334L117.254 28.0303L117.256 28.6069L116.056 28.6082L116.064 31.8427L115.364 31.8439L115.361 28.6088L114.159 28.6119Z" fill="white"/>
<path d="M120.018 28.0234C120.989 28.0228 121.181 28.5661 121.183 28.9847C121.183 29.4063 120.922 29.7389 120.551 29.8054V29.8148C120.867 29.8688 121.341 30.0852 121.341 30.7673C121.346 31.7304 120.521 31.8358 119.949 31.8364L118.226 31.8402L118.218 28.0266L120.018 28.0234ZM118.919 29.5726L119.841 29.5713C120.228 29.5701 120.463 29.4509 120.463 29.1183C120.459 28.6119 119.97 28.6 119.821 28.6L118.918 28.6026L118.919 29.5726ZM118.921 31.2604L119.877 31.2598C120.302 31.2567 120.623 31.1537 120.623 30.6907C120.622 30.1787 120.179 30.1479 119.89 30.1486L118.92 30.1498L118.921 31.2604Z" fill="white"/>
<path d="M124.195 27.9023C124.53 27.9023 126.067 27.9438 126.07 29.919C126.073 31.8974 124.537 31.9438 124.204 31.9438C123.87 31.9438 122.332 31.9018 122.329 29.9278C122.328 27.9494 123.863 27.9036 124.195 27.9023ZM124.203 31.3672C125.145 31.364 125.323 30.51 125.323 29.9215C125.321 29.3336 125.14 28.4778 124.198 28.4802C123.255 28.4815 123.078 29.3367 123.078 29.9259C123.078 30.5138 123.259 31.3672 124.203 31.3672Z" fill="white"/>
<path d="M34.9913 11.7435L29.1299 1.63085C28.6985 1.20167 28.1753 1.00403 27.6617 1.07305C27.1498 1.14144 26.6996 1.4696 26.3932 1.99854L20.6221 12.0396C20.327 12.5535 20.2698 13.0241 20.4701 13.3654C20.666 13.7055 21.105 13.8912 21.6997 13.8906L33.2851 13.8636C33.8986 13.8636 34.4061 13.634 34.7213 13.2224C35.0346 12.8114 35.1213 12.2617 34.9913 11.7435Z" fill="white"/>
<path d="M9.25596 1.21819L9.13916 1.88078C9.15172 2.19137 9.25092 2.50447 9.42675 2.81066L15.243 12.8229C15.5488 13.3475 15.94 13.6367 16.3451 13.6367C16.7502 13.6348 17.1414 13.345 17.4428 12.8192L23.2139 2.77929C23.4123 2.4342 23.5102 2.06839 23.4945 1.72329L23.3765 1.18808C23.1856 0.723137 22.7605 0.374273 22.1827 0.204861C22.0891 0.191685 10.5376 0.218038 10.5376 0.218038C9.87072 0.401881 9.44683 0.751996 9.25596 1.21819ZM16.3432 13.0011C16.222 12.9998 16.006 12.8706 15.795 12.5054L9.9775 2.49066C9.85501 2.27984 9.78467 2.05898 9.77904 1.85506L9.84245 1.46102C9.95925 1.17616 10.24 0.955919 10.628 0.841099C10.6324 0.852393 22.091 0.826663 22.091 0.826663C22.3918 0.927682 22.6713 1.14792 22.7894 1.43278C22.7894 1.43404 22.8578 1.74839 22.8578 1.74839C22.8672 1.97427 22.8007 2.22275 22.6606 2.46368L16.8908 12.5016C16.6786 12.8694 16.4625 12.9998 16.3432 13.0011Z" fill="white"/>
<path d="M5.92704 2.77607C5.87118 2.8476 0.120216 12.8498 0.120216 12.8498C0.086305 12.9357 0.0209961 13.5168 0.0209961 13.5168C0.0366954 13.87 0.14973 14.1932 0.351309 14.4542C0.672832 14.8733 1.19405 15.1042 1.81385 15.1017L13.4024 15.0754C14.0109 15.0741 14.4593 14.879 14.6584 14.5282C14.6584 14.527 14.7746 14.0099 14.7746 14.0099L14.4982 13.1686L8.6807 3.15819C8.37178 2.62172 7.90955 2.28855 7.38458 2.21827C6.88348 2.15301 6.36793 2.35066 5.92704 2.77607ZM6.4244 3.16196C6.66618 2.94486 6.99714 2.81059 7.30298 2.85012C7.6276 2.89216 7.92212 3.1149 8.1319 3.47694L13.9494 13.4892L14.1391 14.0375L14.1045 14.2126C14.0455 14.3187 13.8251 14.4397 13.4012 14.441L1.81385 14.4661C1.39437 14.4674 1.05338 14.3262 0.856198 14.0683C0.733745 13.9108 0.667179 13.7157 0.657757 13.4917C0.657757 13.4917 0.707369 13.0838 0.709253 13.0826C0.724323 13.0819 6.4244 3.16196 6.4244 3.16196Z" fill="white"/>
<path d="M0.487058 16.9537C0.255337 17.2517 0.145442 17.6313 0.161141 18.0423L0.22645 18.469C0.264129 18.5549 4.3428 25.583 4.3428 25.583L6.06092 28.537C6.55763 29.0315 7.07639 29.226 7.57435 29.1589C8.10181 29.0873 8.55835 28.7529 8.87046 28.2146L14.6384 18.1772C14.938 17.6589 14.9938 17.1626 14.7954 16.8169C14.5888 16.4649 14.1435 16.2729 13.5351 16.2754L1.94772 16.3011C1.32665 16.3024 0.80858 16.5333 0.487058 16.9537ZM0.797902 18.0178C0.788485 17.7549 0.855051 17.5209 0.993202 17.3408C1.19039 17.0817 1.53075 16.938 1.94898 16.9367L13.5382 16.9116C13.9633 16.9104 14.1819 17.0321 14.244 17.1369C14.261 17.1689 14.2723 17.2141 14.2767 17.2718C14.2811 17.4067 14.2346 17.6069 14.0889 17.8578L8.31598 27.897C8.10809 28.261 7.81488 28.485 7.4902 28.5283C7.1875 28.5697 6.85529 28.4335 6.5558 28.1493C6.55266 28.1217 4.89353 25.2618 4.89353 25.2618L0.812977 18.2362C0.847513 18.3215 0.797902 18.0178 0.797902 18.0178Z" fill="white"/>
<path d="M15.4255 18.4686L9.65444 28.5059C9.45604 28.851 9.35808 29.2168 9.37189 29.5606L9.48993 30.0965C9.6827 30.5627 10.1078 30.9115 10.69 31.0816C10.7785 31.0935 22.3288 31.0678 22.3288 31.0678C22.9976 30.882 23.4215 30.5313 23.6124 30.067L23.7292 29.4063C23.7166 29.0926 23.6186 28.7814 23.4403 28.4758L17.6259 18.4629C17.3201 17.9371 16.9289 17.6504 16.5238 17.6504C16.1181 17.6497 15.7282 17.9396 15.4255 18.4686ZM10.7773 30.4566C10.4746 30.3556 10.197 30.1354 10.079 29.8518L10.0093 29.5349C10.0017 29.3109 10.0664 29.0643 10.2077 28.8228L15.9788 18.7842C16.1897 18.4158 16.4058 18.2854 16.5251 18.2854C16.6463 18.2854 16.8604 18.4139 17.0746 18.7817L22.8908 28.7945C23.0133 29.0054 23.0836 29.2269 23.0912 29.4301C23.0912 29.4301 23.0246 29.8235 23.0246 29.8254C22.9065 30.1059 22.629 30.3261 22.2377 30.4429C22.2352 30.4322 10.7773 30.4566 10.7773 30.4566Z" fill="white"/>
<path d="M18.1471 16.7158C17.9436 17.0684 18.0027 17.5503 18.3073 18.0761L24.1217 28.0909C24.4337 28.6273 24.8947 28.9599 25.419 29.0282C25.9189 29.0916 26.4345 28.8953 26.8753 28.4749C26.9293 28.4027 32.6834 18.3955 32.6834 18.3955C32.7129 18.3114 32.7826 17.7298 32.7826 17.7298C32.7688 17.3778 32.6552 17.0521 32.4523 16.7911C32.1308 16.3707 31.6096 16.1423 30.9885 16.1436L19.4012 16.168C18.7946 16.1724 18.3474 16.3651 18.1471 16.7158ZM18.8567 17.7561C18.723 17.5264 18.6721 17.342 18.6658 17.2102C18.6627 17.1312 18.6765 17.0722 18.6966 17.032C18.7575 16.9291 18.9792 16.8074 19.4012 16.8055L30.9885 16.7792C31.4092 16.7792 31.7502 16.9216 31.9506 17.1782C32.0718 17.3382 32.1371 17.5315 32.1477 17.7561C32.1477 17.7561 32.0962 18.162 32.0962 18.1639C32.0793 18.1671 26.3792 28.0858 26.3792 28.0858C26.1368 28.2998 25.8046 28.4366 25.4994 28.3977C25.1748 28.3569 24.8815 28.1335 24.6724 27.7721L18.8567 17.7561Z" fill="white"/>
</g>
</g>
</g>
</g>
<defs>
<clipPath id="clip0_372_3573">
<rect width="126.222" height="32" fill="white"/>
</clipPath>
</defs>
</svg>
