<svg width="185" height="41" viewBox="0 0 185 41" fill="none" xmlns="http://www.w3.org/2000/svg">
<path d="M116.635 22.9015L120.047 13.08L123.433 22.9015H116.635ZM117.999 9.46777L110.117 31.2137H113.757L115.592 25.9391H124.46L126.295 31.2137H129.999L122.117 9.46777H117.999Z" fill="black"/>
<path d="M147.096 18.5805H151.971V31.2136H155.137V18.5805H160.013V15.9604H147.096V18.5805Z" fill="black"/>
<path d="M169.033 28.689C166.405 28.689 164.286 26.4175 164.286 23.6021C164.286 20.7866 166.405 18.4845 169.033 18.4845C171.661 18.4845 173.784 20.7828 173.784 23.6021C173.784 26.4214 171.661 28.689 169.033 28.689ZM169.033 15.6078C167.475 15.6244 165.958 16.106 164.67 16.9921C163.382 17.8782 162.383 19.1292 161.798 20.5877C161.212 22.0462 161.067 23.647 161.38 25.1887C161.693 26.7305 162.45 28.1444 163.556 29.2525C164.663 30.3606 166.068 31.1134 167.597 31.4162C169.126 31.719 170.709 31.5583 172.147 30.9544C173.586 30.3504 174.816 29.3302 175.682 28.0219C176.547 26.7136 177.012 25.1758 177.014 23.6021C177.015 22.5462 176.808 21.5008 176.407 20.5262C176.005 19.5515 175.416 18.6669 174.674 17.9236C173.932 17.1802 173.051 16.5928 172.083 16.1953C171.115 15.7978 170.078 15.5981 169.033 15.6078Z" fill="black"/>
<path d="M139.907 28.7503H135.54V24.6286H139.907C141.423 24.6286 142.375 25.3948 142.375 26.7048C142.375 28.0149 141.428 28.7503 139.907 28.7503ZM135.54 18.4078H139.593C141.174 18.4078 142.031 19.1395 142.031 20.3231C142.031 21.5068 141.174 22.2767 139.593 22.2767H135.54V18.4078ZM143.202 23.2688C143.808 22.9483 144.315 22.4652 144.667 21.8725C145.018 21.2798 145.202 20.6006 145.196 19.9094C145.196 17.5728 143.706 15.9448 139.812 15.9448H132.374V31.2134H140.002C143.706 31.2134 145.606 29.233 145.606 26.77C145.628 26.0053 145.406 25.2536 144.974 24.626C144.541 23.9982 143.92 23.5278 143.202 23.2841" fill="black"/>
<path d="M15.2541 17.5845C13.7084 17.5838 12.1973 18.0462 10.9117 18.9132C9.62617 19.7802 8.62398 21.0129 8.03196 22.4554C7.43992 23.8979 7.28464 25.4855 7.58573 27.0171C7.88681 28.5487 8.63075 29.9559 9.72348 31.0603C10.8161 32.1648 12.2085 32.9171 13.7245 33.222C15.2404 33.527 16.8118 33.3709 18.2399 32.7735C19.668 32.176 20.8886 31.1641 21.7474 29.8657C22.6062 28.5674 23.0646 27.0408 23.0646 25.4792C23.0646 23.3861 22.2418 21.3786 20.7771 19.8982C19.3126 18.4177 17.3259 17.5855 15.2541 17.5845Z" fill="#04E061"/>
<path d="M26.9738 21.8058C28.2307 21.8065 29.4597 21.4306 30.5052 20.7257C31.5507 20.0208 32.3658 19.0184 32.8473 17.8453C33.3289 16.6722 33.4552 15.3813 33.2105 14.1357C32.9657 12.8901 32.3608 11.7458 31.4722 10.8475C30.5837 9.94929 29.4514 9.33749 28.2186 9.08946C26.9859 8.84144 25.708 8.96834 24.5467 9.45415C23.3853 9.93995 22.3926 10.7628 21.6942 11.8186C20.9959 12.8745 20.623 14.1159 20.623 15.3858C20.6261 17.0869 21.2959 18.7175 22.4862 19.9208C23.6764 21.124 25.29 21.8017 26.9738 21.8058Z" fill="#00AAFF"/>
<path d="M28.8086 22.836C27.8744 22.836 26.9609 23.1159 26.1841 23.6403C25.4071 24.1648 24.8016 24.9102 24.4441 25.7824C24.0865 26.6544 23.993 27.6141 24.1752 28.54C24.3575 29.4658 24.8075 30.3162 25.4681 30.9838C26.1288 31.6512 26.9706 32.1058 27.887 32.29C28.8034 32.4741 29.7533 32.3796 30.6165 32.0184C31.4798 31.6571 32.2176 31.0454 32.7367 30.2605C33.2558 29.4756 33.5328 28.5528 33.5328 27.6088C33.5344 26.9816 33.4132 26.3603 33.1763 25.7806C32.9394 25.2008 32.5915 24.674 32.1525 24.2305C31.7136 23.7871 31.1921 23.4355 30.6183 23.1962C30.0445 22.9568 29.4295 22.8344 28.8086 22.836Z" fill="#FF4053"/>
<path d="M16.748 16.5542C17.3262 16.5542 17.8913 16.3809 18.3721 16.0564C18.8527 15.7319 19.2274 15.2706 19.4487 14.731C19.6699 14.1913 19.7278 13.5975 19.6151 13.0247C19.5023 12.4518 19.2239 11.9255 18.815 11.5125C18.4062 11.0994 17.8854 10.8182 17.3183 10.7042C16.7512 10.5903 16.1635 10.6487 15.6293 10.8723C15.0951 11.0958 14.6386 11.4743 14.3174 11.96C13.9961 12.4457 13.8247 13.0167 13.8247 13.6008C13.8247 14.384 14.1327 15.1352 14.6809 15.6891C15.2292 16.243 15.9727 16.5542 16.748 16.5542Z" fill="#965EEB"/>
<path d="M94.8532 27.4364C94.103 27.4364 93.3696 27.2117 92.7464 26.7908C92.1231 26.3699 91.6366 25.7717 91.3498 25.0717C91.063 24.3718 90.9875 23.6016 91.134 22.8586C91.2805 22.1155 91.6419 21.433 92.1719 20.8972C92.702 20.3616 93.3776 19.9967 94.1128 19.849C94.8488 19.7011 95.6114 19.777 96.304 20.0669C96.9965 20.3568 97.5887 20.8478 98.0051 21.4778C98.4224 22.1076 98.6443 22.8482 98.6443 23.6058C98.6443 24.1089 98.5466 24.607 98.3558 25.0717C98.1649 25.5365 97.8861 25.9587 97.5336 26.3145C97.182 26.6701 96.7639 26.9523 96.304 27.1448C95.8441 27.3373 95.3504 27.4364 94.8532 27.4364ZM94.8532 15.6958C93.3075 15.6958 91.7964 16.1588 90.5117 17.0263C89.2261 17.8938 88.2248 19.1267 87.6334 20.5693C87.042 22.0119 86.8872 23.5993 87.1887 25.1307C87.4902 26.6621 88.2345 28.0689 89.3273 29.173C90.4202 30.277 91.8123 31.029 93.3288 31.3336C94.8443 31.6382 96.4158 31.4818 97.8435 30.8843C99.2711 30.2868 100.492 29.2749 101.35 27.9766C102.209 26.6783 102.667 25.152 102.667 23.5906C102.667 22.5538 102.465 21.5272 102.072 20.5693C101.68 19.6115 101.104 18.7412 100.378 18.0081C99.6529 17.275 98.7917 16.6935 97.8435 16.2968C96.8953 15.9 95.8787 15.6958 94.8532 15.6958Z" fill="black"/>
<path d="M61.7948 25.6169L58.2308 15.9717H54.0146L59.7588 31.2095H63.937L69.575 15.9717H65.3626L61.7948 25.6169Z" fill="black"/>
<path d="M82.8261 11.9229H78.8185V15.9717H76.4753V19.6107H78.8185V26.0958C78.8185 29.7693 80.8204 31.3475 83.6412 31.3475C84.5973 31.3621 85.5461 31.1769 86.428 30.8036V27.0228C85.9494 27.2004 85.4441 27.2936 84.9341 27.2986C83.7095 27.2986 82.8261 26.8159 82.8261 25.1688V19.6107H86.428V15.9717H82.8261V11.9229Z" fill="black"/>
<path d="M72.8697 8.96969C72.1132 8.99723 71.3967 9.32024 70.8711 9.87071C70.3455 10.4212 70.0518 11.1562 70.0518 11.9211C70.0518 12.686 70.3455 13.421 70.8711 13.9715C71.3967 14.522 72.1132 14.845 72.8697 14.8726C73.2622 14.8868 73.6535 14.8211 74.0202 14.6792C74.387 14.5373 74.7218 14.3222 75.0044 14.0467C75.2871 13.7712 75.5119 13.441 75.6655 13.0759C75.819 12.7106 75.8982 12.3179 75.8982 11.9211C75.8982 11.5243 75.819 11.1316 75.6655 10.7664C75.5119 10.4012 75.2871 10.071 75.0044 9.79552C74.7218 9.52004 74.387 9.30494 74.0202 9.16306C73.6535 9.02116 73.2622 8.9554 72.8697 8.96969Z" fill="black"/>
<path d="M74.8751 15.9717H70.8674V31.2134H74.8751V15.9717Z" fill="black"/>
<path d="M43.2239 22.7023L46.1131 15.0719L48.9757 22.7023H43.2239ZM43.8381 9.52148L35.603 31.2138H40.0201L41.7263 26.6862H50.4467L52.1453 31.2138H56.5283L48.3424 9.52148H43.8381Z" fill="black"/>
</svg>
