<svg width="46" height="48" viewBox="0 0 46 48" fill="none" xmlns="http://www.w3.org/2000/svg">
<path d="M45.7953 23.1681V24.8346C45.7953 25.7551 45.07 26.5013 44.1749 26.5013H25.5387V45.6681C25.5387 46.5883 24.8131 47.3346 23.9181 47.3346H22.2977C21.4027 47.3346 20.6771 46.5883 20.6771 45.6681V26.5013H2.04095C1.14596 26.5013 0.42041 25.7551 0.42041 24.8346V23.1681C0.42041 22.2476 1.14596 21.5013 2.04095 21.5013H20.6771V2.33462C20.6771 1.41414 21.4027 0.667969 22.2977 0.667969H23.9181C24.8131 0.667969 25.5387 1.41414 25.5387 2.33462V21.5013H44.1749C45.07 21.5013 45.7953 22.2476 45.7953 23.1681Z" fill="#07213E"/>
</svg>
