<svg width="40" height="41" viewBox="0 0 40 41" fill="none" xmlns="http://www.w3.org/2000/svg">
<g clip-path="url(#clip0_349_5874)">
<path d="M12.9158 21.8606L30.9289 10.7663C31.2527 10.5675 31.5857 11.0052 31.3077 11.2631L16.4417 25.0818C15.9192 25.5682 15.5821 26.2192 15.4866 26.9258L14.9802 30.6786C14.9132 31.1797 14.2093 31.2294 14.071 30.7444L12.1234 23.9011C11.9004 23.1204 12.2254 22.2868 12.9158 21.8606Z" fill="#E4E4E4"/>
<path d="M0.706484 20.2517L9.9233 23.6917L13.4908 35.1647C13.7191 35.8995 14.6176 36.1711 15.214 35.6835L20.3516 31.4953C20.8901 31.0564 21.6572 31.0345 22.22 31.4431L31.4865 38.1707C32.1244 38.6345 33.0283 38.2849 33.1883 37.5139L39.9765 4.86176C40.1512 4.01965 39.3237 3.31707 38.5218 3.62723L0.695703 18.2193C-0.237736 18.5793 -0.229611 19.9009 0.706484 20.2517ZM12.9159 21.8605L30.929 10.7662C31.2527 10.5674 31.5858 11.0051 31.3078 11.263L16.4417 25.0817C15.9192 25.5681 15.5821 26.2191 15.4867 26.9256L14.9803 30.6785C14.9132 31.1795 14.2093 31.2292 14.071 30.7443L12.1235 23.9009C11.9004 23.1203 12.2255 22.2866 12.9159 21.8605Z" fill="white"/>
</g>
<defs>
<clipPath id="clip0_349_5874">
<rect width="40" height="40" fill="white" transform="translate(0 0.96582)"/>
</clipPath>
</defs>
</svg>
