<svg width="23" height="24" viewBox="0 0 23 24" fill="none" xmlns="http://www.w3.org/2000/svg">
<path d="M22.8977 11.584V12.4173C22.8977 12.8775 22.535 13.2507 22.0875 13.2507H12.7694V22.834C12.7694 23.2942 12.4066 23.6673 11.959 23.6673H11.1489C10.7013 23.6673 10.3385 23.2942 10.3385 22.834V13.2507H1.02048C0.572979 13.2507 0.210205 12.8775 0.210205 12.4173V11.584C0.210205 11.1238 0.572979 10.7507 1.02048 10.7507H10.3385V1.16731C10.3385 0.707072 10.7013 0.333984 11.1489 0.333984H11.959C12.4066 0.333984 12.7694 0.707072 12.7694 1.16731V10.7507H22.0875C22.535 10.7507 22.8977 11.1238 22.8977 11.584Z" fill="white"/>
</svg>
