<svg width="203" height="60" viewBox="0 0 203 60" fill="none" xmlns="http://www.w3.org/2000/svg">
<path d="M70.3779 21.2913H76.6034L81.3661 35.7792H76.2931L75.6036 33.3646H70.7621L70.0726 35.7792H65.6152L70.3779 21.2913ZM71.6092 30.217H74.6037L73.1459 24.9461L71.6092 30.217ZM82.9027 21.2913H90.1231C91.8912 21.2913 93.1964 21.6577 94.0436 22.3154C94.8907 22.9731 95.2749 23.9267 95.2749 25.0965V25.1716C95.2749 26.8534 94.4277 27.8775 92.6645 28.3191C93.5855 28.4648 94.3538 28.8312 94.8907 29.4184C95.4275 30.0056 95.7378 30.7338 95.7378 31.6874V31.7626C95.7378 34.4685 93.8958 35.7886 90.128 35.7886H82.9815V21.3007H82.9027V21.2913ZM89.1282 32.7069C90.3595 32.7069 90.9702 32.1948 90.9702 31.1707V31.0955C90.9702 30.1466 90.3546 29.6345 89.0494 29.6345H87.5915V32.7069H89.1282ZM89.1282 26.9286C89.7438 26.9286 90.128 26.8534 90.4334 26.6373C90.6649 26.4165 90.8175 26.1253 90.8175 25.6837V25.6085C90.8175 24.73 90.2807 24.2931 89.1282 24.2931H87.6703V26.9286H89.1282ZM100.348 24.8052H96.5062V21.2913H109.031V24.8052H105.189V35.7792H100.348V24.8052ZM117.714 32.4156C118.635 32.4156 119.403 32.0492 119.94 31.3915C120.477 30.7338 120.787 29.7801 120.787 28.6104V28.4648C120.787 27.2199 120.482 26.3414 119.94 25.6837C119.403 25.026 118.635 24.7347 117.635 24.7347C116.714 24.7347 115.946 25.026 115.409 25.6837C114.872 26.3414 114.562 27.295 114.562 28.4648V28.6104C114.562 29.8553 114.867 30.8043 115.409 31.462C115.946 32.0492 116.714 32.4109 117.714 32.4109V32.4156ZM117.561 36C115.104 36 113.104 35.3423 111.72 33.9518C110.262 32.5612 109.568 30.8043 109.568 28.5352V28.3896C109.568 26.1957 110.336 24.4388 111.873 23.0482C113.409 21.6577 115.33 21 117.714 21C120.098 21 122.093 21.6577 123.629 22.9778C125.166 24.2931 125.934 26.0501 125.934 28.3191V28.4648C125.934 30.7338 125.166 32.5612 123.708 33.9518C122.093 35.3423 120.098 36 117.561 36ZM132.697 29.1929C132.544 30.5835 132.312 31.5324 132.007 32.1948H136.154V24.8052H133.002C132.77 27.2199 132.697 28.6809 132.697 29.1976V29.1929ZM126.087 35.7792V32.2653H127.087C127.855 31.8988 128.392 30.7996 128.623 28.8265C128.776 27.8024 128.776 25.3126 128.776 21.2913H140.917V32.27H142.764V35.7839H126.092L126.087 35.7792ZM144.064 35.7792V21.2913H148.905V29.6345L153.747 21.2913H158.51V35.7792H153.747V27.2903L148.905 35.704H144.064V35.7792ZM166.651 30.2922C166.42 32.1948 165.961 33.5853 165.193 34.5343C164.504 35.4879 163.351 36 161.888 36H161.351C161.199 36 161.046 35.9295 160.889 35.9295C160.731 35.9295 160.657 35.8544 160.583 35.8544C160.509 35.8544 160.43 35.7792 160.352 35.7792L160.273 35.704V32.1901L160.426 32.2653C160.578 32.2653 160.731 32.3357 160.889 32.3357C161.351 32.3357 161.736 32.0445 162.041 31.5324C162.272 31.0204 162.504 30.217 162.657 29.1178C162.809 27.6521 162.888 25.0918 162.888 21.2161H174.797V35.704H169.882V24.73H166.961C166.882 27.3655 166.809 29.1929 166.656 30.2922H166.651ZM177.486 21.2913H188.322V24.8052H182.328V26.8534H187.091V30.0714H182.328V32.2653H188.706V35.7792H177.565V21.2913H177.486ZM190.701 21.2913H196.774C200.921 21.2913 202.999 22.9731 202.999 26.2662V26.3414C202.999 27.8775 202.462 29.0473 201.462 29.8553C200.463 30.6586 198.926 31.1002 196.931 31.1002H195.473V35.8544H190.632V21.2913H190.711H190.701ZM196.463 27.9527C197.769 27.9527 198.384 27.4407 198.384 26.3414V26.2662C198.384 25.679 198.231 25.3173 197.921 25.0965C197.616 24.8757 197.153 24.73 196.463 24.73H195.464V28.0232H196.463V27.9527Z" fill="#07213E"/>
<path d="M42.2329 31.6863L37.8182 33.2753L40.0284 37.5757L46.3628 34.4921L50.4927 37.4812L56.1549 34.6754L20.0626 8.78415V52.4326L25.7248 49.6268V44.5819L32.4409 41.3094L30.3275 37.2923L25.6223 40.2815V19.5296L42.2272 31.6807L42.2329 31.6863ZM30.8117 57.1108C38.4904 57.1108 45.4969 54.1217 50.487 49.1657C53.939 45.7987 56.5308 41.5038 57.7783 36.7367L50.1965 40.476L46.0723 37.5813L28.4135 46.271V51.3159L27.6445 51.6881L20.4443 55.144C23.6115 56.4497 27.1603 57.1053 30.8117 57.1053V57.1108ZM58.4505 33.092C58.5473 32.0641 58.6442 31.0362 58.6442 30.0083C58.6442 22.5299 55.5738 15.707 50.487 10.8454C45.4969 5.98389 38.4904 2.90027 30.8117 2.90027C26.8755 2.90027 23.0361 3.73924 19.5841 5.23937L58.4562 33.092H58.4505ZM17.2771 6.35614C14.9758 7.57292 12.9593 9.06751 11.1364 10.8399C6.14639 15.7015 2.97921 22.5243 2.97921 30.0028C2.97921 37.4813 6.04955 44.3041 11.1364 49.1657C12.9593 50.9436 14.9758 52.4382 17.2771 53.6494V6.35614ZM61.236 35.0477C60.1822 41.3094 57.015 46.9155 52.6003 51.2159C47.035 56.6386 39.3563 60 30.8117 60C22.2671 60 14.5941 56.633 9.02306 51.2159C3.4577 45.7931 0 38.3202 0 29.9972C0 21.6742 3.4577 14.2013 9.02306 8.77859C14.5884 3.36698 22.364 0 30.8117 0C39.2594 0 47.0293 3.36698 52.6003 8.78415C58.1657 14.2069 61.6234 21.6798 61.6234 30.0028C61.6234 31.7807 61.5265 33.4587 61.2417 35.0477H61.236Z" fill="#00AAFF"/>
<path d="M32.5369 35.7973L28.5039 38.4142V21.7793L42.2265 31.6858L37.7149 33.2748L40.6885 38.8809L35.5048 41.4033L32.5312 35.7973H32.5369Z" fill="#07213E"/>
<path d="M65.6217 40.2085H75.1264V43.5264H70.0876V53.8881H65.6172V40.2085H65.6217ZM83.2167 50.7787C84.0671 50.7787 84.7766 50.4327 85.2723 49.8117C85.768 49.1907 86.0545 48.2903 86.0545 47.1858V47.0483C86.0545 45.8728 85.7725 45.0434 85.2723 44.4224C84.7766 43.8014 84.0671 43.5219 83.1439 43.5219C82.2935 43.5219 81.5841 43.7969 81.0884 44.4224C80.5927 45.0434 80.3062 45.9438 80.3062 47.0483V47.1858C80.3062 48.3612 80.5881 49.2572 81.0884 49.8782C81.5841 50.4327 82.2935 50.7742 83.2167 50.7742V50.7787ZM83.0757 54.1631C80.8064 54.1631 78.9601 53.5421 77.6822 52.2291C76.3361 50.9162 75.6948 49.2572 75.6948 47.1148V46.9773C75.6948 44.9059 76.4043 43.2469 77.8232 41.934C79.242 40.621 81.0156 40 83.2167 40C85.4178 40 87.2596 40.621 88.6785 41.8674C90.0973 43.1094 90.8068 44.7683 90.8068 46.9108V47.0483C90.8068 49.1907 90.0973 50.9162 88.7512 52.2291C87.1914 53.5421 85.345 54.1631 83.0757 54.1631ZM96.9825 47.7358C96.8416 49.0488 96.6278 49.9492 96.3459 50.5702H100.175V43.5929H97.2645C97.1235 45.8728 97.0507 47.2568 96.9825 47.7402V47.7358ZM90.8795 53.8836V50.5658H91.8027C92.5122 50.2198 93.0079 49.1818 93.2216 47.3188C93.3626 46.3519 93.3626 44.001 93.3626 40.204H104.573V50.5658H106.273V53.8836H90.8795ZM111.171 40.204H116.92L121.317 53.8836H116.633L115.996 51.6037H111.526L110.889 53.8836H106.774L111.171 40.204ZM112.376 48.7028H115.141L113.795 43.7304L112.376 48.7028Z" fill="#07213E"/>
<path d="M166.738 53.2879V50.7533H160.738V48.461L166.967 40.2422H170.177V47.9951H171.629V50.7533H170.177V53.2879H166.738ZM163.815 47.9951H166.738V43.9509L163.815 47.9951Z" fill="#00AAFF"/>
<path d="M149.172 53.288V50.9025L153.605 47.3242C154.038 46.9763 154.407 46.6657 154.713 46.3924C155.019 46.1066 155.267 45.8395 155.458 45.591C155.662 45.3425 155.808 45.1065 155.898 44.8828C156 44.6468 156.051 44.4045 156.051 44.156C156.051 43.7211 155.923 43.3857 155.668 43.1496C155.426 42.9135 155.076 42.7955 154.617 42.7955C154.006 42.7955 153.547 42.9757 153.242 43.336C152.949 43.6963 152.802 44.2492 152.802 44.9946H149.363C149.363 44.1995 149.471 43.4913 149.688 42.8701C149.904 42.2488 150.229 41.727 150.662 41.3046C151.108 40.8821 151.656 40.5591 152.305 40.3355C152.968 40.1118 153.739 40 154.617 40C155.445 40 156.159 40.1056 156.757 40.3168C157.369 40.5156 157.878 40.8014 158.286 41.1741C158.694 41.5344 158.993 41.9693 159.184 42.4787C159.388 42.9881 159.49 43.5472 159.49 44.156C159.49 44.6033 159.407 45.0319 159.241 45.4419C159.089 45.8519 158.866 46.2495 158.573 46.6347C158.292 47.0198 157.955 47.3926 157.56 47.7529C157.165 48.1132 156.738 48.4673 156.28 48.8152L153.968 50.5297H159.681V53.288H149.172Z" fill="#00AAFF"/>
<path d="M142.477 53.5303C141.725 53.5303 141.025 53.4122 140.375 53.1762C139.726 52.9277 139.159 52.5363 138.675 52.0021C138.191 51.4678 137.808 50.772 137.528 49.9147C137.261 49.045 137.127 47.9952 137.127 46.7651V46.3924C137.127 45.2493 137.261 44.274 137.528 43.4664C137.808 42.6588 138.191 42.0003 138.675 41.4909C139.159 40.9691 139.726 40.5902 140.375 40.3541C141.025 40.118 141.725 40 142.477 40C143.229 40 143.929 40.118 144.579 40.3541C145.228 40.5902 145.795 40.9691 146.279 41.4909C146.763 42.0003 147.139 42.6588 147.407 43.4664C147.687 44.274 147.827 45.2493 147.827 46.3924V46.7651C147.827 47.9952 147.687 49.045 147.407 49.9147C147.139 50.772 146.763 51.4678 146.279 52.0021C145.795 52.5363 145.228 52.9277 144.579 53.1762C143.929 53.4122 143.229 53.5303 142.477 53.5303ZM142.477 50.772C142.732 50.772 142.974 50.7099 143.203 50.5857C143.445 50.4614 143.649 50.2502 143.815 49.952C143.993 49.6414 144.133 49.2314 144.235 48.722C144.337 48.2002 144.388 47.5479 144.388 46.7651V46.3924C144.388 45.6966 144.337 45.1189 144.235 44.6592C144.133 44.1995 143.993 43.8267 143.815 43.541C143.649 43.2552 143.445 43.0564 143.203 42.9446C142.974 42.8204 142.732 42.7582 142.477 42.7582C142.222 42.7582 141.974 42.8204 141.732 42.9446C141.503 43.0564 141.299 43.2552 141.12 43.541C140.955 43.8267 140.821 44.1995 140.719 44.6592C140.617 45.1189 140.566 45.6966 140.566 46.3924V46.7651C140.566 47.5479 140.617 48.2002 140.719 48.722C140.821 49.2314 140.955 49.6414 141.12 49.952C141.299 50.2502 141.503 50.4614 141.732 50.5857C141.974 50.7099 142.222 50.772 142.477 50.772Z" fill="#00AAFF"/>
<path d="M125.082 53.288V50.9025L129.515 47.3242C129.948 46.9763 130.317 46.6657 130.623 46.3924C130.929 46.1066 131.177 45.8395 131.368 45.591C131.572 45.3425 131.719 45.1065 131.808 44.8828C131.91 44.6468 131.961 44.4045 131.961 44.156C131.961 43.7211 131.833 43.3857 131.579 43.1496C131.337 42.9135 130.986 42.7955 130.528 42.7955C129.916 42.7955 129.458 42.9757 129.152 43.336C128.859 43.6963 128.712 44.2492 128.712 44.9946H125.273C125.273 44.1995 125.381 43.4913 125.598 42.8701C125.814 42.2488 126.139 41.727 126.572 41.3046C127.018 40.8821 127.566 40.5591 128.216 40.3355C128.878 40.1118 129.649 40 130.528 40C131.356 40 132.069 40.1056 132.668 40.3168C133.279 40.5156 133.789 40.8014 134.196 41.1741C134.604 41.5344 134.903 41.9693 135.094 42.4787C135.298 42.9881 135.4 43.5472 135.4 44.156C135.4 44.6033 135.317 45.0319 135.152 45.4419C134.999 45.8519 134.776 46.2495 134.483 46.6347C134.203 47.0198 133.865 47.3926 133.47 47.7529C133.075 48.1132 132.649 48.4673 132.19 48.8152L129.878 50.5297H135.591V53.288H125.082Z" fill="#00AAFF"/>
<path d="M79.7141 6.18652L81.1693 9.59678L80.123 9.59865L79.8456 9.03185L78.0706 9.03466L77.7944 9.60313L76.748 9.60453L78.188 6.18981L79.7141 6.18652ZM78.8812 6.95198L78.4026 8.15073L79.5054 8.14907L79.0237 6.95198H78.8812Z" fill="#07213E"/>
<path d="M84.1927 6.17969C84.6242 6.17969 85.0889 6.24059 85.09 7.14264C85.0912 7.5195 84.9529 7.75434 84.7941 7.84016C85.0628 7.97793 85.1976 8.23064 85.1988 8.64558C85.1995 9.34312 84.9388 9.59137 84.3049 9.59206L81.5972 9.59723L81.5918 6.18464L84.1927 6.17969ZM82.4887 7.46636L84.0769 7.46401C84.2124 7.46401 84.3009 7.40146 84.3002 7.23479C84.3002 7.0634 84.2101 7.00558 84.0762 7.0058L82.4885 7.00862V7.46636H82.4887ZM82.4918 8.76947L84.0435 8.76712C84.1976 8.76712 84.303 8.67591 84.303 8.50923C84.3025 8.27485 84.196 8.22782 84.0425 8.22782L82.4908 8.23018L82.4918 8.76947Z" fill="#07213E"/>
<path d="M85.7832 6.17629L89.2466 6.1709L89.2486 7.05414L87.9661 7.05625L87.9701 9.58584L87.0745 9.58726L87.0705 7.0579L85.7839 7.05954L85.7832 6.17629Z" fill="#07213E"/>
<path d="M91.9275 9.62649C90.042 9.62955 90.0056 9.51481 90.002 7.87788C90 6.2456 90.0362 6.12171 91.9217 6.1182C93.7983 6.1156 93.8472 6.2395 93.8501 7.87175C93.8529 9.49882 93.8034 9.62343 91.9275 9.62649ZM91.9264 8.74325C92.9515 8.74207 92.9557 8.73714 92.9539 7.8727C92.9522 7.00449 92.9488 6.9998 91.9268 7.00167C90.9017 7.00285 90.8975 7.0078 90.8981 7.87621C90.8999 8.74065 90.9037 8.74489 91.9264 8.74325Z" fill="#07213E"/>
<path d="M97.9505 7.46856L97.0534 7.46996C97.0534 7.09334 96.9802 6.99319 96.162 6.99461C95.2821 6.99578 95.2785 7.02447 95.2796 7.86915C95.2816 8.71856 95.2854 8.73783 96.1644 8.73665C96.9711 8.73547 97.0566 8.66354 97.0554 8.25799L97.9509 8.25564C97.9527 9.42593 97.8965 9.61612 96.1662 9.61918C94.477 9.62225 94.3873 9.47391 94.3848 7.86562C94.3817 6.26698 94.4708 6.11394 96.1611 6.11136C97.8747 6.1083 97.9485 6.30884 97.9505 7.46856Z" fill="#07213E"/>
<path d="M98.6191 6.15603L102.084 6.15039L102.086 7.03364L100.802 7.03599L100.807 9.56558L99.9114 9.56676L99.9067 7.03717L98.6207 7.03881L98.6191 6.15603Z" fill="#07213E"/>
<path d="M105.546 6.14453L107.001 9.55501L105.956 9.55666L105.676 8.98914L103.903 8.99196L103.626 9.56019L102.58 9.56183L104.02 6.14711L105.546 6.14453ZM104.713 6.90999L104.234 8.1085L105.337 8.10685L104.855 6.90906L104.713 6.90999Z" fill="#07213E"/>
<path d="M107.52 6.14041L110.983 6.13477L110.985 7.01779L109.703 7.02012L109.707 9.54973L108.811 9.55091L108.807 7.02201L107.52 7.02365L107.52 6.14041Z" fill="#07213E"/>
<path d="M76.9399 11.9814L76.6602 11.9818L77.1964 10.5525L77.458 10.5518L77.9994 11.9795L77.7197 11.9797L77.6157 11.6802L77.0435 11.6807L76.9399 11.9814ZM77.5453 11.4642L77.3284 10.8297L77.1121 11.4644L77.5453 11.4642Z" fill="#07213E"/>
<path d="M78.587 11.978H78.3266L78.3242 10.5502L78.5847 10.5498L78.5863 11.1211L79.2233 11.1206L79.2228 10.5491L79.4844 10.5488L79.4861 11.9766L79.2244 11.977L79.2233 11.3364L78.5863 11.3378L78.587 11.978Z" fill="#07213E"/>
<path d="M80.0927 11.9765L79.8125 11.9767L80.3492 10.5471L80.6115 10.5469L81.1525 11.9748H80.8727L80.768 11.6751L80.1969 11.676L80.0927 11.9765ZM80.6988 11.4593L80.4812 10.8252L80.2654 11.4595L80.6988 11.4593Z" fill="#07213E"/>
<path d="M81.2871 11.7567C81.5993 11.8113 81.6076 11.3947 81.6064 11.1055L81.6059 10.5441L82.5828 10.542L82.5864 11.9709L82.3254 11.9713L82.3231 10.7587L81.8671 10.7595L81.8678 11.1819C81.8683 11.5414 81.8334 12.0597 81.2873 11.973L81.2871 11.7567Z" fill="#07213E"/>
<path d="M84.0332 10.5415L84.2892 10.541L84.2908 11.9694L84.0292 11.9697L84.0275 10.9252L83.3494 11.9711L83.0941 11.9715L83.0918 10.5427L83.353 10.5419L83.3546 11.5874L84.0332 10.5415Z" fill="#07213E"/>
<path d="M84.6504 10.7572V10.5409L85.8106 10.5391L85.8111 10.7556L85.3614 10.7565L85.3638 11.968L85.1021 11.9689L85.0998 10.7565L84.6504 10.7572Z" fill="#07213E"/>
<path d="M87.1154 10.5364L87.3714 10.5361L87.3738 11.9639H87.1125L87.111 10.92L86.4322 11.9657H86.1774L86.1738 10.538L86.4355 10.5376L86.4371 11.5823L87.1154 10.5364Z" fill="#07213E"/>
<path d="M88.0853 10.5351L88.0864 10.9206C88.0864 11.0572 88.0947 11.1595 88.3873 11.1588C88.5012 11.1583 88.6255 11.1461 88.6466 11.1437L88.6449 10.5337L88.9064 10.5332L88.9088 11.9621L88.648 11.9626L88.6466 11.3607C88.5662 11.3666 88.4459 11.3748 88.3547 11.3748C88.0482 11.3758 87.8253 11.3003 87.8253 10.9796L87.8242 10.5351H88.0853Z" fill="#07213E"/>
<path d="M90.4058 11.1185V11.3343L89.6789 11.3352L89.6796 11.7441L90.5129 11.7426L90.5133 11.9587L89.4182 11.9603L89.416 10.5317L90.4884 10.5303L90.4891 10.7463L89.6778 10.7473L89.6785 11.1185H90.4058Z" fill="#07213E"/>
<path d="M92.1261 11.469C92.1075 11.6853 91.9929 12.0001 91.5091 12.0006C91.3985 12.0006 90.8002 11.9914 90.7988 11.2692C90.7984 10.6812 91.1372 10.4873 91.4927 10.4863C91.9825 10.4852 92.0931 10.7854 92.1062 10.9889L91.8466 10.9899C91.8293 10.8709 91.7593 10.7024 91.4925 10.7029C91.1738 10.7029 91.0777 10.9626 91.0784 11.2584C91.0788 11.5931 91.2633 11.7845 91.5198 11.7845C91.7578 11.7833 91.8586 11.6225 91.867 11.4695L92.1261 11.469Z" fill="#07213E"/>
<path d="M93.4239 10.5247L93.7747 10.5244L93.1837 11.1169L93.816 11.9519L93.465 11.9531L92.9925 11.2929L92.8004 11.4789L92.8011 11.954L92.5389 11.9547L92.5371 10.5263L92.7989 10.5258L92.8 11.1684L93.4239 10.5247Z" fill="#07213E"/>
<path d="M94.7597 10.4815C94.8843 10.481 95.46 10.4963 95.4616 11.2368C95.4622 11.9778 94.8865 11.9952 94.7615 11.9954C94.6369 11.9957 94.0606 11.9804 94.0606 11.2391C94.0588 10.4988 94.6356 10.4815 94.7597 10.4815ZM94.7617 11.7792C95.1152 11.7785 95.182 11.458 95.1814 11.2375C95.1809 11.0175 95.113 10.697 94.7597 10.6973C94.4063 10.6982 94.3401 11.0189 94.3401 11.2389C94.3401 11.4594 94.4087 11.7794 94.7617 11.7792Z" fill="#07213E"/>
<path d="M96.8754 11.1077V11.3236L96.1492 11.325V11.7331L96.9829 11.7317V11.948L95.8887 11.9496L95.8867 10.5214L96.9587 10.5195L96.9594 10.7356L96.1474 10.737L96.1494 11.1087L96.8754 11.1077Z" fill="#07213E"/>
<path d="M98.0881 11.9465L97.8086 11.9472L98.345 10.5178L98.6066 10.5176L99.1486 11.9448L98.8677 11.9453L98.7647 11.6458L98.1923 11.646L98.0881 11.9465ZM98.6938 11.4295L98.4765 10.7955L98.2611 11.4304L98.6938 11.4295Z" fill="#07213E"/>
<path d="M99.7367 11.945L99.4749 11.9452L99.4727 10.5173L100.408 10.5156L100.409 10.7319L99.7344 10.7328L99.7367 11.945Z" fill="#07213E"/>
<path d="M101.76 11.0992L101.762 11.3153L101.034 11.3164L101.035 11.725L101.869 11.7236V11.9394L100.774 11.9413L100.771 10.5134L101.844 10.5117V10.7275L101.033 10.7289L101.035 11.1004L101.76 11.0992Z" fill="#07213E"/>
<path d="M102.5 11.9401L102.239 11.9403L102.236 10.5117L102.497 10.5109L102.498 11.0827L103.136 11.0813L103.134 10.5098H103.396L103.398 11.938L103.137 11.9387L103.136 11.2976L102.499 11.2987L102.5 11.9401Z" fill="#07213E"/>
<path d="M103.758 10.7236V10.5073L104.917 10.5059V10.7217L104.469 10.7231L104.47 11.935L104.209 11.9352L104.207 10.7233H103.758V10.7236Z" fill="#07213E"/>
<path d="M106.509 11.4451C106.489 11.6621 106.375 11.9767 105.892 11.9769C105.781 11.9771 105.183 11.9682 105.182 11.2455C105.18 10.658 105.519 10.4636 105.875 10.4629C106.365 10.462 106.476 10.7617 106.488 10.9665H106.228C106.212 10.8482 106.142 10.6785 105.875 10.6794C105.557 10.6796 105.46 10.9392 105.461 11.2349C105.462 11.5697 105.646 11.7613 105.903 11.7613C106.141 11.7606 106.242 11.5989 106.25 11.4461L106.509 11.4451Z" fill="#07213E"/>
<path d="M106.772 10.7199L106.771 10.5031L107.932 10.502L107.932 10.718L107.483 10.7185L107.486 11.9304L107.223 11.9308L107.222 10.7187L106.772 10.7199Z" fill="#07213E"/>
<path d="M108.969 10.5C109.333 10.4998 109.405 10.7033 109.406 10.8602C109.406 11.0181 109.308 11.1427 109.169 11.1677V11.1712C109.288 11.1914 109.465 11.2725 109.465 11.5281C109.467 11.8889 109.158 11.9284 108.943 11.9286L108.298 11.9301L108.295 10.5012L108.969 10.5ZM108.558 11.0804L108.903 11.08C109.048 11.0795 109.136 11.0348 109.136 10.9102C109.135 10.7205 108.951 10.716 108.896 10.716L108.557 10.717L108.558 11.0804ZM108.558 11.7128L108.917 11.7126C109.076 11.7114 109.196 11.6729 109.196 11.4994C109.196 11.3075 109.03 11.296 108.921 11.2963L108.558 11.2967L108.558 11.7128Z" fill="#07213E"/>
<path d="M110.533 10.4541C110.659 10.4541 111.234 10.4696 111.235 11.2097C111.237 11.951 110.661 11.9683 110.536 11.9683C110.411 11.9683 109.835 11.9526 109.834 11.213C109.834 10.4717 110.409 10.4546 110.533 10.4541ZM110.536 11.7523C110.889 11.7511 110.956 11.4312 110.956 11.2106C110.955 10.9904 110.887 10.6697 110.534 10.6706C110.181 10.6711 110.114 10.9915 110.114 11.2123C110.114 11.4326 110.182 11.7523 110.536 11.7523Z" fill="#07213E"/>
<path d="M77.112 4.40051L74.9158 0.611509C74.7542 0.450704 74.5582 0.37665 74.3657 0.40251C74.1739 0.428134 74.0052 0.551089 73.8904 0.749273L71.7281 4.51146C71.6176 4.70401 71.5961 4.88032 71.6712 5.00822C71.7446 5.13564 71.9091 5.20522 72.1319 5.20498L76.4727 5.19488C76.7026 5.19488 76.8927 5.10884 77.0108 4.95462C77.1282 4.80064 77.1607 4.59468 77.112 4.40051Z" fill="#07213E"/>
<path d="M67.4676 0.45723L67.4238 0.705488C67.4285 0.82186 67.4657 0.939171 67.5316 1.05389L69.7108 4.80527C69.8254 5.00182 69.972 5.11019 70.1237 5.11019C70.2755 5.10948 70.4221 5.00088 70.535 4.80387L72.6973 1.04214C72.7717 0.91284 72.8084 0.775782 72.8025 0.646479L72.7583 0.445946C72.6867 0.271742 72.5275 0.141029 72.311 0.0775543C72.2759 0.0726172 67.9478 0.0824912 67.9478 0.0824912C67.6979 0.151373 67.5391 0.282555 67.4676 0.45723ZM70.1231 4.87204C70.0776 4.87157 69.9967 4.82315 69.9177 4.68631L67.7379 0.933997C67.692 0.855007 67.6657 0.772254 67.6636 0.69585L67.6873 0.54821C67.7311 0.441479 67.8363 0.35896 67.9817 0.315939C67.9833 0.320171 72.2766 0.310531 72.2766 0.310531C72.3893 0.34838 72.494 0.430899 72.5383 0.537632C72.5383 0.538103 72.5639 0.655884 72.5639 0.655884C72.5675 0.740516 72.5425 0.833614 72.4901 0.923888L70.3282 4.68491C70.2487 4.82268 70.1677 4.87157 70.1231 4.87204Z" fill="#07213E"/>
<path d="M66.2226 1.03975C66.2017 1.06655 64.0469 4.81417 64.0469 4.81417C64.0342 4.84637 64.0098 5.06407 64.0098 5.06407C64.0156 5.19642 64.058 5.3175 64.1335 5.4153C64.254 5.57235 64.4493 5.65885 64.6815 5.65792L69.0235 5.64804C69.2515 5.64757 69.4195 5.57445 69.4941 5.44303C69.4941 5.44257 69.5376 5.24884 69.5376 5.24884L69.4341 4.9336L67.2544 1.18292C67.1386 0.981913 66.9654 0.85708 66.7687 0.830749C66.581 0.806299 66.3878 0.880353 66.2226 1.03975ZM66.409 1.18433C66.4996 1.10299 66.6236 1.05268 66.7382 1.06749C66.8598 1.08324 66.9702 1.1667 67.0488 1.30235L69.2284 5.05372L69.2995 5.25919L69.2866 5.32478C69.2645 5.36452 69.1819 5.40988 69.023 5.41037L64.6815 5.41976C64.5243 5.42023 64.3966 5.36734 64.3227 5.27071C64.2768 5.2117 64.2519 5.13861 64.2483 5.05468C64.2483 5.05468 64.2669 4.90185 64.2676 4.90139C64.2733 4.90114 66.409 1.18433 66.409 1.18433Z" fill="#07213E"/>
<path d="M64.1813 6.35278C64.0944 6.46444 64.0533 6.60667 64.0591 6.76065L64.0836 6.92052C64.0977 6.95273 65.6259 9.58602 65.6259 9.58602L66.2697 10.6928C66.4558 10.8781 66.6501 10.951 66.8367 10.9258C67.0344 10.899 67.2054 10.7737 67.3224 10.572L69.4835 6.81121C69.5957 6.61702 69.6167 6.43107 69.5423 6.30151C69.4649 6.16963 69.2981 6.09769 69.0701 6.09864L64.7285 6.10828C64.4958 6.10875 64.3017 6.19527 64.1813 6.35278ZM64.2977 6.75148C64.2942 6.65299 64.3191 6.56529 64.3709 6.49783C64.4448 6.40074 64.5723 6.3469 64.729 6.34643L69.0713 6.33702C69.2305 6.33655 69.3124 6.38216 69.3357 6.42141C69.3421 6.4334 69.3463 6.45034 69.348 6.47197C69.3496 6.5225 69.3322 6.5975 69.2776 6.69154L67.1146 10.453C67.0367 10.5894 66.9268 10.6733 66.8052 10.6895C66.6918 10.7051 66.5673 10.654 66.4551 10.5475C66.4539 10.5372 65.8323 9.46565 65.8323 9.46565L64.3034 6.8333C64.3163 6.86528 64.2977 6.75148 64.2977 6.75148Z" fill="#07213E"/>
<path d="M69.7804 6.92082L67.6181 10.6816C67.5437 10.8109 67.507 10.948 67.5122 11.0768L67.5564 11.2776C67.6287 11.4522 67.7879 11.5829 68.0061 11.6466C68.0392 11.6511 72.3669 11.6415 72.3669 11.6415C72.6175 11.5719 72.7763 11.4405 72.8478 11.2665L72.8916 11.019C72.8869 10.9014 72.8502 10.7848 72.7834 10.6703L70.6048 6.91869C70.4902 6.72168 70.3436 6.61426 70.1919 6.61426C70.0399 6.61401 69.8938 6.72263 69.7804 6.92082ZM68.0388 11.4125C67.9254 11.3747 67.8214 11.2921 67.7771 11.1859L67.751 11.0671C67.7482 10.9832 67.7724 10.8908 67.8254 10.8003L69.9877 7.03907C70.0667 6.90106 70.1477 6.85217 70.1924 6.85217C70.2378 6.85217 70.318 6.90035 70.3982 7.03812L72.5775 10.7897C72.6234 10.8687 72.6497 10.9517 72.6525 11.0279C72.6525 11.0279 72.6276 11.1753 72.6276 11.176C72.5834 11.2811 72.4794 11.3636 72.3328 11.4073C72.3318 11.4033 68.0388 11.4125 68.0388 11.4125Z" fill="#07213E"/>
<path d="M70.7986 6.26225C70.7224 6.39438 70.7445 6.57494 70.8586 6.77195L73.0371 10.5243C73.1541 10.7253 73.3268 10.8499 73.5232 10.8755C73.7105 10.8992 73.9037 10.8257 74.0689 10.6681C74.0891 10.6411 76.245 6.8916 76.245 6.8916C76.2561 6.86009 76.2822 6.64217 76.2822 6.64217C76.2771 6.51028 76.2345 6.38827 76.1585 6.29047C76.038 6.13296 75.8427 6.04739 75.61 6.04785L71.2685 6.05702C71.0412 6.05867 70.8737 6.13085 70.7986 6.26225ZM71.0645 6.65205C71.0144 6.56599 70.9953 6.49687 70.993 6.44751C70.9918 6.41789 70.997 6.3958 71.0045 6.38075C71.0273 6.34218 71.1104 6.29657 71.2685 6.29589L75.61 6.28601C75.7676 6.28601 75.8954 6.33936 75.9705 6.43552C76.0159 6.49547 76.0403 6.56788 76.0443 6.65205C76.0443 6.65205 76.0251 6.80414 76.0251 6.80485C76.0187 6.80603 73.883 10.5224 73.883 10.5224C73.7922 10.6025 73.6677 10.6538 73.5534 10.6392C73.4317 10.6239 73.3218 10.5403 73.2435 10.4048L71.0645 6.65205Z" fill="#07213E"/>
<mask id="mask0_2001_56" style="mask-type:luminance" maskUnits="userSpaceOnUse" x="64" y="0" width="48" height="12">
<path d="M111.293 0H64V11.9897H111.293V0Z" fill="white"/>
</mask>
<g mask="url(#mask0_2001_56)">
<path d="M79.7141 6.18652L81.1693 9.59678L80.123 9.59865L79.8456 9.03185L78.0706 9.03466L77.7944 9.60313L76.748 9.60453L78.188 6.18981L79.7141 6.18652ZM78.8812 6.95198L78.4026 8.15073L79.5054 8.14907L79.0237 6.95198H78.8812Z" fill="#07213E"/>
<path d="M84.1927 6.17969C84.6242 6.17969 85.0889 6.24059 85.09 7.14264C85.0912 7.5195 84.9529 7.75434 84.7941 7.84016C85.0628 7.97793 85.1976 8.23064 85.1988 8.64558C85.1995 9.34312 84.9388 9.59137 84.3049 9.59206L81.5972 9.59723L81.5918 6.18464L84.1927 6.17969ZM82.4887 7.46636L84.0769 7.46401C84.2124 7.46401 84.3009 7.40146 84.3002 7.23479C84.3002 7.0634 84.2101 7.00558 84.0762 7.0058L82.4885 7.00862V7.46636H82.4887ZM82.4918 8.76947L84.0435 8.76712C84.1976 8.76712 84.303 8.67591 84.303 8.50923C84.3025 8.27485 84.196 8.22782 84.0425 8.22782L82.4908 8.23018L82.4918 8.76947Z" fill="#07213E"/>
<path d="M85.7832 6.17629L89.2466 6.1709L89.2486 7.05414L87.9661 7.05625L87.9701 9.58584L87.0745 9.58726L87.0705 7.0579L85.7839 7.05954L85.7832 6.17629Z" fill="#07213E"/>
<path d="M91.9275 9.62649C90.042 9.62955 90.0056 9.51481 90.002 7.87788C90 6.2456 90.0362 6.12171 91.9217 6.1182C93.7983 6.1156 93.8472 6.2395 93.8501 7.87175C93.8529 9.49882 93.8034 9.62343 91.9275 9.62649ZM91.9264 8.74325C92.9515 8.74207 92.9557 8.73714 92.9539 7.8727C92.9522 7.00449 92.9488 6.9998 91.9268 7.00167C90.9017 7.00285 90.8975 7.0078 90.8981 7.87621C90.8999 8.74065 90.9037 8.74489 91.9264 8.74325Z" fill="#07213E"/>
<path d="M97.9505 7.46856L97.0534 7.46996C97.0534 7.09334 96.9802 6.99319 96.162 6.99461C95.2821 6.99578 95.2785 7.02447 95.2796 7.86915C95.2816 8.71856 95.2854 8.73783 96.1644 8.73665C96.9711 8.73547 97.0566 8.66354 97.0554 8.25799L97.9509 8.25564C97.9527 9.42593 97.8965 9.61612 96.1662 9.61918C94.477 9.62225 94.3873 9.47391 94.3848 7.86562C94.3817 6.26698 94.4708 6.11394 96.1611 6.11136C97.8747 6.1083 97.9485 6.30884 97.9505 7.46856Z" fill="#07213E"/>
<path d="M98.6191 6.15603L102.084 6.15039L102.086 7.03364L100.802 7.03599L100.807 9.56558L99.9114 9.56676L99.9067 7.03717L98.6207 7.03881L98.6191 6.15603Z" fill="#07213E"/>
<path d="M105.546 6.14453L107.001 9.55501L105.956 9.55666L105.676 8.98914L103.903 8.99196L103.626 9.56019L102.58 9.56183L104.02 6.14711L105.546 6.14453ZM104.713 6.90999L104.234 8.1085L105.337 8.10685L104.855 6.90906L104.713 6.90999Z" fill="#07213E"/>
<path d="M107.52 6.14041L110.983 6.13477L110.985 7.01779L109.703 7.02012L109.707 9.54973L108.811 9.55091L108.807 7.02201L107.52 7.02365L107.52 6.14041Z" fill="#07213E"/>
<path d="M76.9399 11.9814L76.6602 11.9818L77.1964 10.5525L77.458 10.5518L77.9994 11.9795L77.7197 11.9797L77.6157 11.6802L77.0435 11.6807L76.9399 11.9814ZM77.5453 11.4642L77.3284 10.8297L77.1121 11.4644L77.5453 11.4642Z" fill="#07213E"/>
<path d="M78.587 11.978H78.3266L78.3242 10.5502L78.5847 10.5498L78.5863 11.1211L79.2233 11.1206L79.2228 10.5491L79.4844 10.5488L79.4861 11.9766L79.2244 11.977L79.2233 11.3364L78.5863 11.3378L78.587 11.978Z" fill="#07213E"/>
<path d="M80.0927 11.9765L79.8125 11.9767L80.3492 10.5471L80.6115 10.5469L81.1525 11.9748H80.8727L80.768 11.6751L80.1969 11.676L80.0927 11.9765ZM80.6988 11.4593L80.4812 10.8252L80.2654 11.4595L80.6988 11.4593Z" fill="#07213E"/>
<path d="M81.2871 11.7567C81.5993 11.8113 81.6076 11.3947 81.6064 11.1055L81.6059 10.5441L82.5828 10.542L82.5864 11.9709L82.3254 11.9713L82.3231 10.7587L81.8671 10.7595L81.8678 11.1819C81.8683 11.5414 81.8334 12.0597 81.2873 11.973L81.2871 11.7567Z" fill="#07213E"/>
<path d="M84.0332 10.5415L84.2892 10.541L84.2908 11.9694L84.0292 11.9697L84.0275 10.9252L83.3494 11.9711L83.0941 11.9715L83.0918 10.5427L83.353 10.5419L83.3546 11.5874L84.0332 10.5415Z" fill="#07213E"/>
<path d="M84.6504 10.7572V10.5409L85.8106 10.5391L85.8111 10.7556L85.3614 10.7565L85.3638 11.968L85.1021 11.9689L85.0998 10.7565L84.6504 10.7572Z" fill="#07213E"/>
<path d="M87.1154 10.5364L87.3714 10.5361L87.3738 11.9639H87.1125L87.111 10.92L86.4322 11.9657H86.1774L86.1738 10.538L86.4355 10.5376L86.4371 11.5823L87.1154 10.5364Z" fill="#07213E"/>
<path d="M88.0853 10.5351L88.0864 10.9206C88.0864 11.0572 88.0947 11.1595 88.3873 11.1588C88.5012 11.1583 88.6255 11.1461 88.6466 11.1437L88.6449 10.5337L88.9064 10.5332L88.9088 11.9621L88.648 11.9626L88.6466 11.3607C88.5662 11.3666 88.4459 11.3748 88.3547 11.3748C88.0482 11.3758 87.8253 11.3003 87.8253 10.9796L87.8242 10.5351H88.0853Z" fill="#07213E"/>
<path d="M90.4058 11.1185V11.3343L89.6789 11.3352L89.6796 11.7441L90.5129 11.7426L90.5133 11.9587L89.4182 11.9603L89.416 10.5317L90.4884 10.5303L90.4891 10.7463L89.6778 10.7473L89.6785 11.1185H90.4058Z" fill="#07213E"/>
<path d="M92.1261 11.469C92.1075 11.6853 91.9929 12.0001 91.5091 12.0006C91.3985 12.0006 90.8002 11.9914 90.7988 11.2692C90.7984 10.6812 91.1372 10.4873 91.4927 10.4863C91.9825 10.4852 92.0931 10.7854 92.1062 10.9889L91.8466 10.9899C91.8293 10.8709 91.7593 10.7024 91.4925 10.7029C91.1738 10.7029 91.0777 10.9626 91.0784 11.2584C91.0788 11.5931 91.2633 11.7845 91.5198 11.7845C91.7578 11.7833 91.8586 11.6225 91.867 11.4695L92.1261 11.469Z" fill="#07213E"/>
<path d="M93.4239 10.5247L93.7747 10.5244L93.1837 11.1169L93.816 11.9519L93.465 11.9531L92.9925 11.2929L92.8004 11.4789L92.8011 11.954L92.5389 11.9547L92.5371 10.5263L92.7989 10.5258L92.8 11.1684L93.4239 10.5247Z" fill="#07213E"/>
<path d="M94.7597 10.4815C94.8843 10.481 95.46 10.4963 95.4616 11.2368C95.4622 11.9778 94.8865 11.9952 94.7615 11.9954C94.6369 11.9957 94.0606 11.9804 94.0606 11.2391C94.0588 10.4988 94.6356 10.4815 94.7597 10.4815ZM94.7617 11.7792C95.1152 11.7785 95.182 11.458 95.1814 11.2375C95.1809 11.0175 95.113 10.697 94.7597 10.6973C94.4063 10.6982 94.3401 11.0189 94.3401 11.2389C94.3401 11.4594 94.4087 11.7794 94.7617 11.7792Z" fill="#07213E"/>
<path d="M96.8754 11.1077V11.3236L96.1492 11.325V11.7331L96.9829 11.7317V11.948L95.8887 11.9496L95.8867 10.5214L96.9587 10.5195L96.9594 10.7356L96.1474 10.737L96.1494 11.1087L96.8754 11.1077Z" fill="#07213E"/>
<path d="M98.0881 11.9465L97.8086 11.9472L98.345 10.5178L98.6066 10.5176L99.1486 11.9448L98.8677 11.9453L98.7647 11.6458L98.1923 11.646L98.0881 11.9465ZM98.6938 11.4295L98.4765 10.7955L98.2611 11.4304L98.6938 11.4295Z" fill="#07213E"/>
<path d="M99.7367 11.945L99.4749 11.9452L99.4727 10.5173L100.408 10.5156L100.409 10.7319L99.7344 10.7328L99.7367 11.945Z" fill="#07213E"/>
<path d="M101.76 11.0992L101.762 11.3153L101.034 11.3164L101.035 11.725L101.869 11.7236V11.9394L100.774 11.9413L100.771 10.5134L101.844 10.5117V10.7275L101.033 10.7289L101.035 11.1004L101.76 11.0992Z" fill="#07213E"/>
<path d="M102.5 11.9401L102.239 11.9403L102.236 10.5117L102.497 10.5109L102.498 11.0827L103.136 11.0813L103.134 10.5098H103.396L103.398 11.938L103.137 11.9387L103.136 11.2976L102.499 11.2987L102.5 11.9401Z" fill="#07213E"/>
<path d="M103.758 10.7236V10.5073L104.917 10.5059V10.7217L104.469 10.7231L104.47 11.935L104.209 11.9352L104.207 10.7233H103.758V10.7236Z" fill="#07213E"/>
<path d="M106.509 11.4451C106.489 11.6621 106.375 11.9767 105.892 11.9769C105.781 11.9771 105.183 11.9682 105.182 11.2455C105.18 10.658 105.519 10.4636 105.875 10.4629C106.365 10.462 106.476 10.7617 106.488 10.9665H106.228C106.212 10.8482 106.142 10.6785 105.875 10.6794C105.557 10.6796 105.46 10.9392 105.461 11.2349C105.462 11.5697 105.646 11.7613 105.903 11.7613C106.141 11.7606 106.242 11.5989 106.25 11.4461L106.509 11.4451Z" fill="#07213E"/>
<path d="M106.772 10.7199L106.771 10.5031L107.932 10.502L107.932 10.718L107.483 10.7185L107.486 11.9304L107.223 11.9308L107.222 10.7187L106.772 10.7199Z" fill="#07213E"/>
<path d="M108.969 10.5C109.333 10.4998 109.405 10.7033 109.406 10.8602C109.406 11.0181 109.308 11.1427 109.169 11.1677V11.1712C109.288 11.1914 109.465 11.2725 109.465 11.5281C109.467 11.8889 109.158 11.9284 108.943 11.9286L108.298 11.9301L108.295 10.5012L108.969 10.5ZM108.558 11.0804L108.903 11.08C109.048 11.0795 109.136 11.0348 109.136 10.9102C109.135 10.7205 108.951 10.716 108.896 10.716L108.557 10.717L108.558 11.0804ZM108.558 11.7128L108.917 11.7126C109.076 11.7114 109.196 11.6729 109.196 11.4994C109.196 11.3075 109.03 11.296 108.921 11.2963L108.558 11.2967L108.558 11.7128Z" fill="#07213E"/>
<path d="M110.533 10.4541C110.659 10.4541 111.234 10.4696 111.235 11.2097C111.237 11.951 110.661 11.9683 110.536 11.9683C110.411 11.9683 109.835 11.9526 109.834 11.213C109.834 10.4717 110.409 10.4546 110.533 10.4541ZM110.536 11.7523C110.889 11.7511 110.956 11.4312 110.956 11.2106C110.955 10.9904 110.887 10.6697 110.534 10.6706C110.181 10.6711 110.114 10.9915 110.114 11.2123C110.114 11.4326 110.182 11.7523 110.536 11.7523Z" fill="#07213E"/>
<path d="M77.112 4.40051L74.9158 0.611509C74.7542 0.450704 74.5582 0.37665 74.3657 0.40251C74.1739 0.428134 74.0052 0.551089 73.8904 0.749273L71.7281 4.51146C71.6176 4.70401 71.5961 4.88032 71.6712 5.00822C71.7446 5.13564 71.9091 5.20522 72.1319 5.20498L76.4727 5.19488C76.7026 5.19488 76.8927 5.10884 77.0108 4.95462C77.1282 4.80064 77.1607 4.59468 77.112 4.40051Z" fill="#07213E"/>
<path d="M67.4676 0.45723L67.4238 0.705488C67.4285 0.82186 67.4657 0.939171 67.5316 1.05389L69.7108 4.80527C69.8254 5.00182 69.972 5.11019 70.1237 5.11019C70.2755 5.10948 70.4221 5.00088 70.535 4.80387L72.6973 1.04214C72.7717 0.91284 72.8084 0.775782 72.8025 0.646479L72.7583 0.445946C72.6867 0.271742 72.5275 0.141029 72.311 0.0775543C72.2759 0.0726172 67.9478 0.0824912 67.9478 0.0824912C67.6979 0.151373 67.5391 0.282555 67.4676 0.45723ZM70.1231 4.87204C70.0776 4.87157 69.9967 4.82315 69.9177 4.68631L67.7379 0.933997C67.692 0.855007 67.6657 0.772254 67.6636 0.69585L67.6873 0.54821C67.7311 0.441479 67.8363 0.35896 67.9817 0.315939C67.9833 0.320171 72.2766 0.310531 72.2766 0.310531C72.3893 0.34838 72.494 0.430899 72.5383 0.537632C72.5383 0.538103 72.5639 0.655884 72.5639 0.655884C72.5675 0.740516 72.5425 0.833614 72.4901 0.923888L70.3282 4.68491C70.2487 4.82268 70.1677 4.87157 70.1231 4.87204Z" fill="#07213E"/>
<path d="M66.2226 1.03975C66.2017 1.06655 64.0469 4.81417 64.0469 4.81417C64.0342 4.84637 64.0098 5.06407 64.0098 5.06407C64.0156 5.19642 64.058 5.3175 64.1335 5.4153C64.254 5.57235 64.4493 5.65885 64.6815 5.65792L69.0235 5.64804C69.2515 5.64757 69.4195 5.57445 69.4941 5.44303C69.4941 5.44257 69.5376 5.24884 69.5376 5.24884L69.4341 4.9336L67.2544 1.18292C67.1386 0.981913 66.9654 0.85708 66.7687 0.830749C66.581 0.806299 66.3878 0.880353 66.2226 1.03975ZM66.409 1.18433C66.4996 1.10299 66.6236 1.05268 66.7382 1.06749C66.8598 1.08324 66.9702 1.1667 67.0488 1.30235L69.2284 5.05372L69.2995 5.25919L69.2866 5.32478C69.2645 5.36452 69.1819 5.40988 69.023 5.41037L64.6815 5.41976C64.5243 5.42023 64.3966 5.36734 64.3227 5.27071C64.2768 5.2117 64.2519 5.13861 64.2483 5.05468C64.2483 5.05468 64.2669 4.90185 64.2676 4.90139C64.2733 4.90114 66.409 1.18433 66.409 1.18433Z" fill="#07213E"/>
<path d="M64.1813 6.35278C64.0944 6.46444 64.0533 6.60667 64.0591 6.76065L64.0836 6.92052C64.0977 6.95273 65.6259 9.58602 65.6259 9.58602L66.2697 10.6928C66.4558 10.8781 66.6501 10.951 66.8367 10.9258C67.0344 10.899 67.2054 10.7737 67.3224 10.572L69.4835 6.81121C69.5957 6.61702 69.6167 6.43107 69.5423 6.30151C69.4649 6.16963 69.2981 6.09769 69.0701 6.09864L64.7285 6.10828C64.4958 6.10875 64.3017 6.19527 64.1813 6.35278ZM64.2977 6.75148C64.2942 6.65299 64.3191 6.56529 64.3709 6.49783C64.4448 6.40074 64.5723 6.3469 64.729 6.34643L69.0713 6.33702C69.2305 6.33655 69.3124 6.38216 69.3357 6.42141C69.3421 6.4334 69.3463 6.45034 69.348 6.47197C69.3496 6.5225 69.3322 6.5975 69.2776 6.69154L67.1146 10.453C67.0367 10.5894 66.9268 10.6733 66.8052 10.6895C66.6918 10.7051 66.5673 10.654 66.4551 10.5475C66.4539 10.5372 65.8323 9.46565 65.8323 9.46565L64.3034 6.8333C64.3163 6.86528 64.2977 6.75148 64.2977 6.75148Z" fill="#07213E"/>
<path d="M69.7804 6.92082L67.6181 10.6816C67.5437 10.8109 67.507 10.948 67.5122 11.0768L67.5564 11.2776C67.6287 11.4522 67.7879 11.5829 68.0061 11.6466C68.0392 11.6511 72.3669 11.6415 72.3669 11.6415C72.6175 11.5719 72.7763 11.4405 72.8478 11.2665L72.8916 11.019C72.8869 10.9014 72.8502 10.7848 72.7834 10.6703L70.6048 6.91869C70.4902 6.72168 70.3436 6.61426 70.1919 6.61426C70.0399 6.61401 69.8938 6.72263 69.7804 6.92082ZM68.0388 11.4125C67.9254 11.3747 67.8214 11.2921 67.7771 11.1859L67.751 11.0671C67.7482 10.9832 67.7724 10.8908 67.8254 10.8003L69.9877 7.03907C70.0667 6.90106 70.1477 6.85217 70.1924 6.85217C70.2378 6.85217 70.318 6.90035 70.3982 7.03812L72.5775 10.7897C72.6234 10.8687 72.6497 10.9517 72.6525 11.0279C72.6525 11.0279 72.6276 11.1753 72.6276 11.176C72.5834 11.2811 72.4794 11.3636 72.3328 11.4073C72.3318 11.4033 68.0388 11.4125 68.0388 11.4125Z" fill="#07213E"/>
<path d="M70.7986 6.26225C70.7224 6.39438 70.7445 6.57494 70.8586 6.77195L73.0371 10.5243C73.1541 10.7253 73.3268 10.8499 73.5232 10.8755C73.7105 10.8992 73.9037 10.8257 74.0689 10.6681C74.0891 10.6411 76.245 6.8916 76.245 6.8916C76.2561 6.86009 76.2822 6.64217 76.2822 6.64217C76.2771 6.51028 76.2345 6.38827 76.1585 6.29047C76.038 6.13296 75.8427 6.04739 75.61 6.04785L71.2685 6.05702C71.0412 6.05867 70.8737 6.13085 70.7986 6.26225ZM71.0645 6.65205C71.0144 6.56599 70.9953 6.49687 70.993 6.44751C70.9918 6.41789 70.997 6.3958 71.0045 6.38075C71.0273 6.34218 71.1104 6.29657 71.2685 6.29589L75.61 6.28601C75.7676 6.28601 75.8954 6.33936 75.9705 6.43552C76.0159 6.49547 76.0403 6.56788 76.0443 6.65205C76.0443 6.65205 76.0251 6.80414 76.0251 6.80485C76.0187 6.80603 73.883 10.5224 73.883 10.5224C73.7922 10.6025 73.6677 10.6538 73.5534 10.6392C73.4317 10.6239 73.3218 10.5403 73.2435 10.4048L71.0645 6.65205Z" fill="#07213E"/>
<mask id="mask1_2001_56" style="mask-type:luminance" maskUnits="userSpaceOnUse" x="64" y="0" width="48" height="12">
<path d="M111.293 0H64V11.9897H111.293V0Z" fill="white"/>
</mask>
<g mask="url(#mask1_2001_56)">
<path d="M79.7102 6.18457L81.1654 9.59483L80.1191 9.5967L79.8417 9.02989L78.0667 9.03271L77.7905 9.60118L76.7441 9.60258L78.1841 6.18786L79.7102 6.18457ZM78.8773 6.95003L78.3987 8.14878L79.5015 8.14711L79.0198 6.95003H78.8773Z" fill="#07213E"/>
<path d="M84.1946 6.17676C84.6261 6.17676 85.0908 6.23766 85.092 7.13971C85.0932 7.51657 84.9548 7.75141 84.796 7.83723C85.0647 7.975 85.1995 8.22772 85.2007 8.64265C85.2014 9.34019 84.9407 9.58844 84.3069 9.58913L81.5992 9.5943L81.5938 6.18171L84.1946 6.17676ZM82.4907 7.46344L84.0789 7.46108C84.2144 7.46108 84.3029 7.39854 84.3021 7.23186C84.3021 7.06047 84.212 7.00265 84.0782 7.00287L82.4904 7.00569V7.46344H82.4907ZM82.4937 8.76654L84.0455 8.76419C84.1996 8.76419 84.305 8.67298 84.305 8.5063C84.3045 8.27192 84.1979 8.2249 84.0445 8.2249L82.4928 8.22725L82.4937 8.76654Z" fill="#07213E"/>
<path d="M85.7812 6.17336L89.2446 6.16797L89.2466 7.05121L87.9642 7.05332L87.9682 9.58291L87.0725 9.58434L87.0685 7.05497L85.782 7.05661L85.7812 6.17336Z" fill="#07213E"/>
<path d="M91.9255 9.62454C90.04 9.6276 90.0036 9.51286 90.0001 7.87592C89.9981 6.24365 90.0343 6.11976 91.9198 6.11625C93.7964 6.11365 93.8452 6.23755 93.8481 7.86979C93.851 9.49687 93.8015 9.62147 91.9255 9.62454ZM91.9244 8.74129C92.9495 8.74012 92.9538 8.73519 92.952 7.87075C92.9502 7.00254 92.9469 6.99785 91.9249 6.99972C90.8997 7.00089 90.8955 7.00584 90.8962 7.87426C90.898 8.7387 90.9017 8.74294 91.9244 8.74129Z" fill="#07213E"/>
<path d="M97.9485 7.4666L97.0515 7.468C97.0515 7.09139 96.9782 6.99123 96.16 6.99265C95.2801 6.99383 95.2766 7.02252 95.2777 7.8672C95.2797 8.7166 95.2834 8.73587 96.1625 8.7347C96.9691 8.73352 97.0546 8.66158 97.0535 8.25604L97.9489 8.25369C97.9507 9.42397 97.8946 9.61417 96.1643 9.61723C94.475 9.6203 94.3853 9.47196 94.3829 7.86366C94.3798 6.26503 94.4688 6.11198 96.1591 6.10941C97.8728 6.10635 97.9465 6.30688 97.9485 7.4666Z" fill="#07213E"/>
<path d="M98.6152 6.15408L102.08 6.14844L102.082 7.03168L100.798 7.03404L100.804 9.56363L99.9075 9.5648L99.9028 7.03521L98.6168 7.03686L98.6152 6.15408Z" fill="#07213E"/>
<path d="M105.546 6.14258L107.001 9.55306L105.956 9.5547L105.676 8.98719L103.903 8.99001L103.626 9.55823L102.58 9.55988L104.02 6.14515L105.546 6.14258ZM104.713 6.90803L104.234 8.10654L105.337 8.1049L104.855 6.9071L104.713 6.90803Z" fill="#07213E"/>
<path d="M107.518 6.13845L110.981 6.13281L110.983 7.01584L109.701 7.01817L109.705 9.54778L108.809 9.54896L108.805 7.02005L107.518 7.0217L107.518 6.13845Z" fill="#07213E"/>
<path d="M76.9399 11.9794L76.6602 11.9799L77.1964 10.5505L77.458 10.5498L77.9994 11.9775L77.7197 11.9778L77.6157 11.6783L77.0435 11.6787L76.9399 11.9794ZM77.5453 11.4622L77.3284 10.8277L77.1121 11.4624L77.5453 11.4622Z" fill="#07213E"/>
<path d="M78.587 11.975H78.3266L78.3242 10.5473L78.5847 10.5469L78.5863 11.1181L79.2233 11.1177L79.2228 10.5461L79.4844 10.5459L79.4861 11.9736L79.2244 11.9741L79.2233 11.3335L78.5863 11.3349L78.587 11.975Z" fill="#07213E"/>
<path d="M80.0927 11.9735L79.8125 11.9738L80.3492 10.5442L80.6115 10.5439L81.1525 11.9719H80.8727L80.768 11.6722L80.1969 11.6731L80.0927 11.9735ZM80.6988 11.4563L80.4812 10.8223L80.2654 11.4566L80.6988 11.4563Z" fill="#07213E"/>
<path d="M81.2891 11.7538C81.6013 11.8083 81.6095 11.3917 81.6083 11.1026L81.6079 10.5412L82.5848 10.5391L82.5883 11.968L82.3274 11.9684L82.325 10.7558L81.869 10.7565L81.8697 11.179C81.8702 11.5384 81.8354 12.0568 81.2893 11.9701L81.2891 11.7538Z" fill="#07213E"/>
<path d="M84.0351 10.5386L84.2911 10.5381L84.2928 11.9665L84.0311 11.9667L84.0295 10.9222L83.3514 11.9682L83.0961 11.9686L83.0938 10.5397L83.3549 10.539L83.3566 11.5845L84.0351 10.5386Z" fill="#07213E"/>
<path d="M84.6504 10.7543V10.538L85.8106 10.5361L85.8111 10.7527L85.3614 10.7536L85.3638 11.965L85.1021 11.966L85.0998 10.7536L84.6504 10.7543Z" fill="#07213E"/>
<path d="M87.1115 10.5334L87.3675 10.5332L87.3699 11.9609H87.1086L87.1071 10.9171L86.4283 11.9628H86.1735L86.1699 10.5351L86.4316 10.5346L86.4332 11.5794L87.1115 10.5334Z" fill="#07213E"/>
<path d="M88.0834 10.5331L88.0845 10.9187C88.0845 11.0553 88.0927 11.1575 88.3853 11.1568C88.4992 11.1564 88.6236 11.1441 88.6447 11.1418L88.6429 10.5317L88.9045 10.5312L88.9069 11.9601L88.646 11.9606L88.6447 11.3588C88.5643 11.3646 88.444 11.3729 88.3527 11.3729C88.0463 11.3738 87.8234 11.2983 87.8234 10.9777L87.8223 10.5331H88.0834Z" fill="#07213E"/>
<path d="M90.4039 11.1165V11.3323L89.677 11.3333L89.6776 11.7421L90.5109 11.7407L90.5113 11.9567L89.4163 11.9584L89.4141 10.5297L90.4865 10.5283L90.4871 10.7444L89.6758 10.7453L89.6765 11.1165H90.4039Z" fill="#07213E"/>
<path d="M92.1242 11.4671C92.1055 11.6834 91.991 11.9981 91.5072 11.9986C91.3966 11.9986 90.7982 11.9894 90.7969 11.2672C90.7964 10.6793 91.1353 10.4853 91.4907 10.4844C91.9805 10.4832 92.0911 10.7834 92.1042 10.987L91.8446 10.9879C91.8273 10.869 91.7574 10.7004 91.4905 10.7009C91.1719 10.7009 91.0757 10.9607 91.0764 11.2564C91.0769 11.5912 91.2614 11.7826 91.5178 11.7826C91.7558 11.7814 91.8566 11.6206 91.8651 11.4675L92.1242 11.4671Z" fill="#07213E"/>
<path d="M93.4239 10.5227L93.7747 10.5225L93.1837 11.1149L93.816 11.95L93.465 11.9511L92.9925 11.291L92.8004 11.477L92.8011 11.9521L92.5389 11.9528L92.5371 10.5243L92.7989 10.5239L92.8 11.1664L93.4239 10.5227Z" fill="#07213E"/>
<path d="M94.7597 10.4785C94.8843 10.478 95.46 10.4933 95.4616 11.2339C95.4622 11.9749 94.8865 11.9923 94.7615 11.9925C94.6369 11.9927 94.0606 11.9775 94.0606 11.2362C94.0588 10.4959 94.6356 10.4785 94.7597 10.4785ZM94.7617 11.7762C95.1152 11.7755 95.182 11.4551 95.1814 11.2346C95.1809 11.0145 95.113 10.6941 94.7597 10.6943C94.4063 10.6953 94.3401 11.0159 94.3401 11.236C94.3401 11.4565 94.4087 11.7765 94.7617 11.7762Z" fill="#07213E"/>
<path d="M96.8735 11.1068V11.3226L96.1472 11.324V11.7321L96.9809 11.7307V11.947L95.8868 11.9486L95.8848 10.5204L96.9567 10.5186L96.9574 10.7346L96.1454 10.736L96.1474 11.1077L96.8735 11.1068Z" fill="#07213E"/>
<path d="M98.0862 11.9435L97.8066 11.9442L98.3431 10.5149L98.6046 10.5146L99.1466 11.9419L98.8657 11.9424L98.7627 11.6429L98.1903 11.6431L98.0862 11.9435ZM98.6919 11.4266L98.4745 10.7925L98.2591 11.4275L98.6919 11.4266Z" fill="#07213E"/>
<path d="M99.7347 11.9421L99.4729 11.9423L99.4707 10.5143L100.406 10.5127L100.407 10.729L99.7325 10.7299L99.7347 11.9421Z" fill="#07213E"/>
<path d="M101.756 11.0963L101.758 11.3123L101.03 11.3135L101.031 11.7221L101.865 11.7207V11.9365L100.77 11.9384L100.768 10.5104L101.84 10.5088V10.7246L101.029 10.726L101.031 11.0974L101.756 11.0963Z" fill="#07213E"/>
<path d="M102.496 11.9381L102.235 11.9384L102.232 10.5097L102.493 10.509L102.494 11.0807L103.132 11.0793L103.13 10.5078H103.392L103.394 11.936L103.133 11.9367L103.132 11.2956L102.495 11.2968L102.496 11.9381Z" fill="#07213E"/>
<path d="M103.754 10.7216V10.5053L104.914 10.5039V10.7197L104.465 10.7211L104.466 11.933L104.205 11.9333L104.204 10.7214H103.754V10.7216Z" fill="#07213E"/>
<path d="M106.505 11.4432C106.485 11.6602 106.371 11.9747 105.888 11.9749C105.777 11.9752 105.179 11.9662 105.178 11.2436C105.176 10.6561 105.515 10.4617 105.871 10.4609C106.361 10.46 106.472 10.7598 106.484 10.9645H106.224C106.208 10.8463 106.138 10.6765 105.872 10.6775C105.553 10.6777 105.456 10.9372 105.457 11.233C105.458 11.5677 105.642 11.7594 105.9 11.7594C106.137 11.7587 106.238 11.5969 106.246 11.4441L106.505 11.4432Z" fill="#07213E"/>
<path d="M106.77 10.7169L106.77 10.5002L107.93 10.499L107.93 10.7151L107.481 10.7155L107.484 11.9274L107.221 11.9279L107.22 10.7158L106.77 10.7169Z" fill="#07213E"/>
<path d="M108.966 10.4971C109.329 10.4968 109.401 10.7004 109.402 10.8572C109.402 11.0152 109.304 11.1398 109.165 11.1647V11.1683C109.284 11.1885 109.461 11.2696 109.461 11.5251C109.463 11.886 109.154 11.9255 108.94 11.9257L108.294 11.9271L108.291 10.4982L108.966 10.4971ZM108.554 11.0775L108.899 11.077C109.044 11.0766 109.132 11.0319 109.132 10.9073C109.131 10.7176 108.948 10.7131 108.892 10.7131L108.553 10.7141L108.554 11.0775ZM108.554 11.7099L108.913 11.7097C109.072 11.7085 109.192 11.6699 109.192 11.4964C109.192 11.3046 109.026 11.2931 108.918 11.2933L108.554 11.2938L108.554 11.7099Z" fill="#07213E"/>
<path d="M110.533 10.4521C110.659 10.4521 111.234 10.4677 111.235 11.2077C111.237 11.949 110.661 11.9664 110.536 11.9664C110.411 11.9664 109.835 11.9506 109.834 11.211C109.834 10.4698 110.409 10.4526 110.533 10.4521ZM110.536 11.7503C110.889 11.7492 110.956 11.4292 110.956 11.2087C110.955 10.9884 110.887 10.6677 110.534 10.6687C110.181 10.6691 110.114 10.9896 110.114 11.2103C110.114 11.4306 110.182 11.7503 110.536 11.7503Z" fill="#07213E"/>
<path d="M77.1081 4.39856L74.9119 0.609556C74.7503 0.448751 74.5543 0.374696 74.3618 0.400557C74.17 0.426181 74.0013 0.549136 73.8865 0.74732L71.7242 4.50951C71.6136 4.70206 71.5922 4.87837 71.6673 5.00626C71.7407 5.13369 71.9052 5.20327 72.128 5.20303L76.4688 5.19292C76.6987 5.19292 76.8888 5.10689 77.0069 4.95266C77.1243 4.79868 77.1568 4.59273 77.1081 4.39856Z" fill="#07213E"/>
<path d="M67.4637 0.4543L67.4199 0.702559C67.4246 0.81893 67.4618 0.936241 67.5277 1.05097L69.7069 4.80234C69.8215 4.99889 69.9681 5.10726 70.1198 5.10726C70.2716 5.10655 70.4182 4.99795 70.5311 4.80094L72.6934 1.03921C72.7678 0.90991 72.8045 0.772852 72.7986 0.643549L72.7544 0.443016C72.6828 0.268812 72.5236 0.1381 72.3071 0.0746246C72.272 0.0696875 67.9439 0.0795615 67.9439 0.0795615C67.694 0.148444 67.5352 0.279625 67.4637 0.4543ZM70.1191 4.86911C70.0737 4.86864 69.9928 4.82022 69.9137 4.68338L67.734 0.931068C67.6881 0.852078 67.6618 0.769324 67.6597 0.69292L67.6834 0.54528C67.7272 0.438549 67.8324 0.356031 67.9778 0.31301C67.9794 0.317242 72.2727 0.307601 72.2727 0.307601C72.3854 0.345451 72.4901 0.427969 72.5344 0.534702C72.5344 0.535173 72.56 0.652954 72.56 0.652954C72.5635 0.737586 72.5386 0.830685 72.4861 0.920959L70.3243 4.68198C70.2448 4.81975 70.1638 4.86864 70.1191 4.86911Z" fill="#07213E"/>
<path d="M66.2187 1.03779C66.1978 1.06459 64.043 4.81222 64.043 4.81222C64.0303 4.84441 64.0059 5.06212 64.0059 5.06212C64.0117 5.19447 64.0541 5.31554 64.1296 5.41335C64.2501 5.57039 64.4454 5.6569 64.6776 5.65596L69.0196 5.64608C69.2476 5.64562 69.4156 5.5725 69.4902 5.44108C69.4902 5.44061 69.5337 5.24689 69.5337 5.24689L69.4302 4.93165L67.2505 1.18097C67.1347 0.97996 66.9615 0.855127 66.7648 0.828796C66.5771 0.804346 66.3839 0.8784 66.2187 1.03779ZM66.4051 1.18238C66.4957 1.10103 66.6197 1.05072 66.7343 1.06554C66.8559 1.08129 66.9662 1.16474 67.0448 1.30039L69.2245 5.05177L69.2956 5.25724L69.2827 5.32283C69.2606 5.36257 69.178 5.40793 69.0191 5.40842L64.6776 5.41781C64.5204 5.41828 64.3927 5.36539 64.3188 5.26876C64.2729 5.20974 64.248 5.13665 64.2444 5.05272C64.2444 5.05272 64.263 4.8999 64.2637 4.89943C64.2694 4.89919 66.4051 1.18238 66.4051 1.18238Z" fill="#07213E"/>
<path d="M64.1793 6.34985C64.0925 6.46151 64.0513 6.60375 64.0572 6.75772L64.0817 6.91759C64.0958 6.9498 65.624 9.58309 65.624 9.58309L66.2677 10.6899C66.4538 10.8752 66.6482 10.948 66.8348 10.9229C67.0324 10.8961 67.2035 10.7708 67.3204 10.5691L69.4815 6.80828C69.5938 6.61409 69.6147 6.42814 69.5403 6.29858C69.4629 6.1667 69.2961 6.09476 69.0681 6.09571L64.7266 6.10535C64.4939 6.10582 64.2998 6.19234 64.1793 6.34985ZM64.2958 6.74855C64.2922 6.65006 64.3172 6.56236 64.3689 6.4949C64.4428 6.39781 64.5704 6.34397 64.7271 6.3435L69.0693 6.33409C69.2286 6.33362 69.3105 6.37923 69.3338 6.41848C69.3401 6.43047 69.3444 6.44741 69.346 6.46904C69.3476 6.51957 69.3302 6.59458 69.2756 6.68861L67.1126 10.4501C67.0348 10.5864 66.9249 10.6704 66.8032 10.6866C66.6898 10.7021 66.5654 10.6511 66.4531 10.5446C66.452 10.5343 65.8303 9.46272 65.8303 9.46272L64.3014 6.83037C64.3144 6.86235 64.2958 6.74855 64.2958 6.74855Z" fill="#07213E"/>
<path d="M69.7784 6.91789L67.6161 10.6787C67.5418 10.808 67.5051 10.945 67.5102 11.0738L67.5545 11.2746C67.6267 11.4493 67.786 11.58 68.0041 11.6437C68.0373 11.6482 72.3649 11.6385 72.3649 11.6385C72.6155 11.569 72.7743 11.4375 72.8459 11.2636L72.8896 11.016C72.8849 10.8985 72.8482 10.7819 72.7814 10.6674L70.6029 6.91576C70.4883 6.71875 70.3417 6.61133 70.1899 6.61133C70.0379 6.61108 69.8918 6.7197 69.7784 6.91789ZM68.0368 11.4096C67.9234 11.3717 67.8194 11.2892 67.7752 11.1829L67.7491 11.0642C67.7462 10.9803 67.7705 10.8879 67.8234 10.7974L69.9857 7.03614C70.0648 6.89813 70.1457 6.84924 70.1904 6.84924C70.2358 6.84924 70.316 6.89742 70.3963 7.03519L72.5755 10.7868C72.6214 10.8658 72.6477 10.9488 72.6506 11.025C72.6506 11.025 72.6256 11.1724 72.6256 11.1731C72.5814 11.2782 72.4774 11.3607 72.3308 11.4044C72.3299 11.4004 68.0368 11.4096 68.0368 11.4096Z" fill="#07213E"/>
<path d="M70.7986 6.26029C70.7224 6.39243 70.7445 6.57298 70.8586 6.76999L73.0371 10.5223C73.1541 10.7233 73.3268 10.8479 73.5232 10.8735C73.7105 10.8973 73.9037 10.8237 74.0689 10.6662C74.0891 10.6391 76.245 6.88965 76.245 6.88965C76.2561 6.85814 76.2822 6.64021 76.2822 6.64021C76.2771 6.50833 76.2345 6.38632 76.1585 6.28851C76.038 6.13101 75.8427 6.04543 75.61 6.0459L71.2685 6.05507C71.0412 6.05671 70.8737 6.1289 70.7986 6.26029ZM71.0645 6.65009C71.0144 6.56403 70.9953 6.49492 70.993 6.44556C70.9918 6.41594 70.997 6.39385 71.0045 6.37879C71.0273 6.34023 71.1104 6.29462 71.2685 6.29393L75.61 6.28405C75.7676 6.28405 75.8954 6.33741 75.9705 6.43357C76.0159 6.49352 76.0403 6.56592 76.0443 6.65009C76.0443 6.65009 76.0251 6.80219 76.0251 6.8029C76.0187 6.80407 73.883 10.5204 73.883 10.5204C73.7922 10.6006 73.6677 10.6519 73.5534 10.6373C73.4317 10.622 73.3218 10.5383 73.2435 10.4029L71.0645 6.65009Z" fill="#07213E"/>
</g>
</g>
<g clip-path="url(#clip0_2001_56)">
<path d="M161.028 7.71142L162.425 3.68782L163.813 7.71142H161.028ZM161.587 2.20801L158.357 11.1167H159.849L160.601 8.95584H164.233L164.985 11.1167H166.503L163.274 2.20801H161.587Z" fill="black"/>
<path d="M173.508 5.93861H175.505V11.114H176.802V5.93861H178.8V4.86523H173.508V5.93861Z" fill="black"/>
<path d="M182.494 10.0799C181.418 10.0799 180.549 9.14931 180.549 7.99589C180.549 6.84247 181.418 5.89935 182.494 5.89935C183.571 5.89935 184.441 6.84091 184.441 7.99589C184.441 9.15088 183.571 10.0799 182.494 10.0799ZM182.494 4.72084C181.856 4.72765 181.234 4.92495 180.707 5.28797C180.179 5.651 179.77 6.16347 179.53 6.76097C179.29 7.35848 179.231 8.01428 179.359 8.64591C179.487 9.27753 179.797 9.85675 180.251 10.3107C180.704 10.7647 181.279 11.0731 181.906 11.1971C182.532 11.3212 183.181 11.2554 183.77 11.008C184.36 10.7605 184.863 10.3425 185.218 9.80657C185.573 9.27061 185.763 8.64063 185.764 7.99589C185.764 7.56335 185.679 7.13507 185.515 6.73578C185.35 6.33648 185.109 5.97408 184.805 5.66957C184.501 5.36503 184.14 5.1244 183.744 4.96155C183.347 4.7987 182.922 4.71687 182.494 4.72084Z" fill="black"/>
<path d="M170.563 10.1064H168.774V8.41788H170.563C171.184 8.41788 171.574 8.73174 171.574 9.26843C171.574 9.80512 171.186 10.1064 170.563 10.1064ZM168.774 5.86938H170.434C171.082 5.86938 171.433 6.16912 171.433 6.65403C171.433 7.13893 171.082 7.45436 170.434 7.45436H168.774V5.86938ZM171.913 7.86079C172.161 7.72948 172.369 7.53156 172.513 7.28875C172.657 7.04593 172.732 6.76768 172.729 6.48455C172.729 5.5273 172.119 4.86035 170.524 4.86035H167.477V11.1155H170.602C172.119 11.1155 172.898 10.3042 172.898 9.29512C172.907 8.98184 172.816 8.67391 172.639 8.41678C172.461 8.15962 172.207 7.96691 171.913 7.86706" fill="black"/>
<path d="M119.496 5.53125C118.863 5.53096 118.244 5.72039 117.717 6.07559C117.19 6.43078 116.78 6.93579 116.537 7.52674C116.295 8.11769 116.231 8.76806 116.354 9.39554C116.478 10.023 116.782 10.5995 117.23 11.0519C117.678 11.5044 118.248 11.8126 118.869 11.9375C119.49 12.0625 120.134 11.9985 120.719 11.7538C121.304 11.509 121.804 11.0945 122.156 10.5625C122.508 10.0307 122.696 9.40526 122.696 8.76552C122.696 7.90801 122.358 7.0856 121.758 6.47911C121.158 5.87261 120.345 5.53169 119.496 5.53125Z" fill="#04E061"/>
<path d="M124.297 7.2602C124.812 7.26049 125.315 7.10649 125.744 6.81771C126.172 6.5289 126.506 6.11825 126.703 5.63767C126.901 5.1571 126.952 4.62824 126.852 4.11795C126.752 3.60766 126.504 3.13889 126.14 2.77088C125.776 2.4029 125.312 2.15226 124.807 2.05065C124.302 1.94904 123.778 2.00103 123.303 2.20005C122.827 2.39908 122.42 2.73617 122.134 3.16871C121.848 3.60129 121.695 4.10983 121.695 4.6301C121.697 5.32698 121.971 5.99498 122.459 6.48794C122.946 6.98085 123.607 7.25852 124.297 7.2602Z" fill="#00AAFF"/>
<path d="M125.047 7.68165C124.664 7.68165 124.29 7.79632 123.971 8.01117C123.653 8.22602 123.405 8.5314 123.259 8.88871C123.112 9.24598 123.074 9.63912 123.149 10.0184C123.223 10.3977 123.408 10.7461 123.678 11.0196C123.949 11.293 124.294 11.4793 124.669 11.5547C125.045 11.6301 125.434 11.5914 125.787 11.4434C126.141 11.2954 126.443 11.0448 126.656 10.7233C126.869 10.4017 126.982 10.0237 126.982 9.63697C126.983 9.38002 126.933 9.12548 126.836 8.88798C126.739 8.65044 126.596 8.43464 126.417 8.25297C126.237 8.07129 126.023 7.92727 125.788 7.82924C125.553 7.73117 125.301 7.68103 125.047 7.68165Z" fill="#FF4053"/>
<path d="M120.108 5.10927C120.345 5.10927 120.576 5.03829 120.773 4.90534C120.97 4.77239 121.123 4.58343 121.214 4.36235C121.305 4.14128 121.328 3.89802 121.282 3.66332C121.236 3.42863 121.122 3.21305 120.955 3.04383C120.787 2.8746 120.574 2.75939 120.341 2.7127C120.109 2.66602 119.868 2.68998 119.649 2.78156C119.431 2.87311 119.244 3.0282 119.112 3.22718C118.98 3.42615 118.91 3.66005 118.91 3.89937C118.91 4.22022 119.036 4.52797 119.261 4.75487C119.486 4.98178 119.79 5.10927 120.108 5.10927Z" fill="#965EEB"/>
<path d="M152.106 9.56665C151.798 9.56665 151.498 9.47459 151.243 9.30216C150.987 9.12974 150.788 8.88466 150.67 8.59789C150.553 8.31116 150.522 7.99562 150.582 7.69122C150.642 7.38683 150.79 7.10719 151.007 6.88772C151.224 6.66828 151.501 6.51879 151.802 6.45827C152.104 6.39771 152.416 6.42877 152.7 6.54756C152.984 6.66631 153.226 6.86747 153.397 7.12555C153.568 7.38358 153.659 7.687 153.659 7.99736C153.659 8.20344 153.619 8.40751 153.541 8.59789C153.462 8.78831 153.348 8.96128 153.204 9.10701C153.06 9.25271 152.888 9.36833 152.7 9.44717C152.512 9.52604 152.309 9.56665 152.106 9.56665ZM152.106 4.75684C151.472 4.75684 150.853 4.94652 150.327 5.3019C149.8 5.65728 149.39 6.1624 149.148 6.75338C148.906 7.34436 148.842 7.99467 148.966 8.62207C149.089 9.24943 149.394 9.82574 149.842 10.2781C150.29 10.7304 150.86 11.0384 151.481 11.1632C152.102 11.288 152.746 11.2239 153.331 10.9792C153.916 10.7344 154.416 10.3198 154.767 9.78794C155.119 9.25606 155.307 8.63077 155.307 7.9911C155.307 7.56635 155.224 7.14579 155.063 6.75338C154.902 6.361 154.666 6.00446 154.369 5.70411C154.072 5.40379 153.719 5.16556 153.331 5.00304C152.942 4.84048 152.526 4.75684 152.106 4.75684Z" fill="black"/>
<path d="M138.56 8.82151L137.1 4.87012H135.373L137.726 11.1127H139.438L141.748 4.87012H140.022L138.56 8.82151Z" fill="black"/>
<path d="M147.426 3.25H145.784V4.90868H144.824V6.39949H145.784V9.05628C145.784 10.5612 146.604 11.2077 147.76 11.2077C148.152 11.2137 148.54 11.1379 148.902 10.9849V9.43602C148.705 9.50878 148.498 9.54698 148.29 9.54902C147.788 9.54902 147.426 9.35128 147.426 8.67651V6.39949H148.902V4.90868H147.426V3.25Z" fill="black"/>
<path d="M143.098 2.00176C142.788 2.01305 142.494 2.14537 142.279 2.37089C142.064 2.59641 141.943 2.89752 141.943 3.21088C141.943 3.52423 142.064 3.82535 142.279 4.05087C142.494 4.27639 142.788 4.40872 143.098 4.42001C143.259 4.42584 143.419 4.39893 143.569 4.34077C143.719 4.28265 143.857 4.19453 143.972 4.08168C144.088 3.96883 144.18 3.83354 144.243 3.68395C144.306 3.53432 144.338 3.37344 144.338 3.21088C144.338 3.04832 144.306 2.88744 144.243 2.73784C144.18 2.58821 144.088 2.45293 143.972 2.34008C143.857 2.22723 143.719 2.13911 143.569 2.08098C143.419 2.02285 143.259 1.99591 143.098 2.00176Z" fill="black"/>
<path d="M143.919 4.87012H142.277V11.1142H143.919V4.87012Z" fill="black"/>
<path d="M130.954 7.62737L132.138 4.50141L133.31 7.62737H130.954ZM131.206 2.22754L127.832 11.1143H129.642L130.341 9.25944H133.913L134.609 11.1143H136.405L133.051 2.22754H131.206Z" fill="black"/>
</g>
<path d="M190.764 0H202.764V6.03179C202.764 7.57608 201.937 9.01135 200.602 9.7835L196.768 12L192.935 9.7835C191.599 9.01135 190.773 7.58516 190.773 6.03179V0H190.764Z" fill="#FFDD2D"/>
<path fill-rule="evenodd" clip-rule="evenodd" d="M194.062 3.17871V5.05911C194.317 4.76842 194.789 4.57765 195.316 4.57765H195.897V6.75782C195.897 7.3392 195.743 7.8479 195.507 8.12951H198.032C197.796 7.8479 197.642 7.3392 197.642 6.7669V4.58674H198.223C198.759 4.58674 199.222 4.78658 199.477 5.06819V3.1878H194.062V3.17871Z" fill="#333333"/>
<defs>
<clipPath id="clip0_2001_56">
<rect width="69.4716" height="12" fill="white" transform="translate(116.293)"/>
</clipPath>
</defs>
</svg>
