<svg width="201" height="60" viewBox="0 0 201 60" fill="none" xmlns="http://www.w3.org/2000/svg">
<path d="M68.6454 21.2913H74.7175L79.3629 35.7792H74.4149L73.7423 33.3646H69.0201L68.3475 35.7792H64L68.6454 21.2913ZM69.8463 30.217H72.7671L71.3452 24.9461L69.8463 30.217ZM80.8617 21.2913H87.9042C89.6288 21.2913 90.9018 21.6577 91.7281 22.3154C92.5544 22.9731 92.9291 23.9267 92.9291 25.0965V25.1716C92.9291 26.8534 92.1028 27.8775 90.383 28.3191C91.2813 28.4648 92.0308 28.8312 92.5544 29.4184C93.078 30.0056 93.3807 30.7338 93.3807 31.6874V31.7626C93.3807 34.4685 91.584 35.7886 87.909 35.7886H80.9386V21.3007H80.8617V21.2913ZM86.9338 32.7069C88.1348 32.7069 88.7305 32.1948 88.7305 31.1707V31.0955C88.7305 30.1466 88.13 29.6345 86.857 29.6345H85.435V32.7069H86.9338ZM86.9338 26.9286C87.5343 26.9286 87.909 26.8534 88.2069 26.6373C88.4326 26.4165 88.5816 26.1253 88.5816 25.6837V25.6085C88.5816 24.73 88.0579 24.2931 86.9338 24.2931H85.5119V26.9286H86.9338ZM97.8771 24.8052H94.1301V21.2913H106.346V24.8052H102.599V35.7792H97.8771V24.8052ZM114.816 32.4156C115.714 32.4156 116.463 32.0492 116.987 31.3915C117.511 30.7338 117.813 29.7801 117.813 28.6104V28.4648C117.813 27.2199 117.515 26.3414 116.987 25.6837C116.463 25.026 115.714 24.7347 114.739 24.7347C113.84 24.7347 113.091 25.026 112.567 25.6837C112.044 26.3414 111.741 27.295 111.741 28.4648V28.6104C111.741 29.8553 112.039 30.8043 112.567 31.462C113.091 32.0492 113.84 32.4109 114.816 32.4109V32.4156ZM114.667 36C112.27 36 110.319 35.3423 108.969 33.9518C107.547 32.5612 106.87 30.8043 106.87 28.5352V28.3896C106.87 26.1957 107.619 24.4388 109.118 23.0482C110.617 21.6577 112.491 21 114.816 21C117.141 21 119.086 21.6577 120.585 22.9778C122.084 24.2931 122.833 26.0501 122.833 28.3191V28.4648C122.833 30.7338 122.084 32.5612 120.662 33.9518C119.086 35.3423 117.141 36 114.667 36ZM129.429 29.1929C129.28 30.5835 129.054 31.5324 128.757 32.1948H132.801V24.8052H129.727C129.501 27.2199 129.429 28.6809 129.429 29.1976V29.1929ZM122.982 35.7792V32.2653H123.957C124.707 31.8988 125.231 30.7996 125.456 28.8265C125.605 27.8024 125.605 25.3126 125.605 21.2913H137.447V32.27H139.248V35.7839H122.987L122.982 35.7792ZM140.517 35.7792V21.2913H145.239V29.6345L149.961 21.2913H154.606V35.7792H149.961V27.2903L145.239 35.704H140.517V35.7792ZM162.547 30.2922C162.321 32.1948 161.875 33.5853 161.125 34.5343C160.453 35.4879 159.329 36 157.902 36H157.378C157.229 36 157.08 35.9295 156.927 35.9295C156.773 35.9295 156.701 35.8544 156.629 35.8544C156.557 35.8544 156.48 35.7792 156.403 35.7792L156.326 35.704V32.1901L156.475 32.2653C156.624 32.2653 156.773 32.3357 156.927 32.3357C157.378 32.3357 157.753 32.0445 158.051 31.5324C158.277 31.0204 158.502 30.217 158.651 29.1178C158.8 27.6521 158.877 25.0918 158.877 21.2161H170.493V35.704H165.699V24.73H162.85C162.773 27.3655 162.701 29.1929 162.552 30.2922H162.547ZM173.116 21.2913H183.684V24.8052H177.838V26.8534H182.483V30.0714H177.838V32.2653H184.059V35.7792H173.193V21.2913H173.116ZM186.005 21.2913H191.928C195.973 21.2913 198 22.9731 198 26.2662V26.3414C198 27.8775 197.476 29.0473 196.501 29.8553C195.526 30.6586 194.027 31.1002 192.082 31.1002H190.66V35.8544H185.937V21.2913H186.014H186.005ZM191.625 27.9527C192.898 27.9527 193.499 27.4407 193.499 26.3414V26.2662C193.499 25.679 193.35 25.3173 193.047 25.0965C192.749 24.8757 192.298 24.73 191.625 24.73H190.65V28.0232H191.625V27.9527Z" fill="#07213E"/>
<path d="M41.1927 31.6863L36.8867 33.2753L39.0425 37.5757L45.2209 34.4921L49.249 37.4812L54.7717 34.6754L19.5685 8.78415V52.4326L25.0912 49.6268V44.5819L31.6418 41.3094L29.5805 37.2923L24.9912 40.2815V19.5296L41.1871 31.6807L41.1927 31.6863ZM30.0528 57.1108C37.5424 57.1108 44.3763 54.1217 49.2434 49.1657C52.6104 45.7987 55.1384 41.5038 56.3552 36.7367L48.9601 40.476L44.9375 37.5813L27.7137 46.271V51.3159L26.9636 51.6881L19.9407 55.144C23.0299 56.4497 26.4913 57.1053 30.0528 57.1053V57.1108ZM57.0108 33.092C57.1053 32.0641 57.1997 31.0362 57.1997 30.0083C57.1997 22.5299 54.205 15.707 49.2434 10.8454C44.3763 5.98389 37.5424 2.90027 30.0528 2.90027C26.2135 2.90027 22.4687 3.73924 19.1018 5.23937L57.0164 33.092H57.0108ZM16.8516 6.35614C14.6069 7.57292 12.6401 9.06751 10.8621 10.8399C5.995 15.7015 2.90583 22.5243 2.90583 30.0028C2.90583 37.4813 5.90055 44.3041 10.8621 49.1657C12.6401 50.9436 14.6069 52.4382 16.8516 53.6494V6.35614ZM59.7278 35.0477C58.6999 41.3094 55.6107 46.9155 51.3047 51.2159C45.8765 56.6386 38.3869 60 30.0528 60C21.7187 60 14.2347 56.633 8.80082 51.2159C3.37254 45.7931 0 38.3202 0 29.9972C0 21.6742 3.37254 14.2013 8.80082 8.77859C14.2291 3.36698 21.8131 0 30.0528 0C38.2924 0 45.8709 3.36698 51.3047 8.78415C56.733 14.2069 60.1056 21.6798 60.1056 30.0028C60.1056 31.7807 60.0111 33.4587 59.7333 35.0477H59.7278Z" fill="#00AAFF"/>
<path d="M31.7357 35.7973L27.802 38.4142V21.7793L41.1866 31.6858L36.7862 33.2748L39.6864 38.8809L34.6304 41.4033L31.7301 35.7973H31.7357Z" fill="#07213E"/>
<path d="M64.0044 40.2085H73.275V43.5264H68.3603V53.8881H64V40.2085H64.0044ZM81.166 50.7787C81.9955 50.7787 82.6875 50.4327 83.171 49.8117C83.6544 49.1907 83.9339 48.2903 83.9339 47.1858V47.0483C83.9339 45.8728 83.6589 45.0434 83.171 44.4224C82.6875 43.8014 81.9955 43.5219 81.0951 43.5219C80.2656 43.5219 79.5736 43.7969 79.0901 44.4224C78.6067 45.0434 78.3272 45.9438 78.3272 47.0483V47.1858C78.3272 48.3612 78.6022 49.2572 79.0901 49.8782C79.5736 50.4327 80.2656 50.7742 81.166 50.7742V50.7787ZM81.0285 54.1631C78.8151 54.1631 77.0142 53.5421 75.7678 52.2291C74.4549 50.9162 73.8294 49.2572 73.8294 47.1148V46.9773C73.8294 44.9059 74.5214 43.2469 75.9053 41.934C77.2893 40.621 79.0192 40 81.166 40C83.3129 40 85.1093 40.621 86.4933 41.8674C87.8772 43.1094 88.5692 44.7683 88.5692 46.9108V47.0483C88.5692 49.1907 87.8772 50.9162 86.5642 52.2291C85.0428 53.5421 83.2419 54.1631 81.0285 54.1631ZM94.5928 47.7358C94.4553 49.0488 94.2468 49.9492 93.9718 50.5702H97.7066V43.5929H94.8678C94.7303 45.8728 94.6593 47.2568 94.5928 47.7402V47.7358ZM88.6401 53.8836V50.5658H89.5406C90.2325 50.2198 90.716 49.1818 90.9245 47.3188C91.062 46.3519 91.062 44.001 91.062 40.204H101.996V50.5658H103.655V53.8836H88.6401ZM108.432 40.204H114.039L118.328 53.8836H113.759L113.138 51.6037H108.778L108.157 53.8836H104.143L108.432 40.204ZM109.608 48.7028H112.304L110.991 43.7304L109.608 48.7028Z" fill="#07213E"/>
<path d="M162.63 53.2879V50.7533H156.778V48.461L162.853 40.2422H165.984V47.9951H167.401V50.7533H165.984V53.2879H162.63ZM159.778 47.9951H162.63V43.9509L159.778 47.9951Z" fill="#00AAFF"/>
<path d="M145.496 53.288V50.9025L149.82 47.3242C150.242 46.9763 150.603 46.6657 150.901 46.3924C151.199 46.1066 151.441 45.8395 151.628 45.591C151.826 45.3425 151.969 45.1065 152.056 44.8828C152.156 44.6468 152.205 44.4045 152.205 44.156C152.205 43.7211 152.081 43.3857 151.833 43.1496C151.597 42.9135 151.255 42.7955 150.808 42.7955C150.211 42.7955 149.764 42.9757 149.466 43.336C149.18 43.6963 149.037 44.2492 149.037 44.9946H145.682C145.682 44.1995 145.788 43.4913 145.999 42.8701C146.211 42.2488 146.527 41.727 146.95 41.3046C147.385 40.8821 147.919 40.5591 148.553 40.3355C149.199 40.1118 149.95 40 150.808 40C151.615 40 152.311 40.1056 152.895 40.3168C153.491 40.5156 153.988 40.8014 154.386 41.1741C154.783 41.5344 155.075 41.9693 155.262 42.4787C155.461 42.9881 155.56 43.5472 155.56 44.156C155.56 44.6033 155.479 45.0319 155.318 45.4419C155.169 45.8519 154.951 46.2495 154.665 46.6347C154.392 47.0198 154.063 47.3926 153.678 47.7529C153.292 48.1132 152.876 48.4673 152.429 48.8152L150.174 50.5297H155.746V53.288H145.496Z" fill="#00AAFF"/>
<path d="M138.966 53.5303C138.233 53.5303 137.55 53.4122 136.916 53.1762C136.282 52.9277 135.73 52.5363 135.257 52.0021C134.785 51.4678 134.413 50.772 134.139 49.9147C133.878 49.045 133.748 47.9952 133.748 46.7651V46.3924C133.748 45.2493 133.878 44.274 134.139 43.4664C134.413 42.6588 134.785 42.0003 135.257 41.4909C135.73 40.9691 136.282 40.5902 136.916 40.3541C137.55 40.118 138.233 40 138.966 40C139.699 40 140.382 40.118 141.016 40.3541C141.65 40.5902 142.203 40.9691 142.675 41.4909C143.147 42.0003 143.513 42.6588 143.774 43.4664C144.048 44.274 144.184 45.2493 144.184 46.3924V46.7651C144.184 47.9952 144.048 49.045 143.774 49.9147C143.513 50.772 143.147 51.4678 142.675 52.0021C142.203 52.5363 141.65 52.9277 141.016 53.1762C140.382 53.4122 139.699 53.5303 138.966 53.5303ZM138.966 50.772C139.215 50.772 139.451 50.7099 139.674 50.5857C139.91 50.4614 140.109 50.2502 140.271 49.952C140.445 49.6414 140.581 49.2314 140.681 48.722C140.78 48.2002 140.83 47.5479 140.83 46.7651V46.3924C140.83 45.6966 140.78 45.1189 140.681 44.6592C140.581 44.1995 140.445 43.8267 140.271 43.541C140.109 43.2552 139.91 43.0564 139.674 42.9446C139.451 42.8204 139.215 42.7582 138.966 42.7582C138.718 42.7582 138.475 42.8204 138.239 42.9446C138.016 43.0564 137.817 43.2552 137.643 43.541C137.481 43.8267 137.351 44.1995 137.252 44.6592C137.152 45.1189 137.102 45.6966 137.102 46.3924V46.7651C137.102 47.5479 137.152 48.2002 137.252 48.722C137.351 49.2314 137.481 49.6414 137.643 49.952C137.817 50.2502 138.016 50.4614 138.239 50.5857C138.475 50.7099 138.718 50.772 138.966 50.772Z" fill="#00AAFF"/>
<path d="M122 53.288V50.9025L126.324 47.3242C126.746 46.9763 127.106 46.6657 127.405 46.3924C127.703 46.1066 127.945 45.8395 128.131 45.591C128.33 45.3425 128.473 45.1065 128.56 44.8828C128.66 44.6468 128.709 44.4045 128.709 44.156C128.709 43.7211 128.585 43.3857 128.336 43.1496C128.1 42.9135 127.759 42.7955 127.311 42.7955C126.715 42.7955 126.268 42.9757 125.97 43.336C125.684 43.6963 125.541 44.2492 125.541 44.9946H122.186C122.186 44.1995 122.292 43.4913 122.503 42.8701C122.714 42.2488 123.031 41.727 123.454 41.3046C123.889 40.8821 124.423 40.5591 125.056 40.3355C125.702 40.1118 126.454 40 127.311 40C128.119 40 128.815 40.1056 129.399 40.3168C129.995 40.5156 130.492 40.8014 130.89 41.1741C131.287 41.5344 131.579 41.9693 131.766 42.4787C131.964 42.9881 132.064 43.5472 132.064 44.156C132.064 44.6033 131.983 45.0319 131.822 45.4419C131.672 45.8519 131.455 46.2495 131.169 46.6347C130.896 47.0198 130.567 47.3926 130.182 47.7529C129.796 48.1132 129.38 48.4673 128.933 48.8152L126.678 50.5297H132.25V53.288H122Z" fill="#00AAFF"/>
<path d="M83.6414 7.73242L85.4604 11.9952L84.1525 11.9976L83.8058 11.2891L81.587 11.2926L81.2417 12.0032L79.9338 12.0049L81.7338 7.73653L83.6414 7.73242ZM82.6002 8.68924L82.002 10.1877L83.3805 10.1856L82.7785 8.68924H82.6002Z" fill="#07213E"/>
<path d="M89.244 7.72363C89.7834 7.72363 90.3643 7.79976 90.3657 8.92733C90.3672 9.39839 90.1943 9.69195 89.9957 9.79922C90.3316 9.97143 90.5001 10.2873 90.5016 10.806C90.5025 11.6779 90.1766 11.9882 89.3843 11.9891L85.9997 11.9956L85.9929 7.72982L89.244 7.72363ZM87.1141 9.33198L89.0993 9.32904C89.2687 9.32904 89.3793 9.25085 89.3784 9.04251C89.3784 8.82827 89.2658 8.756 89.0984 8.75628L87.1138 8.7598V9.33198H87.1141ZM87.1179 10.9609L89.0575 10.9579C89.2502 10.9579 89.3819 10.8439 89.3819 10.6356C89.3814 10.3426 89.2481 10.2838 89.0564 10.2838L87.1167 10.2867L87.1179 10.9609Z" fill="#07213E"/>
<path d="M91.2295 7.72061L95.5587 7.71387L95.5612 8.81792L93.9582 8.82056L93.9632 11.9825L92.8436 11.9843L92.8386 8.82261L91.2304 8.82467L91.2295 7.72061Z" fill="#07213E"/>
<path d="M98.9096 12.0338C96.5527 12.0377 96.5072 11.8942 96.5028 9.84808C96.5003 7.80774 96.5455 7.65287 98.9024 7.64849C101.248 7.64524 101.309 7.80011 101.313 9.84042C101.316 11.8743 101.255 12.03 98.9096 12.0338ZM98.9082 10.9298C100.19 10.9283 100.195 10.9222 100.193 9.84161C100.19 8.75634 100.186 8.75049 98.9088 8.75282C97.6274 8.75429 97.6221 8.76048 97.6229 9.846C97.6251 10.9265 97.6299 10.9318 98.9082 10.9298Z" fill="#07213E"/>
<path d="M106.437 9.33618L105.316 9.33793C105.316 8.86717 105.224 8.74197 104.201 8.74375C103.101 8.74522 103.097 8.78108 103.098 9.83692C103.101 10.8987 103.106 10.9228 104.204 10.9213C105.213 10.9198 105.319 10.8299 105.318 10.323L106.437 10.32C106.44 11.7829 106.369 12.0206 104.207 12.0245C102.095 12.0283 101.983 11.8429 101.98 9.83251C101.976 7.83422 102.087 7.64291 104.2 7.63969C106.342 7.63586 106.434 7.88654 106.437 9.33618Z" fill="#07213E"/>
<path d="M107.273 7.69455L111.604 7.6875L111.606 8.79156L110.002 8.7945L110.008 11.9565L108.888 11.958L108.882 8.79597L107.275 8.79802L107.273 7.69455Z" fill="#07213E"/>
<path d="M115.935 7.67969L117.753 11.9428L116.447 11.9448L116.098 11.2355L113.88 11.239L113.535 11.9493L112.227 11.9513L114.027 7.68291L115.935 7.67969ZM114.893 8.63651L114.295 10.1346L115.674 10.1326L115.072 8.63534L114.893 8.63651Z" fill="#07213E"/>
<path d="M118.398 7.67599L122.727 7.66895L122.73 8.77272L121.127 8.77564L121.132 11.9377L120.012 11.9391L120.008 8.778L118.399 8.78005L118.398 7.67599Z" fill="#07213E"/>
<path d="M80.1759 14.9765L79.8262 14.9771L80.4965 13.1903L80.8235 13.1895L81.5003 14.9741L81.1506 14.9744L81.0206 14.6L80.3053 14.6006L80.1759 14.9765ZM80.9326 14.33L80.6615 13.5368L80.3912 14.3303L80.9326 14.33Z" fill="#07213E"/>
<path d="M82.2351 14.9729H81.9096L81.9066 13.1883L82.2322 13.1877L82.2343 13.9018L83.0304 13.9012L83.0298 13.1868L83.3569 13.1865L83.3589 14.9712L83.0319 14.9718L83.0304 14.171L82.2343 14.1727L82.2351 14.9729Z" fill="#07213E"/>
<path d="M84.1176 14.9706L83.7673 14.9709L84.4382 13.1839L84.7661 13.1836L85.4423 14.9685H85.0926L84.9617 14.5939L84.2479 14.595L84.1176 14.9706ZM84.8752 14.3241L84.6032 13.5315L84.3335 14.3244L84.8752 14.3241Z" fill="#07213E"/>
<path d="M85.6113 14.6961C86.0016 14.7643 86.0119 14.2436 86.0104 13.8821L86.0098 13.1804L87.231 13.1777L87.2354 14.9638L86.9092 14.9644L86.9063 13.4487L86.3363 13.4496L86.3372 13.9776C86.3378 14.4269 86.2942 15.0749 85.6116 14.9665L85.6113 14.6961Z" fill="#07213E"/>
<path d="M89.0444 13.1764L89.3644 13.1758L89.3664 14.9613L89.0394 14.9616L89.0373 13.656L88.1897 14.9634L87.8706 14.9639L87.8677 13.1778L88.1941 13.1769L88.1962 14.4838L89.0444 13.1764Z" fill="#07213E"/>
<path d="M89.8145 13.4456V13.1752L91.2647 13.1729L91.2653 13.4435L90.7032 13.4447L90.7062 14.959L90.3791 14.9602L90.3762 13.4447L89.8145 13.4456Z" fill="#07213E"/>
<path d="M92.893 13.1702L93.213 13.1699L93.2161 14.9546H92.8894L92.8875 13.6498L92.039 14.9569H91.7205L91.7161 13.1723L92.0432 13.1717L92.0451 14.4776L92.893 13.1702Z" fill="#07213E"/>
<path d="M94.1069 13.1684L94.1083 13.6503C94.1083 13.821 94.1186 13.9489 94.4844 13.948C94.6267 13.9474 94.7822 13.9321 94.8085 13.9292L94.8063 13.1666L95.1332 13.166L95.1363 14.9521L94.8102 14.9527L94.8085 14.2004C94.7081 14.2078 94.5576 14.2181 94.4436 14.2181C94.0606 14.2192 93.7819 14.1249 93.7819 13.7241L93.7805 13.1684H94.1069Z" fill="#07213E"/>
<path d="M97.0061 13.8993V14.1691L96.0974 14.1703L96.0982 14.6813L97.1398 14.6795L97.1404 14.9496L95.7716 14.9516L95.7688 13.1658L97.1093 13.1641L97.1102 13.4341L96.096 13.4353L96.0969 13.8993H97.0061Z" fill="#07213E"/>
<path d="M99.1582 14.3358C99.1348 14.6061 98.9916 14.9996 98.3869 15.0002C98.2487 15.0002 97.5007 14.9888 97.499 14.086C97.4985 13.351 97.922 13.1086 98.3663 13.1074C98.9786 13.106 99.1168 13.4812 99.1332 13.7357L98.8087 13.7369C98.7871 13.5882 98.6997 13.3775 98.3661 13.3781C97.9678 13.3781 97.8476 13.7028 97.8484 14.0725C97.849 14.4909 98.0796 14.7301 98.4002 14.7301C98.6977 14.7287 98.8237 14.5277 98.8343 14.3364L99.1582 14.3358Z" fill="#07213E"/>
<path d="M100.78 13.1566L101.218 13.1562L100.48 13.8968L101.27 14.9406L100.831 14.9421L100.241 14.1169L100.001 14.3494L100.001 14.9433L99.6736 14.9441L99.6714 13.1586L99.9986 13.158L100 13.9612L100.78 13.1566Z" fill="#07213E"/>
<path d="M102.449 13.1006C102.605 13.1 103.325 13.1191 103.326 14.0448C103.327 14.9711 102.608 14.9928 102.451 14.9931C102.296 14.9934 101.575 14.9743 101.575 14.0477C101.573 13.1223 102.294 13.1006 102.449 13.1006ZM102.452 14.7227C102.894 14.7218 102.977 14.3213 102.976 14.0457C102.976 13.7706 102.891 13.3701 102.449 13.3704C102.007 13.3715 101.925 13.7724 101.925 14.0474C101.925 14.3231 102.01 14.723 102.452 14.7227Z" fill="#07213E"/>
<path d="M105.095 13.8857V14.1554L104.188 14.1572V14.6673L105.23 14.6656V14.9359L103.862 14.938L103.859 13.1528L105.199 13.1504L105.2 13.4205L104.185 13.4222L104.188 13.8868L105.095 13.8857Z" fill="#07213E"/>
<path d="M106.611 14.9326L106.262 14.9335L106.933 13.1468L107.259 13.1465L107.937 14.9305L107.586 14.9311L107.457 14.5568L106.742 14.557L106.611 14.9326ZM107.369 14.2864L107.097 13.4938L106.828 14.2876L107.369 14.2864Z" fill="#07213E"/>
<path d="M108.672 14.9302L108.344 14.9306L108.342 13.1456L109.511 13.1436L109.511 13.4139L108.669 13.4151L108.672 14.9302Z" fill="#07213E"/>
<path d="M111.198 13.874L111.2 14.1441L110.291 14.1455L110.291 14.6563L111.334 14.6545V14.9243L109.966 14.9266L109.962 13.1417L111.303 13.1396V13.4094L110.289 13.4112L110.291 13.8755L111.198 13.874Z" fill="#07213E"/>
<path d="M112.123 14.9246L111.796 14.9249L111.793 13.1391L112.119 13.1382L112.12 13.8529L112.918 13.8511L112.916 13.1367H113.243L113.246 14.922L112.919 14.9229L112.918 14.1215L112.121 14.1229L112.123 14.9246Z" fill="#07213E"/>
<path d="M113.695 13.4049V13.1346L115.145 13.1328V13.4026L114.583 13.4044L114.585 14.9192L114.259 14.9195L114.257 13.4046H113.695V13.4049Z" fill="#07213E"/>
<path d="M117.135 14.3059C117.11 14.5772 116.968 14.9703 116.364 14.9706C116.226 14.9709 115.478 14.9597 115.476 14.0564C115.475 13.322 115.898 13.079 116.343 13.0781C116.955 13.077 117.094 13.4516 117.11 13.7076H116.785C116.765 13.5598 116.677 13.3476 116.344 13.3488C115.945 13.3491 115.824 13.6735 115.826 14.0432C115.827 14.4616 116.057 14.7012 116.379 14.7012C116.675 14.7003 116.802 14.4981 116.812 14.3071L117.135 14.3059Z" fill="#07213E"/>
<path d="M117.466 13.4003L117.466 13.1294L118.916 13.1279L118.917 13.398L118.355 13.3986L118.359 14.9135L118.03 14.914L118.029 13.3989L117.466 13.4003Z" fill="#07213E"/>
<path d="M120.21 13.125C120.665 13.1247 120.755 13.3792 120.755 13.5752C120.755 13.7727 120.633 13.9284 120.46 13.9596V13.964C120.608 13.9893 120.83 14.0906 120.83 14.4101C120.832 14.8612 120.446 14.9105 120.178 14.9108L119.371 14.9126L119.367 13.1265L120.21 13.125ZM119.696 13.8505L120.127 13.85C120.308 13.8494 120.418 13.7935 120.418 13.6378C120.417 13.4006 120.188 13.395 120.118 13.395L119.695 13.3962L119.696 13.8505ZM119.696 14.641L120.144 14.6408C120.343 14.6393 120.493 14.5911 120.493 14.3742C120.493 14.1344 120.286 14.12 120.15 14.1203L119.696 14.1209L119.696 14.641Z" fill="#07213E"/>
<path d="M122.167 13.0684C122.323 13.0684 123.043 13.0878 123.044 14.0129C123.046 14.9394 122.326 14.9612 122.171 14.9612C122.014 14.9612 121.294 14.9415 121.293 14.017C121.292 13.0904 122.011 13.069 122.167 13.0684ZM122.17 14.6911C122.611 14.6896 122.695 14.2897 122.695 14.014C122.694 13.7387 122.609 13.3379 122.168 13.339C121.726 13.3396 121.643 13.7401 121.643 14.0161C121.643 14.2915 121.728 14.6911 122.17 14.6911Z" fill="#07213E"/>
<path d="M80.3878 5.49991L77.6426 0.763653C77.4405 0.562648 77.1955 0.47008 76.9549 0.502405C76.7152 0.534436 76.5044 0.688129 76.3608 0.935859L73.658 5.6386C73.5197 5.87928 73.493 6.09967 73.5868 6.25954C73.6786 6.41882 73.8841 6.5058 74.1627 6.50549L79.5887 6.49287C79.876 6.49287 80.1137 6.38532 80.2613 6.19254C80.4081 6.00006 80.4487 5.74262 80.3878 5.49991Z" fill="#07213E"/>
<path d="M68.335 0.571049L68.2803 0.881372C68.2862 1.02684 68.3326 1.17348 68.415 1.31688L71.139 6.0061C71.2822 6.25178 71.4655 6.38725 71.6552 6.38725C71.8449 6.38636 72.0281 6.25062 72.1693 6.00435L74.8722 1.30219C74.9651 1.14056 75.011 0.969239 75.0036 0.80761L74.9483 0.556944C74.8589 0.339189 74.6598 0.175798 74.3892 0.0964546C74.3454 0.0902832 68.9352 0.102626 68.9352 0.102626C68.6229 0.188728 68.4244 0.352705 68.335 0.571049ZM71.6543 6.08956C71.5975 6.08898 71.4964 6.02845 71.3976 5.8574L68.6729 1.16701C68.6155 1.06827 68.5826 0.964829 68.58 0.869324L68.6097 0.684774C68.6644 0.55136 68.7958 0.448212 68.9776 0.394436C68.9796 0.399726 74.3463 0.387675 74.3463 0.387675C74.4872 0.434987 74.618 0.538135 74.6733 0.671552C74.6733 0.67214 74.7054 0.819367 74.7054 0.819367C74.7098 0.925157 74.6786 1.04153 74.6131 1.15437L71.9108 5.85565C71.8114 6.02786 71.7102 6.08898 71.6543 6.08956Z" fill="#07213E"/>
<path d="M66.776 1.30017C66.7498 1.33367 64.0564 6.0182 64.0564 6.0182C64.0405 6.05845 64.0099 6.33057 64.0099 6.33057C64.0172 6.49602 64.0702 6.64736 64.1646 6.76962C64.3152 6.96592 64.5593 7.07405 64.8496 7.07288L70.2771 7.06053C70.5621 7.05995 70.7721 6.96856 70.8653 6.80428C70.8653 6.8037 70.9197 6.56154 70.9197 6.56154L70.7903 6.16749L68.0657 1.47914C67.921 1.22788 67.7045 1.07184 67.4586 1.03892C67.2239 1.00836 66.9825 1.10093 66.776 1.30017ZM67.0089 1.4809C67.1222 1.37922 67.2772 1.31633 67.4204 1.33485C67.5724 1.35454 67.7104 1.45886 67.8086 1.62842L70.5332 6.31764L70.6221 6.57448L70.6059 6.65646C70.5783 6.70614 70.475 6.76284 70.2765 6.76345L64.8496 6.77519C64.6531 6.77578 64.4934 6.70967 64.4011 6.58888C64.3437 6.51511 64.3125 6.42374 64.3081 6.31883C64.3081 6.31883 64.3313 6.1278 64.3322 6.12722C64.3393 6.12691 67.0089 1.4809 67.0089 1.4809Z" fill="#07213E"/>
<path d="M64.2283 7.94073C64.1198 8.08031 64.0683 8.2581 64.0756 8.45057L64.1062 8.6504C64.1239 8.69067 66.0341 11.9823 66.0341 11.9823L66.8388 13.3658C67.0714 13.5974 67.3144 13.6885 67.5476 13.657C67.7946 13.6235 68.0085 13.4669 68.1546 13.2147L70.8561 8.51377C70.9964 8.27103 71.0225 8.03859 70.9296 7.87665C70.8328 7.71179 70.6243 7.62187 70.3393 7.62306L64.9124 7.6351C64.6215 7.63569 64.3789 7.74384 64.2283 7.94073ZM64.3739 8.43911C64.3695 8.31599 64.4006 8.20637 64.4653 8.12205C64.5577 8.00068 64.7171 7.93338 64.913 7.93279L70.3408 7.92103C70.5399 7.92044 70.6422 7.97745 70.6714 8.02652C70.6793 8.04151 70.6846 8.06268 70.6866 8.08972C70.6887 8.15288 70.6669 8.24664 70.5987 8.36418L67.895 13.066C67.7976 13.2365 67.6603 13.3414 67.5082 13.3617C67.3664 13.3811 67.2108 13.3173 67.0706 13.1842C67.0691 13.1713 66.2921 11.8318 66.2921 11.8318L64.3809 8.54138C64.3971 8.58135 64.3739 8.43911 64.3739 8.43911Z" fill="#07213E"/>
<path d="M71.2245 8.6498L68.5216 13.3508C68.4287 13.5124 68.3828 13.6837 68.3893 13.8447L68.4446 14.0957C68.5348 14.3141 68.7339 14.4775 69.0066 14.5571C69.0481 14.5627 74.4576 14.5506 74.4576 14.5506C74.7709 14.4636 74.9694 14.2994 75.0588 14.0819L75.1135 13.7725C75.1076 13.6255 75.0617 13.4798 74.9782 13.3367L72.255 8.64714C72.1118 8.40088 71.9286 8.2666 71.7389 8.2666C71.5489 8.2663 71.3663 8.40207 71.2245 8.6498ZM69.0475 14.2644C68.9057 14.2171 68.7757 14.1139 68.7204 13.9811L68.6878 13.8327C68.6842 13.7278 68.7145 13.6123 68.7807 13.4992L71.4836 8.79762C71.5824 8.6251 71.6836 8.56399 71.7395 8.56399C71.7962 8.56399 71.8965 8.62421 71.9968 8.79643L74.7209 13.4859C74.7782 13.5847 74.8111 13.6884 74.8147 13.7836C74.8147 13.7836 74.7835 13.9679 74.7835 13.9688C74.7282 14.1001 74.5982 14.2033 74.415 14.258C74.4138 14.253 69.0475 14.2644 69.0475 14.2644Z" fill="#07213E"/>
<path d="M72.4992 7.82854C72.4039 7.99371 72.4316 8.2194 72.5742 8.46566L75.2974 13.1561C75.4436 13.4073 75.6595 13.5631 75.905 13.5951C76.1391 13.6248 76.3806 13.5328 76.5871 13.3359C76.6124 13.3021 79.3073 8.61523 79.3073 8.61523C79.3211 8.57585 79.3538 8.30344 79.3538 8.30344C79.3473 8.13858 79.2941 7.98607 79.1991 7.86382C79.0485 7.66693 78.8044 7.55997 78.5135 7.56055L73.0866 7.57201C72.8025 7.57407 72.593 7.66429 72.4992 7.82854ZM72.8316 8.31579C72.7689 8.20822 72.7451 8.12182 72.7422 8.06012C72.7407 8.0231 72.7472 7.99548 72.7566 7.97667C72.7851 7.92846 72.8889 7.87145 73.0866 7.87059L78.5135 7.85824C78.7105 7.85824 78.8702 7.92493 78.9641 8.04513C79.0208 8.12007 79.0514 8.21058 79.0564 8.31579C79.0564 8.31579 79.0323 8.50591 79.0323 8.5068C79.0244 8.50827 76.3547 13.1537 76.3547 13.1537C76.2412 13.2539 76.0856 13.318 75.9427 13.2998C75.7906 13.2807 75.6533 13.1761 75.5553 13.0068L72.8316 8.31579Z" fill="#07213E"/>
<mask id="mask0_2001_41" style="mask-type:luminance" maskUnits="userSpaceOnUse" x="64" y="0" width="60" height="15">
<path d="M123.116 0H64V14.9872H123.116V0Z" fill="white"/>
</mask>
<g mask="url(#mask0_2001_41)">
<path d="M83.6414 7.73242L85.4604 11.9952L84.1525 11.9976L83.8058 11.2891L81.587 11.2926L81.2417 12.0032L79.9338 12.0049L81.7338 7.73653L83.6414 7.73242ZM82.6002 8.68924L82.002 10.1877L83.3805 10.1856L82.7785 8.68924H82.6002Z" fill="#07213E"/>
<path d="M89.244 7.72363C89.7834 7.72363 90.3643 7.79976 90.3657 8.92733C90.3672 9.39839 90.1943 9.69195 89.9957 9.79922C90.3316 9.97143 90.5001 10.2873 90.5016 10.806C90.5025 11.6779 90.1766 11.9882 89.3843 11.9891L85.9997 11.9956L85.9929 7.72982L89.244 7.72363ZM87.1141 9.33198L89.0993 9.32904C89.2687 9.32904 89.3793 9.25085 89.3784 9.04251C89.3784 8.82827 89.2658 8.756 89.0984 8.75628L87.1138 8.7598V9.33198H87.1141ZM87.1179 10.9609L89.0575 10.9579C89.2502 10.9579 89.3819 10.8439 89.3819 10.6356C89.3814 10.3426 89.2481 10.2838 89.0564 10.2838L87.1167 10.2867L87.1179 10.9609Z" fill="#07213E"/>
<path d="M91.2295 7.72061L95.5587 7.71387L95.5612 8.81792L93.9582 8.82056L93.9632 11.9825L92.8436 11.9843L92.8386 8.82261L91.2304 8.82467L91.2295 7.72061Z" fill="#07213E"/>
<path d="M98.9096 12.0338C96.5527 12.0377 96.5072 11.8942 96.5028 9.84808C96.5003 7.80774 96.5455 7.65287 98.9024 7.64849C101.248 7.64524 101.309 7.80011 101.313 9.84042C101.316 11.8743 101.255 12.03 98.9096 12.0338ZM98.9082 10.9298C100.19 10.9283 100.195 10.9222 100.193 9.84161C100.19 8.75634 100.186 8.75049 98.9088 8.75282C97.6274 8.75429 97.6221 8.76048 97.6229 9.846C97.6251 10.9265 97.6299 10.9318 98.9082 10.9298Z" fill="#07213E"/>
<path d="M106.437 9.33618L105.316 9.33793C105.316 8.86717 105.224 8.74197 104.201 8.74375C103.101 8.74522 103.097 8.78108 103.098 9.83692C103.101 10.8987 103.106 10.9228 104.204 10.9213C105.213 10.9198 105.319 10.8299 105.318 10.323L106.437 10.32C106.44 11.7829 106.369 12.0206 104.207 12.0245C102.095 12.0283 101.983 11.8429 101.98 9.83251C101.976 7.83422 102.087 7.64291 104.2 7.63969C106.342 7.63586 106.434 7.88654 106.437 9.33618Z" fill="#07213E"/>
<path d="M107.273 7.69455L111.604 7.6875L111.606 8.79156L110.002 8.7945L110.008 11.9565L108.888 11.958L108.882 8.79597L107.275 8.79802L107.273 7.69455Z" fill="#07213E"/>
<path d="M115.935 7.67969L117.753 11.9428L116.447 11.9448L116.098 11.2355L113.88 11.239L113.535 11.9493L112.227 11.9513L114.027 7.68291L115.935 7.67969ZM114.893 8.63651L114.295 10.1346L115.674 10.1326L115.072 8.63534L114.893 8.63651Z" fill="#07213E"/>
<path d="M118.398 7.67599L122.727 7.66895L122.73 8.77272L121.127 8.77564L121.132 11.9377L120.012 11.9391L120.008 8.778L118.399 8.78005L118.398 7.67599Z" fill="#07213E"/>
<path d="M80.1759 14.9765L79.8262 14.9771L80.4965 13.1903L80.8235 13.1895L81.5003 14.9741L81.1506 14.9744L81.0206 14.6L80.3053 14.6006L80.1759 14.9765ZM80.9326 14.33L80.6615 13.5368L80.3912 14.3303L80.9326 14.33Z" fill="#07213E"/>
<path d="M82.2351 14.9729H81.9096L81.9066 13.1883L82.2322 13.1877L82.2343 13.9018L83.0304 13.9012L83.0298 13.1868L83.3569 13.1865L83.3589 14.9712L83.0319 14.9718L83.0304 14.171L82.2343 14.1727L82.2351 14.9729Z" fill="#07213E"/>
<path d="M84.1176 14.9706L83.7673 14.9709L84.4382 13.1839L84.7661 13.1836L85.4423 14.9685H85.0926L84.9617 14.5939L84.2479 14.595L84.1176 14.9706ZM84.8752 14.3241L84.6032 13.5315L84.3335 14.3244L84.8752 14.3241Z" fill="#07213E"/>
<path d="M85.6113 14.6961C86.0016 14.7643 86.0119 14.2436 86.0104 13.8821L86.0098 13.1804L87.231 13.1777L87.2354 14.9638L86.9092 14.9644L86.9063 13.4487L86.3363 13.4496L86.3372 13.9776C86.3378 14.4269 86.2942 15.0749 85.6116 14.9665L85.6113 14.6961Z" fill="#07213E"/>
<path d="M89.0444 13.1764L89.3644 13.1758L89.3664 14.9613L89.0394 14.9616L89.0373 13.656L88.1897 14.9634L87.8706 14.9639L87.8677 13.1778L88.1941 13.1769L88.1962 14.4838L89.0444 13.1764Z" fill="#07213E"/>
<path d="M89.8145 13.4456V13.1752L91.2647 13.1729L91.2653 13.4435L90.7032 13.4447L90.7062 14.959L90.3791 14.9602L90.3762 13.4447L89.8145 13.4456Z" fill="#07213E"/>
<path d="M92.893 13.1702L93.213 13.1699L93.2161 14.9546H92.8894L92.8875 13.6498L92.039 14.9569H91.7205L91.7161 13.1723L92.0432 13.1717L92.0451 14.4776L92.893 13.1702Z" fill="#07213E"/>
<path d="M94.1069 13.1684L94.1083 13.6503C94.1083 13.821 94.1186 13.9489 94.4844 13.948C94.6267 13.9474 94.7822 13.9321 94.8085 13.9292L94.8063 13.1666L95.1332 13.166L95.1363 14.9521L94.8102 14.9527L94.8085 14.2004C94.7081 14.2078 94.5576 14.2181 94.4436 14.2181C94.0606 14.2192 93.7819 14.1249 93.7819 13.7241L93.7805 13.1684H94.1069Z" fill="#07213E"/>
<path d="M97.0061 13.8993V14.1691L96.0974 14.1703L96.0982 14.6813L97.1398 14.6795L97.1404 14.9496L95.7716 14.9516L95.7688 13.1658L97.1093 13.1641L97.1102 13.4341L96.096 13.4353L96.0969 13.8993H97.0061Z" fill="#07213E"/>
<path d="M99.1582 14.3358C99.1348 14.6061 98.9916 14.9996 98.3869 15.0002C98.2487 15.0002 97.5007 14.9888 97.499 14.086C97.4985 13.351 97.922 13.1086 98.3663 13.1074C98.9786 13.106 99.1168 13.4812 99.1332 13.7357L98.8087 13.7369C98.7871 13.5882 98.6997 13.3775 98.3661 13.3781C97.9678 13.3781 97.8476 13.7028 97.8484 14.0725C97.849 14.4909 98.0796 14.7301 98.4002 14.7301C98.6977 14.7287 98.8237 14.5277 98.8343 14.3364L99.1582 14.3358Z" fill="#07213E"/>
<path d="M100.78 13.1566L101.218 13.1562L100.48 13.8968L101.27 14.9406L100.831 14.9421L100.241 14.1169L100.001 14.3494L100.001 14.9433L99.6736 14.9441L99.6714 13.1586L99.9986 13.158L100 13.9612L100.78 13.1566Z" fill="#07213E"/>
<path d="M102.449 13.1006C102.605 13.1 103.325 13.1191 103.326 14.0448C103.327 14.9711 102.608 14.9928 102.451 14.9931C102.296 14.9934 101.575 14.9743 101.575 14.0477C101.573 13.1223 102.294 13.1006 102.449 13.1006ZM102.452 14.7227C102.894 14.7218 102.977 14.3213 102.976 14.0457C102.976 13.7706 102.891 13.3701 102.449 13.3704C102.007 13.3715 101.925 13.7724 101.925 14.0474C101.925 14.3231 102.01 14.723 102.452 14.7227Z" fill="#07213E"/>
<path d="M105.095 13.8857V14.1554L104.188 14.1572V14.6673L105.23 14.6656V14.9359L103.862 14.938L103.859 13.1528L105.199 13.1504L105.2 13.4205L104.185 13.4222L104.188 13.8868L105.095 13.8857Z" fill="#07213E"/>
<path d="M106.611 14.9326L106.262 14.9335L106.933 13.1468L107.259 13.1465L107.937 14.9305L107.586 14.9311L107.457 14.5568L106.742 14.557L106.611 14.9326ZM107.369 14.2864L107.097 13.4938L106.828 14.2876L107.369 14.2864Z" fill="#07213E"/>
<path d="M108.672 14.9302L108.344 14.9306L108.342 13.1456L109.511 13.1436L109.511 13.4139L108.669 13.4151L108.672 14.9302Z" fill="#07213E"/>
<path d="M111.198 13.874L111.2 14.1441L110.291 14.1455L110.291 14.6563L111.334 14.6545V14.9243L109.966 14.9266L109.962 13.1417L111.303 13.1396V13.4094L110.289 13.4112L110.291 13.8755L111.198 13.874Z" fill="#07213E"/>
<path d="M112.123 14.9246L111.796 14.9249L111.793 13.1391L112.119 13.1382L112.12 13.8529L112.918 13.8511L112.916 13.1367H113.243L113.246 14.922L112.919 14.9229L112.918 14.1215L112.121 14.1229L112.123 14.9246Z" fill="#07213E"/>
<path d="M113.695 13.4049V13.1346L115.145 13.1328V13.4026L114.583 13.4044L114.585 14.9192L114.259 14.9195L114.257 13.4046H113.695V13.4049Z" fill="#07213E"/>
<path d="M117.135 14.3059C117.11 14.5772 116.968 14.9703 116.364 14.9706C116.226 14.9709 115.478 14.9597 115.476 14.0564C115.475 13.322 115.898 13.079 116.343 13.0781C116.955 13.077 117.094 13.4516 117.11 13.7076H116.785C116.765 13.5598 116.677 13.3476 116.344 13.3488C115.945 13.3491 115.824 13.6735 115.826 14.0432C115.827 14.4616 116.057 14.7012 116.379 14.7012C116.675 14.7003 116.802 14.4981 116.812 14.3071L117.135 14.3059Z" fill="#07213E"/>
<path d="M117.466 13.4003L117.466 13.1294L118.916 13.1279L118.917 13.398L118.355 13.3986L118.359 14.9135L118.03 14.914L118.029 13.3989L117.466 13.4003Z" fill="#07213E"/>
<path d="M120.21 13.125C120.665 13.1247 120.755 13.3792 120.755 13.5752C120.755 13.7727 120.633 13.9284 120.46 13.9596V13.964C120.608 13.9893 120.83 14.0906 120.83 14.4101C120.832 14.8612 120.446 14.9105 120.178 14.9108L119.371 14.9126L119.367 13.1265L120.21 13.125ZM119.696 13.8505L120.127 13.85C120.308 13.8494 120.418 13.7935 120.418 13.6378C120.417 13.4006 120.188 13.395 120.118 13.395L119.695 13.3962L119.696 13.8505ZM119.696 14.641L120.144 14.6408C120.343 14.6393 120.493 14.5911 120.493 14.3742C120.493 14.1344 120.286 14.12 120.15 14.1203L119.696 14.1209L119.696 14.641Z" fill="#07213E"/>
<path d="M122.167 13.0684C122.323 13.0684 123.043 13.0878 123.044 14.0129C123.046 14.9394 122.326 14.9612 122.171 14.9612C122.014 14.9612 121.294 14.9415 121.293 14.017C121.292 13.0904 122.011 13.069 122.167 13.0684ZM122.17 14.6911C122.611 14.6896 122.695 14.2897 122.695 14.014C122.694 13.7387 122.609 13.3379 122.168 13.339C121.726 13.3396 121.643 13.7401 121.643 14.0161C121.643 14.2915 121.728 14.6911 122.17 14.6911Z" fill="#07213E"/>
<path d="M80.3878 5.49991L77.6426 0.763653C77.4405 0.562648 77.1955 0.47008 76.9549 0.502405C76.7152 0.534436 76.5044 0.688129 76.3608 0.935859L73.658 5.6386C73.5197 5.87928 73.493 6.09967 73.5868 6.25954C73.6786 6.41882 73.8841 6.5058 74.1627 6.50549L79.5887 6.49287C79.876 6.49287 80.1137 6.38532 80.2613 6.19254C80.4081 6.00006 80.4487 5.74262 80.3878 5.49991Z" fill="#07213E"/>
<path d="M68.335 0.571049L68.2803 0.881372C68.2862 1.02684 68.3326 1.17348 68.415 1.31688L71.139 6.0061C71.2822 6.25178 71.4655 6.38725 71.6552 6.38725C71.8449 6.38636 72.0281 6.25062 72.1693 6.00435L74.8722 1.30219C74.9651 1.14056 75.011 0.969239 75.0036 0.80761L74.9483 0.556944C74.8589 0.339189 74.6598 0.175798 74.3892 0.0964546C74.3454 0.0902832 68.9352 0.102626 68.9352 0.102626C68.6229 0.188728 68.4244 0.352705 68.335 0.571049ZM71.6543 6.08956C71.5975 6.08898 71.4964 6.02845 71.3976 5.8574L68.6729 1.16701C68.6155 1.06827 68.5826 0.964829 68.58 0.869324L68.6097 0.684774C68.6644 0.55136 68.7958 0.448212 68.9776 0.394436C68.9796 0.399726 74.3463 0.387675 74.3463 0.387675C74.4872 0.434987 74.618 0.538135 74.6733 0.671552C74.6733 0.67214 74.7054 0.819367 74.7054 0.819367C74.7098 0.925157 74.6786 1.04153 74.6131 1.15437L71.9108 5.85565C71.8114 6.02786 71.7102 6.08898 71.6543 6.08956Z" fill="#07213E"/>
<path d="M66.776 1.30017C66.7498 1.33367 64.0564 6.0182 64.0564 6.0182C64.0405 6.05845 64.0099 6.33057 64.0099 6.33057C64.0172 6.49602 64.0702 6.64736 64.1646 6.76962C64.3152 6.96592 64.5593 7.07405 64.8496 7.07288L70.2771 7.06053C70.5621 7.05995 70.7721 6.96856 70.8653 6.80428C70.8653 6.8037 70.9197 6.56154 70.9197 6.56154L70.7903 6.16749L68.0657 1.47914C67.921 1.22788 67.7045 1.07184 67.4586 1.03892C67.2239 1.00836 66.9825 1.10093 66.776 1.30017ZM67.0089 1.4809C67.1222 1.37922 67.2772 1.31633 67.4204 1.33485C67.5724 1.35454 67.7104 1.45886 67.8086 1.62842L70.5332 6.31764L70.6221 6.57448L70.6059 6.65646C70.5783 6.70614 70.475 6.76284 70.2765 6.76345L64.8496 6.77519C64.6531 6.77578 64.4934 6.70967 64.4011 6.58888C64.3437 6.51511 64.3125 6.42374 64.3081 6.31883C64.3081 6.31883 64.3313 6.1278 64.3322 6.12722C64.3393 6.12691 67.0089 1.4809 67.0089 1.4809Z" fill="#07213E"/>
<path d="M64.2283 7.94073C64.1198 8.08031 64.0683 8.2581 64.0756 8.45057L64.1062 8.6504C64.1239 8.69067 66.0341 11.9823 66.0341 11.9823L66.8388 13.3658C67.0714 13.5974 67.3144 13.6885 67.5476 13.657C67.7946 13.6235 68.0085 13.4669 68.1546 13.2147L70.8561 8.51377C70.9964 8.27103 71.0225 8.03859 70.9296 7.87665C70.8328 7.71179 70.6243 7.62187 70.3393 7.62306L64.9124 7.6351C64.6215 7.63569 64.3789 7.74384 64.2283 7.94073ZM64.3739 8.43911C64.3695 8.31599 64.4006 8.20637 64.4653 8.12205C64.5577 8.00068 64.7171 7.93338 64.913 7.93279L70.3408 7.92103C70.5399 7.92044 70.6422 7.97745 70.6714 8.02652C70.6793 8.04151 70.6846 8.06268 70.6866 8.08972C70.6887 8.15288 70.6669 8.24664 70.5987 8.36418L67.895 13.066C67.7976 13.2365 67.6603 13.3414 67.5082 13.3617C67.3664 13.3811 67.2108 13.3173 67.0706 13.1842C67.0691 13.1713 66.2921 11.8318 66.2921 11.8318L64.3809 8.54138C64.3971 8.58135 64.3739 8.43911 64.3739 8.43911Z" fill="#07213E"/>
<path d="M71.2245 8.6498L68.5216 13.3508C68.4287 13.5124 68.3828 13.6837 68.3893 13.8447L68.4446 14.0957C68.5348 14.3141 68.7339 14.4775 69.0066 14.5571C69.0481 14.5627 74.4576 14.5506 74.4576 14.5506C74.7709 14.4636 74.9694 14.2994 75.0588 14.0819L75.1135 13.7725C75.1076 13.6255 75.0617 13.4798 74.9782 13.3367L72.255 8.64714C72.1118 8.40088 71.9286 8.2666 71.7389 8.2666C71.5489 8.2663 71.3663 8.40207 71.2245 8.6498ZM69.0475 14.2644C68.9057 14.2171 68.7757 14.1139 68.7204 13.9811L68.6878 13.8327C68.6842 13.7278 68.7145 13.6123 68.7807 13.4992L71.4836 8.79762C71.5824 8.6251 71.6836 8.56399 71.7395 8.56399C71.7962 8.56399 71.8965 8.62421 71.9968 8.79643L74.7209 13.4859C74.7782 13.5847 74.8111 13.6884 74.8147 13.7836C74.8147 13.7836 74.7835 13.9679 74.7835 13.9688C74.7282 14.1001 74.5982 14.2033 74.415 14.258C74.4138 14.253 69.0475 14.2644 69.0475 14.2644Z" fill="#07213E"/>
<path d="M72.4992 7.82854C72.4039 7.99371 72.4316 8.2194 72.5742 8.46566L75.2974 13.1561C75.4436 13.4073 75.6595 13.5631 75.905 13.5951C76.1391 13.6248 76.3806 13.5328 76.5871 13.3359C76.6124 13.3021 79.3073 8.61523 79.3073 8.61523C79.3211 8.57585 79.3538 8.30344 79.3538 8.30344C79.3473 8.13858 79.2941 7.98607 79.1991 7.86382C79.0485 7.66693 78.8044 7.55997 78.5135 7.56055L73.0866 7.57201C72.8025 7.57407 72.593 7.66429 72.4992 7.82854ZM72.8316 8.31579C72.7689 8.20822 72.7451 8.12182 72.7422 8.06012C72.7407 8.0231 72.7472 7.99548 72.7566 7.97667C72.7851 7.92846 72.8889 7.87145 73.0866 7.87059L78.5135 7.85824C78.7105 7.85824 78.8702 7.92493 78.9641 8.04513C79.0208 8.12007 79.0514 8.21058 79.0564 8.31579C79.0564 8.31579 79.0323 8.50591 79.0323 8.5068C79.0244 8.50827 76.3547 13.1537 76.3547 13.1537C76.2412 13.2539 76.0856 13.318 75.9427 13.2998C75.7906 13.2807 75.6533 13.1761 75.5553 13.0068L72.8316 8.31579Z" fill="#07213E"/>
<mask id="mask1_2001_41" style="mask-type:luminance" maskUnits="userSpaceOnUse" x="64" y="0" width="60" height="15">
<path d="M123.116 0H64V14.9872H123.116V0Z" fill="white"/>
</mask>
<g mask="url(#mask1_2001_41)">
<path d="M83.6418 7.73242L85.4608 11.9952L84.1529 11.9976L83.8061 11.2891L81.5874 11.2926L81.2421 12.0032L79.9342 12.0049L81.7341 7.73653L83.6418 7.73242ZM82.6006 8.68924L82.0024 10.1877L83.3809 10.1856L82.7788 8.68924H82.6006Z" fill="#07213E"/>
<path d="M89.2445 7.72266C89.7839 7.72266 90.3648 7.79879 90.3662 8.92635C90.3677 9.39742 90.1948 9.69097 89.9962 9.79824C90.3321 9.97046 90.5006 10.2864 90.5021 10.805C90.503 11.6769 90.1771 11.9873 89.3848 11.9881L86.0002 11.9946L85.9934 7.72885L89.2445 7.72266ZM87.1146 9.331L89.0998 9.32806C89.2692 9.32806 89.3798 9.24988 89.3789 9.04153C89.3789 8.8273 89.2662 8.75502 89.0989 8.7553L87.1143 8.75883V9.331H87.1146ZM87.1184 10.9599L89.058 10.9569C89.2507 10.9569 89.3824 10.8429 89.3824 10.6346C89.3818 10.3416 89.2486 10.2828 89.0568 10.2828L87.1172 10.2858L87.1184 10.9599Z" fill="#07213E"/>
<path d="M91.2297 7.71964L95.559 7.71289L95.5615 8.81695L93.9584 8.81958L93.9634 11.9816L92.8438 11.9833L92.8388 8.82164L91.2306 8.82369L91.2297 7.71964Z" fill="#07213E"/>
<path d="M98.91 12.0338C96.5531 12.0377 96.5076 11.8942 96.5031 9.84808C96.5006 7.80774 96.5459 7.65287 98.9027 7.64849C101.249 7.64524 101.31 7.80011 101.313 9.84042C101.317 11.8743 101.255 12.03 98.91 12.0338ZM98.9086 10.9298C100.19 10.9283 100.195 10.9222 100.193 9.84161C100.191 8.75634 100.187 8.75049 98.9091 8.75282C97.6277 8.75429 97.6224 8.76048 97.6233 9.846C97.6255 10.9265 97.6302 10.9318 98.9086 10.9298Z" fill="#07213E"/>
<path d="M106.437 9.33521L105.316 9.33696C105.316 8.86619 105.224 8.74099 104.202 8.74277C103.102 8.74424 103.097 8.7801 103.099 9.83595C103.101 10.8977 103.106 10.9218 104.205 10.9203C105.213 10.9189 105.32 10.8289 105.319 10.322L106.438 10.3191C106.44 11.7819 106.37 12.0197 104.207 12.0235C102.095 12.0273 101.983 11.8419 101.98 9.83153C101.976 7.83324 102.088 7.64193 104.201 7.63871C106.343 7.63488 106.435 7.88556 106.437 9.33521Z" fill="#07213E"/>
<path d="M107.273 7.69455L111.604 7.6875L111.606 8.79156L110.002 8.7945L110.008 11.9565L108.888 11.958L108.882 8.79597L107.275 8.79802L107.273 7.69455Z" fill="#07213E"/>
<path d="M115.935 7.67969L117.753 11.9428L116.447 11.9448L116.098 11.2355L113.881 11.239L113.535 11.9493L112.228 11.9513L114.027 7.68291L115.935 7.67969ZM114.894 8.63651L114.295 10.1346L115.674 10.1326L115.072 8.63534L114.894 8.63651Z" fill="#07213E"/>
<path d="M118.398 7.67502L122.728 7.66797L122.731 8.77175L121.127 8.77466L121.132 11.9367L120.013 11.9382L120.008 8.77702L118.399 8.77907L118.398 7.67502Z" fill="#07213E"/>
<path d="M80.1766 14.9765L79.8269 14.9771L80.4972 13.1903L80.8242 13.1895L81.501 14.9741L81.1513 14.9744L81.0213 14.6L80.306 14.6006L80.1766 14.9765ZM80.9333 14.33L80.6622 13.5368L80.3919 14.3303L80.9333 14.33Z" fill="#07213E"/>
<path d="M82.2358 14.972H81.9102L81.9072 13.1873L82.2328 13.1867L82.2349 13.9008L83.031 13.9002L83.0304 13.1859L83.3575 13.1855L83.3595 14.9702L83.0325 14.9708L83.031 14.17L82.2349 14.1718L82.2358 14.972Z" fill="#07213E"/>
<path d="M84.118 14.9696L83.7677 14.9699L84.4385 13.1829L84.7665 13.1826L85.4427 14.9676H85.093L84.9621 14.5929L84.2483 14.594L84.118 14.9696ZM84.8756 14.3231L84.6035 13.5305L84.3339 14.3234L84.8756 14.3231Z" fill="#07213E"/>
<path d="M85.6118 14.6952C86.0021 14.7633 86.0124 14.2426 86.0109 13.8812L86.0103 13.1794L87.2315 13.1768L87.2359 14.9629L86.9097 14.9635L86.9068 13.4477L86.3368 13.4486L86.3377 13.9767C86.3382 14.426 86.2947 15.0739 85.6121 14.9655L85.6118 14.6952Z" fill="#07213E"/>
<path d="M89.0447 13.1754L89.3646 13.1748L89.3667 14.9603L89.0396 14.9606L89.0376 13.655L88.19 14.9624L87.8709 14.963L87.8679 13.1769L88.1944 13.176L88.1964 14.4828L89.0447 13.1754Z" fill="#07213E"/>
<path d="M89.8149 13.4446V13.1742L91.2652 13.1719L91.2658 13.4425L90.7037 13.4437L90.7067 14.958L90.3796 14.9592L90.3767 13.4437L89.8149 13.4446Z" fill="#07213E"/>
<path d="M92.8936 13.1702L93.2136 13.1699L93.2167 14.9546H92.89L92.8881 13.6498L92.0396 14.9569H91.7211L91.7167 13.1723L92.0438 13.1717L92.0458 14.4776L92.8936 13.1702Z" fill="#07213E"/>
<path d="M94.1071 13.1674L94.1085 13.6493C94.1085 13.8201 94.1188 13.9479 94.4846 13.947C94.627 13.9464 94.7824 13.9312 94.8088 13.9282L94.8066 13.1656L95.1335 13.165L95.1365 14.9512L94.8104 14.9517L94.8088 14.1995C94.7083 14.2068 94.5579 14.2171 94.4438 14.2171C94.0608 14.2182 93.7821 14.1239 93.7821 13.7231L93.7808 13.1674H94.1071Z" fill="#07213E"/>
<path d="M97.0064 13.8983V14.1681L96.0978 14.1693L96.0986 14.6803L97.1402 14.6785L97.1408 14.9486L95.7719 14.9507L95.7692 13.1648L97.1097 13.1631L97.1105 13.4331L96.0964 13.4343L96.0972 13.8983H97.0064Z" fill="#07213E"/>
<path d="M99.1586 14.3348C99.1353 14.6052 98.9921 14.9986 98.3874 14.9992C98.2492 14.9992 97.5012 14.9878 97.4995 14.085C97.499 13.35 97.9225 13.1076 98.3668 13.1064C98.9791 13.105 99.1173 13.4802 99.1337 13.7347L98.8092 13.7359C98.7876 13.5872 98.7002 13.3765 98.3665 13.3771C97.9683 13.3771 97.8481 13.7018 97.8489 14.0715C97.8495 14.49 98.0801 14.7292 98.4007 14.7292C98.6982 14.7277 98.8242 14.5267 98.8348 14.3354L99.1586 14.3348Z" fill="#07213E"/>
<path d="M100.78 13.1566L101.219 13.1562L100.48 13.8968L101.271 14.9406L100.832 14.9421L100.241 14.1169L100.001 14.3494L100.002 14.9433L99.6741 14.9441L99.6719 13.1586L99.9991 13.158L100 13.9612L100.78 13.1566Z" fill="#07213E"/>
<path d="M102.45 13.0996C102.606 13.099 103.325 13.1181 103.327 14.0438C103.328 14.9701 102.608 14.9918 102.452 14.9921C102.296 14.9924 101.576 14.9733 101.576 14.0467C101.574 13.1214 102.295 13.0996 102.45 13.0996ZM102.452 14.7218C102.894 14.7209 102.978 14.3203 102.977 14.0447C102.976 13.7696 102.891 13.3691 102.45 13.3694C102.008 13.3706 101.925 13.7714 101.925 14.0465C101.925 14.3221 102.011 14.722 102.452 14.7218Z" fill="#07213E"/>
<path d="M105.096 13.8847V14.1544L104.188 14.1562V14.6664L105.23 14.6646V14.9349L103.863 14.937L103.86 13.1518L105.2 13.1494L105.201 13.4195L104.186 13.4212L104.188 13.8858L105.096 13.8847Z" fill="#07213E"/>
<path d="M106.612 14.9316L106.262 14.9325L106.933 13.1458L107.26 13.1455L107.937 14.9296L107.586 14.9301L107.458 14.5558L106.742 14.5561L106.612 14.9316ZM107.369 14.2854L107.097 13.4928L106.828 14.2866L107.369 14.2854Z" fill="#07213E"/>
<path d="M108.672 14.9293L108.345 14.9296L108.342 13.1446L109.511 13.1426L109.512 13.4129L108.669 13.4141L108.672 14.9293Z" fill="#07213E"/>
<path d="M111.199 13.873L111.2 14.1431L110.291 14.1446L110.292 14.6553L111.335 14.6535V14.9233L109.966 14.9257L109.963 13.1407L111.303 13.1387V13.4084L110.289 13.4102L110.292 13.8745L111.199 13.873Z" fill="#07213E"/>
<path d="M112.124 14.9236L111.797 14.9239L111.794 13.1381L112.12 13.1372L112.121 13.8519L112.918 13.8501L112.916 13.1357H113.243L113.246 14.921L112.919 14.9219L112.918 14.1205L112.122 14.122L112.124 14.9236Z" fill="#07213E"/>
<path d="M113.696 13.4049V13.1346L115.145 13.1328V13.4026L114.584 13.4044L114.586 14.9192L114.26 14.9195L114.258 13.4046H113.696V13.4049Z" fill="#07213E"/>
<path d="M117.136 14.3049C117.11 14.5762 116.969 14.9694 116.365 14.9696C116.226 14.9699 115.478 14.9588 115.477 14.0554C115.475 13.3211 115.898 13.078 116.344 13.0772C116.956 13.076 117.094 13.4507 117.11 13.7066H116.785C116.765 13.5588 116.678 13.3466 116.344 13.3478C115.946 13.3481 115.825 13.6725 115.827 14.0422C115.827 14.4607 116.058 14.7002 116.379 14.7002C116.676 14.6993 116.802 14.4971 116.812 14.3061L117.136 14.3049Z" fill="#07213E"/>
<path d="M117.467 13.3994L117.466 13.1284L118.916 13.127L118.917 13.397L118.355 13.3976L118.359 14.9125L118.031 14.9131L118.029 13.3979L117.467 13.3994Z" fill="#07213E"/>
<path d="M120.211 13.124C120.665 13.1237 120.756 13.3782 120.756 13.5742C120.756 13.7717 120.634 13.9274 120.46 13.9586V13.963C120.609 13.9883 120.83 14.0897 120.83 14.4091C120.833 14.8602 120.446 14.9096 120.178 14.9098L119.372 14.9116L119.368 13.1255L120.211 13.124ZM119.696 13.8496L120.128 13.849C120.309 13.8484 120.419 13.7926 120.419 13.6368C120.417 13.3996 120.188 13.3941 120.119 13.3941L119.696 13.3953L119.696 13.8496ZM119.697 14.6401L120.145 14.6398C120.344 14.6383 120.494 14.5901 120.494 14.3732C120.494 14.1334 120.286 14.119 120.151 14.1193L119.697 14.1199L119.697 14.6401Z" fill="#07213E"/>
<path d="M122.167 13.0684C122.324 13.0684 123.043 13.0878 123.045 14.0129C123.046 14.9394 122.327 14.9612 122.171 14.9612C122.015 14.9612 121.294 14.9415 121.293 14.017C121.292 13.0904 122.012 13.069 122.167 13.0684ZM122.171 14.6911C122.612 14.6896 122.695 14.2897 122.695 14.014C122.694 13.7387 122.61 13.3379 122.168 13.339C121.726 13.3396 121.644 13.7401 121.644 14.0161C121.644 14.2915 121.728 14.6911 122.171 14.6911Z" fill="#07213E"/>
<path d="M80.3888 5.49991L77.6436 0.763653C77.4415 0.562648 77.1965 0.47008 76.9559 0.502405C76.7162 0.534436 76.5053 0.688129 76.3618 0.935859L73.6589 5.6386C73.5207 5.87928 73.4939 6.09967 73.5878 6.25954C73.6795 6.41882 73.8851 6.5058 74.1636 6.50549L79.5897 6.49287C79.877 6.49287 80.1147 6.38532 80.2623 6.19254C80.4091 6.00006 80.4497 5.74262 80.3888 5.49991Z" fill="#07213E"/>
<path d="M68.3353 0.570072L68.2806 0.880396C68.2865 1.02586 68.333 1.1725 68.4153 1.3159L71.1394 6.00513C71.2826 6.25081 71.4658 6.38627 71.6555 6.38627C71.8453 6.38539 72.0285 6.24964 72.1696 6.00338L74.8725 1.30121C74.9654 1.13959 75.0113 0.968262 75.004 0.806634L74.9487 0.555968C74.8593 0.338212 74.6602 0.174822 74.3896 0.095478C74.3458 0.0893066 68.9356 0.101649 68.9356 0.101649C68.6233 0.187752 68.4247 0.351728 68.3353 0.570072ZM71.6547 6.08858C71.5979 6.088 71.4967 6.02747 71.3979 5.85642L68.6733 1.16603C68.6159 1.06729 68.583 0.963852 68.5803 0.868348L68.61 0.683797C68.6647 0.550383 68.7962 0.447236 68.978 0.393459C68.98 0.398749 74.3466 0.386698 74.3466 0.386698C74.4875 0.434011 74.6184 0.537159 74.6737 0.670575C74.6737 0.671163 74.7058 0.81839 74.7058 0.81839C74.7102 0.92418 74.679 1.04055 74.6134 1.1534L71.9111 5.85467C71.8117 6.02689 71.7105 6.088 71.6547 6.08858Z" fill="#07213E"/>
<path d="M66.7763 1.30017C66.7502 1.33367 64.0567 6.0182 64.0567 6.0182C64.0408 6.05845 64.0103 6.33057 64.0103 6.33057C64.0176 6.49602 64.0705 6.64736 64.165 6.76962C64.3155 6.96592 64.5597 7.07405 64.8499 7.07288L70.2774 7.06053C70.5624 7.05995 70.7724 6.96856 70.8657 6.80428C70.8657 6.8037 70.9201 6.56154 70.9201 6.56154L70.7907 6.16749L68.066 1.47914C67.9213 1.22788 67.7049 1.07184 67.459 1.03892C67.2243 1.00836 66.9828 1.10093 66.7763 1.30017ZM67.0093 1.4809C67.1225 1.37922 67.2775 1.31633 67.4208 1.33485C67.5728 1.35454 67.7107 1.45886 67.809 1.62842L70.5336 6.31764L70.6224 6.57448L70.6063 6.65646C70.5786 6.70614 70.4754 6.76284 70.2769 6.76345L64.8499 6.77519C64.6535 6.77578 64.4938 6.70967 64.4014 6.58888C64.3441 6.51511 64.3129 6.42374 64.3085 6.31883C64.3085 6.31883 64.3317 6.1278 64.3326 6.12722C64.3397 6.12691 67.0093 1.4809 67.0093 1.4809Z" fill="#07213E"/>
<path d="M64.2288 7.93976C64.1202 8.07933 64.0688 8.25712 64.0761 8.4496L64.1067 8.64943C64.1244 8.6897 66.0346 11.9813 66.0346 11.9813L66.8393 13.3648C67.0719 13.5964 67.3149 13.6875 67.5481 13.656C67.7951 13.6225 68.009 13.4659 68.1551 13.2138L70.8565 8.51279C70.9968 8.27006 71.023 8.03762 70.9301 7.87567C70.8333 7.71081 70.6248 7.62089 70.3398 7.62208L64.9129 7.63413C64.622 7.63471 64.3794 7.74287 64.2288 7.93976ZM64.3744 8.43813C64.3699 8.31502 64.4011 8.20539 64.4658 8.12107C64.5582 7.9997 64.7176 7.9324 64.9135 7.93182L70.3413 7.92005C70.5404 7.91947 70.6427 7.97647 70.6718 8.02554C70.6798 8.04053 70.6851 8.06171 70.6871 8.08874C70.6892 8.15191 70.6674 8.24566 70.5992 8.3632L67.8954 13.0651C67.7981 13.2355 67.6608 13.3404 67.5087 13.3607C67.3669 13.3801 67.2113 13.3163 67.0711 13.1832C67.0696 13.1703 66.2925 11.8308 66.2925 11.8308L64.3814 8.54041C64.3976 8.58037 64.3744 8.43813 64.3744 8.43813Z" fill="#07213E"/>
<path d="M71.225 8.64883L68.5221 13.3498C68.4292 13.5114 68.3833 13.6827 68.3898 13.8438L68.445 14.0948C68.5353 14.3131 68.7344 14.4765 69.0071 14.5561C69.0486 14.5617 74.4581 14.5496 74.4581 14.5496C74.7714 14.4627 74.9699 14.2984 75.0593 14.0809L75.114 13.7715C75.1081 13.6246 75.0622 13.4788 74.9787 13.3357L72.2555 8.64616C72.1123 8.3999 71.9291 8.26563 71.7394 8.26563C71.5494 8.26532 71.3667 8.40109 71.225 8.64883ZM69.048 14.2634C68.9062 14.2161 68.7762 14.113 68.7209 13.9801L68.6883 13.8317C68.6847 13.7268 68.715 13.6113 68.7812 13.4982L71.4841 8.79664C71.5829 8.62412 71.6841 8.56301 71.74 8.56301C71.7967 8.56301 71.897 8.62324 71.9973 8.79545L74.7213 13.485C74.7787 13.5837 74.8116 13.6875 74.8152 13.7827C74.8152 13.7827 74.784 13.9669 74.784 13.9678C74.7287 14.0992 74.5987 14.2023 74.4155 14.257C74.4143 14.252 69.048 14.2634 69.048 14.2634Z" fill="#07213E"/>
<path d="M72.4997 7.82854C72.4044 7.99371 72.4321 8.2194 72.5747 8.46566L75.2979 13.1561C75.444 13.4073 75.6599 13.5631 75.9055 13.5951C76.1396 13.6248 76.3811 13.5328 76.5876 13.3359C76.6128 13.3021 79.3078 8.61523 79.3078 8.61523C79.3216 8.57585 79.3543 8.30344 79.3543 8.30344C79.3478 8.13858 79.2946 7.98607 79.1996 7.86382C79.049 7.66693 78.8049 7.55997 78.514 7.56055L73.0871 7.57201C72.8029 7.57407 72.5935 7.66429 72.4997 7.82854ZM72.8321 8.31579C72.7694 8.20822 72.7456 8.12182 72.7427 8.06012C72.7412 8.0231 72.7477 7.99548 72.7571 7.97667C72.7856 7.92846 72.8894 7.87145 73.0871 7.87059L78.514 7.85824C78.711 7.85824 78.8707 7.92493 78.9646 8.04513C79.0213 8.12007 79.0519 8.21058 79.0569 8.31579C79.0569 8.31579 79.0328 8.50591 79.0328 8.5068C79.0248 8.50827 76.3552 13.1537 76.3552 13.1537C76.2417 13.2539 76.0861 13.318 75.9432 13.2998C75.7911 13.2807 75.6538 13.1761 75.5558 13.0068L72.8321 8.31579Z" fill="#07213E"/>
</g>
</g>
<g clip-path="url(#clip0_2001_41)">
<path d="M174.729 11.2261L176.009 7.54304L177.278 11.2261H174.729ZM175.241 6.18848L172.285 14.3432H173.65L174.338 12.3652H177.664L178.352 14.3432H179.741L176.785 6.18848H175.241Z" fill="black"/>
<path d="M186.152 9.60558H187.98V14.343H189.167V9.60558H190.996V8.62305H186.152V9.60558Z" fill="black"/>
<path d="M194.379 13.3958C193.393 13.3958 192.598 12.544 192.598 11.4882C192.598 10.4324 193.393 9.56913 194.379 9.56913C195.364 9.56913 196.16 10.431 196.16 11.4882C196.16 12.5455 195.364 13.3958 194.379 13.3958ZM194.379 8.49036C193.794 8.49659 193.225 8.67719 192.742 9.00949C192.259 9.34179 191.885 9.81089 191.665 10.3578C191.446 10.9048 191.391 11.5051 191.509 12.0832C191.626 12.6614 191.91 13.1916 192.325 13.6071C192.739 14.0227 193.267 14.305 193.84 14.4185C194.413 14.5321 195.007 14.4718 195.546 14.2454C196.086 14.0189 196.547 13.6363 196.872 13.1457C197.196 12.6551 197.37 12.0784 197.371 11.4882C197.372 11.0923 197.294 10.7003 197.144 10.3348C196.993 9.96926 196.772 9.63753 196.494 9.35879C196.215 9.08003 195.885 8.85976 195.522 8.71069C195.159 8.56163 194.77 8.48673 194.379 8.49036Z" fill="black"/>
<path d="M183.456 13.4193H181.818V11.8736H183.456C184.025 11.8736 184.382 12.1609 184.382 12.6522C184.382 13.1435 184.027 13.4193 183.456 13.4193ZM181.818 9.54082H183.338C183.931 9.54082 184.253 9.81519 184.253 10.2591C184.253 10.7029 183.931 10.9917 183.338 10.9917H181.818V9.54082ZM184.692 11.3637C184.919 11.2435 185.109 11.0623 185.241 10.8401C185.373 10.6178 185.442 10.3631 185.44 10.1039C185.44 9.22769 184.881 8.61719 183.421 8.61719H180.631V14.3429H183.492C184.881 14.3429 185.593 13.6003 185.593 12.6766C185.602 12.3899 185.518 12.108 185.356 11.8726C185.194 11.6372 184.961 11.4608 184.692 11.3694" fill="black"/>
<path d="M136.711 9.23242C136.132 9.23216 135.565 9.40556 135.083 9.73069C134.601 10.0558 134.225 10.5181 134.003 11.059C133.781 11.6 133.723 12.1953 133.836 12.7697C133.949 13.344 134.228 13.8717 134.637 14.2859C135.047 14.7001 135.569 14.9822 136.138 15.0965C136.706 15.2109 137.296 15.1523 137.831 14.9283C138.367 14.7043 138.824 14.3248 139.146 13.8379C139.468 13.351 139.64 12.7786 139.64 12.193C139.64 11.408 139.332 10.6552 138.783 10.1001C138.233 9.54489 137.488 9.23282 136.711 9.23242Z" fill="#04E061"/>
<path d="M141.106 10.815C141.578 10.8153 142.038 10.6743 142.431 10.41C142.823 10.1456 143.128 9.7697 143.309 9.3298C143.489 8.8899 143.537 8.4058 143.445 7.9387C143.353 7.4716 143.126 7.0425 142.793 6.70563C142.46 6.3688 142.035 6.13938 141.573 6.04637C141.111 5.95336 140.632 6.00095 140.196 6.18312C139.761 6.3653 139.388 6.67387 139.126 7.0698C138.865 7.46577 138.725 7.93127 138.725 8.4075C138.726 9.0454 138.977 9.65687 139.423 10.1081C139.87 10.5593 140.475 10.8135 141.106 10.815Z" fill="#00AAFF"/>
<path d="M141.794 11.2012C141.444 11.2012 141.102 11.3061 140.81 11.5028C140.519 11.6995 140.292 11.979 140.158 12.3061C140.024 12.6331 139.989 12.993 140.057 13.3402C140.125 13.6874 140.294 14.0063 140.542 14.2566C140.789 14.5069 141.105 14.6774 141.449 14.7464C141.792 14.8155 142.149 14.78 142.472 14.6446C142.796 14.5091 143.073 14.2797 143.267 13.9854C143.462 13.691 143.566 13.345 143.566 12.991C143.567 12.7558 143.521 12.5228 143.432 12.3054C143.343 12.088 143.213 11.8904 143.048 11.7241C142.884 11.5578 142.688 11.426 142.473 11.3363C142.258 11.2465 142.027 11.2006 141.794 11.2012Z" fill="#FF4053"/>
<path d="M137.272 8.84587C137.488 8.84587 137.7 8.78091 137.881 8.65921C138.061 8.53751 138.201 8.36454 138.284 8.16217C138.367 7.95981 138.389 7.73714 138.347 7.52231C138.305 7.30747 138.2 7.11014 138.047 6.95524C137.893 6.80034 137.698 6.69487 137.486 6.65214C137.273 6.60941 137.052 6.63134 136.852 6.71517C136.652 6.79897 136.481 6.94094 136.36 7.12307C136.24 7.30521 136.175 7.51931 136.175 7.73837C136.175 8.03207 136.291 8.31377 136.497 8.52147C136.702 8.72917 136.981 8.84587 137.272 8.84587Z" fill="#965EEB"/>
<path d="M166.561 12.9262C166.28 12.9262 166.005 12.8419 165.771 12.6841C165.537 12.5262 165.355 12.3019 165.247 12.0394C165.14 11.7769 165.111 11.4881 165.166 11.2095C165.221 10.9308 165.357 10.6749 165.556 10.474C165.754 10.2731 166.008 10.1363 166.283 10.0809C166.559 10.0254 166.845 10.0539 167.105 10.1626C167.365 10.2713 167.587 10.4554 167.743 10.6917C167.899 10.9279 167.983 11.2056 167.983 11.4897C167.983 11.6783 167.946 11.8651 167.874 12.0394C167.803 12.2137 167.698 12.372 167.566 12.5054C167.434 12.6388 167.277 12.7446 167.105 12.8168C166.933 12.889 166.747 12.9262 166.561 12.9262ZM166.561 8.52344C165.981 8.52344 165.415 8.69707 164.933 9.02237C164.451 9.34767 164.075 9.81004 163.854 10.351C163.632 10.892 163.574 11.4872 163.687 12.0615C163.8 12.6358 164.079 13.1633 164.489 13.5774C164.899 13.9914 165.421 14.2734 165.989 14.3876C166.558 14.5018 167.147 14.4432 167.682 14.2191C168.218 13.9951 168.675 13.6156 168.997 13.1287C169.319 12.6419 169.491 12.0695 169.491 11.484C169.491 11.0952 169.415 10.7102 169.268 10.351C169.121 9.99184 168.905 9.66547 168.633 9.39054C168.361 9.11564 168.038 8.89757 167.682 8.7488C167.327 8.6 166.946 8.52344 166.561 8.52344Z" fill="black"/>
<path d="M154.164 12.2439L152.828 8.62695H151.247L153.401 14.3412H154.968L157.082 8.62695H155.502L154.164 12.2439Z" fill="black"/>
<path d="M162.051 7.10938H160.548V8.62767H159.669V9.99231H160.548V12.4242C160.548 13.8018 161.299 14.3936 162.357 14.3936C162.715 14.3991 163.071 14.3296 163.402 14.1896V12.7718C163.222 12.8384 163.033 12.8734 162.841 12.8753C162.382 12.8753 162.051 12.6943 162.051 12.0766V9.99231H163.402V8.62767H162.051V7.10938Z" fill="black"/>
<path d="M158.317 6.00169C158.033 6.01202 157.765 6.13315 157.568 6.33958C157.371 6.54601 157.26 6.82164 157.26 7.10848C157.26 7.39531 157.371 7.67094 157.568 7.87738C157.765 8.08381 158.033 8.20494 158.317 8.21528C158.464 8.22061 158.611 8.19598 158.749 8.14274C158.886 8.08954 159.012 8.00888 159.118 7.90558C159.224 7.80228 159.308 7.67844 159.366 7.54151C159.423 7.40454 159.453 7.25728 159.453 7.10848C159.453 6.95968 159.423 6.81241 159.366 6.67548C159.308 6.53851 159.224 6.41468 159.118 6.31138C159.012 6.20808 158.886 6.12741 158.749 6.07421C158.611 6.021 158.464 5.99634 158.317 6.00169Z" fill="black"/>
<path d="M159.069 8.62695H157.566V14.3426H159.069V8.62695Z" fill="black"/>
<path d="M147.2 11.1508L148.283 8.28943L149.357 11.1508H147.2ZM147.43 6.20801L144.342 14.3426H145.999L146.638 12.6448H149.909L150.546 14.3426H152.189L149.119 6.20801H147.43Z" fill="black"/>
</g>
<defs>
<clipPath id="clip0_2001_41">
<rect width="68.9189" height="15" fill="white" transform="translate(131.116)"/>
</clipPath>
</defs>
</svg>
