<svg width="220" height="220" viewBox="0 0 220 220" fill="none" xmlns="http://www.w3.org/2000/svg">
<path fill-rule="evenodd" clip-rule="evenodd" d="M110 0C49.3453 0 0 49.3462 0 110C0 170.654 49.3453 220 110 220C170.655 220 220 170.655 220 110C220 49.3453 170.655 0 110 0ZM167.668 104.683C168.601 105.223 169.375 105.998 169.913 106.932C170.451 107.865 170.735 108.923 170.735 110.001C170.735 111.078 170.451 112.137 169.913 113.07C169.375 114.003 168.601 114.779 167.668 115.319L77.8422 167.179C76.9088 167.718 75.85 168.001 74.7721 168.001C73.6942 168.001 72.6354 167.718 71.702 167.179C70.7687 166.639 69.9937 165.864 69.4552 164.93C68.9166 163.997 68.6334 162.938 68.634 161.86V58.1406C68.6334 57.0627 68.9166 56.0037 69.4552 55.0701C69.9938 54.1365 70.7688 53.3612 71.7022 52.8221C72.6356 52.2831 73.6944 51.9994 74.7723 51.9995C75.8501 51.9996 76.9089 52.2836 77.8422 52.8228L167.669 104.683L167.668 104.683ZM77.2277 157.612V62.388L159.694 110L77.2277 157.612ZM163.372 107.876H163.368L163.371 107.873L163.372 107.876Z" fill="white"/>
</svg>
