<svg width="196" height="60" viewBox="0 0 196 60" fill="none" xmlns="http://www.w3.org/2000/svg">
<path d="M97.6943 25.5882C96.345 25.0691 94.5802 24.9135 92.6599 24.9135H81.9674V21.5916H100.342V15.8823H74.4414V40.5885H91.985C94.4246 40.5885 96.2408 40.3809 97.5906 39.8616C100.445 38.7715 102.366 36.1246 102.366 32.6471C102.366 29.1179 100.549 26.6782 97.6943 25.5882ZM93.9573 34.1523C93.5421 34.3081 92.9711 34.3598 92.2443 34.3598H81.9674V30.4153H92.2443C93.075 30.4153 93.7495 30.4675 94.2688 30.7267C94.8915 31.0382 95.203 31.6092 95.203 32.3356C95.203 33.0622 94.8398 33.8408 93.9573 34.1523Z" fill="white"/>
<path d="M123.468 15.8823H112.465L102.344 40.5885H110.856L112.257 37.0071H123.676L125.13 40.5885H133.59L123.468 15.8823ZM114.126 31.557L117.707 21.5916H118.278L121.86 31.557H114.126Z" fill="white"/>
<path d="M143.278 31.4016V40.5884H135.752V15.8822H143.278V24.9135H155.371V15.8822H162.898V40.5884H155.371V31.4016H143.278Z" fill="white"/>
<path d="M174.809 31.2458V40.5884H167.283V15.8822H174.809V25.173H176.886L185.969 15.8822H195.415L183.373 27.7162L195.882 40.5884H185.865L176.886 31.2458H174.809Z" fill="white"/>
<path d="M0.324219 0H60.3243V30.1757C60.3243 37.9114 56.1975 45.0597 49.4986 48.9279L30.3243 60L11.15 48.9279C4.45092 45.0597 0.324219 37.9114 0.324219 30.1757V0Z" fill="#FFDD2D"/>
<path fill-rule="evenodd" clip-rule="evenodd" d="M16.791 15.8822V25.2675C18.0744 23.8182 20.4078 22.8374 23.0758 22.8374H25.9752V33.7476C25.9752 36.6503 25.1865 39.1909 24.0164 40.5884H36.6279C35.4602 39.1895 34.6734 36.6521 34.6734 33.7532V22.8374H37.5729C40.2409 22.8374 42.5742 23.8182 43.8577 25.2675V15.8822H16.791Z" fill="#333333"/>
</svg>
