<svg width="61" height="60" viewBox="0 0 61 60" fill="none" xmlns="http://www.w3.org/2000/svg">
<g clip-path="url(#clip0_2254_3435)">
<path d="M57.4308 30.9677V23.8887C57.4308 20.7745 55.3211 18.0726 52.2998 17.3168L50.854 16.9548C52.5369 15.3513 53.5598 13.0955 53.5598 10.6452V8.70968C53.5598 3.90774 49.652 0 44.8501 0C40.0482 0 36.1404 3.90774 36.1404 8.70968V10.6452C36.1404 13.0955 37.1633 15.3513 38.8472 16.9548L37.4014 17.3168C34.3791 18.0716 32.2695 20.7745 32.2695 23.8887V30.9677H28.3985V23.8887C28.3985 20.7745 26.2888 18.0726 23.2675 17.3168L21.8217 16.9548C23.5046 15.3513 24.5275 13.0955 24.5275 10.6452V8.70968C24.5275 3.90774 20.6198 0 15.8179 0C11.0159 0 7.10818 3.90774 7.10818 8.70968V10.6452C7.10818 13.0955 8.13108 15.3513 9.81495 16.9548L8.36915 17.3168C5.34689 18.0716 3.23721 20.7745 3.23721 23.8887V30.9677C1.63656 30.9677 0.333984 32.2703 0.333984 33.871V35.8064C0.333984 37.4071 1.63656 38.7097 3.23721 38.7097V60H57.4308V38.7097C59.0314 38.7097 60.334 37.4071 60.334 35.8064V33.871C60.334 32.2703 59.0314 30.9677 57.4308 30.9677ZM51.8295 19.1942C53.9875 19.7342 55.4953 21.6639 55.4953 23.8887V30.9677H53.4311L52.5824 25.0239L50.6672 25.2977L51.4762 30.9677H49.6888V30C49.6888 28.3994 48.3862 27.0968 46.7856 27.0968H45.8179V22.08C46.9414 21.6794 47.7533 20.6148 47.7533 19.3548V18.8584C48.0998 18.7365 48.4327 18.5874 48.7559 18.4258L51.8295 19.1942ZM46.7856 29.0323C47.3188 29.0323 47.7533 29.4668 47.7533 30V30.9677H41.9469V30C41.9469 29.4668 42.3814 29.0323 42.9146 29.0323H46.7856ZM43.8824 19.3548V17.4194C43.8824 16.8861 44.3169 16.4516 44.8501 16.4516C45.3833 16.4516 45.8179 16.8861 45.8179 17.4194V19.3548C45.8179 19.8881 45.3833 20.3226 44.8501 20.3226C44.3169 20.3226 43.8824 19.8881 43.8824 19.3548ZM38.0759 10.6452V8.70968C38.0759 4.97419 41.1146 1.93548 44.8501 1.93548C48.5856 1.93548 51.6243 4.97419 51.6243 8.70968V10.6452C51.6243 13.3277 50.0498 15.7084 47.6827 16.7961C47.3962 15.4945 46.2369 14.5161 44.8501 14.5161C43.4633 14.5161 42.304 15.4945 42.0175 16.7961C39.6504 15.7084 38.0759 13.3268 38.0759 10.6452ZM34.205 23.8887C34.205 21.6648 35.7127 19.7342 37.8708 19.1942L40.9453 18.4258C41.2685 18.5884 41.6004 18.7365 41.9479 18.8594V19.3548C41.9479 20.6148 42.7598 21.6794 43.8833 22.08V27.0968H42.9156C41.3149 27.0968 40.0124 28.3994 40.0124 30V30.9677H38.2249L39.035 25.2987L37.1198 25.0248L36.2691 30.9677H34.205V23.8887ZM22.7972 19.1942C24.9553 19.7342 26.463 21.6639 26.463 23.8887V30.9677H24.3988L23.5501 25.0239L21.635 25.2977L22.444 30.9677H20.6566V30C20.6566 28.3994 19.354 27.0968 17.7533 27.0968H16.7856V22.08C17.9091 21.6794 18.7211 20.6148 18.7211 19.3548V18.8584C19.0675 18.7365 19.4004 18.5874 19.7237 18.4258L22.7972 19.1942ZM17.7533 29.0323C18.2866 29.0323 18.7211 29.4668 18.7211 30V30.9677H12.9146V30C12.9146 29.4668 13.3491 29.0323 13.8824 29.0323H17.7533ZM14.8501 19.3548V17.4194C14.8501 16.8861 15.2846 16.4516 15.8179 16.4516C16.3511 16.4516 16.7856 16.8861 16.7856 17.4194V19.3548C16.7856 19.8881 16.3511 20.3226 15.8179 20.3226C15.2846 20.3226 14.8501 19.8881 14.8501 19.3548ZM9.04366 10.6452V8.70968C9.04366 4.97419 12.0824 1.93548 15.8179 1.93548C19.5533 1.93548 22.592 4.97419 22.592 8.70968V10.6452C22.592 13.3277 21.0175 15.7084 18.6504 16.7961C18.364 15.4945 17.2046 14.5161 15.8179 14.5161C14.4311 14.5161 13.2717 15.4945 12.9853 16.7961C10.6182 15.7084 9.04366 13.3268 9.04366 10.6452ZM5.17269 23.8887C5.17269 21.6648 6.68044 19.7342 8.8385 19.1942L11.913 18.4258C12.2362 18.5884 12.5682 18.7365 12.9156 18.8594V19.3548C12.9156 20.6148 13.7275 21.6794 14.8511 22.08V27.0968H13.8833C12.2827 27.0968 10.9801 28.3994 10.9801 30V30.9677H9.19269L10.0027 25.2987L8.0856 25.0239L7.23689 30.9677H5.17269V23.8887ZM58.3985 35.8064C58.3985 36.3406 57.964 36.7742 57.4308 36.7742H53.5598V38.7097H55.4953V58.0645H5.17269V38.7097H51.6243V36.7742H3.23721C2.70398 36.7742 2.26947 36.3406 2.26947 35.8064V33.871C2.26947 33.3368 2.70398 32.9032 3.23721 32.9032H57.4308C57.964 32.9032 58.3985 33.3368 58.3985 33.871V35.8064Z" fill="#A70A12"/>
<path d="M9.04297 54.1935H51.6236V42.5806H9.04297V54.1935ZM10.9785 44.5161H49.6881V52.258H10.9785V44.5161Z" fill="#A70A12"/>
</g>
<defs>
<clipPath id="clip0_2254_3435">
<rect width="60" height="60" fill="white" transform="translate(0.333984)"/>
</clipPath>
</defs>
</svg>
