<svg width="46" height="46" viewBox="0 0 46 46" fill="none" xmlns="http://www.w3.org/2000/svg">
<path d="M35.5 45.5005C31.3658 45.4967 27.2958 44.475 23.65 42.5255L22.525 41.9005C14.7519 37.7212 8.37923 31.3485 4.2 23.5755L3.575 22.4505C1.57455 18.784 0.517827 14.6772 0.500002 10.5004V8.82543C0.498952 7.49283 1.0299 6.21492 1.975 5.27542L6.2 1.05042C6.61033 0.636925 7.18953 0.437625 7.7674 0.511075C8.34528 0.584525 8.8562 0.922425 9.15 1.42542L14.775 11.0754C15.3438 12.0576 15.1796 13.2998 14.375 14.1004L9.65 18.8255C9.2576 19.2135 9.16618 19.813 9.425 20.3005L10.3 21.9505C13.4426 27.7715 18.2233 32.5435 24.05 35.6755L25.7 36.5755C26.1875 36.8342 26.787 36.7427 27.175 36.3505L31.9 31.6255C32.7005 30.821 33.9428 30.6567 34.925 31.2255L44.575 36.8505C45.078 37.1442 45.416 37.6552 45.4893 38.233C45.5628 38.811 45.3635 39.3902 44.95 39.8005L40.725 44.0255C39.7855 44.9705 38.5075 45.5015 37.175 45.5005H35.5Z" fill="#878C91"/>
</svg>
