<svg width="60" height="60" viewBox="0 0 60 60" fill="none" xmlns="http://www.w3.org/2000/svg">
<g clip-path="url(#clip0_2254_3411)">
<path d="M35.6751 29.5099C37.0061 28.1064 37.8252 26.2129 37.8252 24.1305C37.8252 19.8151 34.3143 16.3043 29.999 16.3043C25.6837 16.3043 22.1729 19.8151 22.1729 24.1305C22.1729 26.2129 22.992 28.1064 24.3229 29.5099C20.7106 31.5139 18.2598 35.3671 18.2598 39.7826C18.2598 40.8631 19.1357 41.7392 20.2163 41.7392H39.7816C40.8621 41.7392 41.7382 40.8632 41.7382 39.7826C41.7383 35.3671 39.2874 31.5139 35.6751 29.5099ZM29.9991 20.2174C32.1568 20.2174 33.9121 21.9728 33.9121 24.1305C33.9121 26.2881 32.1568 28.0435 29.9991 28.0435C27.8415 28.0435 26.0861 26.2881 26.0861 24.1305C26.0861 21.9728 27.8415 20.2174 29.9991 20.2174ZM22.4206 37.8262C23.2916 34.4544 26.3591 31.9566 29.9991 31.9566C33.6392 31.9566 36.7067 34.4544 37.5777 37.8262H22.4206Z" fill="#A70A12"/>
<path d="M54.1304 48.2609C53.2254 48.2609 52.3677 48.4671 51.6014 48.8345L46.5471 43.7802C53.2683 35.8283 53.2986 24.1144 46.6388 16.1283L51.6014 11.1656C52.3677 11.5329 53.2253 11.7391 54.1304 11.7391C57.3669 11.7391 60 9.10606 60 5.86957C60 2.63309 57.3669 0 54.1304 0C50.8939 0 48.2609 2.63309 48.2609 5.86957C48.2609 6.77461 48.4671 7.6323 48.8345 8.39859L43.8718 13.3612C35.8856 6.70125 24.1716 6.7316 16.2199 13.4529L11.1656 8.39859C11.5329 7.6323 11.7391 6.77473 11.7391 5.86957C11.7391 2.63309 9.10606 0 5.86957 0C2.63309 0 0 2.63309 0 5.86957C0 9.10606 2.63309 11.7391 5.86957 11.7391C6.77461 11.7391 7.6323 11.5329 8.39859 11.1655L13.4696 16.2366C10.3022 20.0779 8.57883 24.8561 8.57883 29.8993C8.57883 34.9908 10.3361 39.8113 13.5616 43.6713L8.39859 48.8344C7.6323 48.4671 6.77473 48.2609 5.86957 48.2609C2.63309 48.2609 0 50.8939 0 54.1304C0 57.3669 2.63309 60 5.86957 60C9.10606 60 11.7391 57.3669 11.7391 54.1304C11.7391 53.2254 11.5329 52.3677 11.1655 51.6014L16.3287 46.4382C20.1886 49.6637 25.0092 51.4212 30.1007 51.4212C35.1439 51.4212 39.9221 49.6978 43.7634 46.5303L48.8345 51.6014C48.4672 52.3677 48.261 53.2253 48.261 54.1304C48.261 57.3669 50.8941 60 54.1305 60C57.367 60 60 57.3669 60 54.1304C60 50.8939 57.3669 48.2609 54.1304 48.2609ZM54.1304 3.91301C55.2093 3.91301 56.087 4.79074 56.087 5.86957C56.087 6.9484 55.2093 7.82613 54.1304 7.82613C53.0516 7.82613 52.1739 6.9484 52.1739 5.86957C52.1739 4.79074 53.0516 3.91301 54.1304 3.91301ZM5.86957 7.82613C4.79074 7.82613 3.91301 6.9484 3.91301 5.86957C3.91301 4.79074 4.79074 3.91301 5.86957 3.91301C6.9484 3.91301 7.82613 4.79074 7.82613 5.86957C7.82613 6.9484 6.9484 7.82613 5.86957 7.82613ZM5.86957 56.087C4.79074 56.087 3.91301 55.2093 3.91301 54.1304C3.91301 53.0516 4.79074 52.1739 5.86957 52.1739C6.9484 52.1739 7.82613 53.0516 7.82613 54.1304C7.82613 55.2093 6.9484 56.087 5.86957 56.087ZM42.5518 42.3506C39.2261 45.6764 34.804 47.5082 30.1005 47.5082C20.3686 47.5082 12.4918 39.6325 12.4918 29.8995C12.4918 20.1046 20.4257 12.2989 30.1005 12.2989C34.6091 12.2989 39.1194 14.0157 42.5518 17.4482C49.4174 24.3137 49.4174 35.4851 42.5518 42.3506ZM54.1304 56.087C53.0516 56.087 52.1739 55.2093 52.1739 54.1304C52.1739 53.0516 53.0516 52.1739 54.1304 52.1739C55.2093 52.1739 56.087 53.0516 56.087 54.1304C56.087 55.2093 55.2093 56.087 54.1304 56.087Z" fill="#A70A12"/>
</g>
<defs>
<clipPath id="clip0_2254_3411">
<rect width="60" height="60" fill="white"/>
</clipPath>
</defs>
</svg>
