<svg width="61" height="60" viewBox="0 0 61 60" fill="none" xmlns="http://www.w3.org/2000/svg">
<g clip-path="url(#clip0_2254_3423)">
<path d="M41.2121 49.3489H39.4543V44.0756C39.4543 43.1048 38.6672 42.3178 37.6964 42.3178H9.45484C8.48406 42.3178 7.69703 43.1048 7.69703 44.0756V49.3489H5.93922C3.03168 49.3489 0.666016 51.7145 0.666016 54.6223V58.255C0.666016 59.2257 1.45305 59.9893 2.42383 59.9893H44.7276C45.6984 59.9893 46.4854 59.2257 46.4854 58.255V54.6223C46.4854 51.7145 44.1197 49.3489 41.2121 49.3489ZM11.2127 45.8099H35.9386V49.3488H11.2127V45.8099ZM42.9698 56.4971H4.18152V54.6221C4.18152 53.6529 4.97008 52.8409 5.93934 52.8409C25.678 52.8409 34.3736 52.8865 41.2121 52.8409C42.1813 52.8409 42.9699 53.6529 42.9699 54.6221V56.4971H42.9698Z" fill="#A70A12"/>
<path d="M59.7005 47.9167C59.6978 47.913 59.6951 47.9092 59.6924 47.9055L43.9755 25.9936C45.1602 24.8001 46.2052 23.5335 47.0909 22.2189C48.483 22.5661 49.9758 22.3163 51.1959 21.4556L51.6222 21.1549C53.8807 19.5617 54.4219 16.4281 52.8334 14.1762L44.4223 2.1353C42.8254 -0.128414 39.701 -0.668415 37.437 0.928617L37.0107 1.22932C35.8183 2.07049 35.0427 3.40362 34.9071 4.95952C31.7985 5.75709 28.6562 7.23987 25.7329 9.30202C22.808 11.3653 20.3559 13.8296 18.5615 16.4923C18.4416 16.4624 18.3205 16.4355 18.1976 16.4142C16.8782 16.1863 15.5491 16.486 14.455 17.2578L14.0289 17.5583C11.765 19.1554 11.2253 22.2797 12.8223 24.5438L21.2288 36.4609C22.8228 38.7204 25.9566 39.2599 28.2142 37.6675L28.6403 37.3669C29.7344 36.5951 30.4625 35.4434 30.6904 34.1242C30.7116 34.0013 30.7267 33.8782 30.7389 33.7552C32.2812 33.3599 33.8314 32.7968 35.3595 32.0765L51.0869 54.0028C52.7561 56.3617 56.0346 56.9562 58.4311 55.2658C60.8127 53.5855 61.3807 50.2985 59.7005 47.9167ZM39.0372 4.10205C39.4739 3.79397 39.8757 3.42752 40.5811 3.54952C40.9752 3.6176 41.3191 3.83498 41.545 4.15514L49.9561 16.196C50.432 16.8706 50.2703 17.8064 49.5959 18.2822L49.1696 18.5829C48.495 19.0587 47.5591 18.8971 47.0834 18.2226L38.6768 6.30541C38.1966 5.62467 38.3673 4.57455 39.0372 4.10205ZM26.6139 34.4939L26.1878 34.7945C25.5132 35.2704 24.5772 35.1086 24.1016 34.4342L15.6951 22.517C15.2182 21.8411 15.3791 20.9078 16.0555 20.4308C16.4918 20.123 16.8939 19.7564 17.5994 19.8783C17.9935 19.9464 18.3373 20.1638 18.5678 20.4905L26.9744 32.4078C27.4512 33.0838 27.2903 34.0169 26.6139 34.4939ZM29.8318 30.3593L21.4561 18.4861C23.0128 16.1656 25.1692 14.0019 27.7595 12.1746C30.3497 10.3474 33.1115 9.04174 35.8197 8.35373L44.1952 20.2269C42.5506 22.6785 40.3359 24.8142 37.8918 26.5383C35.4542 28.2579 32.6985 29.631 29.8318 30.3593ZM38.4658 30.3751C38.9549 30.069 39.4398 29.7487 39.9183 29.4112C40.4052 29.0677 40.8775 28.7119 41.3373 28.3472L47.5146 36.9592L44.642 38.9856L38.4658 30.3751ZM46.691 41.8424L49.5637 39.816L51.6128 42.6727L48.7402 44.6991L46.691 41.8424ZM57.1237 51.2556C56.8591 52.7874 54.8601 53.2525 53.9553 51.9697C53.9526 51.966 53.95 51.9622 53.9472 51.9585L50.7893 47.556L53.6619 45.5296L56.831 49.9479C57.0993 50.3305 57.2032 50.7948 57.1237 51.2556Z" fill="#A70A12"/>
</g>
<defs>
<clipPath id="clip0_2254_3423">
<rect width="60" height="60" fill="white" transform="translate(0.666016)"/>
</clipPath>
</defs>
</svg>
