<svg width="38" height="50" viewBox="0 0 38 50" fill="none" xmlns="http://www.w3.org/2000/svg">
<path d="M19.0007 -0.000976562C9.0158 -0.000976562 0.892578 8.12227 0.892578 18.107C0.892578 30.4985 17.0975 48.6898 17.7875 49.458C18.4355 50.1798 19.567 50.1785 20.214 49.458C20.9037 48.6898 37.1087 30.4985 37.1087 18.107C37.1085 8.12227 28.9855 -0.000976562 19.0007 -0.000976562ZM19.0007 27.2178C13.977 27.2178 9.89013 23.1308 9.89013 18.107C9.89013 13.0834 13.9771 8.99647 19.0007 8.99647C24.0242 8.99647 28.1112 13.0835 28.1112 18.1071C28.1112 23.1308 24.0242 27.2178 19.0007 27.2178Z" fill="#878C91"/>
</svg>
