<svg width="40" height="36" viewBox="0 0 40 36" fill="none" xmlns="http://www.w3.org/2000/svg">
<path d="M0.706484 17.2517L9.9233 20.6917L13.4908 32.1647C13.7191 32.8995 14.6176 33.1711 15.214 32.6835L20.3516 28.4953C20.8901 28.0564 21.6572 28.0345 22.22 28.4431L31.4865 35.1707C32.1244 35.6345 33.0283 35.2849 33.1883 34.5139L39.9765 1.86176C40.1512 1.01965 39.3237 0.317068 38.5218 0.627225L0.695703 15.2193C-0.237736 15.5793 -0.229611 16.9009 0.706484 17.2517ZM12.9159 18.8605L30.929 7.76622C31.2527 7.5674 31.5858 8.00513 31.3078 8.26302L16.4417 22.0817C15.9192 22.5681 15.5821 23.2191 15.4867 23.9256L14.9803 27.6785C14.9132 28.1795 14.2093 28.2292 14.071 27.7443L12.1235 20.9009C11.9004 20.1203 12.2255 19.2866 12.9159 18.8605Z" fill="white"/>
</svg>
