<svg width="158" height="41" viewBox="0 0 158 41" fill="none" xmlns="http://www.w3.org/2000/svg">
<mask id="mask0_349_5291" style="mask-type:luminance" maskUnits="userSpaceOnUse" x="0" y="0" width="158" height="41">
<path d="M157.778 0.96582H0V40.9658H157.778V0.96582Z" fill="white"/>
</mask>
<g mask="url(#mask0_349_5291)">
<path d="M52.4211 21.6055L57.2761 32.9827L53.7854 32.9889L52.8599 31.098L46.9381 31.1074L46.0166 33.0039L42.5259 33.0086L47.3298 21.6164L52.4211 21.6055ZM49.6423 24.1592L48.0457 28.1584L51.7248 28.1529L50.118 24.1592H49.6423Z" fill="#07213E"/>
<path d="M67.3752 21.5791C68.8148 21.5791 70.3651 21.7823 70.3691 24.7917C70.373 26.049 69.9114 26.8324 69.3816 27.1187C70.278 27.5784 70.7278 28.4215 70.7317 29.8058C70.7341 32.1329 69.8643 32.9611 67.7496 32.9634L58.7163 32.9807L58.6982 21.5956L67.3752 21.5791ZM61.6905 25.8717L66.9891 25.8638C67.4411 25.8638 67.7363 25.6552 67.7339 25.0991C67.7339 24.5273 67.4333 24.3344 66.9867 24.3352L61.6897 24.3446V25.8717H61.6905ZM61.7007 30.2191L66.8776 30.2112C67.3917 30.2112 67.7434 29.907 67.7434 29.3509C67.7418 28.569 67.3862 28.4121 66.8744 28.4121L61.6976 28.4199L61.7007 30.2191Z" fill="#07213E"/>
<path d="M72.6733 21.5717L84.2279 21.5537L84.2345 24.5004L79.956 24.5074L79.9693 32.9466L76.9812 32.9513L76.9679 24.5129L72.6757 24.5184L72.6733 21.5717Z" fill="#07213E"/>
<path d="M93.1719 33.0843C86.8816 33.0945 86.7601 32.7117 86.7482 27.2506C86.7416 21.805 86.8623 21.3917 93.1527 21.38C99.4134 21.3713 99.5764 21.7847 99.586 27.2302C99.5956 32.6584 99.4305 33.0741 93.1719 33.0843ZM93.1682 30.1376C96.5882 30.1337 96.6023 30.1173 96.5964 27.2333C96.5905 24.3368 96.5794 24.3212 93.1697 24.3274C89.7497 24.3313 89.7357 24.3479 89.7379 27.245C89.7438 30.129 89.7564 30.1431 93.1682 30.1376Z" fill="#07213E"/>
<path d="M113.262 25.8844L110.269 25.8891C110.269 24.6326 110.024 24.2985 107.295 24.3032C104.359 24.3072 104.347 24.4029 104.351 27.2209C104.358 30.0546 104.37 30.1189 107.303 30.115C109.994 30.1111 110.279 29.8711 110.276 28.5181L113.263 28.5103C113.269 32.4146 113.082 33.0491 107.309 33.0593C101.673 33.0695 101.374 32.5746 101.366 27.2091C101.356 21.8757 101.653 21.3652 107.292 21.3566C113.009 21.3463 113.255 22.0154 113.262 25.8844Z" fill="#07213E"/>
<path d="M115.492 21.5022L127.052 21.4834L127.057 24.4301L122.776 24.4379L122.793 32.8771L119.803 32.881L119.788 24.4418L115.497 24.4473L115.492 21.5022Z" fill="#07213E"/>
<path d="M138.611 21.4639L143.463 32.8419L139.977 32.8473L139.045 30.954L133.128 30.9634L132.206 32.8591L128.716 32.8646L133.52 21.4725L138.611 21.4639ZM135.831 24.0176L134.234 28.016L137.915 28.0105L136.307 24.0145L135.831 24.0176Z" fill="#07213E"/>
<path d="M145.186 21.4534L156.74 21.4346L156.748 24.3805L152.469 24.3883L152.482 32.8275L149.494 32.8315L149.482 24.3946L145.188 24.4001L145.186 21.4534Z" fill="#07213E"/>
<path d="M43.1731 40.9374L42.2397 40.939L44.0287 36.1703L44.9016 36.168L46.7078 40.9312L45.7745 40.9319L45.4275 39.9327L43.5185 39.9343L43.1731 40.9374ZM45.1928 39.2119L44.4691 37.0951L43.7477 39.2127L45.1928 39.2119Z" fill="#07213E"/>
<path d="M48.6688 40.928H47.7998L47.792 36.1649L48.661 36.1633L48.6664 38.0692L50.7914 38.0676L50.7898 36.161L51.6627 36.1602L51.6681 40.9233L50.7953 40.9249L50.7914 38.7876L48.6664 38.7923L48.6688 40.928Z" fill="#07213E"/>
<path d="M53.6927 40.9208L52.7578 40.9216L54.5483 36.1522L55.4235 36.1514L57.2282 40.9153H56.2949L55.9455 39.9153L54.0404 39.9184L53.6927 40.9208ZM55.7147 39.1953L54.9886 37.08L54.2689 39.1961L55.7147 39.1953Z" fill="#07213E"/>
<path d="M57.6792 40.1892C58.7208 40.3712 58.7483 38.9814 58.7444 38.0167L58.7428 36.1438L62.002 36.1367L62.0138 40.9038L61.1432 40.9053L61.1354 36.8598L59.6141 36.8622L59.6165 38.2716C59.618 39.4708 59.5019 41.2002 57.6799 40.9108L57.6792 40.1892Z" fill="#07213E"/>
<path d="M66.8418 36.1324L67.6958 36.1309L67.7013 40.8963L66.8284 40.8971L66.823 37.4124L64.5607 40.9018L63.709 40.9034L63.7012 36.1363L64.5725 36.134L64.578 39.6218L66.8418 36.1324Z" fill="#07213E"/>
<path d="M68.8975 36.8499V36.1284L72.7681 36.1221L72.7697 36.8444L71.2696 36.8476L71.2775 40.8892L70.4046 40.8923L70.3967 36.8476L68.8975 36.8499Z" fill="#07213E"/>
<path d="M77.1144 36.117L77.9685 36.1162L77.9766 40.8794H77.1048L77.0996 37.397L74.8351 40.8856H73.9849L73.9731 36.1225L74.8463 36.121L74.8514 39.6064L77.1144 36.117Z" fill="#07213E"/>
<path d="M80.353 36.1108L80.3567 37.397C80.3567 37.8527 80.3842 38.1939 81.3604 38.1915C81.7404 38.19 82.1553 38.1492 82.2256 38.1414L82.2197 36.106L83.0923 36.1045L83.1004 40.8715L82.2301 40.8731L82.2256 38.8653C81.9575 38.8849 81.556 38.9123 81.2516 38.9123C80.2293 38.9155 79.4856 38.6637 79.4856 37.5939L79.4819 36.1108H80.353Z" fill="#07213E"/>
<path d="M88.0913 38.061V38.781L85.6661 38.7841L85.6683 40.148L88.4483 40.1433L88.4498 40.8641L84.7965 40.8696L84.7891 36.1033L88.3668 36.0986L88.3691 36.8194L85.6624 36.8226L85.6646 38.061H88.0913Z" fill="#07213E"/>
<path d="M93.8349 39.2267C93.7727 39.9483 93.3904 40.9984 91.7764 41C91.4075 41 89.4112 40.9694 89.4067 38.56C89.4053 36.5984 90.5356 35.9514 91.7216 35.9483C93.3556 35.9443 93.7245 36.9459 93.7682 37.6251L92.9023 37.6283C92.8445 37.2314 92.6112 36.669 91.7208 36.6706C90.6579 36.6706 90.3371 37.5373 90.3393 38.524C90.3408 39.6408 90.9564 40.2792 91.8119 40.2792C92.606 40.2753 92.9423 39.7388 92.9704 39.2283L93.8349 39.2267Z" fill="#07213E"/>
<path d="M98.1636 36.0799L99.334 36.0791L97.3621 38.0556L99.4718 40.8415L98.3006 40.8454L96.7243 38.643L96.0836 39.2635L96.0858 40.8486L95.211 40.8509L95.2051 36.0854L96.0784 36.0838L96.0821 38.2274L98.1636 36.0799Z" fill="#07213E"/>
<path d="M102.619 35.9307C103.035 35.9291 104.956 35.9801 104.961 38.4507C104.963 40.9228 103.042 40.9808 102.625 40.9817C102.21 40.9824 100.287 40.9314 100.287 38.4585C100.281 35.9887 102.205 35.9307 102.619 35.9307ZM102.626 40.2601C103.805 40.2577 104.028 39.1887 104.026 38.453C104.024 37.7189 103.798 36.6499 102.619 36.6507C101.44 36.6538 101.219 37.7236 101.219 38.4577C101.219 39.1934 101.448 40.2608 102.626 40.2601Z" fill="#07213E"/>
<path d="M109.682 38.0239V38.7439L107.259 38.7486V40.1102L110.04 40.1055V40.827L106.39 40.8325L106.383 36.0678L109.96 36.0615L109.962 36.7823L107.253 36.787L107.26 38.027L109.682 38.0239Z" fill="#07213E"/>
<path d="M113.728 40.8198L112.795 40.8221L114.585 36.0535L115.457 36.0527L117.265 40.8143L116.328 40.8158L115.985 39.8167L114.075 39.8174L113.728 40.8198ZM115.748 39.0951L115.023 36.9798L114.305 39.0982L115.748 39.0951Z" fill="#07213E"/>
<path d="M119.226 40.8125L118.353 40.8134L118.345 36.0494L121.465 36.0439L121.467 36.7655L119.219 36.7686L119.226 40.8125Z" fill="#07213E"/>
<path d="M125.969 37.9952L125.973 38.7159L123.547 38.7198L123.549 40.0829L126.332 40.0783V40.7983L122.68 40.8046L122.67 36.0406L126.249 36.0352V36.7551L123.542 36.7598L123.548 37.999L125.969 37.9952Z" fill="#07213E"/>
<path d="M128.438 40.7981L127.566 40.799L127.558 36.0327L128.428 36.0303L128.431 37.9378L130.559 37.933L130.553 36.0264H131.426L131.434 40.7911L130.561 40.7935L130.559 38.6547L128.432 38.6585L128.438 40.7981Z" fill="#07213E"/>
<path d="M132.633 36.7439V36.0223L136.502 36.0176V36.7376L135.004 36.7423L135.01 40.7854L134.139 40.7862L134.133 36.7431H132.633V36.7439Z" fill="#07213E"/>
<path d="M141.815 39.147C141.747 39.8709 141.369 40.9203 139.757 40.9211C139.388 40.9219 137.392 40.892 137.387 38.4811C137.383 36.5211 138.512 35.8725 139.701 35.8701C141.334 35.867 141.704 36.867 141.746 37.5501H140.879C140.826 37.1556 140.592 36.5893 139.702 36.5925C138.638 36.5932 138.316 37.4592 138.321 38.4458C138.322 39.5626 138.938 40.2019 139.795 40.2019C140.586 40.1995 140.925 39.6599 140.952 39.1501L141.815 39.147Z" fill="#07213E"/>
<path d="M142.699 36.7309L142.697 36.0078L146.568 36.0039L146.57 36.7246L145.07 36.7263L145.08 40.7694L144.205 40.7709L144.201 36.727L142.699 36.7309Z" fill="#07213E"/>
<path d="M150.022 35.9951C151.236 35.9943 151.476 36.6735 151.478 37.1967C151.478 37.7237 151.152 38.1394 150.688 38.2225V38.2343C151.084 38.3018 151.676 38.5724 151.676 39.4249C151.682 40.6288 150.651 40.7606 149.936 40.7613L147.782 40.7661L147.772 35.999L150.022 35.9951ZM148.649 37.9316L149.802 37.93C150.285 37.9285 150.578 37.7794 150.578 37.3637C150.573 36.7307 149.962 36.7159 149.776 36.7159L148.648 36.719L148.649 37.9316ZM148.65 40.0413L149.846 40.0406C150.377 40.0367 150.779 39.908 150.779 39.3292C150.777 38.6892 150.224 38.6507 149.862 38.6516L148.65 38.6531L148.65 40.0413Z" fill="#07213E"/>
<path d="M155.244 35.8447C155.662 35.8447 157.583 35.8965 157.587 38.3655C157.591 40.8385 155.67 40.8965 155.255 40.8965C154.838 40.8965 152.915 40.844 152.911 38.3765C152.91 35.9035 154.829 35.8464 155.244 35.8447ZM155.253 40.1758C156.431 40.1718 156.654 39.1044 156.654 38.3687C156.65 37.6338 156.425 36.564 155.247 36.5671C154.068 36.5687 153.847 37.6377 153.847 38.3741C153.847 39.1091 154.073 40.1758 155.253 40.1758Z" fill="#07213E"/>
<path d="M43.739 15.6459L36.4122 3.00512C35.873 2.46864 35.219 2.22159 34.577 2.30786C33.9372 2.39335 33.3744 2.80355 32.9913 3.46473L25.7775 16.0161C25.4086 16.6585 25.3371 17.2467 25.5875 17.6733C25.8324 18.0985 26.3811 18.3306 27.1245 18.3298L41.6063 18.2961C42.3732 18.2961 43.0075 18.009 43.4015 17.4945C43.7932 16.9808 43.9015 16.2937 43.739 15.6459Z" fill="#07213E"/>
<path d="M11.5698 2.48905L11.4238 3.31729C11.4395 3.70553 11.5635 4.0969 11.7833 4.47964L19.0537 16.9949C19.4359 17.6506 19.9249 18.0122 20.4312 18.0122C20.9376 18.0098 21.4266 17.6475 21.8034 16.9903L29.0172 4.44042C29.2652 4.00905 29.3877 3.5518 29.368 3.12042L29.2205 2.45141C28.9819 1.87023 28.4505 1.43415 27.7283 1.22239C27.6113 1.20591 13.1719 1.23886 13.1719 1.23886C12.3383 1.46866 11.8084 1.9063 11.5698 2.48905ZM20.4289 17.2177C20.2774 17.2161 20.0074 17.0546 19.7437 16.598L12.4718 4.07964C12.3186 3.81611 12.2307 3.54003 12.2237 3.28513L12.3029 2.79258C12.4489 2.4365 12.7998 2.16121 13.2849 2.01768C13.2904 2.0318 27.6137 1.99964 27.6137 1.99964C27.9897 2.12591 28.339 2.40121 28.4866 2.75729C28.4866 2.75886 28.5721 3.1518 28.5721 3.1518C28.5839 3.43415 28.5007 3.74474 28.3257 4.04591L21.1134 16.5934C20.8481 17.053 20.5781 17.2161 20.4289 17.2177Z" fill="#07213E"/>
<path d="M7.40843 4.43615C7.33861 4.52557 0.149903 17.0283 0.149903 17.0283C0.107515 17.1357 0.0258789 17.862 0.0258789 17.862C0.0455031 18.3036 0.186797 18.7075 0.43877 19.0338C0.840674 19.5577 1.49219 19.8463 2.26695 19.8432L16.7527 19.8103C17.5133 19.8087 18.0738 19.5648 18.3226 19.1263C18.3226 19.1248 18.4678 18.4785 18.4678 18.4785L18.1224 17.4268L10.8505 4.91381C10.4644 4.24321 9.88658 3.82675 9.23035 3.7389C8.60398 3.65733 7.95954 3.90439 7.40843 4.43615ZM8.03013 4.91851C8.33236 4.64714 8.74606 4.4793 9.12835 4.52871C9.53413 4.58126 9.90228 4.85969 10.1645 5.31224L17.4364 17.8275L17.6735 18.513L17.6303 18.7318C17.5565 18.8644 17.2809 19.0157 16.7511 19.0174L2.26695 19.0487C1.74259 19.0503 1.31636 18.8738 1.06988 18.5514C0.916815 18.3546 0.833607 18.1107 0.82183 17.8307C0.82183 17.8307 0.883844 17.3208 0.8862 17.3193C0.905037 17.3185 8.03013 4.91851 8.03013 4.91851Z" fill="#07213E"/>
<path d="M0.608945 22.1584C0.319293 22.5309 0.181924 23.0055 0.201548 23.5192L0.283184 24.0525C0.330283 24.16 5.42862 32.9451 5.42862 32.9451L7.57628 36.6376C8.19716 37.2557 8.84561 37.4988 9.46805 37.4149C10.1274 37.3255 10.6981 36.9074 11.0882 36.2345L18.2981 23.6878C18.6726 23.04 18.7424 22.4196 18.4944 21.9874C18.2361 21.5474 17.6795 21.3074 16.9189 21.3106L2.43477 21.3427C1.65844 21.3443 1.01085 21.6329 0.608945 22.1584ZM0.997499 23.4886C0.985729 23.16 1.06894 22.8674 1.24162 22.6424C1.48811 22.3184 1.91356 22.1388 2.43634 22.1372L16.9229 22.1058C17.4543 22.1043 17.7275 22.2564 17.8052 22.3874C17.8263 22.4274 17.8405 22.4839 17.846 22.5561C17.8515 22.7247 17.7934 22.9749 17.6112 23.2886L10.3951 35.8376C10.1352 36.2925 9.76872 36.5725 9.36287 36.6267C8.9845 36.6784 8.56924 36.5082 8.19487 36.153C8.19094 36.1184 6.11704 32.5435 6.11704 32.5435L1.01634 23.7615C1.05951 23.8682 0.997499 23.4886 0.997499 23.4886Z" fill="#07213E"/>
<path d="M19.2815 24.052L12.0677 36.5987C11.8197 37.03 11.6972 37.4873 11.7145 37.9171L11.862 38.5869C12.103 39.1697 12.6344 39.6057 13.3621 39.8183C13.4728 39.8332 27.9106 39.801 27.9106 39.801C28.7466 39.5689 29.2765 39.1304 29.5151 38.55L29.6611 37.7242C29.6454 37.332 29.5229 36.943 29.3 36.561L22.032 24.0449C21.6498 23.3877 21.1607 23.0293 20.6544 23.0293C20.1473 23.0285 19.6599 23.3909 19.2815 24.052ZM13.4712 39.0371C13.0929 38.9109 12.7459 38.6355 12.5983 38.281L12.5112 37.8849C12.5018 37.6049 12.5826 37.2967 12.7592 36.9948L19.9731 24.4466C20.2368 23.9861 20.5069 23.823 20.656 23.823C20.8075 23.823 21.0752 23.9837 21.3429 24.4434L28.6132 36.9594C28.7663 37.223 28.8541 37.4999 28.8636 37.754C28.8636 37.754 28.7803 38.2457 28.7803 38.2481C28.6328 38.5987 28.2858 38.874 27.7968 39.0199C27.7937 39.0066 13.4712 39.0371 13.4712 39.0371Z" fill="#07213E"/>
<path d="M22.6838 21.8608C22.4294 22.3016 22.5032 22.904 22.884 23.5612L30.152 36.0797C30.542 36.7502 31.1183 37.1659 31.7737 37.2514C32.3985 37.3306 33.043 37.0851 33.594 36.5597C33.6615 36.4694 40.8541 23.9604 40.8541 23.9604C40.891 23.8553 40.9782 23.1283 40.9782 23.1283C40.9609 22.6883 40.8188 22.2812 40.5653 21.9549C40.1634 21.4294 39.5119 21.144 38.7355 21.1455L24.2514 21.1761C23.4931 21.1816 22.9342 21.4224 22.6838 21.8608ZM23.5708 23.1612C23.4036 22.8741 23.34 22.6435 23.3322 22.4788C23.3283 22.38 23.3455 22.3063 23.3706 22.2561C23.4468 22.1274 23.7239 21.9753 24.2514 21.973L38.7355 21.94C39.2614 21.94 39.6877 22.118 39.9381 22.4388C40.0896 22.6388 40.1712 22.8804 40.1845 23.1612C40.1845 23.1612 40.1202 23.6686 40.1202 23.671C40.099 23.6749 32.9739 36.0734 32.9739 36.0734C32.6709 36.3408 32.2557 36.5118 31.8742 36.4631C31.4683 36.4122 31.1017 36.133 30.8403 35.6812L23.5708 23.1612Z" fill="#07213E"/>
<mask id="mask1_349_5291" style="mask-type:luminance" maskUnits="userSpaceOnUse" x="0" y="0" width="158" height="41">
<path d="M157.778 0.96582H0V40.9658H157.778V0.96582Z" fill="white"/>
</mask>
<g mask="url(#mask1_349_5291)">
<path d="M52.4211 21.6055L57.2761 32.9827L53.7854 32.9889L52.8599 31.098L46.9381 31.1074L46.0166 33.0039L42.5259 33.0086L47.3298 21.6164L52.4211 21.6055ZM49.6423 24.1592L48.0457 28.1584L51.7248 28.1529L50.118 24.1592H49.6423Z" fill="#07213E"/>
<path d="M67.3752 21.5791C68.8148 21.5791 70.3651 21.7823 70.3691 24.7917C70.373 26.049 69.9114 26.8324 69.3816 27.1187C70.278 27.5784 70.7278 28.4215 70.7317 29.8058C70.7341 32.1329 69.8643 32.9611 67.7496 32.9634L58.7163 32.9807L58.6982 21.5956L67.3752 21.5791ZM61.6905 25.8717L66.9891 25.8638C67.4411 25.8638 67.7363 25.6552 67.7339 25.0991C67.7339 24.5273 67.4333 24.3344 66.9867 24.3352L61.6897 24.3446V25.8717H61.6905ZM61.7007 30.2191L66.8776 30.2112C67.3917 30.2112 67.7434 29.907 67.7434 29.3509C67.7418 28.569 67.3862 28.4121 66.8744 28.4121L61.6976 28.4199L61.7007 30.2191Z" fill="#07213E"/>
<path d="M72.6733 21.5717L84.2279 21.5537L84.2345 24.5004L79.956 24.5074L79.9693 32.9466L76.9812 32.9513L76.9679 24.5129L72.6757 24.5184L72.6733 21.5717Z" fill="#07213E"/>
<path d="M93.1719 33.0843C86.8816 33.0945 86.7601 32.7117 86.7482 27.2506C86.7416 21.805 86.8623 21.3917 93.1527 21.38C99.4134 21.3713 99.5764 21.7847 99.586 27.2302C99.5956 32.6584 99.4305 33.0741 93.1719 33.0843ZM93.1682 30.1376C96.5882 30.1337 96.6023 30.1173 96.5964 27.2333C96.5905 24.3368 96.5794 24.3212 93.1697 24.3274C89.7497 24.3313 89.7357 24.3479 89.7379 27.245C89.7438 30.129 89.7564 30.1431 93.1682 30.1376Z" fill="#07213E"/>
<path d="M113.262 25.8844L110.269 25.8891C110.269 24.6326 110.024 24.2985 107.295 24.3032C104.359 24.3072 104.347 24.4029 104.351 27.2209C104.358 30.0546 104.37 30.1189 107.303 30.115C109.994 30.1111 110.279 29.8711 110.276 28.5181L113.263 28.5103C113.269 32.4146 113.082 33.0491 107.309 33.0593C101.673 33.0695 101.374 32.5746 101.366 27.2091C101.356 21.8757 101.653 21.3652 107.292 21.3566C113.009 21.3463 113.255 22.0154 113.262 25.8844Z" fill="#07213E"/>
<path d="M115.492 21.5022L127.052 21.4834L127.057 24.4301L122.776 24.4379L122.793 32.8771L119.803 32.881L119.788 24.4418L115.497 24.4473L115.492 21.5022Z" fill="#07213E"/>
<path d="M138.611 21.4639L143.463 32.8419L139.977 32.8473L139.045 30.954L133.128 30.9634L132.206 32.8591L128.716 32.8646L133.52 21.4725L138.611 21.4639ZM135.831 24.0176L134.234 28.016L137.915 28.0105L136.307 24.0145L135.831 24.0176Z" fill="#07213E"/>
<path d="M145.186 21.4534L156.74 21.4346L156.748 24.3805L152.469 24.3883L152.482 32.8275L149.494 32.8315L149.482 24.3946L145.188 24.4001L145.186 21.4534Z" fill="#07213E"/>
<path d="M43.1731 40.9374L42.2397 40.939L44.0287 36.1703L44.9016 36.168L46.7078 40.9312L45.7745 40.9319L45.4275 39.9327L43.5185 39.9343L43.1731 40.9374ZM45.1928 39.2119L44.4691 37.0951L43.7477 39.2127L45.1928 39.2119Z" fill="#07213E"/>
<path d="M48.6688 40.928H47.7998L47.792 36.1649L48.661 36.1633L48.6664 38.0692L50.7914 38.0676L50.7898 36.161L51.6627 36.1602L51.6681 40.9233L50.7953 40.9249L50.7914 38.7876L48.6664 38.7923L48.6688 40.928Z" fill="#07213E"/>
<path d="M53.6927 40.9208L52.7578 40.9216L54.5483 36.1522L55.4235 36.1514L57.2282 40.9153H56.2949L55.9455 39.9153L54.0404 39.9184L53.6927 40.9208ZM55.7147 39.1953L54.9886 37.08L54.2689 39.1961L55.7147 39.1953Z" fill="#07213E"/>
<path d="M57.6792 40.1892C58.7208 40.3712 58.7483 38.9814 58.7444 38.0167L58.7428 36.1438L62.002 36.1367L62.0138 40.9038L61.1432 40.9053L61.1354 36.8598L59.6141 36.8622L59.6165 38.2716C59.618 39.4708 59.5019 41.2002 57.6799 40.9108L57.6792 40.1892Z" fill="#07213E"/>
<path d="M66.8418 36.1324L67.6958 36.1309L67.7013 40.8963L66.8284 40.8971L66.823 37.4124L64.5607 40.9018L63.709 40.9034L63.7012 36.1363L64.5725 36.134L64.578 39.6218L66.8418 36.1324Z" fill="#07213E"/>
<path d="M68.8975 36.8499V36.1284L72.7681 36.1221L72.7697 36.8444L71.2696 36.8476L71.2775 40.8892L70.4046 40.8923L70.3967 36.8476L68.8975 36.8499Z" fill="#07213E"/>
<path d="M77.1144 36.117L77.9685 36.1162L77.9766 40.8794H77.1048L77.0996 37.397L74.8351 40.8856H73.9849L73.9731 36.1225L74.8463 36.121L74.8514 39.6064L77.1144 36.117Z" fill="#07213E"/>
<path d="M80.353 36.1108L80.3567 37.397C80.3567 37.8527 80.3842 38.1939 81.3604 38.1915C81.7404 38.19 82.1553 38.1492 82.2256 38.1414L82.2197 36.106L83.0923 36.1045L83.1004 40.8715L82.2301 40.8731L82.2256 38.8653C81.9575 38.8849 81.556 38.9123 81.2516 38.9123C80.2293 38.9155 79.4856 38.6637 79.4856 37.5939L79.4819 36.1108H80.353Z" fill="#07213E"/>
<path d="M88.0913 38.061V38.781L85.6661 38.7841L85.6683 40.148L88.4483 40.1433L88.4498 40.8641L84.7965 40.8696L84.7891 36.1033L88.3668 36.0986L88.3691 36.8194L85.6624 36.8226L85.6646 38.061H88.0913Z" fill="#07213E"/>
<path d="M93.8349 39.2267C93.7727 39.9483 93.3904 40.9984 91.7764 41C91.4075 41 89.4112 40.9694 89.4067 38.56C89.4053 36.5984 90.5356 35.9514 91.7216 35.9483C93.3556 35.9443 93.7245 36.9459 93.7682 37.6251L92.9023 37.6283C92.8445 37.2314 92.6112 36.669 91.7208 36.6706C90.6579 36.6706 90.3371 37.5373 90.3393 38.524C90.3408 39.6408 90.9564 40.2792 91.8119 40.2792C92.606 40.2753 92.9423 39.7388 92.9704 39.2283L93.8349 39.2267Z" fill="#07213E"/>
<path d="M98.1636 36.0799L99.334 36.0791L97.3621 38.0556L99.4718 40.8415L98.3006 40.8454L96.7243 38.643L96.0836 39.2635L96.0858 40.8486L95.211 40.8509L95.2051 36.0854L96.0784 36.0838L96.0821 38.2274L98.1636 36.0799Z" fill="#07213E"/>
<path d="M102.619 35.9307C103.035 35.9291 104.956 35.9801 104.961 38.4507C104.963 40.9228 103.042 40.9808 102.625 40.9817C102.21 40.9824 100.287 40.9314 100.287 38.4585C100.281 35.9887 102.205 35.9307 102.619 35.9307ZM102.626 40.2601C103.805 40.2577 104.028 39.1887 104.026 38.453C104.024 37.7189 103.798 36.6499 102.619 36.6507C101.44 36.6538 101.219 37.7236 101.219 38.4577C101.219 39.1934 101.448 40.2608 102.626 40.2601Z" fill="#07213E"/>
<path d="M109.682 38.0239V38.7439L107.259 38.7486V40.1102L110.04 40.1055V40.827L106.39 40.8325L106.383 36.0678L109.96 36.0615L109.962 36.7823L107.253 36.787L107.26 38.027L109.682 38.0239Z" fill="#07213E"/>
<path d="M113.728 40.8198L112.795 40.8221L114.585 36.0535L115.457 36.0527L117.265 40.8143L116.328 40.8158L115.985 39.8167L114.075 39.8174L113.728 40.8198ZM115.748 39.0951L115.023 36.9798L114.305 39.0982L115.748 39.0951Z" fill="#07213E"/>
<path d="M119.226 40.8125L118.353 40.8134L118.345 36.0494L121.465 36.0439L121.467 36.7655L119.219 36.7686L119.226 40.8125Z" fill="#07213E"/>
<path d="M125.969 37.9952L125.973 38.7159L123.547 38.7198L123.549 40.0829L126.332 40.0783V40.7983L122.68 40.8046L122.67 36.0406L126.249 36.0352V36.7551L123.542 36.7598L123.548 37.999L125.969 37.9952Z" fill="#07213E"/>
<path d="M128.438 40.7981L127.566 40.799L127.558 36.0327L128.428 36.0303L128.431 37.9378L130.559 37.933L130.553 36.0264H131.426L131.434 40.7911L130.561 40.7935L130.559 38.6547L128.432 38.6585L128.438 40.7981Z" fill="#07213E"/>
<path d="M132.633 36.7439V36.0223L136.502 36.0176V36.7376L135.004 36.7423L135.01 40.7854L134.139 40.7862L134.133 36.7431H132.633V36.7439Z" fill="#07213E"/>
<path d="M141.815 39.147C141.747 39.8709 141.369 40.9203 139.757 40.9211C139.388 40.9219 137.392 40.892 137.387 38.4811C137.383 36.5211 138.512 35.8725 139.701 35.8701C141.334 35.867 141.704 36.867 141.746 37.5501H140.879C140.826 37.1556 140.592 36.5893 139.702 36.5925C138.638 36.5932 138.316 37.4592 138.321 38.4458C138.322 39.5626 138.938 40.2019 139.795 40.2019C140.586 40.1995 140.925 39.6599 140.952 39.1501L141.815 39.147Z" fill="#07213E"/>
<path d="M142.699 36.7309L142.697 36.0078L146.568 36.0039L146.57 36.7246L145.07 36.7263L145.08 40.7694L144.205 40.7709L144.201 36.727L142.699 36.7309Z" fill="#07213E"/>
<path d="M150.022 35.9951C151.236 35.9943 151.476 36.6735 151.478 37.1967C151.478 37.7237 151.152 38.1394 150.688 38.2225V38.2343C151.084 38.3018 151.676 38.5724 151.676 39.4249C151.682 40.6288 150.651 40.7606 149.936 40.7613L147.782 40.7661L147.772 35.999L150.022 35.9951ZM148.649 37.9316L149.802 37.93C150.285 37.9285 150.578 37.7794 150.578 37.3637C150.573 36.7307 149.962 36.7159 149.776 36.7159L148.648 36.719L148.649 37.9316ZM148.65 40.0413L149.846 40.0406C150.377 40.0367 150.779 39.908 150.779 39.3292C150.777 38.6892 150.224 38.6507 149.862 38.6516L148.65 38.6531L148.65 40.0413Z" fill="#07213E"/>
<path d="M155.244 35.8447C155.662 35.8447 157.583 35.8965 157.587 38.3655C157.591 40.8385 155.67 40.8965 155.255 40.8965C154.838 40.8965 152.915 40.844 152.911 38.3765C152.91 35.9035 154.829 35.8464 155.244 35.8447ZM155.253 40.1758C156.431 40.1718 156.654 39.1044 156.654 38.3687C156.65 37.6338 156.425 36.564 155.247 36.5671C154.068 36.5687 153.847 37.6377 153.847 38.3741C153.847 39.1091 154.073 40.1758 155.253 40.1758Z" fill="#07213E"/>
<path d="M43.739 15.6459L36.4122 3.00512C35.873 2.46864 35.219 2.22159 34.577 2.30786C33.9372 2.39335 33.3744 2.80355 32.9913 3.46473L25.7775 16.0161C25.4086 16.6585 25.3371 17.2467 25.5875 17.6733C25.8324 18.0985 26.3811 18.3306 27.1245 18.3298L41.6063 18.2961C42.3732 18.2961 43.0075 18.009 43.4015 17.4945C43.7932 16.9808 43.9015 16.2937 43.739 15.6459Z" fill="#07213E"/>
<path d="M11.5698 2.48905L11.4238 3.31729C11.4395 3.70553 11.5635 4.0969 11.7833 4.47964L19.0537 16.9949C19.4359 17.6506 19.9249 18.0122 20.4312 18.0122C20.9376 18.0098 21.4266 17.6475 21.8034 16.9903L29.0172 4.44042C29.2652 4.00905 29.3877 3.5518 29.368 3.12042L29.2205 2.45141C28.9819 1.87023 28.4505 1.43415 27.7283 1.22239C27.6113 1.20591 13.1719 1.23886 13.1719 1.23886C12.3383 1.46866 11.8084 1.9063 11.5698 2.48905ZM20.4289 17.2177C20.2774 17.2161 20.0074 17.0546 19.7437 16.598L12.4718 4.07964C12.3186 3.81611 12.2307 3.54003 12.2237 3.28513L12.3029 2.79258C12.4489 2.4365 12.7998 2.16121 13.2849 2.01768C13.2904 2.0318 27.6137 1.99964 27.6137 1.99964C27.9897 2.12591 28.339 2.40121 28.4866 2.75729C28.4866 2.75886 28.5721 3.1518 28.5721 3.1518C28.5839 3.43415 28.5007 3.74474 28.3257 4.04591L21.1134 16.5934C20.8481 17.053 20.5781 17.2161 20.4289 17.2177Z" fill="#07213E"/>
<path d="M7.40843 4.43615C7.33861 4.52557 0.149903 17.0283 0.149903 17.0283C0.107515 17.1357 0.0258789 17.862 0.0258789 17.862C0.0455031 18.3036 0.186797 18.7075 0.43877 19.0338C0.840674 19.5577 1.49219 19.8463 2.26695 19.8432L16.7527 19.8103C17.5133 19.8087 18.0738 19.5648 18.3226 19.1263C18.3226 19.1248 18.4678 18.4785 18.4678 18.4785L18.1224 17.4268L10.8505 4.91381C10.4644 4.24321 9.88658 3.82675 9.23035 3.7389C8.60398 3.65733 7.95954 3.90439 7.40843 4.43615ZM8.03013 4.91851C8.33236 4.64714 8.74606 4.4793 9.12835 4.52871C9.53413 4.58126 9.90228 4.85969 10.1645 5.31224L17.4364 17.8275L17.6735 18.513L17.6303 18.7318C17.5565 18.8644 17.2809 19.0157 16.7511 19.0174L2.26695 19.0487C1.74259 19.0503 1.31636 18.8738 1.06988 18.5514C0.916815 18.3546 0.833607 18.1107 0.82183 17.8307C0.82183 17.8307 0.883844 17.3208 0.8862 17.3193C0.905037 17.3185 8.03013 4.91851 8.03013 4.91851Z" fill="#07213E"/>
<path d="M0.608945 22.1584C0.319293 22.5309 0.181924 23.0055 0.201548 23.5192L0.283184 24.0525C0.330283 24.16 5.42862 32.9451 5.42862 32.9451L7.57628 36.6376C8.19716 37.2557 8.84561 37.4988 9.46805 37.4149C10.1274 37.3255 10.6981 36.9074 11.0882 36.2345L18.2981 23.6878C18.6726 23.04 18.7424 22.4196 18.4944 21.9874C18.2361 21.5474 17.6795 21.3074 16.9189 21.3106L2.43477 21.3427C1.65844 21.3443 1.01085 21.6329 0.608945 22.1584ZM0.997499 23.4886C0.985729 23.16 1.06894 22.8674 1.24162 22.6424C1.48811 22.3184 1.91356 22.1388 2.43634 22.1372L16.9229 22.1058C17.4543 22.1043 17.7275 22.2564 17.8052 22.3874C17.8263 22.4274 17.8405 22.4839 17.846 22.5561C17.8515 22.7247 17.7934 22.9749 17.6112 23.2886L10.3951 35.8376C10.1352 36.2925 9.76872 36.5725 9.36287 36.6267C8.9845 36.6784 8.56924 36.5082 8.19487 36.153C8.19094 36.1184 6.11704 32.5435 6.11704 32.5435L1.01634 23.7615C1.05951 23.8682 0.997499 23.4886 0.997499 23.4886Z" fill="#07213E"/>
<path d="M19.2815 24.052L12.0677 36.5987C11.8197 37.03 11.6972 37.4873 11.7145 37.9171L11.862 38.5869C12.103 39.1697 12.6344 39.6057 13.3621 39.8183C13.4728 39.8332 27.9106 39.801 27.9106 39.801C28.7466 39.5689 29.2765 39.1304 29.5151 38.55L29.6611 37.7242C29.6454 37.332 29.5229 36.943 29.3 36.561L22.032 24.0449C21.6498 23.3877 21.1607 23.0293 20.6544 23.0293C20.1473 23.0285 19.6599 23.3909 19.2815 24.052ZM13.4712 39.0371C13.0929 38.9109 12.7459 38.6355 12.5983 38.281L12.5112 37.8849C12.5018 37.6049 12.5826 37.2967 12.7592 36.9948L19.9731 24.4466C20.2368 23.9861 20.5069 23.823 20.656 23.823C20.8075 23.823 21.0752 23.9837 21.3429 24.4434L28.6132 36.9594C28.7663 37.223 28.8541 37.4999 28.8636 37.754C28.8636 37.754 28.7803 38.2457 28.7803 38.2481C28.6328 38.5987 28.2858 38.874 27.7968 39.0199C27.7937 39.0066 13.4712 39.0371 13.4712 39.0371Z" fill="#07213E"/>
<path d="M22.6838 21.8608C22.4294 22.3016 22.5032 22.904 22.884 23.5612L30.152 36.0797C30.542 36.7502 31.1183 37.1659 31.7737 37.2514C32.3985 37.3306 33.043 37.0851 33.594 36.5597C33.6615 36.4694 40.8541 23.9604 40.8541 23.9604C40.891 23.8553 40.9782 23.1283 40.9782 23.1283C40.9609 22.6883 40.8188 22.2812 40.5653 21.9549C40.1634 21.4294 39.5119 21.144 38.7355 21.1455L24.2514 21.1761C23.4931 21.1816 22.9342 21.4224 22.6838 21.8608ZM23.5708 23.1612C23.4036 22.8741 23.34 22.6435 23.3322 22.4788C23.3283 22.38 23.3455 22.3063 23.3706 22.2561C23.4468 22.1274 23.7239 21.9753 24.2514 21.973L38.7355 21.94C39.2614 21.94 39.6877 22.118 39.9381 22.4388C40.0896 22.6388 40.1712 22.8804 40.1845 23.1612C40.1845 23.1612 40.1202 23.6686 40.1202 23.671C40.099 23.6749 32.9739 36.0734 32.9739 36.0734C32.6709 36.3408 32.2557 36.5118 31.8742 36.4631C31.4683 36.4122 31.1017 36.133 30.8403 35.6812L23.5708 23.1612Z" fill="#07213E"/>
<mask id="mask2_349_5291" style="mask-type:luminance" maskUnits="userSpaceOnUse" x="0" y="0" width="158" height="41">
<path d="M157.778 0.96582H0V40.9658H157.778V0.96582Z" fill="white"/>
</mask>
<g mask="url(#mask2_349_5291)">
<path d="M52.4211 21.6055L57.2761 32.9827L53.7854 32.9889L52.8599 31.098L46.9381 31.1074L46.0166 33.0039L42.5259 33.0086L47.3298 21.6164L52.4211 21.6055ZM49.6423 24.1592L48.0457 28.1584L51.7248 28.1529L50.118 24.1592H49.6423Z" fill="#07213E"/>
<path d="M67.3752 21.5791C68.8148 21.5791 70.3651 21.7823 70.3691 24.7917C70.373 26.049 69.9114 26.8324 69.3816 27.1187C70.278 27.5784 70.7278 28.4215 70.7317 29.8058C70.7341 32.1329 69.8643 32.9611 67.7496 32.9634L58.7163 32.9807L58.6982 21.5956L67.3752 21.5791ZM61.6905 25.8717L66.9891 25.8638C67.4411 25.8638 67.7363 25.6552 67.7339 25.0991C67.7339 24.5273 67.4333 24.3344 66.9867 24.3352L61.6897 24.3446V25.8717H61.6905ZM61.7007 30.2191L66.8776 30.2112C67.3917 30.2112 67.7434 29.907 67.7434 29.3509C67.7418 28.569 67.3862 28.4121 66.8744 28.4121L61.6976 28.4199L61.7007 30.2191Z" fill="#07213E"/>
<path d="M72.6733 21.5717L84.2279 21.5537L84.2345 24.5004L79.956 24.5074L79.9693 32.9466L76.9812 32.9513L76.9679 24.5129L72.6757 24.5184L72.6733 21.5717Z" fill="#07213E"/>
<path d="M93.1719 33.0843C86.8816 33.0945 86.7601 32.7117 86.7482 27.2506C86.7416 21.805 86.8623 21.3917 93.1527 21.38C99.4134 21.3713 99.5764 21.7847 99.586 27.2302C99.5956 32.6584 99.4305 33.0741 93.1719 33.0843ZM93.1682 30.1376C96.5882 30.1337 96.6023 30.1173 96.5964 27.2333C96.5905 24.3368 96.5794 24.3212 93.1697 24.3274C89.7497 24.3313 89.7357 24.3479 89.7379 27.245C89.7438 30.129 89.7564 30.1431 93.1682 30.1376Z" fill="#07213E"/>
<path d="M113.262 25.8844L110.269 25.8891C110.269 24.6326 110.024 24.2985 107.295 24.3032C104.359 24.3072 104.347 24.4029 104.351 27.2209C104.358 30.0546 104.37 30.1189 107.303 30.115C109.994 30.1111 110.279 29.8711 110.276 28.5181L113.263 28.5103C113.269 32.4146 113.082 33.0491 107.309 33.0593C101.673 33.0695 101.374 32.5746 101.366 27.2091C101.356 21.8757 101.653 21.3652 107.292 21.3566C113.009 21.3463 113.255 22.0154 113.262 25.8844Z" fill="#07213E"/>
<path d="M115.492 21.5032L127.052 21.4844L127.057 24.431L122.776 24.4389L122.793 32.8781L119.803 32.882L119.788 24.4428L115.497 24.4483L115.492 21.5032Z" fill="#07213E"/>
<path d="M138.611 21.4639L143.463 32.8419L139.977 32.8473L139.045 30.954L133.128 30.9634L132.206 32.8591L128.716 32.8646L133.52 21.4725L138.611 21.4639ZM135.831 24.0176L134.234 28.016L137.915 28.0105L136.307 24.0145L135.831 24.0176Z" fill="#07213E"/>
<path d="M145.186 21.4534L156.74 21.4346L156.748 24.3805L152.469 24.3883L152.482 32.8275L149.494 32.8315L149.482 24.3946L145.188 24.4001L145.186 21.4534Z" fill="#07213E"/>
<path d="M43.1731 40.9384L42.2397 40.94L44.0287 36.1713L44.9016 36.1689L46.7078 40.9321L45.7745 40.9329L45.4275 39.9337L43.5185 39.9352L43.1731 40.9384ZM45.1928 39.2129L44.4691 37.0961L43.7477 39.2137L45.1928 39.2129Z" fill="#07213E"/>
<path d="M48.6688 40.928H47.7998L47.792 36.1649L48.661 36.1633L48.6664 38.0692L50.7914 38.0676L50.7898 36.161L51.6627 36.1602L51.6681 40.9233L50.7953 40.9249L50.7914 38.7876L48.6664 38.7923L48.6688 40.928Z" fill="#07213E"/>
<path d="M53.6927 40.9208L52.7578 40.9216L54.5483 36.1522L55.4235 36.1514L57.2282 40.9153H56.2949L55.9455 39.9153L54.0404 39.9184L53.6927 40.9208ZM55.7147 39.1953L54.9886 37.08L54.2689 39.1961L55.7147 39.1953Z" fill="#07213E"/>
<path d="M57.6792 40.1892C58.7208 40.3712 58.7483 38.9814 58.7444 38.0167L58.7428 36.1438L62.002 36.1367L62.0138 40.9038L61.1432 40.9053L61.1354 36.8598L59.6141 36.8622L59.6165 38.2716C59.618 39.4708 59.5019 41.2002 57.6799 40.9108L57.6792 40.1892Z" fill="#07213E"/>
<path d="M66.8418 36.1324L67.6958 36.1309L67.7013 40.8963L66.8284 40.8971L66.823 37.4124L64.5607 40.9018L63.709 40.9034L63.7012 36.1363L64.5725 36.134L64.578 39.6218L66.8418 36.1324Z" fill="#07213E"/>
<path d="M68.8975 36.8499V36.1284L72.7681 36.1221L72.7697 36.8444L71.2696 36.8476L71.2775 40.8892L70.4046 40.8923L70.3967 36.8476L68.8975 36.8499Z" fill="#07213E"/>
<path d="M77.1144 36.117L77.9685 36.1162L77.9766 40.8794H77.1048L77.0996 37.397L74.8351 40.8856H73.9849L73.9731 36.1225L74.8463 36.121L74.8514 39.6064L77.1144 36.117Z" fill="#07213E"/>
<path d="M80.353 36.1108L80.3567 37.397C80.3567 37.8527 80.3842 38.1939 81.3604 38.1915C81.7404 38.19 82.1553 38.1492 82.2256 38.1414L82.2197 36.106L83.0923 36.1045L83.1004 40.8715L82.2301 40.8731L82.2256 38.8653C81.9575 38.8849 81.556 38.9123 81.2516 38.9123C80.2293 38.9155 79.4856 38.6637 79.4856 37.5939L79.4819 36.1108H80.353Z" fill="#07213E"/>
<path d="M88.0913 38.062V38.782L85.6661 38.7851L85.6683 40.149L88.4483 40.1443L88.4498 40.8651L84.7965 40.8706L84.7891 36.1043L88.3668 36.0996L88.3691 36.8203L85.6624 36.8235L85.6646 38.062H88.0913Z" fill="#07213E"/>
<path d="M93.8349 39.2267C93.7727 39.9483 93.3904 40.9984 91.7764 41C91.4075 41 89.4112 40.9694 89.4067 38.56C89.4053 36.5984 90.5356 35.9514 91.7216 35.9483C93.3556 35.9443 93.7245 36.9459 93.7682 37.6251L92.9023 37.6283C92.8445 37.2314 92.6112 36.669 91.7208 36.6706C90.6579 36.6706 90.3371 37.5373 90.3393 38.524C90.3408 39.6408 90.9564 40.2792 91.8119 40.2792C92.606 40.2753 92.9423 39.7388 92.9704 39.2283L93.8349 39.2267Z" fill="#07213E"/>
<path d="M98.1641 36.0799L99.3345 36.0791L97.3626 38.0556L99.4722 40.8415L98.3011 40.8454L96.7248 38.643L96.0841 39.2635L96.0863 40.8486L95.2115 40.8509L95.2056 36.0854L96.0789 36.0838L96.0826 38.2274L98.1641 36.0799Z" fill="#07213E"/>
<path d="M102.619 35.9317C103.035 35.93 104.956 35.9811 104.961 38.4517C104.963 40.9238 103.042 40.9818 102.625 40.9826C102.21 40.9834 100.287 40.9324 100.287 38.4594C100.281 35.9897 102.205 35.9317 102.619 35.9317ZM102.626 40.2611C103.805 40.2587 104.028 39.1897 104.026 38.454C104.024 37.7199 103.798 36.6509 102.619 36.6517C101.44 36.6548 101.219 37.7246 101.219 38.4587C101.219 39.1944 101.448 40.2618 102.626 40.2611Z" fill="#07213E"/>
<path d="M109.682 38.0239V38.7439L107.259 38.7486V40.1102L110.04 40.1055V40.827L106.39 40.8325L106.383 36.0678L109.96 36.0615L109.962 36.7823L107.253 36.787L107.26 38.027L109.682 38.0239Z" fill="#07213E"/>
<path d="M113.728 40.8198L112.795 40.8221L114.585 36.0535L115.457 36.0527L117.265 40.8143L116.328 40.8158L115.985 39.8167L114.075 39.8174L113.728 40.8198ZM115.748 39.0951L115.023 36.9798L114.305 39.0982L115.748 39.0951Z" fill="#07213E"/>
<path d="M119.226 40.8125L118.353 40.8134L118.345 36.0494L121.465 36.0439L121.467 36.7655L119.219 36.7686L119.226 40.8125Z" fill="#07213E"/>
<path d="M125.969 37.9952L125.973 38.7159L123.547 38.7198L123.549 40.0829L126.332 40.0783V40.7983L122.68 40.8046L122.67 36.0406L126.249 36.0352V36.7551L123.542 36.7598L123.548 37.999L125.969 37.9952Z" fill="#07213E"/>
<path d="M128.438 40.7981L127.566 40.799L127.558 36.0327L128.428 36.0303L128.431 37.9378L130.559 37.933L130.553 36.0264H131.426L131.434 40.7911L130.561 40.7935L130.559 38.6547L128.432 38.6585L128.438 40.7981Z" fill="#07213E"/>
<path d="M132.633 36.7449V36.0233L136.502 36.0186V36.7386L135.004 36.7433L135.01 40.7864L134.139 40.7872L134.133 36.744H132.633V36.7449Z" fill="#07213E"/>
<path d="M141.815 39.147C141.747 39.8709 141.369 40.9203 139.757 40.9211C139.388 40.9219 137.392 40.892 137.387 38.4811C137.383 36.5211 138.512 35.8725 139.701 35.8701C141.334 35.867 141.704 36.867 141.746 37.5501H140.879C140.826 37.1556 140.592 36.5893 139.702 36.5925C138.638 36.5932 138.316 37.4592 138.321 38.4458C138.322 39.5626 138.938 40.2019 139.795 40.2019C140.586 40.1995 140.925 39.6599 140.952 39.1501L141.815 39.147Z" fill="#07213E"/>
<path d="M142.699 36.7309L142.697 36.0078L146.568 36.0039L146.57 36.7246L145.07 36.7263L145.08 40.7694L144.205 40.7709L144.201 36.727L142.699 36.7309Z" fill="#07213E"/>
<path d="M150.022 35.9951C151.236 35.9943 151.476 36.6735 151.478 37.1967C151.478 37.7237 151.152 38.1394 150.688 38.2225V38.2343C151.084 38.3018 151.676 38.5724 151.676 39.4249C151.682 40.6288 150.651 40.7606 149.936 40.7613L147.782 40.7661L147.772 35.999L150.022 35.9951ZM148.649 37.9316L149.802 37.93C150.285 37.9285 150.578 37.7794 150.578 37.3637C150.573 36.7307 149.962 36.7159 149.776 36.7159L148.648 36.719L148.649 37.9316ZM148.65 40.0413L149.846 40.0406C150.377 40.0367 150.779 39.908 150.779 39.3292C150.777 38.6892 150.224 38.6507 149.862 38.6516L148.65 38.6531L148.65 40.0413Z" fill="#07213E"/>
<path d="M155.244 35.8447C155.662 35.8447 157.583 35.8965 157.587 38.3655C157.591 40.8385 155.67 40.8965 155.255 40.8965C154.838 40.8965 152.915 40.844 152.911 38.3765C152.91 35.9035 154.829 35.8464 155.244 35.8447ZM155.253 40.1758C156.431 40.1718 156.654 39.1044 156.654 38.3687C156.65 37.6338 156.425 36.564 155.247 36.5671C154.068 36.5687 153.847 37.6377 153.847 38.3741C153.847 39.1091 154.073 40.1758 155.253 40.1758Z" fill="#07213E"/>
<path d="M43.739 15.6459L36.4122 3.00512C35.873 2.46864 35.219 2.22159 34.577 2.30786C33.9372 2.39335 33.3744 2.80355 32.9913 3.46473L25.7775 16.0161C25.4086 16.6585 25.3371 17.2467 25.5875 17.6733C25.8324 18.0985 26.3811 18.3306 27.1245 18.3298L41.6063 18.2961C42.3732 18.2961 43.0075 18.009 43.4015 17.4945C43.7932 16.9808 43.9015 16.2937 43.739 15.6459Z" fill="#07213E"/>
<path d="M11.5698 2.48905L11.4238 3.31729C11.4395 3.70553 11.5635 4.0969 11.7833 4.47964L19.0537 16.9949C19.4359 17.6506 19.9249 18.0122 20.4312 18.0122C20.9376 18.0098 21.4266 17.6475 21.8034 16.9903L29.0172 4.44042C29.2652 4.00905 29.3877 3.5518 29.368 3.12042L29.2205 2.45141C28.9819 1.87023 28.4505 1.43415 27.7283 1.22239C27.6113 1.20591 13.1719 1.23886 13.1719 1.23886C12.3383 1.46866 11.8084 1.9063 11.5698 2.48905ZM20.4289 17.2177C20.2774 17.2161 20.0074 17.0546 19.7437 16.598L12.4718 4.07964C12.3186 3.81611 12.2307 3.54003 12.2237 3.28513L12.3029 2.79258C12.4489 2.4365 12.7998 2.16121 13.2849 2.01768C13.2904 2.0318 27.6137 1.99964 27.6137 1.99964C27.9897 2.12591 28.339 2.40121 28.4866 2.75729C28.4866 2.75886 28.5721 3.1518 28.5721 3.1518C28.5839 3.43415 28.5007 3.74474 28.3257 4.04591L21.1134 16.5934C20.8481 17.053 20.5781 17.2161 20.4289 17.2177Z" fill="#07213E"/>
<path d="M7.40843 4.43615C7.33861 4.52557 0.149903 17.0283 0.149903 17.0283C0.107515 17.1357 0.0258789 17.862 0.0258789 17.862C0.0455031 18.3036 0.186797 18.7075 0.43877 19.0338C0.840674 19.5577 1.49219 19.8463 2.26695 19.8432L16.7527 19.8103C17.5133 19.8087 18.0738 19.5648 18.3226 19.1263C18.3226 19.1248 18.4678 18.4785 18.4678 18.4785L18.1224 17.4268L10.8505 4.91381C10.4644 4.24321 9.88658 3.82675 9.23035 3.7389C8.60398 3.65733 7.95954 3.90439 7.40843 4.43615ZM8.03013 4.91851C8.33236 4.64714 8.74606 4.4793 9.12835 4.52871C9.53413 4.58126 9.90228 4.85969 10.1645 5.31224L17.4364 17.8275L17.6735 18.513L17.6303 18.7318C17.5565 18.8644 17.2809 19.0157 16.7511 19.0174L2.26695 19.0487C1.74259 19.0503 1.31636 18.8738 1.06988 18.5514C0.916815 18.3546 0.833607 18.1107 0.82183 17.8307C0.82183 17.8307 0.883844 17.3208 0.8862 17.3193C0.905037 17.3185 8.03013 4.91851 8.03013 4.91851Z" fill="#07213E"/>
<path d="M0.608945 22.1584C0.319293 22.5309 0.181924 23.0055 0.201548 23.5192L0.283184 24.0525C0.330283 24.16 5.42862 32.9451 5.42862 32.9451L7.57628 36.6376C8.19716 37.2557 8.84561 37.4988 9.46805 37.4149C10.1274 37.3255 10.6981 36.9074 11.0882 36.2345L18.2981 23.6878C18.6726 23.04 18.7424 22.4196 18.4944 21.9874C18.2361 21.5474 17.6795 21.3074 16.9189 21.3106L2.43477 21.3427C1.65844 21.3443 1.01085 21.6329 0.608945 22.1584ZM0.997499 23.4886C0.985729 23.16 1.06894 22.8674 1.24162 22.6424C1.48811 22.3184 1.91356 22.1388 2.43634 22.1372L16.9229 22.1058C17.4543 22.1043 17.7275 22.2564 17.8052 22.3874C17.8263 22.4274 17.8405 22.4839 17.846 22.5561C17.8515 22.7247 17.7934 22.9749 17.6112 23.2886L10.3951 35.8376C10.1352 36.2925 9.76872 36.5725 9.36287 36.6267C8.9845 36.6784 8.56924 36.5082 8.19487 36.153C8.19094 36.1184 6.11704 32.5435 6.11704 32.5435L1.01634 23.7615C1.05951 23.8682 0.997499 23.4886 0.997499 23.4886Z" fill="#07213E"/>
<path d="M19.2815 24.052L12.0677 36.5987C11.8197 37.03 11.6972 37.4873 11.7145 37.9171L11.862 38.5869C12.103 39.1697 12.6344 39.6057 13.3621 39.8183C13.4728 39.8332 27.9106 39.801 27.9106 39.801C28.7466 39.5689 29.2765 39.1304 29.5151 38.55L29.6611 37.7242C29.6454 37.332 29.5229 36.943 29.3 36.561L22.032 24.0449C21.6498 23.3877 21.1607 23.0293 20.6544 23.0293C20.1473 23.0285 19.6599 23.3909 19.2815 24.052ZM13.4712 39.0371C13.0929 38.9109 12.7459 38.6355 12.5983 38.281L12.5112 37.8849C12.5018 37.6049 12.5826 37.2967 12.7592 36.9948L19.9731 24.4466C20.2368 23.9861 20.5069 23.823 20.656 23.823C20.8075 23.823 21.0752 23.9837 21.3429 24.4434L28.6132 36.9594C28.7663 37.223 28.8541 37.4999 28.8636 37.754C28.8636 37.754 28.7803 38.2457 28.7803 38.2481C28.6328 38.5987 28.2858 38.874 27.7968 39.0199C27.7937 39.0066 13.4712 39.0371 13.4712 39.0371Z" fill="#07213E"/>
<path d="M22.6843 21.8608C22.4299 22.3016 22.5037 22.904 22.8844 23.5612L30.1524 36.0797C30.5425 36.7502 31.1187 37.1659 31.7741 37.2514C32.399 37.3306 33.0435 37.0851 33.5945 36.5597C33.662 36.4694 40.8546 23.9604 40.8546 23.9604C40.8915 23.8553 40.9787 23.1283 40.9787 23.1283C40.9614 22.6883 40.8193 22.2812 40.5658 21.9549C40.1639 21.4294 39.5124 21.144 38.736 21.1455L24.2519 21.1761C23.4936 21.1816 22.9347 21.4224 22.6843 21.8608ZM23.5713 23.1612C23.4041 22.8741 23.3405 22.6435 23.3327 22.4788C23.3287 22.38 23.346 22.3063 23.3711 22.2561C23.4473 22.1274 23.7244 21.9753 24.2519 21.973L38.736 21.94C39.2619 21.94 39.6881 22.118 39.9386 22.4388C40.0901 22.6388 40.1717 22.8804 40.185 23.1612C40.185 23.1612 40.1207 23.6686 40.1207 23.671C40.0995 23.6749 32.9744 36.0734 32.9744 36.0734C32.6714 36.3408 32.2562 36.5118 31.8747 36.4631C31.4688 36.4122 31.1022 36.133 30.8408 35.6812L23.5713 23.1612Z" fill="#07213E"/>
</g>
</g>
</g>
</svg>
