<svg width="317" height="81" viewBox="0 0 317 81" fill="none" xmlns="http://www.w3.org/2000/svg">
<mask id="mask0_349_5155" style="mask-type:luminance" maskUnits="userSpaceOnUse" x="0" y="0" width="317" height="81">
<path d="M316.278 0.96582H0.722168V80.9658H316.278V0.96582Z" fill="white"/>
</mask>
<g mask="url(#mask0_349_5155)">
<path d="M105.565 42.2451L115.275 64.9996L108.293 65.0121L106.442 61.2302L94.5989 61.249L92.7559 65.042L85.7744 65.0513L95.3823 42.267L105.565 42.2451ZM100.007 47.3525L96.8141 55.351L104.172 55.3399L100.959 47.3525H100.007Z" fill="white"/>
<path d="M135.472 42.1924C138.351 42.1924 141.452 42.5988 141.46 48.6176C141.468 51.1321 140.545 52.699 139.485 53.2716C141.278 54.1909 142.177 55.8771 142.185 58.6457C142.19 63.2999 140.45 64.9564 136.221 64.961L118.154 64.9955L118.118 42.2254L135.472 42.1924ZM124.103 50.7776L134.7 50.7619C135.604 50.7619 136.194 50.3445 136.19 49.2324C136.19 48.0888 135.588 47.703 134.695 47.7045L124.101 47.7233V50.7776H124.103ZM124.123 59.4724L134.477 59.4567C135.505 59.4567 136.208 58.8481 136.208 57.7359C136.205 56.1721 135.494 55.8583 134.47 55.8583L124.117 55.874L124.123 59.4724Z" fill="white"/>
<path d="M146.069 42.1776L169.178 42.1416L169.192 48.0349L160.635 48.049L160.661 64.9274L154.685 64.9369L154.658 48.06L146.074 48.0709L146.069 42.1776Z" fill="white"/>
<path d="M187.066 65.2028C174.485 65.2232 174.242 64.4576 174.219 53.5354C174.205 42.6443 174.447 41.8176 187.028 41.7942C199.549 41.7769 199.875 42.6035 199.894 53.4945C199.913 64.3509 199.583 65.1824 187.066 65.2028ZM187.059 59.3095C193.899 59.3016 193.927 59.2687 193.915 53.5009C193.903 47.7078 193.881 47.6766 187.062 47.689C180.222 47.6969 180.193 47.7299 180.198 53.5243C180.21 59.2921 180.235 59.3204 187.059 59.3095Z" fill="white"/>
<path d="M227.245 50.803L221.26 50.8123C221.26 48.2994 220.771 47.6312 215.312 47.6406C209.441 47.6485 209.417 47.8399 209.424 53.4759C209.438 59.1434 209.463 59.272 215.328 59.2642C220.71 59.2563 221.281 58.7763 221.273 56.0704L227.248 56.0547C227.26 63.8633 226.885 65.1323 215.34 65.1528C204.069 65.1732 203.47 64.1834 203.454 53.4523C203.433 42.7857 204.027 41.7645 215.306 41.7473C226.74 41.7269 227.232 43.0649 227.245 50.803Z" fill="white"/>
<path d="M231.706 42.0386L254.826 42.001L254.835 47.8943L246.273 47.91L246.308 64.7884L240.328 64.7962L240.297 47.9179L231.716 47.9288L231.706 42.0386Z" fill="white"/>
<path d="M277.943 41.9619L287.648 64.7179L280.676 64.7289L278.813 60.9422L266.977 60.961L265.134 64.7524L258.153 64.7634L267.761 41.9791L277.943 41.9619ZM272.384 47.0693L269.19 55.0662L276.552 55.0552L273.336 47.0631L272.384 47.0693Z" fill="white"/>
<path d="M291.093 41.941L314.202 41.9033L314.217 47.7952L305.659 47.8107L305.685 64.6892L299.709 64.6971L299.685 47.8233L291.097 47.8343L291.093 41.941Z" fill="white"/>
<path d="M87.0678 80.9089L85.2012 80.9122L88.7791 71.3749L90.5249 71.3701L94.1373 80.8965L92.2707 80.898L91.5767 78.8996L87.7587 78.9027L87.0678 80.9089ZM91.1072 77.458L89.6598 73.2243L88.217 77.4596L91.1072 77.458Z" fill="white"/>
<path d="M98.0603 80.8902H96.3223L96.3066 71.364L98.0446 71.3609L98.0555 75.1726L102.305 75.1695L102.302 71.3561L104.048 71.3545L104.059 80.8809L102.313 80.884L102.305 76.6095L98.0555 76.6188L98.0603 80.8902Z" fill="white"/>
<path d="M108.107 80.8757L106.237 80.8774L109.818 71.3385L111.569 71.3369L115.178 80.8648H113.311L112.613 78.8648L108.802 78.871L108.107 80.8757ZM112.151 77.4248L110.699 73.1941L109.259 77.4264L112.151 77.4248Z" fill="white"/>
<path d="M116.081 79.4127C118.164 79.7767 118.219 76.997 118.211 75.0676L118.208 71.3217L124.727 71.3076L124.75 80.8417L123.009 80.8448L122.993 72.7538L119.951 72.7586L119.956 75.5774C119.959 77.9758 119.726 81.4346 116.083 80.8558L116.081 79.4127Z" fill="white"/>
<path d="M134.405 71.299L136.113 71.2959L136.124 80.8269L134.379 80.8283L134.368 73.859L129.843 80.8378L128.14 80.8409L128.124 71.3069L129.867 71.3021L129.878 78.2778L134.405 71.299Z" fill="white"/>
<path d="M138.517 72.734V71.2909L146.258 71.2783L146.262 72.7231L143.261 72.7293L143.277 80.8125L141.531 80.8188L141.516 72.7293L138.517 72.734Z" fill="white"/>
<path d="M154.95 71.2682L156.659 71.2666L156.675 80.793H154.931L154.921 73.8282L150.392 80.8054H148.692L148.668 71.2792L150.414 71.2761L150.425 78.2471L154.95 71.2682Z" fill="white"/>
<path d="M161.429 71.2558L161.436 73.8282C161.436 74.7396 161.491 75.422 163.444 75.4172C164.204 75.4141 165.033 75.3326 165.174 75.3169L165.162 71.2463L166.907 71.2432L166.924 80.7772L165.183 80.7803L165.174 76.7648C164.638 76.8039 163.835 76.8589 163.226 76.8589C161.181 76.8651 159.694 76.3615 159.694 74.222L159.687 71.2558H161.429Z" fill="white"/>
<path d="M176.904 75.1562V76.5962L172.054 76.6024L172.058 79.3303L177.618 79.3208L177.621 80.7624L170.315 80.7734L170.3 71.2408L177.455 71.2314L177.46 72.6729L172.046 72.6793L172.051 75.1562H176.904Z" fill="white"/>
<path d="M188.392 77.4876C188.268 78.9307 187.503 81.031 184.275 81.0342C183.537 81.0342 179.545 80.9731 179.536 76.1542C179.533 72.231 181.793 70.9369 184.165 70.9307C187.433 70.9228 188.171 72.9259 188.259 74.2843L186.527 74.2907C186.411 73.4969 185.945 72.3722 184.164 72.3754C182.038 72.3754 181.396 74.1088 181.401 76.0821C181.404 78.3157 182.635 79.5926 184.346 79.5926C185.934 79.5848 186.607 78.5119 186.663 77.4907L188.392 77.4876Z" fill="white"/>
<path d="M197.049 71.194L199.39 71.1924L195.446 75.1454L199.666 80.7171L197.323 80.725L194.171 76.3202L192.889 77.5611L192.894 80.7313L191.144 80.7359L191.132 71.205L192.879 71.2019L192.886 75.489L197.049 71.194Z" fill="white"/>
<path d="M205.961 70.8956C206.792 70.8923 210.633 70.9944 210.644 75.9356C210.648 80.8799 206.807 80.9959 205.972 80.9975C205.141 80.999 201.295 80.897 201.295 75.9511C201.284 71.0116 205.132 70.8956 205.961 70.8956ZM205.974 79.5544C208.332 79.5496 208.778 77.4116 208.774 75.9402C208.771 74.472 208.318 72.3339 205.961 72.3356C203.602 72.3418 203.161 74.4813 203.161 75.9496C203.161 77.4211 203.618 79.5559 205.974 79.5544Z" fill="white"/>
<path d="M220.085 75.082V76.522L215.239 76.5313V79.2546L220.802 79.2451V80.6882L213.502 80.6992L213.488 71.1698L220.641 71.1572L220.645 72.5989L215.228 72.6082L215.241 75.0882L220.085 75.082Z" fill="white"/>
<path d="M228.177 80.6737L226.312 80.6785L229.891 71.1411L231.636 71.1396L235.253 80.6628L233.379 80.6659L232.691 78.6675L228.872 78.669L228.177 80.6737ZM232.219 77.2244L230.768 72.9937L229.331 77.2306L232.219 77.2244Z" fill="white"/>
<path d="M239.174 80.6593L237.427 80.6609L237.413 71.133L243.653 71.1221L243.657 72.5652L239.159 72.5714L239.174 80.6593Z" fill="white"/>
<path d="M252.66 75.0245L252.669 76.466L247.817 76.4738L247.82 79.2L253.386 79.1907V80.6307L246.082 80.6433L246.063 71.1155L253.22 71.1045V72.5443L247.807 72.5538L247.819 75.0322L252.66 75.0245Z" fill="white"/>
<path d="M257.599 80.6305L255.854 80.6321L255.838 71.0995L257.579 71.0948L257.585 74.9097L261.841 74.9002L261.829 71.0869H263.574L263.59 80.6164L261.845 80.6211L261.841 76.3435L257.588 76.3512L257.599 80.6305Z" fill="white"/>
<path d="M265.989 72.5219V71.0788L273.727 71.0693V72.5093L270.731 72.5188L270.741 80.605L269.001 80.6067L268.989 72.5203H265.989V72.5219Z" fill="white"/>
<path d="M284.352 77.3282C284.217 78.7761 283.462 80.8749 280.236 80.8764C279.499 80.878 275.506 80.8183 275.497 75.9964C275.488 72.0764 277.747 70.7792 280.124 70.7744C283.39 70.7682 284.131 72.7682 284.216 74.1344H282.481C282.374 73.3454 281.907 72.2128 280.127 72.2192C277.999 72.2206 277.355 73.9525 277.364 75.9258C277.367 78.1595 278.598 79.438 280.313 79.438C281.896 79.4332 282.573 78.354 282.626 77.3344L284.352 77.3282Z" fill="white"/>
<path d="M286.119 72.4961L286.116 71.0498L293.857 71.042L293.861 72.4835L290.861 72.4867L290.882 80.573L289.131 80.5761L289.124 72.4882L286.119 72.4961Z" fill="white"/>
<path d="M300.766 71.0244C303.193 71.0228 303.674 72.3812 303.677 73.4275C303.677 74.4816 303.026 75.313 302.098 75.4792V75.5028C302.889 75.6377 304.073 76.1789 304.073 77.884C304.086 80.2918 302.024 80.5554 300.593 80.5569L296.286 80.5663L296.266 71.0323L300.766 71.0244ZM298.02 74.8973L300.325 74.8942C301.291 74.8911 301.877 74.593 301.877 73.7616C301.869 72.4957 300.646 72.4659 300.275 72.4659L298.017 72.4723L298.02 74.8973ZM298.023 79.1169L300.414 79.1154C301.476 79.1075 302.279 78.8502 302.279 77.6926C302.276 76.4126 301.169 76.3357 300.446 76.3373L298.021 76.3404L298.023 79.1169Z" fill="white"/>
<path d="M311.21 70.7236C312.047 70.7236 315.888 70.8272 315.896 75.7653C315.904 80.7112 312.063 80.8272 311.232 80.8272C310.398 80.8272 306.552 80.7222 306.544 75.7872C306.541 70.8413 310.38 70.7269 311.21 70.7236ZM311.229 79.3857C313.584 79.3779 314.03 77.2429 314.03 75.7715C314.023 74.3017 313.573 72.1622 311.217 72.1684C308.859 72.1715 308.416 74.3096 308.416 75.7824C308.416 77.2524 308.869 79.3857 311.229 79.3857Z" fill="white"/>
<path d="M88.1997 30.326L73.5461 5.04442C72.4676 3.97147 71.1597 3.47735 69.8756 3.6499C68.596 3.82088 67.4704 4.64128 66.7043 5.96363L52.2766 31.0663C51.5388 32.3511 51.3959 33.5275 51.8968 34.3809C52.3865 35.2311 53.4839 35.6954 54.9707 35.6938L83.9342 35.6263C85.468 35.6263 86.7366 35.0523 87.5248 34.0232C88.308 32.9958 88.5248 31.6216 88.1997 30.326Z" fill="white"/>
<path d="M23.8613 4.01228L23.5693 5.66876C23.6007 6.44523 23.8487 7.22797 24.2883 7.99345L38.829 33.024C39.5935 34.3354 40.5716 35.0586 41.5842 35.0586C42.5969 35.0538 43.575 34.3292 44.3284 33.0147L58.7561 7.91503C59.2522 7.05228 59.497 6.13778 59.4578 5.27503L59.1627 3.937C58.6855 2.77464 57.6227 1.90248 56.1782 1.47895C55.9443 1.44601 27.0655 1.51189 27.0655 1.51189C25.3982 1.9715 24.3385 2.84679 23.8613 4.01228ZM41.5796 33.4695C41.2764 33.4664 40.7364 33.1433 40.209 32.2303L25.6652 7.19345C25.359 6.6664 25.1831 6.11424 25.169 5.60445L25.3276 4.61934C25.6196 3.90719 26.3213 3.3566 27.2916 3.06954C27.3025 3.09778 55.949 3.03345 55.949 3.03345C56.701 3.286 57.3997 3.8366 57.6948 4.54876C57.6948 4.5519 57.8659 5.33778 57.8659 5.33778C57.8895 5.90248 57.7231 6.52366 57.373 7.126L42.9484 32.2209C42.4179 33.1402 41.8778 33.4664 41.5796 33.4695Z" fill="white"/>
<path d="M15.5395 7.90649C15.3999 8.08532 1.02246 33.0908 1.02246 33.0908C0.937686 33.3057 0.774414 34.7583 0.774414 34.7583C0.813662 35.6414 1.09625 36.4492 1.6002 37.1018C2.404 38.1497 3.70704 38.7268 5.25655 38.7206L34.228 38.6547C35.7493 38.6516 36.8702 38.1637 37.3678 37.2868C37.3678 37.2837 37.6583 35.9911 37.6583 35.9911L36.9675 33.8877L22.4237 8.86179C21.6514 7.52061 20.4958 6.68767 19.1834 6.51199C17.9306 6.34884 16.6417 6.84296 15.5395 7.90649ZM16.7829 8.8712C17.3874 8.32846 18.2148 7.99277 18.9794 8.0916C19.7909 8.1967 20.5272 8.75356 21.0517 9.65865L35.5954 34.6892L36.0696 36.0602L35.9832 36.4978C35.8357 36.763 35.2845 37.0657 34.2248 37.0689L5.25655 37.1316C4.20784 37.1347 3.35538 36.7818 2.86242 36.1371C2.55629 35.7433 2.38987 35.2556 2.36632 34.6956C2.36632 34.6956 2.49035 33.6759 2.49506 33.6728C2.53273 33.6711 16.7829 8.8712 16.7829 8.8712Z" fill="white"/>
<path d="M1.94006 43.351C1.36075 44.0961 1.08602 45.0451 1.12526 46.0725L1.28854 47.1392C1.38273 47.3542 11.5794 64.9244 11.5794 64.9244L15.8747 72.3094C17.1165 73.5456 18.4134 74.0318 19.6583 73.8639C20.9769 73.6851 22.1183 72.849 22.8986 71.5032L37.3184 46.4099C38.0673 45.1142 38.207 43.8734 37.7109 43.009C37.1944 42.129 36.0812 41.649 34.5601 41.6553L5.59171 41.7196C4.03905 41.7227 2.74386 42.3001 1.94006 43.351ZM2.71717 46.0113C2.69363 45.3542 2.86004 44.769 3.20542 44.3189C3.69838 43.671 4.54928 43.3118 5.59485 43.3087L34.5679 43.2459C35.6307 43.2427 36.1771 43.547 36.3325 43.809C36.3749 43.889 36.4032 44.002 36.4141 44.1463C36.4251 44.4835 36.3089 44.9839 35.9446 45.6113L21.5124 70.7094C20.9926 71.6192 20.2596 72.1792 19.4479 72.2875C18.6912 72.391 17.8606 72.0506 17.1119 71.3401C17.1041 71.271 12.9562 64.1213 12.9562 64.1213L2.75485 46.5573C2.8412 46.7706 2.71717 46.0113 2.71717 46.0113Z" fill="white"/>
<path d="M39.2852 47.1383L24.8575 72.2316C24.3615 73.0943 24.1166 74.0088 24.1512 74.8683L24.4463 76.208C24.9282 77.3735 25.991 78.2457 27.4464 78.6707C27.6677 78.7006 56.5434 78.6362 56.5434 78.6362C58.2155 78.1719 59.2752 77.295 59.7523 76.1343L60.0443 74.4826C60.0129 73.6983 59.768 72.9202 59.3223 72.1562L44.7863 47.124C44.0217 45.8095 43.0436 45.0928 42.031 45.0928C41.0168 45.0911 40.042 45.8159 39.2852 47.1383ZM27.6646 77.1083C26.9079 76.8559 26.214 76.3052 25.9189 75.5962L25.7446 74.804C25.7257 74.244 25.8874 73.6276 26.2406 73.0237L40.6683 47.9273C41.1957 47.0064 41.7359 46.6802 42.0341 46.6802C42.3371 46.6802 42.8725 47.0017 43.4079 47.9209L57.9485 72.9531C58.2547 73.4802 58.4304 74.034 58.4494 74.5421C58.4494 74.5421 58.2829 75.5257 58.2829 75.5304C57.9877 76.2316 57.2938 76.7821 56.3157 77.074C56.3095 77.0473 27.6646 77.1083 27.6646 77.1083Z" fill="white"/>
<path d="M46.0898 42.7557C45.581 43.6374 45.7286 44.8421 46.4901 46.1566L61.0261 71.1935C61.8062 72.5345 62.9587 73.3659 64.2695 73.5369C65.5191 73.6954 66.8082 73.2045 67.9102 72.1535C68.0452 71.9731 82.4304 46.955 82.4304 46.955C82.5042 46.7448 82.6785 45.2907 82.6785 45.2907C82.644 44.4107 82.3599 43.5966 81.8527 42.944C81.0489 41.8931 79.7459 41.3221 78.1932 41.3252L49.2249 41.3864C47.7083 41.3974 46.5905 41.879 46.0898 42.7557ZM47.8637 45.3566C47.5293 44.7824 47.4022 44.3212 47.3865 43.9919C47.3787 43.7942 47.4132 43.6468 47.4634 43.5464C47.6157 43.2891 48.1699 42.9848 49.2249 42.9802L78.1932 42.9142C79.245 42.9142 80.0975 43.2702 80.5984 43.9119C80.9013 44.3119 81.0646 44.795 81.0913 45.3566C81.0913 45.3566 80.9625 46.3714 80.9625 46.3762C80.9202 46.384 66.6699 71.1809 66.6699 71.1809C66.064 71.7157 65.2335 72.0578 64.4705 71.9605C63.6588 71.8585 62.9256 71.3002 62.4028 70.3966L47.8637 45.3566Z" fill="white"/>
<mask id="mask1_349_5155" style="mask-type:luminance" maskUnits="userSpaceOnUse" x="0" y="0" width="317" height="81">
<path d="M316.278 0.96582H0.722168V80.9658H316.278V0.96582Z" fill="white"/>
</mask>
<g mask="url(#mask1_349_5155)">
<path d="M105.565 42.2451L115.275 64.9996L108.293 65.0121L106.442 61.2302L94.5989 61.249L92.7559 65.042L85.7744 65.0513L95.3823 42.267L105.565 42.2451ZM100.007 47.3525L96.8141 55.351L104.172 55.3399L100.959 47.3525H100.007Z" fill="white"/>
<path d="M135.472 42.1924C138.351 42.1924 141.452 42.5988 141.46 48.6176C141.468 51.1321 140.545 52.699 139.485 53.2716C141.278 54.1909 142.177 55.8771 142.185 58.6457C142.19 63.2999 140.45 64.9564 136.221 64.961L118.154 64.9955L118.118 42.2254L135.472 42.1924ZM124.103 50.7776L134.7 50.7619C135.604 50.7619 136.194 50.3445 136.19 49.2324C136.19 48.0888 135.588 47.703 134.695 47.7045L124.101 47.7233V50.7776H124.103ZM124.123 59.4724L134.477 59.4567C135.505 59.4567 136.208 58.8481 136.208 57.7359C136.205 56.1721 135.494 55.8583 134.47 55.8583L124.117 55.874L124.123 59.4724Z" fill="white"/>
<path d="M146.069 42.1776L169.178 42.1416L169.192 48.0349L160.635 48.049L160.661 64.9274L154.685 64.9369L154.658 48.06L146.074 48.0709L146.069 42.1776Z" fill="white"/>
<path d="M187.066 65.2028C174.485 65.2232 174.242 64.4576 174.219 53.5354C174.205 42.6443 174.447 41.8176 187.028 41.7942C199.549 41.7769 199.875 42.6035 199.894 53.4945C199.913 64.3509 199.583 65.1824 187.066 65.2028ZM187.059 59.3095C193.899 59.3016 193.927 59.2687 193.915 53.5009C193.903 47.7078 193.881 47.6766 187.062 47.689C180.222 47.6969 180.193 47.7299 180.198 53.5243C180.21 59.2921 180.235 59.3204 187.059 59.3095Z" fill="white"/>
<path d="M227.245 50.803L221.26 50.8123C221.26 48.2994 220.771 47.6312 215.312 47.6406C209.441 47.6485 209.417 47.8399 209.424 53.4759C209.438 59.1434 209.463 59.272 215.328 59.2642C220.71 59.2563 221.281 58.7763 221.273 56.0704L227.248 56.0547C227.26 63.8633 226.885 65.1323 215.34 65.1528C204.069 65.1732 203.47 64.1834 203.454 53.4523C203.433 42.7857 204.027 41.7645 215.306 41.7473C226.74 41.7269 227.232 43.0649 227.245 50.803Z" fill="white"/>
<path d="M231.706 42.0386L254.826 42.001L254.835 47.8943L246.273 47.91L246.308 64.7884L240.328 64.7962L240.297 47.9179L231.716 47.9288L231.706 42.0386Z" fill="white"/>
<path d="M277.943 41.9619L287.648 64.7179L280.676 64.7289L278.813 60.9422L266.977 60.961L265.134 64.7524L258.153 64.7634L267.761 41.9791L277.943 41.9619ZM272.384 47.0693L269.19 55.0662L276.552 55.0552L273.336 47.0631L272.384 47.0693Z" fill="white"/>
<path d="M291.093 41.941L314.202 41.9033L314.217 47.7952L305.659 47.8107L305.685 64.6892L299.709 64.6971L299.685 47.8233L291.097 47.8343L291.093 41.941Z" fill="white"/>
<path d="M87.0678 80.9089L85.2012 80.9122L88.7791 71.3749L90.5249 71.3701L94.1373 80.8965L92.2707 80.898L91.5767 78.8996L87.7587 78.9027L87.0678 80.9089ZM91.1072 77.458L89.6598 73.2243L88.217 77.4596L91.1072 77.458Z" fill="white"/>
<path d="M98.0603 80.8902H96.3223L96.3066 71.364L98.0446 71.3609L98.0555 75.1726L102.305 75.1695L102.302 71.3561L104.048 71.3545L104.059 80.8809L102.313 80.884L102.305 76.6095L98.0555 76.6188L98.0603 80.8902Z" fill="white"/>
<path d="M108.107 80.8757L106.237 80.8774L109.818 71.3385L111.569 71.3369L115.178 80.8648H113.311L112.613 78.8648L108.802 78.871L108.107 80.8757ZM112.151 77.4248L110.699 73.1941L109.259 77.4264L112.151 77.4248Z" fill="white"/>
<path d="M116.081 79.4127C118.164 79.7767 118.219 76.997 118.211 75.0676L118.208 71.3217L124.727 71.3076L124.75 80.8417L123.009 80.8448L122.993 72.7538L119.951 72.7586L119.956 75.5774C119.959 77.9758 119.726 81.4346 116.083 80.8558L116.081 79.4127Z" fill="white"/>
<path d="M134.405 71.299L136.113 71.2959L136.124 80.8269L134.379 80.8283L134.368 73.859L129.843 80.8378L128.14 80.8409L128.124 71.3069L129.867 71.3021L129.878 78.2778L134.405 71.299Z" fill="white"/>
<path d="M138.517 72.734V71.2909L146.258 71.2783L146.262 72.7231L143.261 72.7293L143.277 80.8125L141.531 80.8188L141.516 72.7293L138.517 72.734Z" fill="white"/>
<path d="M154.95 71.2682L156.659 71.2666L156.675 80.793H154.931L154.921 73.8282L150.392 80.8054H148.692L148.668 71.2792L150.414 71.2761L150.425 78.2471L154.95 71.2682Z" fill="white"/>
<path d="M161.429 71.2558L161.436 73.8282C161.436 74.7396 161.491 75.422 163.444 75.4172C164.204 75.4141 165.033 75.3326 165.174 75.3169L165.162 71.2463L166.907 71.2432L166.924 80.7772L165.183 80.7803L165.174 76.7648C164.638 76.8039 163.835 76.8589 163.226 76.8589C161.181 76.8651 159.694 76.3615 159.694 74.222L159.687 71.2558H161.429Z" fill="white"/>
<path d="M176.904 75.1562V76.5962L172.054 76.6024L172.058 79.3303L177.618 79.3208L177.621 80.7624L170.315 80.7734L170.3 71.2408L177.455 71.2314L177.46 72.6729L172.046 72.6793L172.051 75.1562H176.904Z" fill="white"/>
<path d="M188.392 77.4876C188.268 78.9307 187.503 81.031 184.275 81.0342C183.537 81.0342 179.545 80.9731 179.536 76.1542C179.533 72.231 181.793 70.9369 184.165 70.9307C187.433 70.9228 188.171 72.9259 188.259 74.2843L186.527 74.2907C186.411 73.4969 185.945 72.3722 184.164 72.3754C182.038 72.3754 181.396 74.1088 181.401 76.0821C181.404 78.3157 182.635 79.5926 184.346 79.5926C185.934 79.5848 186.607 78.5119 186.663 77.4907L188.392 77.4876Z" fill="white"/>
<path d="M197.049 71.194L199.39 71.1924L195.446 75.1454L199.666 80.7171L197.323 80.725L194.171 76.3202L192.889 77.5611L192.894 80.7313L191.144 80.7359L191.132 71.205L192.879 71.2019L192.886 75.489L197.049 71.194Z" fill="white"/>
<path d="M205.961 70.8956C206.792 70.8923 210.633 70.9944 210.644 75.9356C210.648 80.8799 206.807 80.9959 205.972 80.9975C205.141 80.999 201.295 80.897 201.295 75.9511C201.284 71.0116 205.132 70.8956 205.961 70.8956ZM205.974 79.5544C208.332 79.5496 208.778 77.4116 208.774 75.9402C208.771 74.472 208.318 72.3339 205.961 72.3356C203.602 72.3418 203.161 74.4813 203.161 75.9496C203.161 77.4211 203.618 79.5559 205.974 79.5544Z" fill="white"/>
<path d="M220.085 75.082V76.522L215.239 76.5313V79.2546L220.802 79.2451V80.6882L213.502 80.6992L213.488 71.1698L220.641 71.1572L220.645 72.5989L215.228 72.6082L215.241 75.0882L220.085 75.082Z" fill="white"/>
<path d="M228.177 80.6737L226.312 80.6785L229.891 71.1411L231.636 71.1396L235.253 80.6628L233.379 80.6659L232.691 78.6675L228.872 78.669L228.177 80.6737ZM232.219 77.2244L230.768 72.9937L229.331 77.2306L232.219 77.2244Z" fill="white"/>
<path d="M239.174 80.6593L237.427 80.6609L237.413 71.133L243.653 71.1221L243.657 72.5652L239.159 72.5714L239.174 80.6593Z" fill="white"/>
<path d="M252.66 75.0245L252.669 76.466L247.817 76.4738L247.82 79.2L253.386 79.1907V80.6307L246.082 80.6433L246.063 71.1155L253.22 71.1045V72.5443L247.807 72.5538L247.819 75.0322L252.66 75.0245Z" fill="white"/>
<path d="M257.599 80.6305L255.854 80.6321L255.838 71.0995L257.579 71.0948L257.585 74.9097L261.841 74.9002L261.829 71.0869H263.574L263.59 80.6164L261.845 80.6211L261.841 76.3435L257.588 76.3512L257.599 80.6305Z" fill="white"/>
<path d="M265.989 72.5219V71.0788L273.727 71.0693V72.5093L270.731 72.5188L270.741 80.605L269.001 80.6067L268.989 72.5203H265.989V72.5219Z" fill="white"/>
<path d="M284.352 77.3282C284.217 78.7761 283.462 80.8749 280.236 80.8764C279.499 80.878 275.506 80.8183 275.497 75.9964C275.488 72.0764 277.747 70.7792 280.124 70.7744C283.39 70.7682 284.131 72.7682 284.216 74.1344H282.481C282.374 73.3454 281.907 72.2128 280.127 72.2192C277.999 72.2206 277.355 73.9525 277.364 75.9258C277.367 78.1595 278.598 79.438 280.313 79.438C281.896 79.4332 282.573 78.354 282.626 77.3344L284.352 77.3282Z" fill="white"/>
<path d="M286.119 72.4961L286.116 71.0498L293.857 71.042L293.861 72.4835L290.861 72.4867L290.882 80.573L289.131 80.5761L289.124 72.4882L286.119 72.4961Z" fill="white"/>
<path d="M300.766 71.0244C303.193 71.0228 303.674 72.3812 303.677 73.4275C303.677 74.4816 303.026 75.313 302.098 75.4792V75.5028C302.889 75.6377 304.073 76.1789 304.073 77.884C304.086 80.2918 302.024 80.5554 300.593 80.5569L296.286 80.5663L296.266 71.0323L300.766 71.0244ZM298.02 74.8973L300.325 74.8942C301.291 74.8911 301.877 74.593 301.877 73.7616C301.869 72.4957 300.646 72.4659 300.275 72.4659L298.017 72.4723L298.02 74.8973ZM298.023 79.1169L300.414 79.1154C301.476 79.1075 302.279 78.8502 302.279 77.6926C302.276 76.4126 301.169 76.3357 300.446 76.3373L298.021 76.3404L298.023 79.1169Z" fill="white"/>
<path d="M311.21 70.7236C312.047 70.7236 315.888 70.8272 315.896 75.7653C315.904 80.7112 312.063 80.8272 311.232 80.8272C310.398 80.8272 306.552 80.7222 306.544 75.7872C306.541 70.8413 310.38 70.7269 311.21 70.7236ZM311.229 79.3857C313.584 79.3779 314.03 77.2429 314.03 75.7715C314.023 74.3017 313.573 72.1622 311.217 72.1684C308.859 72.1715 308.416 74.3096 308.416 75.7824C308.416 77.2524 308.869 79.3857 311.229 79.3857Z" fill="white"/>
<path d="M88.1997 30.326L73.5461 5.04442C72.4676 3.97147 71.1597 3.47735 69.8756 3.6499C68.596 3.82088 67.4704 4.64128 66.7043 5.96363L52.2766 31.0663C51.5388 32.3511 51.3959 33.5275 51.8968 34.3809C52.3865 35.2311 53.4839 35.6954 54.9707 35.6938L83.9342 35.6263C85.468 35.6263 86.7366 35.0523 87.5248 34.0232C88.308 32.9958 88.5248 31.6216 88.1997 30.326Z" fill="white"/>
<path d="M23.8613 4.01228L23.5693 5.66876C23.6007 6.44523 23.8487 7.22797 24.2883 7.99345L38.829 33.024C39.5935 34.3354 40.5716 35.0586 41.5842 35.0586C42.5969 35.0538 43.575 34.3292 44.3284 33.0147L58.7561 7.91503C59.2522 7.05228 59.497 6.13778 59.4578 5.27503L59.1627 3.937C58.6855 2.77464 57.6227 1.90248 56.1782 1.47895C55.9443 1.44601 27.0655 1.51189 27.0655 1.51189C25.3982 1.9715 24.3385 2.84679 23.8613 4.01228ZM41.5796 33.4695C41.2764 33.4664 40.7364 33.1433 40.209 32.2303L25.6652 7.19345C25.359 6.6664 25.1831 6.11424 25.169 5.60445L25.3276 4.61934C25.6196 3.90719 26.3213 3.3566 27.2916 3.06954C27.3025 3.09778 55.949 3.03345 55.949 3.03345C56.701 3.286 57.3997 3.8366 57.6948 4.54876C57.6948 4.5519 57.8659 5.33778 57.8659 5.33778C57.8895 5.90248 57.7231 6.52366 57.373 7.126L42.9484 32.2209C42.4179 33.1402 41.8778 33.4664 41.5796 33.4695Z" fill="white"/>
<path d="M15.5395 7.90649C15.3999 8.08532 1.02246 33.0908 1.02246 33.0908C0.937686 33.3057 0.774414 34.7583 0.774414 34.7583C0.813662 35.6414 1.09625 36.4492 1.6002 37.1018C2.404 38.1497 3.70704 38.7268 5.25655 38.7206L34.228 38.6547C35.7493 38.6516 36.8702 38.1637 37.3678 37.2868C37.3678 37.2837 37.6583 35.9911 37.6583 35.9911L36.9675 33.8877L22.4237 8.86179C21.6514 7.52061 20.4958 6.68767 19.1834 6.51199C17.9306 6.34884 16.6417 6.84296 15.5395 7.90649ZM16.7829 8.8712C17.3874 8.32846 18.2148 7.99277 18.9794 8.0916C19.7909 8.1967 20.5272 8.75356 21.0517 9.65865L35.5954 34.6892L36.0696 36.0602L35.9832 36.4978C35.8357 36.763 35.2845 37.0657 34.2248 37.0689L5.25655 37.1316C4.20784 37.1347 3.35538 36.7818 2.86242 36.1371C2.55629 35.7433 2.38987 35.2556 2.36632 34.6956C2.36632 34.6956 2.49035 33.6759 2.49506 33.6728C2.53273 33.6711 16.7829 8.8712 16.7829 8.8712Z" fill="white"/>
<path d="M1.94006 43.351C1.36075 44.0961 1.08602 45.0451 1.12526 46.0725L1.28854 47.1392C1.38273 47.3542 11.5794 64.9244 11.5794 64.9244L15.8747 72.3094C17.1165 73.5456 18.4134 74.0318 19.6583 73.8639C20.9769 73.6851 22.1183 72.849 22.8986 71.5032L37.3184 46.4099C38.0673 45.1142 38.207 43.8734 37.7109 43.009C37.1944 42.129 36.0812 41.649 34.5601 41.6553L5.59171 41.7196C4.03905 41.7227 2.74386 42.3001 1.94006 43.351ZM2.71717 46.0113C2.69363 45.3542 2.86004 44.769 3.20542 44.3189C3.69838 43.671 4.54928 43.3118 5.59485 43.3087L34.5679 43.2459C35.6307 43.2427 36.1771 43.547 36.3325 43.809C36.3749 43.889 36.4032 44.002 36.4141 44.1463C36.4251 44.4835 36.3089 44.9839 35.9446 45.6113L21.5124 70.7094C20.9926 71.6192 20.2596 72.1792 19.4479 72.2875C18.6912 72.391 17.8606 72.0506 17.1119 71.3401C17.1041 71.271 12.9562 64.1213 12.9562 64.1213L2.75485 46.5573C2.8412 46.7706 2.71717 46.0113 2.71717 46.0113Z" fill="white"/>
<path d="M39.2852 47.1383L24.8575 72.2316C24.3615 73.0943 24.1166 74.0088 24.1512 74.8683L24.4463 76.208C24.9282 77.3735 25.991 78.2457 27.4464 78.6707C27.6677 78.7006 56.5434 78.6362 56.5434 78.6362C58.2155 78.1719 59.2752 77.295 59.7523 76.1343L60.0443 74.4826C60.0129 73.6983 59.768 72.9202 59.3223 72.1562L44.7863 47.124C44.0217 45.8095 43.0436 45.0928 42.031 45.0928C41.0168 45.0911 40.042 45.8159 39.2852 47.1383ZM27.6646 77.1083C26.9079 76.8559 26.214 76.3052 25.9189 75.5962L25.7446 74.804C25.7257 74.244 25.8874 73.6276 26.2406 73.0237L40.6683 47.9273C41.1957 47.0064 41.7359 46.6802 42.0341 46.6802C42.3371 46.6802 42.8725 47.0017 43.4079 47.9209L57.9485 72.9531C58.2547 73.4802 58.4304 74.034 58.4494 74.5421C58.4494 74.5421 58.2829 75.5257 58.2829 75.5304C57.9877 76.2316 57.2938 76.7821 56.3157 77.074C56.3095 77.0473 27.6646 77.1083 27.6646 77.1083Z" fill="white"/>
<path d="M46.0898 42.7557C45.581 43.6374 45.7286 44.8421 46.4901 46.1566L61.0261 71.1935C61.8062 72.5345 62.9587 73.3659 64.2695 73.5369C65.5191 73.6954 66.8082 73.2045 67.9102 72.1535C68.0452 71.9731 82.4304 46.955 82.4304 46.955C82.5042 46.7448 82.6785 45.2907 82.6785 45.2907C82.644 44.4107 82.3599 43.5966 81.8527 42.944C81.0489 41.8931 79.7459 41.3221 78.1932 41.3252L49.2249 41.3864C47.7083 41.3974 46.5905 41.879 46.0898 42.7557ZM47.8637 45.3566C47.5293 44.7824 47.4022 44.3212 47.3865 43.9919C47.3787 43.7942 47.4132 43.6468 47.4634 43.5464C47.6157 43.2891 48.1699 42.9848 49.2249 42.9802L78.1932 42.9142C79.245 42.9142 80.0975 43.2702 80.5984 43.9119C80.9013 44.3119 81.0646 44.795 81.0913 45.3566C81.0913 45.3566 80.9625 46.3714 80.9625 46.3762C80.9202 46.384 66.6699 71.1809 66.6699 71.1809C66.064 71.7157 65.2335 72.0578 64.4705 71.9605C63.6588 71.8585 62.9256 71.3002 62.4028 70.3966L47.8637 45.3566Z" fill="white"/>
<mask id="mask2_349_5155" style="mask-type:luminance" maskUnits="userSpaceOnUse" x="0" y="0" width="317" height="81">
<path d="M316.278 0.96582H0.722168V80.9658H316.278V0.96582Z" fill="white"/>
</mask>
<g mask="url(#mask2_349_5155)">
<path d="M105.565 42.2451L115.275 64.9996L108.293 65.0121L106.442 61.2302L94.5989 61.249L92.7559 65.042L85.7744 65.0513L95.3823 42.267L105.565 42.2451ZM100.007 47.3525L96.8141 55.351L104.172 55.3399L100.959 47.3525H100.007Z" fill="white"/>
<path d="M135.472 42.1924C138.351 42.1924 141.452 42.5988 141.46 48.6176C141.468 51.1321 140.545 52.699 139.485 53.2716C141.278 54.1909 142.177 55.8771 142.185 58.6457C142.19 63.2999 140.45 64.9564 136.221 64.961L118.154 64.9955L118.118 42.2254L135.472 42.1924ZM124.103 50.7776L134.7 50.7619C135.604 50.7619 136.194 50.3445 136.19 49.2324C136.19 48.0888 135.588 47.703 134.695 47.7045L124.101 47.7233V50.7776H124.103ZM124.123 59.4724L134.477 59.4567C135.505 59.4567 136.208 58.8481 136.208 57.7359C136.205 56.1721 135.494 55.8583 134.47 55.8583L124.117 55.874L124.123 59.4724Z" fill="white"/>
<path d="M146.069 42.1776L169.178 42.1416L169.192 48.0349L160.635 48.049L160.661 64.9274L154.685 64.9369L154.658 48.06L146.074 48.0709L146.069 42.1776Z" fill="white"/>
<path d="M187.066 65.2028C174.485 65.2232 174.242 64.4576 174.219 53.5354C174.205 42.6443 174.447 41.8176 187.028 41.7942C199.549 41.7769 199.875 42.6035 199.894 53.4945C199.913 64.3509 199.583 65.1824 187.066 65.2028ZM187.059 59.3095C193.899 59.3016 193.927 59.2687 193.915 53.5009C193.903 47.7078 193.881 47.6766 187.062 47.689C180.222 47.6969 180.193 47.7299 180.198 53.5243C180.21 59.2921 180.235 59.3204 187.059 59.3095Z" fill="white"/>
<path d="M227.245 50.803L221.26 50.8123C221.26 48.2994 220.771 47.6312 215.312 47.6406C209.441 47.6485 209.417 47.8399 209.424 53.4759C209.438 59.1434 209.463 59.272 215.328 59.2642C220.71 59.2563 221.281 58.7763 221.273 56.0704L227.248 56.0547C227.26 63.8633 226.885 65.1323 215.34 65.1528C204.069 65.1732 203.47 64.1834 203.454 53.4523C203.433 42.7857 204.027 41.7645 215.306 41.7473C226.74 41.7269 227.232 43.0649 227.245 50.803Z" fill="white"/>
<path d="M231.706 42.0406L254.826 42.0029L254.835 47.8963L246.273 47.912L246.308 64.7903L240.328 64.7982L240.297 47.9198L231.716 47.9308L231.706 42.0406Z" fill="white"/>
<path d="M277.943 41.9619L287.648 64.7179L280.676 64.7289L278.813 60.9422L266.977 60.961L265.134 64.7524L258.153 64.7634L267.761 41.9791L277.943 41.9619ZM272.384 47.0693L269.19 55.0662L276.552 55.0552L273.336 47.0631L272.384 47.0693Z" fill="white"/>
<path d="M291.093 41.941L314.202 41.9033L314.217 47.7952L305.659 47.8107L305.685 64.6892L299.709 64.6971L299.685 47.8233L291.097 47.8343L291.093 41.941Z" fill="white"/>
<path d="M87.0683 80.9109L85.2017 80.9141L88.7796 71.3768L90.5254 71.3721L94.1378 80.8984L92.2711 80.8999L91.5772 78.9016L87.7591 78.9047L87.0683 80.9109ZM91.1077 77.4599L89.6603 73.2263L88.2175 77.4616L91.1077 77.4599Z" fill="white"/>
<path d="M98.0603 80.8902H96.3223L96.3066 71.364L98.0446 71.3609L98.0555 75.1726L102.305 75.1695L102.302 71.3561L104.048 71.3545L104.059 80.8809L102.313 80.884L102.305 76.6095L98.0555 76.6188L98.0603 80.8902Z" fill="white"/>
<path d="M108.107 80.8757L106.237 80.8774L109.818 71.3385L111.569 71.3369L115.178 80.8648H113.311L112.613 78.8648L108.802 78.871L108.107 80.8757ZM112.151 77.4248L110.699 73.1941L109.259 77.4264L112.151 77.4248Z" fill="white"/>
<path d="M116.081 79.4127C118.164 79.7767 118.219 76.997 118.211 75.0676L118.208 71.3217L124.727 71.3076L124.75 80.8417L123.009 80.8448L122.993 72.7538L119.951 72.7586L119.956 75.5774C119.959 77.9758 119.726 81.4346 116.083 80.8558L116.081 79.4127Z" fill="white"/>
<path d="M134.405 71.299L136.113 71.2959L136.124 80.8269L134.379 80.8283L134.368 73.859L129.843 80.8378L128.14 80.8409L128.124 71.3069L129.867 71.3021L129.878 78.2778L134.405 71.299Z" fill="white"/>
<path d="M138.518 72.734V71.2909L146.259 71.2783L146.262 72.7231L143.262 72.7293L143.278 80.8125L141.532 80.8188L141.516 72.7293L138.518 72.734Z" fill="white"/>
<path d="M154.95 71.2682L156.659 71.2666L156.675 80.793H154.931L154.921 73.8282L150.392 80.8054H148.692L148.668 71.2792L150.414 71.2761L150.425 78.2471L154.95 71.2682Z" fill="white"/>
<path d="M161.429 71.2558L161.436 73.8282C161.436 74.7396 161.491 75.422 163.444 75.4172C164.204 75.4141 165.033 75.3326 165.174 75.3169L165.162 71.2463L166.907 71.2432L166.924 80.7772L165.183 80.7803L165.174 76.7648C164.638 76.8039 163.835 76.8589 163.226 76.8589C161.181 76.8651 159.694 76.3615 159.694 74.222L159.687 71.2558H161.429Z" fill="white"/>
<path d="M176.905 75.1581V76.5981L172.054 76.6044L172.059 79.3322L177.619 79.3227L177.622 80.7644L170.315 80.7753L170.3 71.2427L177.456 71.2334L177.46 72.6749L172.047 72.6813L172.051 75.1581H176.905Z" fill="white"/>
<path d="M188.392 77.4876C188.268 78.9307 187.503 81.031 184.275 81.0342C183.537 81.0342 179.545 80.9731 179.536 76.1542C179.533 72.231 181.793 70.9369 184.165 70.9307C187.433 70.9228 188.171 72.9259 188.259 74.2843L186.527 74.2907C186.411 73.4969 185.945 72.3722 184.164 72.3754C182.038 72.3754 181.396 74.1088 181.401 76.0821C181.404 78.3157 182.635 79.5926 184.346 79.5926C185.934 79.5848 186.607 78.5119 186.663 77.4907L188.392 77.4876Z" fill="white"/>
<path d="M197.05 71.194L199.391 71.1924L195.447 75.1454L199.666 80.7171L197.324 80.725L194.171 76.3202L192.89 77.5611L192.894 80.7313L191.145 80.7359L191.133 71.205L192.879 71.2019L192.887 75.489L197.05 71.194Z" fill="white"/>
<path d="M205.961 70.8975C206.792 70.8943 210.633 70.9963 210.644 75.9375C210.648 80.8818 206.807 80.9978 205.972 80.9994C205.141 81.0009 201.295 80.899 201.295 75.9531C201.284 71.0135 205.132 70.8975 205.961 70.8975ZM205.974 79.5563C208.332 79.5516 208.778 77.4135 208.774 75.9421C208.771 74.474 208.318 72.3359 205.961 72.3375C203.602 72.3437 203.161 74.4833 203.161 75.9516C203.161 77.423 203.618 79.5578 205.974 79.5563Z" fill="white"/>
<path d="M220.085 75.082V76.522L215.239 76.5313V79.2546L220.802 79.2451V80.6882L213.502 80.6992L213.488 71.1698L220.641 71.1572L220.645 72.5989L215.228 72.6082L215.241 75.0882L220.085 75.082Z" fill="white"/>
<path d="M228.177 80.6737L226.312 80.6785L229.891 71.1411L231.636 71.1396L235.253 80.6628L233.379 80.6659L232.691 78.6675L228.872 78.669L228.177 80.6737ZM232.219 77.2244L230.768 72.9937L229.331 77.2306L232.219 77.2244Z" fill="white"/>
<path d="M239.174 80.6593L237.427 80.6609L237.413 71.133L243.653 71.1221L243.657 72.5652L239.159 72.5714L239.174 80.6593Z" fill="white"/>
<path d="M252.66 75.0245L252.669 76.466L247.817 76.4738L247.82 79.2L253.386 79.1907V80.6307L246.082 80.6433L246.063 71.1155L253.22 71.1045V72.5443L247.807 72.5538L247.819 75.0322L252.66 75.0245Z" fill="white"/>
<path d="M257.599 80.6305L255.854 80.6321L255.838 71.0995L257.579 71.0948L257.585 74.9097L261.841 74.9002L261.829 71.0869H263.574L263.59 80.6164L261.845 80.6211L261.841 76.3435L257.588 76.3512L257.599 80.6305Z" fill="white"/>
<path d="M265.989 72.5239V71.0808L273.727 71.0713V72.5113L270.731 72.5208L270.741 80.607L269.001 80.6086L268.989 72.5223H265.989V72.5239Z" fill="white"/>
<path d="M284.352 77.3282C284.217 78.7761 283.462 80.8749 280.236 80.8764C279.499 80.878 275.506 80.8183 275.497 75.9964C275.488 72.0764 277.747 70.7792 280.124 70.7744C283.39 70.7682 284.131 72.7682 284.216 74.1344H282.481C282.374 73.3454 281.907 72.2128 280.127 72.2192C277.999 72.2206 277.355 73.9525 277.364 75.9258C277.367 78.1595 278.598 79.438 280.313 79.438C281.896 79.4332 282.573 78.354 282.626 77.3344L284.352 77.3282Z" fill="white"/>
<path d="M286.119 72.4961L286.116 71.0498L293.857 71.042L293.861 72.4835L290.861 72.4867L290.882 80.573L289.131 80.5761L289.124 72.4882L286.119 72.4961Z" fill="white"/>
<path d="M300.767 71.0244C303.194 71.0228 303.675 72.3812 303.678 73.4275C303.678 74.4816 303.026 75.313 302.099 75.4792V75.5028C302.89 75.6377 304.074 76.1789 304.074 77.884C304.087 80.2918 302.025 80.5554 300.594 80.5569L296.287 80.5663L296.266 71.0323L300.767 71.0244ZM298.02 74.8973L300.325 74.8942C301.291 74.8911 301.878 74.593 301.878 73.7616C301.869 72.4957 300.647 72.4659 300.275 72.4659L298.017 72.4723L298.02 74.8973ZM298.023 79.1169L300.414 79.1154C301.476 79.1075 302.279 78.8502 302.279 77.6926C302.276 76.4126 301.17 76.3357 300.447 76.3373L298.022 76.3404L298.023 79.1169Z" fill="white"/>
<path d="M311.21 70.7236C312.047 70.7236 315.888 70.8272 315.896 75.7653C315.904 80.7112 312.063 80.8272 311.232 80.8272C310.398 80.8272 306.552 80.7222 306.544 75.7872C306.541 70.8413 310.38 70.7269 311.21 70.7236ZM311.229 79.3857C313.584 79.3779 314.03 77.2429 314.03 75.7715C314.023 74.3017 313.573 72.1622 311.217 72.1684C308.859 72.1715 308.416 74.3096 308.416 75.7824C308.416 77.2524 308.869 79.3857 311.229 79.3857Z" fill="white"/>
<path d="M88.2002 30.326L73.5466 5.04442C72.4681 3.97147 71.1602 3.47735 69.8761 3.6499C68.5965 3.82088 67.4709 4.64128 66.7048 5.96363L52.2771 31.0663C51.5393 32.3511 51.3964 33.5275 51.8973 34.3809C52.387 35.2311 53.4844 35.6954 54.9712 35.6938L83.9347 35.6263C85.4685 35.6263 86.7371 35.0523 87.5253 34.0232C88.3085 32.9958 88.5253 31.6216 88.2002 30.326Z" fill="white"/>
<path d="M23.8618 4.01228L23.5698 5.66876C23.6012 6.44523 23.8492 7.22797 24.2888 7.99345L38.8295 33.024C39.594 34.3354 40.572 35.0586 41.5846 35.0586C42.5974 35.0538 43.5755 34.3292 44.3289 33.0147L58.7566 7.91503C59.2526 7.05228 59.4975 6.13778 59.4583 5.27503L59.1632 3.937C58.686 2.77464 57.6232 1.90248 56.1787 1.47895C55.9448 1.44601 27.066 1.51189 27.066 1.51189C25.3987 1.9715 24.339 2.84679 23.8618 4.01228ZM41.58 33.4695C41.2769 33.4664 40.7369 33.1433 40.2095 32.2303L25.6657 7.19345C25.3595 6.6664 25.1836 6.11424 25.1695 5.60445L25.328 4.61934C25.62 3.90719 26.3218 3.3566 27.292 3.06954C27.303 3.09778 55.9495 3.03345 55.9495 3.03345C56.7015 3.286 57.4002 3.8366 57.6953 4.54876C57.6953 4.5519 57.8664 5.33778 57.8664 5.33778C57.89 5.90248 57.7236 6.52366 57.3735 7.126L42.9489 32.2209C42.4184 33.1402 41.8783 33.4664 41.58 33.4695Z" fill="white"/>
<path d="M15.5395 7.90649C15.3999 8.08532 1.02246 33.0908 1.02246 33.0908C0.937686 33.3057 0.774414 34.7583 0.774414 34.7583C0.813662 35.6414 1.09625 36.4492 1.6002 37.1018C2.404 38.1497 3.70704 38.7268 5.25655 38.7206L34.228 38.6547C35.7493 38.6516 36.8702 38.1637 37.3678 37.2868C37.3678 37.2837 37.6583 35.9911 37.6583 35.9911L36.9675 33.8877L22.4237 8.86179C21.6514 7.52061 20.4958 6.68767 19.1834 6.51199C17.9306 6.34884 16.6417 6.84296 15.5395 7.90649ZM16.7829 8.8712C17.3874 8.32846 18.2148 7.99277 18.9794 8.0916C19.7909 8.1967 20.5272 8.75356 21.0517 9.65865L35.5954 34.6892L36.0696 36.0602L35.9832 36.4978C35.8357 36.763 35.2845 37.0657 34.2248 37.0689L5.25655 37.1316C4.20784 37.1347 3.35538 36.7818 2.86242 36.1371C2.55629 35.7433 2.38987 35.2556 2.36632 34.6956C2.36632 34.6956 2.49035 33.6759 2.49506 33.6728C2.53273 33.6711 16.7829 8.8712 16.7829 8.8712Z" fill="white"/>
<path d="M1.94006 43.351C1.36075 44.0961 1.08602 45.0451 1.12526 46.0725L1.28854 47.1392C1.38273 47.3542 11.5794 64.9244 11.5794 64.9244L15.8747 72.3094C17.1165 73.5456 18.4134 74.0318 19.6583 73.8639C20.9769 73.6851 22.1183 72.849 22.8986 71.5032L37.3184 46.4099C38.0673 45.1142 38.207 43.8734 37.7109 43.009C37.1944 42.129 36.0812 41.649 34.5601 41.6553L5.59171 41.7196C4.03905 41.7227 2.74386 42.3001 1.94006 43.351ZM2.71717 46.0113C2.69363 45.3542 2.86004 44.769 3.20542 44.3189C3.69838 43.671 4.54928 43.3118 5.59485 43.3087L34.5679 43.2459C35.6307 43.2427 36.1771 43.547 36.3325 43.809C36.3749 43.889 36.4032 44.002 36.4141 44.1463C36.4251 44.4835 36.3089 44.9839 35.9446 45.6113L21.5124 70.7094C20.9926 71.6192 20.2596 72.1792 19.4479 72.2875C18.6912 72.391 17.8606 72.0506 17.1119 71.3401C17.1041 71.271 12.9562 64.1213 12.9562 64.1213L2.75485 46.5573C2.8412 46.7706 2.71717 46.0113 2.71717 46.0113Z" fill="white"/>
<path d="M39.2857 47.1383L24.858 72.2316C24.362 73.0943 24.1171 74.0088 24.1516 74.8683L24.4468 76.208C24.9287 77.3735 25.9915 78.2457 27.4469 78.6707C27.6682 78.7006 56.5439 78.6362 56.5439 78.6362C58.2159 78.1719 59.2756 77.295 59.7528 76.1343L60.0448 74.4826C60.0134 73.6983 59.7685 72.9202 59.3228 72.1562L44.7868 47.124C44.0222 45.8095 43.0441 45.0928 42.0315 45.0928C41.0173 45.0911 40.0425 45.8159 39.2857 47.1383ZM27.6651 77.1083C26.9084 76.8559 26.2145 76.3052 25.9193 75.5962L25.7451 74.804C25.7262 74.244 25.8879 73.6276 26.2411 73.0237L40.6688 47.9273C41.1962 47.0064 41.7364 46.6802 42.0346 46.6802C42.3376 46.6802 42.873 47.0017 43.4084 47.9209L57.949 72.9531C58.2552 73.4802 58.4309 74.034 58.4499 74.5421C58.4499 74.5421 58.2833 75.5257 58.2833 75.5304C57.9882 76.2316 57.2943 76.7821 56.3162 77.074C56.31 77.0473 27.6651 77.1083 27.6651 77.1083Z" fill="white"/>
<path d="M46.0903 42.7557C45.5815 43.6374 45.7291 44.8421 46.4906 46.1566L61.0266 71.1935C61.8067 72.5345 62.9592 73.3659 64.27 73.5369C65.5196 73.6954 66.8086 73.2045 67.9107 72.1535C68.0457 71.9731 82.4309 46.955 82.4309 46.955C82.5046 46.7448 82.679 45.2907 82.679 45.2907C82.6445 44.4107 82.3603 43.5966 81.8532 42.944C81.0494 41.8931 79.7464 41.3221 78.1937 41.3252L49.2254 41.3864C47.7088 41.3974 46.591 41.879 46.0903 42.7557ZM47.8642 45.3566C47.5298 44.7824 47.4027 44.3212 47.387 43.9919C47.3792 43.7942 47.4137 43.6468 47.4639 43.5464C47.6162 43.2891 48.1704 42.9848 49.2254 42.9802L78.1937 42.9142C79.2455 42.9142 80.098 43.2702 80.5989 43.9119C80.9018 44.3119 81.0651 44.795 81.0918 45.3566C81.0918 45.3566 80.963 46.3714 80.963 46.3762C80.9206 46.384 66.6704 71.1809 66.6704 71.1809C66.0645 71.7157 65.234 72.0578 64.471 71.9605C63.6593 71.8585 62.9261 71.3002 62.4033 70.3966L47.8642 45.3566Z" fill="white"/>
</g>
</g>
</g>
</svg>
