<svg width="369" height="81" viewBox="0 0 369 81" fill="none" xmlns="http://www.w3.org/2000/svg">
<path d="M233.319 44.8371L240.143 25.1941L246.915 44.8371H233.319ZM236.048 17.9697L220.284 61.4616H227.564L231.234 50.9123H248.97L252.64 61.4616H260.048L244.284 17.9697H236.048Z" fill="white"/>
<path d="M294.241 36.1953H303.991V61.4614H310.323V36.1953H320.076V30.9551H294.241V36.1953Z" fill="white"/>
<path d="M338.117 56.4122C332.861 56.4122 328.622 51.8693 328.622 46.2383C328.622 40.6074 332.861 36.0031 338.117 36.0031C343.371 36.0031 347.618 40.5997 347.618 46.2383C347.618 51.8769 343.371 56.4122 338.117 56.4122ZM338.117 30.2497C335 30.2829 331.966 31.2461 329.389 33.0184C326.814 34.7907 324.817 37.2925 323.646 40.2095C322.475 43.1265 322.183 46.3281 322.81 49.4117C323.435 52.4952 324.95 55.3229 327.162 57.5391C329.375 59.7553 332.186 61.2609 335.244 61.8666C338.301 62.4723 341.467 62.1509 344.344 60.943C347.222 59.735 349.682 57.6945 351.413 55.078C353.144 52.4614 354.073 49.3859 354.078 46.2383C354.08 44.1267 353.666 42.0358 352.864 40.0865C352.059 38.1372 350.882 36.3679 349.398 34.8813C347.913 33.3946 346.152 32.2198 344.216 31.4248C342.279 30.6298 340.207 30.2303 338.117 30.2497Z" fill="white"/>
<path d="M279.863 56.5349H271.129V48.2915H279.863C282.896 48.2915 284.8 49.8237 284.8 52.4438C284.8 55.0639 282.905 56.5349 279.863 56.5349ZM271.129 35.8499H279.235C282.397 35.8499 284.111 37.3132 284.111 39.6805C284.111 42.0477 282.397 43.5877 279.235 43.5877H271.129V35.8499ZM286.453 45.5718C287.666 44.9308 288.68 43.9645 289.383 42.7791C290.086 41.5937 290.454 40.2353 290.441 38.8531C290.441 34.1798 287.462 30.9238 279.673 30.9238H264.797V61.4609H280.053C287.462 61.4609 291.261 57.5002 291.261 52.5741C291.306 51.0447 290.862 49.5414 289.997 48.2861C289.131 47.0307 287.889 46.0899 286.453 45.6024" fill="white"/>
<path d="M30.5579 34.2031C27.4665 34.2017 24.4442 35.1265 21.873 36.8605C19.302 38.5946 17.2976 41.06 16.1136 43.945C14.9295 46.83 14.619 50.0051 15.2211 53.0684C15.8233 56.1317 17.3112 58.9459 19.4966 61.1548C21.682 63.3638 24.4666 64.8684 27.4986 65.4781C30.5304 66.0881 33.6732 65.7759 36.5294 64.5811C39.3856 63.3862 41.8268 61.3624 43.5444 58.7656C45.2621 56.169 46.1788 53.1158 46.1788 49.9926C46.1788 45.8063 44.5333 41.7914 41.604 38.8305C38.6748 35.8696 34.7015 34.2053 30.5579 34.2031Z" fill="#04E061"/>
<path d="M53.9972 42.6458C56.511 42.6472 58.9689 41.8954 61.06 40.4856C63.151 39.0757 64.7811 37.0709 65.7442 34.7248C66.7074 32.3786 66.96 29.7968 66.4705 27.3056C65.9809 24.8144 64.7711 22.5258 62.994 20.7292C61.2169 18.9328 58.9524 17.7092 56.4868 17.2131C54.0213 16.7171 51.4656 16.9709 49.143 17.9425C46.8202 18.9141 44.8348 20.5598 43.438 22.6714C42.0413 24.7832 41.2957 27.2659 41.2957 29.8058C41.3017 33.208 42.6414 36.4691 45.0219 38.8757C47.4024 41.2821 50.6296 42.6376 53.9972 42.6458Z" fill="#00AAFF"/>
<path d="M57.6668 44.7061C55.7983 44.7061 53.9714 45.2659 52.4177 46.3148C50.8638 47.3637 49.6528 48.8545 48.9377 50.5989C48.2226 52.3431 48.0355 54.2623 48.4 56.1141C48.7646 57.9658 49.6645 59.6666 50.9858 61.0017C52.3073 62.3367 53.9908 63.2458 55.8237 63.6142C57.6563 63.9823 59.5562 63.7934 61.2827 63.0709C63.0092 62.3484 64.4848 61.1249 65.523 59.5551C66.5612 57.9854 67.1153 56.1399 67.1153 54.2519C67.1183 52.9975 66.8759 51.7548 66.4021 50.5953C65.9284 49.4357 65.2325 48.3822 64.3546 47.4952C63.4767 46.6083 62.4338 45.9052 61.2862 45.4266C60.1386 44.9479 58.9086 44.7031 57.6668 44.7061Z" fill="#FF4053"/>
<path d="M33.5456 32.1425C34.7019 32.1425 35.8322 31.796 36.7937 31.147C37.7551 30.4979 38.5044 29.5754 38.9469 28.4961C39.3894 27.4168 39.5052 26.2293 39.2797 25.0835C39.0542 23.9377 38.4973 22.8853 37.6796 22.0591C36.8619 21.233 35.8203 20.6705 34.6861 20.4426C33.552 20.2147 32.3765 20.3317 31.3082 20.7788C30.2398 21.2257 29.3267 21.9829 28.6843 22.9542C28.0419 23.9256 27.699 25.0675 27.699 26.2358C27.699 27.8022 28.315 29.3046 29.4115 30.4124C30.5079 31.5201 31.9949 32.1425 33.5456 32.1425Z" fill="#965EEB"/>
<path d="M189.756 53.907C188.256 53.907 186.789 53.4576 185.542 52.6158C184.296 51.774 183.323 50.5776 182.749 49.1776C182.176 47.7778 182.025 46.2373 182.318 44.7513C182.611 43.2652 183.333 41.9001 184.393 40.8286C185.454 39.7573 186.805 39.0276 188.275 38.7321C189.747 38.4364 191.272 38.5881 192.657 39.168C194.043 39.7477 195.227 40.7298 196.06 41.9897C196.894 43.2494 197.338 44.7307 197.338 46.2459C197.338 47.2519 197.143 48.2482 196.761 49.1776C196.379 50.1072 195.822 50.9516 195.117 51.6631C194.414 52.3744 193.577 52.9388 192.657 53.3237C191.738 53.7088 190.75 53.907 189.756 53.907ZM189.756 30.4258C186.665 30.4258 183.642 31.3518 181.073 33.0868C178.502 34.8217 176.499 37.2876 175.316 40.1728C174.133 43.058 173.824 46.2327 174.427 49.2956C175.03 52.3584 176.519 55.1719 178.704 57.3801C180.89 59.5883 183.674 61.0921 186.707 61.7013C189.738 62.3106 192.881 61.9979 195.737 60.8029C198.592 59.6078 201.033 57.584 202.75 54.9874C204.468 52.3908 205.384 49.3381 205.384 46.2153C205.384 44.1417 204.979 42.0885 204.194 40.1728C203.409 38.2572 202.257 36.5166 200.806 35.0503C199.355 33.5842 197.633 32.4212 195.737 31.6277C193.84 30.8341 191.807 30.4258 189.756 30.4258Z" fill="white"/>
<path d="M123.639 50.268L116.511 30.9775H108.079L119.567 61.4533H127.924L139.2 30.9775H130.775L123.639 50.268Z" fill="white"/>
<path d="M165.702 22.8799H157.687V30.9775H153V38.2555H157.687V51.2258C157.687 58.5727 161.691 61.7291 167.332 61.7291C169.245 61.7585 171.142 61.388 172.906 60.6413V53.0797C171.949 53.4349 170.938 53.6214 169.918 53.6313C167.469 53.6313 165.702 52.666 165.702 49.3718V38.2555H172.906V30.9775H165.702V22.8799Z" fill="white"/>
<path d="M145.789 16.9736C144.276 17.0286 142.843 17.6747 141.792 18.7756C140.74 19.8766 140.153 21.3466 140.153 22.8764C140.153 24.4062 140.74 25.8762 141.792 26.9772C142.843 28.0782 144.276 28.7242 145.789 28.7793C146.574 28.8078 147.357 28.6764 148.09 28.3925C148.824 28.1088 149.493 27.6785 150.058 27.1276C150.624 26.5767 151.073 25.9162 151.381 25.1859C151.688 24.4554 151.846 23.67 151.846 22.8764C151.846 22.0828 151.688 21.2974 151.381 20.5671C151.073 19.8366 150.624 19.1761 150.058 18.6252C149.493 18.0743 148.824 17.6441 148.09 17.3603C147.357 17.0765 146.574 16.945 145.789 16.9736Z" fill="white"/>
<path d="M149.8 30.9775H141.785V61.4609H149.8V30.9775Z" fill="white"/>
<path d="M86.4975 44.4389L92.2758 29.1781L98.001 44.4389H86.4975ZM87.726 18.0771L71.2557 61.4618H80.09L83.5023 52.4065H100.943L104.34 61.4618H113.106L96.7346 18.0771H87.726Z" fill="white"/>
</svg>
