<svg width="95" height="25" viewBox="0 0 95 25" fill="none" xmlns="http://www.w3.org/2000/svg">
<path d="M87.1623 7.11719C85.6212 7.11816 84.1149 7.57429 82.8339 8.42788C81.553 9.28148 80.5549 10.4942 79.9658 11.9128C79.3768 13.3314 79.2231 14.8922 79.5244 16.3977C79.8257 17.9033 80.5682 19.2861 81.6584 20.3712C82.7483 21.4564 84.1369 22.1953 85.6485 22.4944C87.1601 22.7936 88.727 22.6395 90.1506 22.0519C91.5742 21.4641 92.791 20.4691 93.6473 19.1926C94.5034 17.9161 94.9603 16.4154 94.9603 14.8802C94.9605 13.8603 94.7588 12.8503 94.3671 11.908C93.9752 10.9658 93.4006 10.1097 92.6765 9.38869C91.9521 8.66771 91.0924 8.09602 90.1463 7.70626C89.2001 7.31648 88.186 7.11632 87.1623 7.11719ZM87.1623 18.6575C86.4123 18.6575 85.6792 18.4359 85.0556 18.0209C84.4319 17.6058 83.946 17.0159 83.659 16.3257C83.372 15.6355 83.2968 14.876 83.4432 14.1433C83.5894 13.4106 83.9506 12.7376 84.481 12.2093C85.0113 11.6811 85.6869 11.3213 86.4224 11.1756C87.1579 11.0298 87.9205 11.1046 88.6132 11.3905C89.3061 11.6764 89.8984 12.1605 90.3151 12.7817C90.7317 13.4029 90.954 14.1331 90.954 14.8802C90.954 15.882 90.5546 16.8427 89.8435 17.5511C89.1324 18.2595 88.1679 18.6575 87.1623 18.6575Z" fill="white"/>
<path d="M54.2011 16.8712L50.6466 7.38867H46.4458L52.1732 22.3728H56.3394L61.9646 7.38867H57.7638L54.2011 16.8712Z" fill="white"/>
<path d="M75.1768 3.40723H71.1738V7.38811H68.8345V10.9666H71.1738V17.3452C71.1738 20.9582 73.172 22.5069 75.9811 22.5069C76.9355 22.5195 77.8824 22.3361 78.7624 21.9682V18.2583C78.2869 18.4321 77.7853 18.5237 77.2786 18.5293C76.0587 18.5293 75.1751 18.0563 75.1751 16.437V10.9699H78.7675V7.39961H75.1768V3.40723Z" fill="white"/>
<path d="M65.2468 0.501798C64.8586 0.492595 64.4722 0.560828 64.1107 0.702484C63.7495 0.844142 63.4202 1.05636 63.1423 1.32666C62.8642 1.59696 62.6436 1.91989 62.4929 2.27644C62.3421 2.633 62.2643 3.01598 62.2643 3.40288C62.2643 3.78977 62.3421 4.17276 62.4929 4.52932C62.6436 4.88585 62.8642 5.20878 63.1423 5.47908C63.4202 5.74938 63.7495 5.96162 64.1107 6.10326C64.4722 6.24492 64.8586 6.31315 65.2468 6.30395C66.0072 6.28592 66.7304 5.97237 67.2617 5.43027C67.793 4.88817 68.0907 4.16056 68.0907 3.40288C68.0907 2.6452 67.793 1.91757 67.2617 1.37548C66.7304 0.833382 66.0072 0.519821 65.2468 0.501798Z" fill="white"/>
<path d="M67.2399 7.38867H63.2435V22.3728H67.2399V7.38867Z" fill="white"/>
<path d="M36.2803 1.04785L28.0831 22.3761H32.4852L34.1848 17.9206H42.8879L44.5795 22.3761H48.9502L40.7878 1.04785H36.2803ZM35.6835 14.007L38.5504 6.50512L41.4027 14.007H35.6835Z" fill="white"/>
<path d="M14.9909 19.7056C16.638 15.7445 14.7497 11.2034 10.7733 9.56269C6.7969 7.92196 2.23818 9.80295 0.591106 13.764C-1.05597 17.7251 0.832313 22.2662 4.80871 23.9069C8.7851 25.5476 13.3438 23.6666 14.9909 19.7056Z" fill="#04E061"/>
<path d="M20.4938 13.0387C23.9468 12.4803 26.2918 9.23928 25.7312 5.7996C25.1707 2.35992 21.9171 0.0241309 18.4641 0.58247C15.0111 1.14081 12.6662 4.38185 13.2267 7.82153C13.7872 11.2612 17.0408 13.597 20.4938 13.0387Z" fill="#965EEB"/>
<path d="M21.3071 14.1328C20.3749 14.1325 19.4636 14.4076 18.6884 14.9234C17.9132 15.4392 17.309 16.1724 16.9523 17.0303C16.5956 17.8882 16.5023 18.8322 16.6843 19.7429C16.8663 20.6537 17.3155 21.4901 17.9748 22.1465C18.6342 22.8029 19.4743 23.2497 20.3886 23.4304C21.303 23.6111 22.2506 23.5175 23.1116 23.1615C23.9726 22.8056 24.7083 22.2032 25.2254 21.4307C25.7427 20.6581 26.0181 19.7501 26.0171 18.8215C26.0186 18.2052 25.8975 17.5946 25.6612 17.025C25.4249 16.4553 25.078 15.9378 24.6404 15.5021C24.2028 15.0664 23.6829 14.7211 23.1109 14.4862C22.5389 14.2512 21.9258 14.1311 21.3071 14.1328Z" fill="#FF4352"/>
<path d="M9.28045 7.96005C9.85669 7.96005 10.42 7.78981 10.8991 7.47087C11.3782 7.15193 11.7516 6.69863 11.972 6.16827C12.1925 5.63794 12.25 5.05438 12.1375 4.49142C12.025 3.92845 11.7473 3.41138 11.3398 3.00561C10.9322 2.59985 10.413 2.3236 9.84778 2.21181C9.28258 2.10003 8.69677 2.15773 8.16451 2.37762C7.63222 2.59751 7.17737 2.9697 6.85746 3.44714C6.53756 3.92456 6.367 4.48577 6.36731 5.05979C6.36774 5.82913 6.67487 6.56682 7.22112 7.11068C7.7674 7.65455 8.50814 7.96005 9.28045 7.96005Z" fill="#00AAFF"/>
</svg>
