<svg width="293" height="126" viewBox="0 0 293 126" fill="none" xmlns="http://www.w3.org/2000/svg">
<path d="M93.1623 11.6673H102.526L109.69 34.5139H102.059L101.022 30.7061H93.7401L92.703 34.5139H85.9987L93.1623 11.6673ZM95.0143 25.7427H99.5184L97.3256 17.4308L95.0143 25.7427ZM112.001 11.6673H122.861C125.521 11.6673 127.484 12.2451 128.758 13.2823C130.032 14.3194 130.61 15.8233 130.61 17.6679V17.7864C130.61 20.4385 129.336 22.0535 126.684 22.7498C128.069 22.9795 129.225 23.5573 130.032 24.4833C130.84 25.4093 131.307 26.5576 131.307 28.0614V28.18C131.307 32.447 128.536 34.5287 122.869 34.5287H112.12V11.6821H112.001V11.6673ZM121.365 29.669C123.217 29.669 124.136 28.8615 124.136 27.2465V27.128C124.136 25.6316 123.21 24.8241 121.246 24.8241H119.054V29.669H121.365ZM121.365 20.557C122.291 20.557 122.869 20.4385 123.328 20.0977C123.676 19.7495 123.906 19.2902 123.906 18.5939V18.4753C123.906 17.09 123.098 16.4011 121.365 16.4011H119.172V20.557H121.365ZM138.241 17.2086H132.462V11.6673H151.301V17.2086H145.523V34.5139H138.241V17.2086ZM164.361 29.2097C165.747 29.2097 166.902 28.6318 167.71 27.5947C168.517 26.5576 168.984 25.0537 168.984 23.2091V22.9795C168.984 21.0163 168.525 19.631 167.71 18.5939C166.902 17.5567 165.747 17.0974 164.243 17.0974C162.858 17.0974 161.702 17.5567 160.894 18.5939C160.087 19.631 159.62 21.1349 159.62 22.9795V23.2091C159.62 25.1723 160.08 26.6687 160.894 27.7058C161.702 28.6318 162.858 29.2023 164.361 29.2023V29.2097ZM164.132 34.862C160.435 34.862 157.427 33.8249 155.346 31.6321C153.153 29.4393 152.108 26.6687 152.108 23.0906V22.8609C152.108 19.4014 153.264 16.6307 155.575 14.4379C157.887 12.2451 160.776 11.208 164.361 11.208C167.947 11.208 170.947 12.2451 173.259 14.3268C175.57 16.4011 176.726 19.1717 176.726 22.7498V22.9795C176.726 26.5576 175.57 29.4393 173.377 31.6321C170.947 33.8249 167.947 34.862 164.132 34.862ZM186.897 24.1277C186.667 26.3205 186.319 27.817 185.86 28.8615H192.097V17.2086H187.356C187.008 21.0163 186.897 23.3202 186.897 24.1351V24.1277ZM176.955 34.5139V28.9726H178.459C179.615 28.3948 180.422 26.6613 180.77 23.5499C181 21.9349 181 18.0086 181 11.6673H199.261V28.98H202.039V34.5213H176.963L176.955 34.5139ZM203.995 34.5139V11.6673H211.277V24.8241L218.559 11.6673H225.723V34.5139H218.559V21.1274L211.277 34.3953H203.995V34.5139ZM237.968 25.8612C237.62 28.8615 236.931 31.0543 235.775 32.5507C234.738 34.0546 233.005 34.862 230.805 34.862H229.997C229.768 34.862 229.538 34.7509 229.301 34.7509C229.064 34.7509 228.953 34.6324 228.841 34.6324C228.73 34.6324 228.612 34.5139 228.493 34.5139L228.375 34.3953V28.8541L228.604 28.9726C228.834 28.9726 229.064 29.0837 229.301 29.0837C229.997 29.0837 230.575 28.6244 231.034 27.817C231.382 27.0095 231.731 25.7427 231.96 24.0092C232.19 21.6979 232.308 17.6605 232.308 11.5488H250.221V34.3953H242.828V17.09H238.435C238.316 21.246 238.205 24.1277 237.976 25.8612H237.968ZM254.266 11.6673H270.564V17.2086H261.548V20.4385H268.712V25.513H261.548V28.9726H271.142V34.5139H254.385V11.6673H254.266ZM274.142 11.6673H283.276C289.514 11.6673 292.64 14.3194 292.64 19.5125V19.631C292.64 22.0535 291.833 23.8981 290.329 25.1723C288.825 26.4391 286.513 27.1354 283.513 27.1354H281.32V34.6324H274.038V11.6673H274.157H274.142ZM282.809 22.172C284.773 22.172 285.699 21.3645 285.699 19.631V19.5125C285.699 18.5865 285.469 18.016 285.002 17.6679C284.543 17.3197 283.847 17.09 282.809 17.09H281.306V22.2831H282.809V22.172Z" fill="white"/>
<path d="M54.9236 42.7142L49.1823 44.8329L52.0567 50.5668L60.2945 46.4553L65.6653 50.4408L73.029 46.6997L26.0913 12.178V70.376L33.4549 66.6349V59.9084L42.1891 55.545L39.4407 50.1889L33.3216 54.1745V26.5053L54.9162 42.7068L54.9236 42.7142ZM40.0704 76.6136C50.0565 76.6136 59.1684 72.6281 65.6579 66.02C70.1472 61.5307 73.5179 55.8043 75.1403 49.4481L65.2801 54.4338L59.9167 50.5742L36.9516 62.1604V68.887L35.9515 69.3833L26.5876 73.9911C30.7065 75.7321 35.3218 76.6062 40.0704 76.6062V76.6136ZM76.0145 44.5884C76.1404 43.2179 76.2663 41.8474 76.2663 40.4769C76.2663 30.5056 72.2734 21.4085 65.6579 14.9264C59.1684 8.44434 50.0565 4.33285 40.0704 4.33285C34.9514 4.33285 29.9583 5.45147 25.469 7.45165L76.0219 44.5884H76.0145ZM22.4687 8.94068C19.4759 10.5631 16.8534 12.5558 14.4828 14.919C7.99333 21.4011 3.87444 30.4982 3.87444 40.4695C3.87444 50.4408 7.8674 59.538 14.4828 66.02C16.8534 68.3906 19.4759 70.3834 22.4687 71.9984V8.94068ZM79.637 47.1961C78.2665 55.545 74.1476 63.0198 68.4063 68.7536C61.1686 75.9839 51.1825 80.4658 40.0704 80.4658C28.9582 80.4658 18.9795 75.9765 11.7344 68.7536C4.49672 61.5233 0 51.5594 0 40.4621C0 29.3648 4.49672 19.4009 11.7344 12.1706C18.9721 4.95513 29.0842 0.46582 40.0704 0.46582C51.0566 0.46582 61.1612 4.95513 68.4063 12.178C75.644 19.4083 80.1407 29.3722 80.1407 40.4695C80.1407 42.8401 80.0148 45.0774 79.6444 47.1961H79.637Z" fill="#00AAFF"/>
<path d="M42.3152 48.1955L37.0703 51.6847V29.5049L54.9164 42.7135L49.0492 44.8322L52.9162 52.307L46.1749 55.6703L42.3078 48.1955H42.3152Z" fill="white"/>
<path d="M86.0051 41.2626H101.488V46.8039H93.2798V64.1092H85.9977V41.2626H86.0051ZM114.667 58.9161C116.052 58.9161 117.208 58.3383 118.015 57.3011C118.823 56.264 119.29 54.7602 119.29 52.9155V52.6859C119.29 50.7228 118.83 49.3374 118.015 48.3003C117.208 47.2632 116.052 46.7965 114.548 46.7965C113.163 46.7965 112.007 47.2558 111.2 48.3003C110.393 49.3374 109.926 50.8413 109.926 52.6859V52.9155C109.926 54.8787 110.385 56.3751 111.2 57.4123C112.007 58.3383 113.163 58.9087 114.667 58.9087V58.9161ZM114.437 64.5685C110.741 64.5685 107.733 63.5313 105.651 61.3385C103.459 59.1457 102.414 56.3751 102.414 52.797V52.5674C102.414 49.1078 103.57 46.3372 105.881 44.1444C108.192 41.9516 111.081 40.9144 114.667 40.9144C118.253 40.9144 121.253 41.9516 123.564 44.0332C125.875 46.1075 127.031 48.8781 127.031 52.4562V52.6859C127.031 56.264 125.875 59.1457 123.683 61.3385C121.142 63.5313 118.134 64.5685 114.437 64.5685ZM137.091 53.8341C136.862 56.0269 136.513 57.5308 136.054 58.5679H142.292V46.915H137.551C137.321 50.7227 137.202 53.0341 137.091 53.8416V53.8341ZM127.15 64.1018V58.5605H128.653C129.809 57.9827 130.617 56.2492 130.965 53.1378C131.194 51.5228 131.194 47.5965 131.194 41.2552H149.455V58.5605H152.226V64.1018H127.15ZM160.205 41.2552H169.568L176.732 64.1018H169.102L168.065 60.294H160.782L159.745 64.1018H153.041L160.205 41.2552ZM162.168 55.4491H166.672L164.479 47.1446L162.168 55.4491Z" fill="white"/>
<path d="M254.365 64.1945V59.6607H243.897V55.5604L254.765 40.859H260.365V54.727H262.899V59.6607H260.365V64.1945H254.365ZM249.264 54.727H254.365V47.493L249.264 54.727Z" fill="#00AAFF"/>
<path d="M223.717 64.1956V59.9286L231.451 53.528C232.207 52.9057 232.852 52.3501 233.385 51.8611C233.918 51.35 234.352 50.8722 234.685 50.4277C235.041 49.9832 235.296 49.5609 235.452 49.1609C235.63 48.7386 235.719 48.3053 235.719 47.8608C235.719 47.0829 235.496 46.4829 235.052 46.0606C234.63 45.6384 234.018 45.4272 233.218 45.4272C232.152 45.4272 231.351 45.7495 230.818 46.394C230.307 47.0385 230.051 48.0275 230.051 49.3609H224.051C224.051 47.9386 224.24 46.6718 224.617 45.5606C224.995 44.4494 225.562 43.5159 226.318 42.7603C227.095 42.0047 228.051 41.4269 229.185 41.0268C230.34 40.6268 231.685 40.4268 233.218 40.4268C234.663 40.4268 235.907 40.6157 236.952 40.9935C238.019 41.3491 238.908 41.8602 239.619 42.527C240.33 43.1715 240.852 43.9493 241.186 44.8605C241.541 45.7717 241.719 46.7718 241.719 47.8608C241.719 48.6609 241.575 49.4276 241.286 50.161C241.019 50.8944 240.63 51.6056 240.119 52.2945C239.63 52.9835 239.041 53.6502 238.352 54.2947C237.663 54.9392 236.919 55.5726 236.119 56.1949L232.085 59.2618H242.052V64.1956H223.717Z" fill="#00AAFF"/>
<path d="M212.036 64.629C210.725 64.629 209.502 64.4179 208.369 63.9956C207.236 63.5511 206.247 62.8511 205.402 61.8954C204.558 60.9398 203.891 59.6952 203.402 58.1617C202.935 56.606 202.702 54.7281 202.702 52.5279V51.8611C202.702 49.8165 202.935 48.0719 203.402 46.6273C203.891 45.1828 204.558 44.0049 205.402 43.0937C206.247 42.1603 207.236 41.4824 208.369 41.0602C209.502 40.6379 210.725 40.4268 212.036 40.4268C213.347 40.4268 214.57 40.6379 215.703 41.0602C216.836 41.4824 217.825 42.1603 218.67 43.0937C219.514 44.0049 220.17 45.1828 220.637 46.6273C221.126 48.0719 221.37 49.8165 221.37 51.8611V52.5279C221.37 54.7281 221.126 56.606 220.637 58.1617C220.17 59.6952 219.514 60.9398 218.67 61.8954C217.825 62.8511 216.836 63.5511 215.703 63.9956C214.57 64.4179 213.347 64.629 212.036 64.629ZM212.036 59.6952C212.48 59.6952 212.903 59.5841 213.303 59.3618C213.725 59.1396 214.081 58.7618 214.37 58.2284C214.681 57.6728 214.925 56.9394 215.103 56.0282C215.281 55.0948 215.37 53.928 215.37 52.5279V51.8611C215.37 50.6166 215.281 49.5832 215.103 48.7609C214.925 47.9386 214.681 47.2718 214.37 46.7607C214.081 46.2495 213.725 45.8939 213.303 45.6939C212.903 45.4717 212.48 45.3605 212.036 45.3605C211.591 45.3605 211.158 45.4717 210.736 45.6939C210.336 45.8939 209.98 46.2495 209.669 46.7607C209.38 47.2718 209.147 47.9386 208.969 48.7609C208.791 49.5832 208.702 50.6166 208.702 51.8611V52.5279C208.702 53.928 208.791 55.0948 208.969 56.0282C209.147 56.9394 209.38 57.6728 209.669 58.2284C209.98 58.7618 210.336 59.1396 210.736 59.3618C211.158 59.5841 211.591 59.6952 212.036 59.6952Z" fill="#00AAFF"/>
<path d="M181.688 64.1956V59.9286L189.422 53.528C190.177 52.9057 190.822 52.3501 191.355 51.8611C191.888 51.35 192.322 50.8722 192.655 50.4277C193.011 49.9832 193.266 49.5609 193.422 49.1609C193.6 48.7386 193.689 48.3053 193.689 47.8608C193.689 47.0829 193.466 46.4829 193.022 46.0606C192.6 45.6384 191.988 45.4272 191.188 45.4272C190.122 45.4272 189.322 45.7495 188.788 46.394C188.277 47.0385 188.021 48.0275 188.021 49.3609H182.021C182.021 47.9386 182.21 46.6718 182.588 45.5606C182.965 44.4494 183.532 43.5159 184.288 42.7603C185.066 42.0047 186.021 41.4269 187.155 41.0268C188.31 40.6268 189.655 40.4268 191.188 40.4268C192.633 40.4268 193.878 40.6157 194.922 40.9935C195.989 41.3491 196.878 41.8602 197.589 42.527C198.3 43.1715 198.822 43.9493 199.156 44.8605C199.511 45.7717 199.689 46.7718 199.689 47.8608C199.689 48.6609 199.545 49.4276 199.256 50.161C198.989 50.8944 198.6 51.6056 198.089 52.2945C197.6 52.9835 197.011 53.6502 196.322 54.2947C195.633 54.9392 194.889 55.5726 194.089 56.1949L190.055 59.2618H200.023V64.1956H181.688Z" fill="#00AAFF"/>
<path d="M17.504 119.466V110.442H6.112V119.466H2.592V98.2178H6.112V107.21H17.504V98.2178H21.024V119.466H17.504ZM33.129 104.106C34.2597 104.106 35.305 104.308 36.265 104.714C37.2463 105.098 38.089 105.642 38.793 106.346C39.5183 107.05 40.0837 107.892 40.489 108.874C40.8943 109.834 41.097 110.879 41.097 112.01C41.097 113.14 40.8943 114.186 40.489 115.146C40.0837 116.106 39.5183 116.938 38.793 117.642C38.089 118.346 37.2463 118.9 36.265 119.306C35.305 119.69 34.2597 119.882 33.129 119.882C31.977 119.882 30.9103 119.69 29.929 119.306C28.969 118.9 28.1263 118.346 27.401 117.642C26.697 116.938 26.1423 116.106 25.737 115.146C25.3317 114.186 25.129 113.14 25.129 112.01C25.129 110.879 25.3317 109.834 25.737 108.874C26.1423 107.892 26.697 107.05 27.401 106.346C28.1263 105.642 28.969 105.098 29.929 104.714C30.9103 104.308 31.977 104.106 33.129 104.106ZM33.129 116.746C33.7903 116.746 34.3983 116.628 34.953 116.394C35.529 116.138 36.0197 115.807 36.425 115.402C36.8303 114.975 37.1397 114.474 37.353 113.898C37.5877 113.322 37.705 112.692 37.705 112.01C37.705 111.327 37.5877 110.698 37.353 110.122C37.1397 109.524 36.8303 109.012 36.425 108.586C36.0197 108.159 35.529 107.828 34.953 107.594C34.3983 107.359 33.7903 107.242 33.129 107.242C32.4677 107.242 31.849 107.359 31.273 107.594C30.7183 107.828 30.2383 108.159 29.833 108.586C29.4277 109.012 29.1077 109.524 28.873 110.122C28.6383 110.698 28.521 111.327 28.521 112.01C28.521 112.692 28.6383 113.322 28.873 113.898C29.1077 114.474 29.4277 114.975 29.833 115.402C30.2383 115.807 30.7183 116.138 31.273 116.394C31.849 116.628 32.4677 116.746 33.129 116.746ZM57.441 111.946C58.0597 112.351 58.497 112.842 58.753 113.418C59.009 113.994 59.137 114.591 59.137 115.21C59.137 115.786 59.0303 116.33 58.817 116.842C58.625 117.354 58.3263 117.812 57.921 118.218C57.5157 118.602 57.0037 118.911 56.385 119.146C55.7663 119.359 55.041 119.466 54.209 119.466H45.057V104.522H54.049C54.881 104.522 55.6063 104.639 56.225 104.874C56.8437 105.087 57.3557 105.386 57.761 105.77C58.1663 106.154 58.465 106.612 58.657 107.146C58.8703 107.658 58.977 108.202 58.977 108.778C58.977 109.375 58.8703 109.951 58.657 110.506C58.4437 111.039 58.0383 111.519 57.441 111.946ZM53.761 116.618C54.3797 116.618 54.8597 116.479 55.201 116.202C55.5637 115.924 55.745 115.519 55.745 114.986C55.745 114.452 55.5637 114.047 55.201 113.77C54.8597 113.492 54.3797 113.354 53.761 113.354H48.449V116.618H53.761ZM53.601 110.602C54.2197 110.602 54.6997 110.463 55.041 110.186C55.4037 109.908 55.585 109.503 55.585 108.97C55.585 108.458 55.4037 108.063 55.041 107.786C54.6997 107.508 54.2197 107.37 53.601 107.37H48.449V110.602H53.601ZM82.4155 104.522V119.466H79.0235V104.522H82.4155ZM70.7675 109.13C71.7702 109.13 72.6342 109.268 73.3595 109.546C74.0848 109.823 74.6822 110.207 75.1515 110.698C75.6422 111.167 76.0048 111.722 76.2395 112.362C76.4742 112.98 76.5915 113.631 76.5915 114.314C76.5915 115.018 76.4742 115.679 76.2395 116.298C76.0048 116.916 75.6422 117.46 75.1515 117.93C74.6822 118.399 74.0848 118.772 73.3595 119.05C72.6342 119.327 71.7702 119.466 70.7675 119.466H63.1195V104.522H66.5115V109.13H70.7675ZM70.6715 116.49C71.4395 116.49 72.0475 116.308 72.4955 115.946C72.9648 115.562 73.1995 115.018 73.1995 114.314C73.1995 113.61 72.9648 113.066 72.4955 112.682C72.0475 112.298 71.4395 112.106 70.6715 112.106H66.5115V116.49H70.6715ZM94.3158 116.746C95.0624 116.746 95.7451 116.618 96.3638 116.362C96.9824 116.084 97.4731 115.668 97.8358 115.114H101.516C100.961 116.586 100.033 117.748 98.7318 118.602C97.4304 119.455 95.9584 119.882 94.3158 119.882C93.1638 119.882 92.0971 119.69 91.1158 119.306C90.1558 118.9 89.3238 118.346 88.6198 117.642C87.9158 116.938 87.3611 116.106 86.9557 115.146C86.5504 114.186 86.3478 113.13 86.3478 111.978C86.3478 110.868 86.5398 109.834 86.9238 108.874C87.3078 107.914 87.8411 107.082 88.5238 106.378C89.2278 105.674 90.0491 105.119 90.9878 104.714C91.9478 104.308 93.0038 104.106 94.1558 104.106C95.2651 104.106 96.2784 104.308 97.1958 104.714C98.1344 105.098 98.9344 105.642 99.5958 106.346C100.278 107.05 100.801 107.871 101.164 108.81C101.548 109.748 101.74 110.762 101.74 111.85C101.74 112.084 101.74 112.308 101.74 112.522C101.74 112.735 101.718 112.959 101.676 113.194H89.8678C90.0598 114.26 90.5611 115.124 91.3718 115.786C92.2038 116.426 93.1851 116.746 94.3158 116.746ZM94.1558 107.146C93.0678 107.146 92.1291 107.455 91.3398 108.074C90.5504 108.671 90.0811 109.471 89.9318 110.474H98.1558C97.9851 109.471 97.5478 108.671 96.8438 108.074C96.1398 107.455 95.2438 107.146 94.1558 107.146ZM125.097 111.946C125.716 112.351 126.153 112.842 126.409 113.418C126.665 113.994 126.793 114.591 126.793 115.21C126.793 115.786 126.687 116.33 126.473 116.842C126.281 117.354 125.983 117.812 125.577 118.218C125.172 118.602 124.66 118.911 124.041 119.146C123.423 119.359 122.697 119.466 121.865 119.466H112.713V104.522H121.705C122.537 104.522 123.263 104.639 123.881 104.874C124.5 105.087 125.012 105.386 125.417 105.77C125.823 106.154 126.121 106.612 126.313 107.146C126.527 107.658 126.633 108.202 126.633 108.778C126.633 109.375 126.527 109.951 126.313 110.506C126.1 111.039 125.695 111.519 125.097 111.946ZM121.417 116.618C122.036 116.618 122.516 116.479 122.857 116.202C123.22 115.924 123.401 115.519 123.401 114.986C123.401 114.452 123.22 114.047 122.857 113.77C122.516 113.492 122.036 113.354 121.417 113.354H116.105V116.618H121.417ZM121.257 110.602C121.876 110.602 122.356 110.463 122.697 110.186C123.06 109.908 123.241 109.503 123.241 108.97C123.241 108.458 123.06 108.063 122.697 107.786C122.356 107.508 121.876 107.37 121.257 107.37H116.105V110.602H121.257ZM137.816 116.746C138.562 116.746 139.245 116.618 139.864 116.362C140.482 116.084 140.973 115.668 141.336 115.114H145.016C144.461 116.586 143.533 117.748 142.232 118.602C140.93 119.455 139.458 119.882 137.816 119.882C136.664 119.882 135.597 119.69 134.616 119.306C133.656 118.9 132.824 118.346 132.12 117.642C131.416 116.938 130.861 116.106 130.456 115.146C130.05 114.186 129.848 113.13 129.848 111.978C129.848 110.868 130.04 109.834 130.424 108.874C130.808 107.914 131.341 107.082 132.024 106.378C132.728 105.674 133.549 105.119 134.488 104.714C135.448 104.308 136.504 104.106 137.656 104.106C138.765 104.106 139.778 104.308 140.696 104.714C141.634 105.098 142.434 105.642 143.096 106.346C143.778 107.05 144.301 107.871 144.664 108.81C145.048 109.748 145.24 110.762 145.24 111.85C145.24 112.084 145.24 112.308 145.24 112.522C145.24 112.735 145.218 112.959 145.176 113.194H133.368C133.56 114.26 134.061 115.124 134.872 115.786C135.704 116.426 136.685 116.746 137.816 116.746ZM137.656 107.146C136.568 107.146 135.629 107.455 134.84 108.074C134.05 108.671 133.581 109.471 133.432 110.474H141.656C141.485 109.471 141.048 108.671 140.344 108.074C139.64 107.455 138.744 107.146 137.656 107.146ZM149.182 125.994V104.522H152.574V105.898C153.107 105.343 153.779 104.906 154.59 104.586C155.422 104.266 156.318 104.106 157.278 104.106C158.494 104.106 159.571 104.33 160.51 104.778C161.47 105.204 162.27 105.78 162.91 106.506C163.55 107.231 164.041 108.074 164.382 109.034C164.723 109.972 164.894 110.954 164.894 111.978C164.894 113.002 164.723 113.994 164.382 114.954C164.041 115.914 163.55 116.756 162.91 117.482C162.27 118.207 161.47 118.794 160.51 119.242C159.571 119.668 158.494 119.882 157.278 119.882C156.318 119.882 155.422 119.722 154.59 119.402C153.779 119.082 153.107 118.644 152.574 118.09V125.994H149.182ZM152.446 111.978C152.446 112.788 152.574 113.492 152.83 114.09C153.086 114.666 153.427 115.156 153.854 115.562C154.302 115.967 154.803 116.266 155.358 116.458C155.913 116.65 156.478 116.746 157.054 116.746C157.715 116.746 158.313 116.618 158.846 116.362C159.401 116.106 159.87 115.764 160.254 115.338C160.659 114.911 160.969 114.41 161.182 113.834C161.395 113.236 161.502 112.618 161.502 111.978C161.502 111.338 161.395 110.73 161.182 110.154C160.969 109.578 160.659 109.076 160.254 108.65C159.87 108.223 159.401 107.882 158.846 107.626C158.313 107.37 157.715 107.242 157.054 107.242C156.478 107.242 155.913 107.338 155.358 107.53C154.803 107.722 154.302 108.02 153.854 108.426C153.427 108.81 153.086 109.3 152.83 109.898C152.574 110.495 152.446 111.188 152.446 111.978ZM168.838 119.466V104.522H172.23V116.49H178.15V104.522H181.542V116.49H187.494V104.522H190.886V119.466H168.838ZM195.745 119.466V104.522H199.137V114.666L207.105 104.522H210.497V119.466H207.105V109.322L199.137 119.466H195.745ZM230.122 104.522V119.466H226.73V113.418H218.762V119.466H215.37V104.522H218.762V110.442H226.73V104.522H230.122ZM254.291 104.522V119.466H250.899V104.522H254.291ZM242.643 109.13C243.645 109.13 244.509 109.268 245.235 109.546C245.96 109.823 246.557 110.207 247.027 110.698C247.517 111.167 247.88 111.722 248.115 112.362C248.349 112.98 248.467 113.631 248.467 114.314C248.467 115.018 248.349 115.679 248.115 116.298C247.88 116.916 247.517 117.46 247.027 117.93C246.557 118.399 245.96 118.772 245.235 119.05C244.509 119.327 243.645 119.466 242.643 119.466H234.995V104.522H238.387V109.13H242.643ZM242.547 116.49C243.315 116.49 243.923 116.308 244.371 115.946C244.84 115.562 245.075 115.018 245.075 114.314C245.075 113.61 244.84 113.066 244.371 112.682C243.923 112.298 243.315 112.106 242.547 112.106H238.387V116.49H242.547Z" fill="white"/>
</svg>
