<svg width="141" height="29" viewBox="0 0 141 29" fill="none" xmlns="http://www.w3.org/2000/svg">
<mask id="mask0_373_6189" style="mask-type:luminance" maskUnits="userSpaceOnUse" x="0" y="0" width="141" height="29">
<path d="M140.302 0.5H0.5V28.351H140.302V0.5Z" fill="white"/>
</mask>
<g mask="url(#mask0_373_6189)">
<path d="M14.4168 21.2535C18.1926 21.2535 21.2535 18.1926 21.2535 14.4168C21.2535 10.641 18.1926 7.58008 14.4168 7.58008C10.641 7.58008 7.58008 10.641 7.58008 14.4168C7.58008 18.1926 10.641 21.2535 14.4168 21.2535Z" fill="#00AAFF"/>
<path d="M9.58177 19.2495C7.13612 16.8046 3.93502 15.2593 0.49939 14.8652V18.7324L10.1173 28.3503H13.9808C13.5811 24.9079 12.0311 21.7011 9.58177 19.2495Z" fill="#FF4352"/>
<path d="M19.2494 9.58239C21.7003 12.0309 24.9082 13.5769 28.3503 13.9684V10.1179L18.7323 0.5H14.8818C15.2731 3.93303 16.8121 7.13332 19.2494 9.58239Z" fill="#965EEB"/>
<path d="M19.2499 19.2495C16.7975 21.6973 15.2514 24.9069 14.8657 28.3503H18.7328L28.3508 18.7324V14.8652C24.9097 15.259 21.7026 16.804 19.2499 19.2495Z" fill="#04E061"/>
<path d="M9.58177 9.58236C12.0271 7.1435 13.5733 3.94761 13.9678 0.516602H10.1173L0.49939 10.1345V13.9813C3.93752 13.5853 7.13954 12.0345 9.58177 9.58236Z" fill="#04E061"/>
<path d="M48.8306 23.8839L47.6673 20.412H40.0031L38.8398 23.8839H34.74L41.4805 4.64062H46.1899L52.947 23.8839H48.8306ZM41.2035 16.8662H46.4835L43.8446 8.9953L41.2035 16.8662Z" fill="white"/>
<path d="M64.5655 16.8473C65.8396 17.4752 66.4862 18.5094 66.4862 19.9868C66.5031 20.5167 66.4044 21.0439 66.1974 21.5319C65.9901 22.0198 65.6789 22.4568 65.2855 22.8124C64.4917 23.5326 63.3651 23.9019 61.8877 23.9019H54.6484V10.1436H61.3336C62.7739 10.1436 63.9005 10.4945 64.6947 11.2147C65.0881 11.5662 65.3996 11.9997 65.607 12.4848C65.8143 12.9698 65.9127 13.4945 65.895 14.0218C65.895 15.2259 65.4517 16.1677 64.5655 16.8473ZM61.0198 13.0578H57.9908V15.5324H61.0198C62.0352 15.5324 62.5339 15.1261 62.5339 14.2951C62.5339 13.464 62.0169 13.0578 61.0198 13.0578ZM61.4815 20.888C62.5156 20.888 63.0143 20.4448 63.0143 19.5583C63.0198 19.3866 62.9861 19.2157 62.9156 19.0589C62.8451 18.9021 62.7398 18.7634 62.6077 18.6534C62.2815 18.4169 61.8837 18.2996 61.4815 18.321H57.9725V20.8696H61.4815V20.888Z" fill="white"/>
<path d="M79.1918 10.1436V13.5601H74.9074V23.9019H71.3617V13.5601H67.0215V10.1436H79.1918Z" fill="white"/>
<path d="M92.2485 22.1664C91.0529 23.3734 89.4753 24.1281 87.7854 24.3014C86.0951 24.4747 84.3971 24.0559 82.9814 23.1166C81.5659 22.1773 80.5201 20.7757 80.0228 19.1511C79.5256 17.5265 79.6078 15.7797 80.2551 14.2089C80.9025 12.6381 82.0753 11.3408 83.5729 10.5385C85.0705 9.73612 86.8001 9.47851 88.4665 9.80959C90.1329 10.1407 91.6327 11.04 92.7098 12.3539C93.7869 13.6678 94.3744 15.3149 94.3722 17.0139C94.385 17.9717 94.2034 18.9221 93.8382 19.8078C93.4735 20.6934 92.9326 21.4957 92.2485 22.1664ZM84.4184 19.7471C84.7615 20.1021 85.1759 20.3808 85.6342 20.5654C86.0922 20.7499 86.5839 20.836 87.0775 20.8182C87.57 20.8275 88.0595 20.7374 88.5164 20.5534C88.9733 20.3694 89.3883 20.0952 89.737 19.7471C90.4228 19.0058 90.8038 18.033 90.8038 17.0231C90.8038 16.0132 90.4228 15.0405 89.737 14.2992C89.0221 13.6121 88.0691 13.2283 87.0775 13.2283C86.0859 13.2283 85.1329 13.6121 84.4184 14.2992C83.7406 15.0446 83.3652 16.0158 83.3652 17.0231C83.3652 18.0305 83.7406 19.0017 84.4184 19.7471Z" fill="white"/>
<path d="M108.574 23.8841H104.473L101.501 19.7068L98.5095 23.8805H94.4097L99.4515 16.8627L94.6313 10.1221H98.7128L101.483 14.0003L104.253 10.1221H108.316L103.496 16.8258L108.574 23.8841Z" fill="white"/>
<path d="M119.839 10.1437H123.385V23.9021H119.839V22.2769C118.768 23.6066 117.29 24.2714 115.351 24.2714C113.523 24.2714 111.953 23.5697 110.642 22.1661C109.331 20.7626 108.684 19.0451 108.666 17.0137C108.648 14.9822 109.331 13.2647 110.642 11.8612C111.953 10.4577 113.523 9.75586 115.351 9.75586C117.272 9.75586 118.768 10.4207 119.839 11.7689V10.1437ZM113.283 19.8022C113.636 20.1607 114.06 20.4424 114.527 20.6299C114.994 20.8174 115.495 20.9065 115.998 20.8919C116.504 20.9066 117.007 20.8176 117.477 20.6302C117.947 20.4428 118.374 20.161 118.731 19.8022C119.092 19.4354 119.375 18.9991 119.562 18.5197C119.749 18.0404 119.837 17.528 119.821 17.0137C119.821 15.8687 119.451 14.9453 118.731 14.225C118.371 13.8698 117.944 13.5903 117.475 13.4031C117.005 13.216 116.503 13.1249 115.998 13.1355C115.494 13.1191 114.993 13.2075 114.526 13.3951C114.058 13.5826 113.635 13.8653 113.283 14.225C112.563 14.9453 112.212 15.8871 112.212 17.0137C112.212 18.1402 112.563 19.082 113.283 19.8022Z" fill="white"/>
<path d="M133.282 9.97813C131.87 9.9622 130.502 10.4686 129.441 11.4001C130.217 9.75651 131.676 8.72235 133.633 8.50073C138.139 7.98363 139.931 6.70936 140.004 3.93923L140.023 3.47754H136.643V3.92077C136.643 4.40092 136.219 4.89956 133.19 5.2135C128.167 5.73057 125.526 9.29482 125.526 15.5369V16.608C125.526 21.151 128.776 24.7153 132.913 24.7153C134.869 24.7066 136.743 23.9255 138.127 22.542C139.51 21.1586 140.291 19.2847 140.3 17.3283C140.283 13.1361 137.273 9.97813 133.282 9.97813ZM136.92 17.3467C136.917 18.4117 136.491 19.4319 135.736 20.1832C134.981 20.9345 133.959 21.3557 132.894 21.3542H132.728C131.944 21.3184 131.188 21.0531 130.553 20.5913C129.918 20.1295 129.432 19.4914 129.157 18.7563C128.881 18.0212 128.828 17.2213 129.003 16.4559C129.177 15.6906 129.573 14.9934 130.141 14.4509C130.708 13.9084 131.422 13.5445 132.195 13.4042C132.967 13.264 133.764 13.3536 134.486 13.662C135.208 13.9703 135.823 14.4839 136.256 15.1389C136.689 15.794 136.92 16.5616 136.92 17.3467Z" fill="white"/>
</g>
</svg>
