<svg width="159" height="41" viewBox="0 0 159 41" fill="none" xmlns="http://www.w3.org/2000/svg">
<mask id="mask0_280_466" style="mask-type:luminance" maskUnits="userSpaceOnUse" x="0" y="0" width="159" height="41">
<path d="M158.444 0.964844H0.666504V40.9648H158.444V0.964844Z" fill="white"/>
</mask>
<g mask="url(#mask0_280_466)">
<path d="M53.0876 21.6045L57.9426 32.9818L54.4519 32.988L53.5264 31.097L47.6046 31.1064L46.6831 33.0029L43.1924 33.0076L47.9963 21.6155L53.0876 21.6045ZM50.3088 24.1582L48.7122 28.1575L52.3913 28.1519L50.7845 24.1582H50.3088Z" fill="#07213E"/>
<path d="M68.0417 21.5781C69.4813 21.5781 71.0316 21.7813 71.0356 24.7907C71.0395 26.048 70.5779 26.8315 70.0481 27.1178C70.9445 27.5774 71.3943 28.4205 71.3982 29.8048C71.4006 32.1319 70.5308 32.9601 68.4162 32.9624L59.3828 32.9797L59.3647 21.5946L68.0417 21.5781ZM62.357 25.8707L67.6556 25.8629C68.1076 25.8629 68.4028 25.6542 68.4004 25.0981C68.4004 24.5263 68.0998 24.3335 67.6532 24.3342L62.3562 24.3436V25.8707H62.357ZM62.3672 30.2181L67.5441 30.2103C68.0582 30.2103 68.4099 29.906 68.4099 29.3499C68.4083 28.568 68.0527 28.4111 67.5409 28.4111L62.3641 28.4189L62.3672 30.2181Z" fill="#07213E"/>
<path d="M73.3398 21.5707L84.8944 21.5527L84.901 24.4994L80.6225 24.5064L80.6358 32.9456L77.6477 32.9504L77.6344 24.5119L73.3422 24.5174L73.3398 21.5707Z" fill="#07213E"/>
<path d="M93.8385 33.0833C87.5481 33.0936 87.4266 32.7107 87.4148 27.2496C87.4081 21.8041 87.5288 21.3907 93.8192 21.379C100.08 21.3704 100.243 21.7837 100.253 27.2292C100.262 32.6574 100.097 33.0731 93.8385 33.0833ZM93.8348 30.1367C97.2548 30.1327 97.2688 30.1163 97.2629 27.2324C97.257 24.3359 97.2459 24.3202 93.8362 24.3264C90.4162 24.3304 90.4022 24.3469 90.4044 27.2441C90.4103 30.128 90.4229 30.1421 93.8348 30.1367Z" fill="#07213E"/>
<path d="M113.928 25.8834L110.935 25.8881C110.935 24.6317 110.691 24.2975 107.961 24.3023C105.026 24.3062 105.014 24.4019 105.018 27.2199C105.024 30.0537 105.037 30.118 107.97 30.114C110.661 30.1101 110.946 29.8701 110.942 28.5171L113.93 28.5093C113.935 32.4136 113.748 33.0481 107.975 33.0583C102.34 33.0685 102.041 32.5737 102.032 27.2081C102.022 21.8748 102.319 21.3642 107.958 21.3556C113.675 21.3454 113.921 22.0144 113.928 25.8834Z" fill="#07213E"/>
<path d="M116.159 21.5012L127.719 21.4824L127.723 24.4291L123.442 24.4369L123.459 32.8761L120.47 32.8801L120.454 24.4409L116.164 24.4463L116.159 21.5012Z" fill="#07213E"/>
<path d="M139.277 21.4629L144.13 32.8409L140.644 32.8464L139.712 30.953L133.794 30.9624L132.873 32.8582L129.382 32.8636L134.186 21.4715L139.277 21.4629ZM136.498 24.0166L134.901 28.015L138.582 28.0096L136.973 24.0135L136.498 24.0166Z" fill="#07213E"/>
<path d="M145.852 21.4524L157.407 21.4336L157.414 24.3795L153.135 24.3873L153.148 32.8266L150.16 32.8305L150.148 24.3936L145.854 24.3991L145.852 21.4524Z" fill="#07213E"/>
<path d="M43.8396 40.9364L42.9062 40.938L44.6952 36.1694L45.5681 36.167L47.3743 40.9302L46.441 40.9309L46.094 39.9317L44.185 39.9333L43.8396 40.9364ZM45.8593 39.2109L45.1356 37.0941L44.4142 39.2117L45.8593 39.2109Z" fill="#07213E"/>
<path d="M49.3353 40.927H48.4663L48.4585 36.1639L49.3275 36.1624L49.3329 38.0682L51.4579 38.0667L51.4563 36.16L52.3292 36.1592L52.3346 40.9224L51.4618 40.9239L51.4579 38.7867L49.3329 38.7913L49.3353 40.927Z" fill="#07213E"/>
<path d="M54.3592 40.9198L53.4243 40.9206L55.2148 36.1512L56.09 36.1504L57.8947 40.9143H56.9614L56.612 39.9143L54.7069 39.9174L54.3592 40.9198ZM56.3812 39.1943L55.6551 37.079L54.9354 39.1951L56.3812 39.1943Z" fill="#07213E"/>
<path d="M58.3457 40.1883C59.3873 40.3703 59.4148 38.9804 59.4109 38.0157L59.4093 36.1428L62.6685 36.1357L62.6803 40.9028L61.8097 40.9043L61.8019 36.8589L60.2806 36.8612L60.283 38.2706C60.2845 39.4698 60.1684 41.1992 58.3464 40.9098L58.3457 40.1883Z" fill="#07213E"/>
<path d="M67.5083 36.1314L68.3623 36.1299L68.3678 40.8954L67.4949 40.8961L67.4895 37.4114L65.2272 40.9008L64.3755 40.9024L64.3677 36.1354L65.239 36.133L65.2445 39.6208L67.5083 36.1314Z" fill="#07213E"/>
<path d="M69.564 36.8489V36.1274L73.4346 36.1211L73.4362 36.8435L71.9361 36.8466L71.944 40.8882L71.0711 40.8913L71.0632 36.8466L69.564 36.8489Z" fill="#07213E"/>
<path d="M77.7809 36.1161L78.635 36.1152L78.6431 40.8784H77.7713L77.7661 37.3961L75.5017 40.8846H74.6514L74.6396 36.1215L75.5128 36.12L75.5179 39.6055L77.7809 36.1161Z" fill="#07213E"/>
<path d="M81.0195 36.1098L81.0233 37.396C81.0233 37.8517 81.0507 38.1929 82.027 38.1906C82.407 38.189 82.8218 38.1483 82.8921 38.1404L82.8862 36.1051L83.7588 36.1035L83.767 40.8706L82.8966 40.8721L82.8921 38.8643C82.624 38.8839 82.2225 38.9114 81.9181 38.9114C80.8958 38.9145 80.1521 38.6627 80.1521 37.5929L80.1484 36.1098H81.0195Z" fill="#07213E"/>
<path d="M88.7578 38.06V38.78L86.3326 38.7831L86.3348 40.1471L89.1148 40.1423L89.1163 40.8631L85.463 40.8686L85.4556 36.1023L89.0333 36.0977L89.0356 36.8184L86.3289 36.8216L86.3311 38.06H88.7578Z" fill="#07213E"/>
<path d="M94.5014 39.2257C94.4392 39.9473 94.057 40.9974 92.4429 40.9991C92.074 40.9991 90.0777 40.9685 90.0732 38.5591C90.0718 36.5974 91.2021 35.9504 92.3881 35.9473C94.0221 35.9434 94.391 36.9449 94.4347 37.6241L93.5688 37.6273C93.511 37.2304 93.2777 36.668 92.3873 36.6696C91.3244 36.6696 91.0036 37.5363 91.0058 38.523C91.0073 39.6398 91.6229 40.2782 92.4784 40.2782C93.2725 40.2743 93.6088 39.7379 93.637 39.2273L94.5014 39.2257Z" fill="#07213E"/>
<path d="M98.8301 36.0789L100 36.0781L98.0286 38.0546L100.138 40.8405L98.9671 40.8444L97.3908 38.6421L96.7501 39.2625L96.7523 40.8476L95.8775 40.8499L95.8716 36.0844L96.7449 36.0829L96.7486 38.2264L98.8301 36.0789Z" fill="#07213E"/>
<path d="M103.286 35.9297C103.701 35.9281 105.622 35.9791 105.627 38.4497C105.629 40.9219 103.709 40.9799 103.292 40.9807C102.876 40.9814 100.953 40.9305 100.953 38.4575C100.947 35.9877 102.872 35.9297 103.286 35.9297ZM103.292 40.2591C104.472 40.2568 104.695 39.1877 104.692 38.452C104.691 37.7179 104.464 36.6489 103.286 36.6497C102.106 36.6528 101.886 37.7226 101.886 38.4568C101.886 39.1925 102.115 40.2599 103.292 40.2591Z" fill="#07213E"/>
<path d="M110.348 38.0229V38.7429L107.925 38.7476V40.1092L110.707 40.1045V40.826L107.056 40.8315L107.05 36.0668L110.626 36.0605L110.628 36.7814L107.919 36.786L107.926 38.026L110.348 38.0229Z" fill="#07213E"/>
<path d="M114.394 40.8188L113.461 40.8212L115.251 36.0525L116.124 36.0518L117.932 40.8133L116.995 40.8149L116.651 39.8157L114.741 39.8164L114.394 40.8188ZM116.415 39.0941L115.69 36.9788L114.971 39.0972L116.415 39.0941Z" fill="#07213E"/>
<path d="M119.892 40.8116L119.019 40.8124L119.012 36.0485L122.132 36.043L122.134 36.7645L119.885 36.7676L119.892 40.8116Z" fill="#07213E"/>
<path d="M126.635 37.9942L126.64 38.7149L124.214 38.7188L124.215 40.082L126.998 40.0773V40.7973L123.347 40.8036L123.337 36.0397L126.915 36.0342V36.7541L124.209 36.7588L124.215 37.998L126.635 37.9942Z" fill="#07213E"/>
<path d="M129.105 40.7972L128.232 40.798L128.224 36.0317L129.094 36.0293L129.097 37.9368L131.226 37.9321L131.22 36.0254H132.092L132.1 40.7901L131.228 40.7925L131.226 38.6537L129.099 38.6575L129.105 40.7972Z" fill="#07213E"/>
<path d="M133.3 36.7429V36.0213L137.169 36.0166V36.7366L135.671 36.7413L135.676 40.7845L134.806 40.7853L134.8 36.7421H133.3V36.7429Z" fill="#07213E"/>
<path d="M142.481 39.146C142.414 39.87 142.036 40.9194 140.423 40.9201C140.054 40.9209 138.058 40.8911 138.054 38.4801C138.049 36.5201 139.179 35.8715 140.367 35.8691C142 35.866 142.371 36.866 142.413 37.5491H141.546C141.492 37.1546 141.259 36.5883 140.369 36.5915C139.305 36.5923 138.983 37.4582 138.987 38.4449C138.989 39.5617 139.604 40.2009 140.462 40.2009C141.253 40.1986 141.591 39.6589 141.618 39.1491L142.481 39.146Z" fill="#07213E"/>
<path d="M143.365 36.73L143.364 36.0069L147.234 36.0029L147.236 36.7237L145.736 36.7253L145.747 40.7684L144.871 40.77L144.867 36.726L143.365 36.73Z" fill="#07213E"/>
<path d="M150.689 35.9941C151.902 35.9933 152.143 36.6725 152.144 37.1957C152.144 37.7227 151.818 38.1384 151.355 38.2215V38.2333C151.75 38.3008 152.342 38.5714 152.342 39.4239C152.349 40.6278 151.318 40.7596 150.602 40.7604L148.449 40.7651L148.438 35.9981L150.689 35.9941ZM149.316 37.9306L150.468 37.929C150.951 37.9275 151.244 37.7784 151.244 37.3627C151.24 36.7298 150.629 36.7149 150.443 36.7149L149.314 36.7181L149.316 37.9306ZM149.317 40.0404L150.513 40.0396C151.044 40.0357 151.445 39.907 151.445 39.3282C151.444 38.6882 150.89 38.6498 150.529 38.6506L149.316 38.6521L149.317 40.0404Z" fill="#07213E"/>
<path d="M155.91 35.8438C156.329 35.8438 158.249 35.8955 158.253 38.3646C158.258 40.8375 156.337 40.8955 155.921 40.8955C155.504 40.8955 153.581 40.843 153.578 38.3755C153.576 35.9026 155.495 35.8454 155.91 35.8438ZM155.92 40.1748C157.098 40.1709 157.321 39.1034 157.321 38.3677C157.317 37.6328 157.092 36.563 155.914 36.5661C154.735 36.5677 154.513 37.6367 154.513 38.3732C154.513 39.1081 154.74 40.1748 155.92 40.1748Z" fill="#07213E"/>
<path d="M44.4055 15.645L37.0787 3.00414C36.5395 2.46767 35.8855 2.22061 35.2435 2.30688C34.6037 2.39237 34.0409 2.80257 33.6578 3.46375L26.444 16.0151C26.0751 16.6575 26.0036 17.2457 26.254 17.6724C26.4989 18.0975 27.0476 18.3296 27.791 18.3288L42.2728 18.2951C43.0397 18.2951 43.674 18.0081 44.068 17.4936C44.4597 16.9798 44.568 16.2927 44.4055 15.645Z" fill="#07213E"/>
<path d="M12.2363 2.48808L12.0903 3.31631C12.106 3.70455 12.23 4.09592 12.4498 4.47866L19.7202 16.9939C20.1024 17.6497 20.5914 18.0112 21.0977 18.0112C21.6041 18.0088 22.0931 17.6465 22.4699 16.9893L29.6837 4.43945C29.9317 4.00808 30.0542 3.55082 30.0346 3.11945L29.887 2.45043C29.6484 1.86925 29.117 1.43317 28.3948 1.22141C28.2778 1.20494 13.8384 1.23788 13.8384 1.23788C13.0048 1.46768 12.4749 1.90533 12.2363 2.48808ZM21.0954 17.2167C20.9439 17.2151 20.6739 17.0536 20.4102 16.5971L13.1383 4.07866C12.9851 3.81514 12.8972 3.53905 12.8902 3.28416L12.9694 2.7916C13.1154 2.43553 13.4663 2.16023 13.9514 2.01671C13.9569 2.03082 28.2802 1.99866 28.2802 1.99866C28.6562 2.12493 29.0055 2.40023 29.1531 2.75631C29.1531 2.75788 29.2386 3.15082 29.2386 3.15082C29.2504 3.43317 29.1672 3.74376 28.9922 4.04494L21.7799 16.5924C21.5146 17.052 21.2446 17.2151 21.0954 17.2167Z" fill="#07213E"/>
<path d="M8.07493 4.43518C8.00511 4.52459 0.816407 17.0274 0.816407 17.0274C0.774019 17.1348 0.692383 17.8611 0.692383 17.8611C0.712007 18.3026 0.8533 18.7065 1.10527 19.0328C1.50718 19.5568 2.1587 19.8454 2.93345 19.8422L17.4192 19.8093C18.1798 19.8077 18.7403 19.5638 18.9891 19.1254C18.9891 19.1238 19.1343 18.4775 19.1343 18.4775L18.7889 17.4258L11.517 4.91283C11.1309 4.24224 10.5531 3.82577 9.89686 3.73793C9.27049 3.65636 8.62604 3.90342 8.07493 4.43518ZM8.69664 4.91753C8.99886 4.64616 9.41256 4.47832 9.79486 4.52773C10.2006 4.58028 10.5688 4.85871 10.831 5.31126L18.1029 17.8265L18.34 18.512L18.2968 18.7308C18.223 18.8634 17.9475 19.0148 17.4176 19.0164L2.93345 19.0477C2.4091 19.0493 1.98287 18.8728 1.73639 18.5505C1.58332 18.3536 1.50011 18.1097 1.48833 17.8297C1.48833 17.8297 1.55035 17.3199 1.5527 17.3183C1.57154 17.3175 8.69664 4.91753 8.69664 4.91753Z" fill="#07213E"/>
<path d="M1.27545 22.1575C0.985797 22.53 0.848428 23.0045 0.868052 23.5182L0.949688 24.0515C0.996787 24.159 6.09513 32.9441 6.09513 32.9441L8.24278 36.6366C8.86367 37.2547 9.51211 37.4978 10.1346 37.4139C10.7939 37.3245 11.3646 36.9064 11.7547 36.2335L18.9646 23.6869C19.3391 23.039 19.4089 22.4186 19.1609 21.9864C18.9026 21.5464 18.346 21.3064 17.5854 21.3096L3.10128 21.3418C2.32494 21.3433 1.67735 21.632 1.27545 22.1575ZM1.664 23.4876C1.65223 23.159 1.73544 22.8664 1.90813 22.6414C2.15461 22.3175 2.58006 22.1378 3.10285 22.1363L17.5894 22.1049C18.1208 22.1033 18.394 22.2555 18.4717 22.3864C18.4929 22.4264 18.507 22.4829 18.5125 22.5551C18.518 22.7237 18.4599 22.9739 18.2777 23.2876L11.0616 35.8366C10.8017 36.2915 10.4352 36.5715 10.0294 36.6257C9.651 36.6775 9.23574 36.5072 8.86137 36.152C8.85745 36.1175 6.78354 32.5426 6.78354 32.5426L1.68285 23.7606C1.72602 23.8672 1.664 23.4876 1.664 23.4876Z" fill="#07213E"/>
<path d="M19.948 24.0511L12.7342 36.5977C12.4862 37.0291 12.3637 37.4863 12.381 37.9161L12.5286 38.586C12.7695 39.1687 13.3009 39.6048 14.0286 39.8173C14.1393 39.8322 28.5771 39.8 28.5771 39.8C29.4131 39.5679 29.943 39.1294 30.1816 38.5491L30.3276 37.7232C30.3119 37.3311 30.1894 36.942 29.9666 36.56L22.6986 24.044C22.3163 23.3867 21.8272 23.0283 21.3209 23.0283C20.8138 23.0275 20.3264 23.3899 19.948 24.0511ZM14.1377 39.0361C13.7594 38.9099 13.4124 38.6345 13.2648 38.28L13.1777 37.884C13.1683 37.604 13.2491 37.2957 13.4257 36.9938L20.6396 24.4456C20.9033 23.9851 21.1734 23.822 21.3225 23.822C21.474 23.822 21.7417 23.9828 22.0094 24.4424L29.2797 36.9585C29.4328 37.222 29.5206 37.4989 29.5301 37.753C29.5301 37.753 29.4468 38.2448 29.4468 38.2471C29.2993 38.5977 28.9523 38.873 28.4633 39.0189C28.4602 39.0056 14.1377 39.0361 14.1377 39.0361Z" fill="#07213E"/>
<path d="M23.3503 21.8598C23.0959 22.3006 23.1697 22.903 23.5505 23.5602L30.8185 36.0787C31.2085 36.7492 31.7848 37.1649 32.4402 37.2504C33.065 37.3296 33.7095 37.0842 34.2605 36.5587C34.328 36.4685 41.5206 23.9594 41.5206 23.9594C41.5575 23.8543 41.6447 23.1273 41.6447 23.1273C41.6274 22.6873 41.4853 22.2802 41.2318 21.9539C40.8299 21.4285 40.1784 21.143 39.402 21.1445L24.9179 21.1751C24.1596 21.1806 23.6007 21.4214 23.3503 21.8598ZM24.2373 23.1602C24.0701 22.8731 24.0065 22.6425 23.9987 22.4779C23.9948 22.3791 24.012 22.3054 24.0371 22.2551C24.1133 22.1265 24.3904 21.9743 24.9179 21.972L39.402 21.9391C39.9279 21.9391 40.3542 22.1171 40.6046 22.4379C40.7561 22.6379 40.8377 22.8794 40.8511 23.1602C40.8511 23.1602 40.7867 23.6676 40.7867 23.67C40.7655 23.6739 33.6404 36.0724 33.6404 36.0724C33.3374 36.3398 32.9222 36.5108 32.5407 36.4622C32.1348 36.4112 31.7682 36.132 31.5068 35.6802L24.2373 23.1602Z" fill="#07213E"/>
<mask id="mask1_280_466" style="mask-type:luminance" maskUnits="userSpaceOnUse" x="0" y="0" width="159" height="41">
<path d="M158.444 0.964844H0.666504V40.9648H158.444V0.964844Z" fill="white"/>
</mask>
<g mask="url(#mask1_280_466)">
<path d="M53.0876 21.6045L57.9426 32.9818L54.4519 32.988L53.5264 31.097L47.6046 31.1064L46.6831 33.0029L43.1924 33.0076L47.9963 21.6155L53.0876 21.6045ZM50.3088 24.1582L48.7122 28.1575L52.3913 28.1519L50.7845 24.1582H50.3088Z" fill="#07213E"/>
<path d="M68.0417 21.5781C69.4813 21.5781 71.0316 21.7813 71.0356 24.7907C71.0395 26.048 70.5779 26.8315 70.0481 27.1178C70.9445 27.5774 71.3943 28.4205 71.3982 29.8048C71.4006 32.1319 70.5308 32.9601 68.4162 32.9624L59.3828 32.9797L59.3647 21.5946L68.0417 21.5781ZM62.357 25.8707L67.6556 25.8629C68.1076 25.8629 68.4028 25.6542 68.4004 25.0981C68.4004 24.5263 68.0998 24.3335 67.6532 24.3342L62.3562 24.3436V25.8707H62.357ZM62.3672 30.2181L67.5441 30.2103C68.0582 30.2103 68.4099 29.906 68.4099 29.3499C68.4083 28.568 68.0527 28.4111 67.5409 28.4111L62.3641 28.4189L62.3672 30.2181Z" fill="#07213E"/>
<path d="M73.3398 21.5707L84.8944 21.5527L84.901 24.4994L80.6225 24.5064L80.6358 32.9456L77.6477 32.9504L77.6344 24.5119L73.3422 24.5174L73.3398 21.5707Z" fill="#07213E"/>
<path d="M93.8385 33.0833C87.5481 33.0936 87.4266 32.7107 87.4148 27.2496C87.4081 21.8041 87.5288 21.3907 93.8192 21.379C100.08 21.3704 100.243 21.7837 100.253 27.2292C100.262 32.6574 100.097 33.0731 93.8385 33.0833ZM93.8348 30.1367C97.2548 30.1327 97.2688 30.1163 97.2629 27.2324C97.257 24.3359 97.2459 24.3202 93.8362 24.3264C90.4162 24.3304 90.4022 24.3469 90.4044 27.2441C90.4103 30.128 90.4229 30.1421 93.8348 30.1367Z" fill="#07213E"/>
<path d="M113.928 25.8834L110.935 25.8881C110.935 24.6317 110.691 24.2975 107.961 24.3023C105.026 24.3062 105.014 24.4019 105.018 27.2199C105.024 30.0537 105.037 30.118 107.97 30.114C110.661 30.1101 110.946 29.8701 110.942 28.5171L113.93 28.5093C113.935 32.4136 113.748 33.0481 107.975 33.0583C102.34 33.0685 102.041 32.5737 102.032 27.2081C102.022 21.8748 102.319 21.3642 107.958 21.3556C113.675 21.3454 113.921 22.0144 113.928 25.8834Z" fill="#07213E"/>
<path d="M116.159 21.5012L127.719 21.4824L127.723 24.4291L123.442 24.4369L123.459 32.8761L120.47 32.8801L120.454 24.4409L116.164 24.4463L116.159 21.5012Z" fill="#07213E"/>
<path d="M139.277 21.4629L144.13 32.8409L140.644 32.8464L139.712 30.953L133.794 30.9624L132.873 32.8582L129.382 32.8636L134.186 21.4715L139.277 21.4629ZM136.498 24.0166L134.901 28.015L138.582 28.0096L136.973 24.0135L136.498 24.0166Z" fill="#07213E"/>
<path d="M145.852 21.4524L157.407 21.4336L157.414 24.3795L153.135 24.3873L153.148 32.8266L150.16 32.8305L150.148 24.3936L145.854 24.3991L145.852 21.4524Z" fill="#07213E"/>
<path d="M43.8396 40.9364L42.9062 40.938L44.6952 36.1694L45.5681 36.167L47.3743 40.9302L46.441 40.9309L46.094 39.9317L44.185 39.9333L43.8396 40.9364ZM45.8593 39.2109L45.1356 37.0941L44.4142 39.2117L45.8593 39.2109Z" fill="#07213E"/>
<path d="M49.3353 40.927H48.4663L48.4585 36.1639L49.3275 36.1624L49.3329 38.0682L51.4579 38.0667L51.4563 36.16L52.3292 36.1592L52.3346 40.9224L51.4618 40.9239L51.4579 38.7867L49.3329 38.7913L49.3353 40.927Z" fill="#07213E"/>
<path d="M54.3592 40.9198L53.4243 40.9206L55.2148 36.1512L56.09 36.1504L57.8947 40.9143H56.9614L56.612 39.9143L54.7069 39.9174L54.3592 40.9198ZM56.3812 39.1943L55.6551 37.079L54.9354 39.1951L56.3812 39.1943Z" fill="#07213E"/>
<path d="M58.3457 40.1883C59.3873 40.3703 59.4148 38.9804 59.4109 38.0157L59.4093 36.1428L62.6685 36.1357L62.6803 40.9028L61.8097 40.9043L61.8019 36.8589L60.2806 36.8612L60.283 38.2706C60.2845 39.4698 60.1684 41.1992 58.3464 40.9098L58.3457 40.1883Z" fill="#07213E"/>
<path d="M67.5083 36.1314L68.3623 36.1299L68.3678 40.8954L67.4949 40.8961L67.4895 37.4114L65.2272 40.9008L64.3755 40.9024L64.3677 36.1354L65.239 36.133L65.2445 39.6208L67.5083 36.1314Z" fill="#07213E"/>
<path d="M69.564 36.8489V36.1274L73.4346 36.1211L73.4362 36.8435L71.9361 36.8466L71.944 40.8882L71.0711 40.8913L71.0632 36.8466L69.564 36.8489Z" fill="#07213E"/>
<path d="M77.7809 36.1161L78.635 36.1152L78.6431 40.8784H77.7713L77.7661 37.3961L75.5017 40.8846H74.6514L74.6396 36.1215L75.5128 36.12L75.5179 39.6055L77.7809 36.1161Z" fill="#07213E"/>
<path d="M81.0195 36.1098L81.0233 37.396C81.0233 37.8517 81.0507 38.1929 82.027 38.1906C82.407 38.189 82.8218 38.1483 82.8921 38.1404L82.8862 36.1051L83.7588 36.1035L83.767 40.8706L82.8966 40.8721L82.8921 38.8643C82.624 38.8839 82.2225 38.9114 81.9181 38.9114C80.8958 38.9145 80.1521 38.6627 80.1521 37.5929L80.1484 36.1098H81.0195Z" fill="#07213E"/>
<path d="M88.7578 38.06V38.78L86.3326 38.7831L86.3348 40.1471L89.1148 40.1423L89.1163 40.8631L85.463 40.8686L85.4556 36.1023L89.0333 36.0977L89.0356 36.8184L86.3289 36.8216L86.3311 38.06H88.7578Z" fill="#07213E"/>
<path d="M94.5014 39.2257C94.4392 39.9473 94.057 40.9974 92.4429 40.9991C92.074 40.9991 90.0777 40.9685 90.0732 38.5591C90.0718 36.5974 91.2021 35.9504 92.3881 35.9473C94.0221 35.9434 94.391 36.9449 94.4347 37.6241L93.5688 37.6273C93.511 37.2304 93.2777 36.668 92.3873 36.6696C91.3244 36.6696 91.0036 37.5363 91.0058 38.523C91.0073 39.6398 91.6229 40.2782 92.4784 40.2782C93.2725 40.2743 93.6088 39.7379 93.637 39.2273L94.5014 39.2257Z" fill="#07213E"/>
<path d="M98.8301 36.0789L100 36.0781L98.0286 38.0546L100.138 40.8405L98.9671 40.8444L97.3908 38.6421L96.7501 39.2625L96.7523 40.8476L95.8775 40.8499L95.8716 36.0844L96.7449 36.0829L96.7486 38.2264L98.8301 36.0789Z" fill="#07213E"/>
<path d="M103.286 35.9297C103.701 35.9281 105.622 35.9791 105.627 38.4497C105.629 40.9219 103.709 40.9799 103.292 40.9807C102.876 40.9814 100.953 40.9305 100.953 38.4575C100.947 35.9877 102.872 35.9297 103.286 35.9297ZM103.292 40.2591C104.472 40.2568 104.695 39.1877 104.692 38.452C104.691 37.7179 104.464 36.6489 103.286 36.6497C102.106 36.6528 101.886 37.7226 101.886 38.4568C101.886 39.1925 102.115 40.2599 103.292 40.2591Z" fill="#07213E"/>
<path d="M110.348 38.0229V38.7429L107.925 38.7476V40.1092L110.707 40.1045V40.826L107.056 40.8315L107.05 36.0668L110.626 36.0605L110.628 36.7814L107.919 36.786L107.926 38.026L110.348 38.0229Z" fill="#07213E"/>
<path d="M114.394 40.8188L113.461 40.8212L115.251 36.0525L116.124 36.0518L117.932 40.8133L116.995 40.8149L116.651 39.8157L114.741 39.8164L114.394 40.8188ZM116.415 39.0941L115.69 36.9788L114.971 39.0972L116.415 39.0941Z" fill="#07213E"/>
<path d="M119.892 40.8116L119.019 40.8124L119.012 36.0485L122.132 36.043L122.134 36.7645L119.885 36.7676L119.892 40.8116Z" fill="#07213E"/>
<path d="M126.635 37.9942L126.64 38.7149L124.214 38.7188L124.215 40.082L126.998 40.0773V40.7973L123.347 40.8036L123.337 36.0397L126.915 36.0342V36.7541L124.209 36.7588L124.215 37.998L126.635 37.9942Z" fill="#07213E"/>
<path d="M129.105 40.7972L128.232 40.798L128.224 36.0317L129.094 36.0293L129.097 37.9368L131.226 37.9321L131.22 36.0254H132.092L132.1 40.7901L131.228 40.7925L131.226 38.6537L129.099 38.6575L129.105 40.7972Z" fill="#07213E"/>
<path d="M133.3 36.7429V36.0213L137.169 36.0166V36.7366L135.671 36.7413L135.676 40.7845L134.806 40.7853L134.8 36.7421H133.3V36.7429Z" fill="#07213E"/>
<path d="M142.481 39.146C142.414 39.87 142.036 40.9194 140.423 40.9201C140.054 40.9209 138.058 40.8911 138.054 38.4801C138.049 36.5201 139.179 35.8715 140.367 35.8691C142 35.866 142.371 36.866 142.413 37.5491H141.546C141.492 37.1546 141.259 36.5883 140.369 36.5915C139.305 36.5923 138.983 37.4582 138.987 38.4449C138.989 39.5617 139.604 40.2009 140.462 40.2009C141.253 40.1986 141.591 39.6589 141.618 39.1491L142.481 39.146Z" fill="#07213E"/>
<path d="M143.365 36.73L143.364 36.0069L147.234 36.0029L147.236 36.7237L145.736 36.7253L145.747 40.7684L144.871 40.77L144.867 36.726L143.365 36.73Z" fill="#07213E"/>
<path d="M150.689 35.9941C151.902 35.9933 152.143 36.6725 152.144 37.1957C152.144 37.7227 151.818 38.1384 151.355 38.2215V38.2333C151.75 38.3008 152.342 38.5714 152.342 39.4239C152.349 40.6278 151.318 40.7596 150.602 40.7604L148.449 40.7651L148.438 35.9981L150.689 35.9941ZM149.316 37.9306L150.468 37.929C150.951 37.9275 151.244 37.7784 151.244 37.3627C151.24 36.7298 150.629 36.7149 150.443 36.7149L149.314 36.7181L149.316 37.9306ZM149.317 40.0404L150.513 40.0396C151.044 40.0357 151.445 39.907 151.445 39.3282C151.444 38.6882 150.89 38.6498 150.529 38.6506L149.316 38.6521L149.317 40.0404Z" fill="#07213E"/>
<path d="M155.91 35.8438C156.329 35.8438 158.249 35.8955 158.253 38.3646C158.258 40.8375 156.337 40.8955 155.921 40.8955C155.504 40.8955 153.581 40.843 153.578 38.3755C153.576 35.9026 155.495 35.8454 155.91 35.8438ZM155.92 40.1748C157.098 40.1709 157.321 39.1034 157.321 38.3677C157.317 37.6328 157.092 36.563 155.914 36.5661C154.735 36.5677 154.513 37.6367 154.513 38.3732C154.513 39.1081 154.74 40.1748 155.92 40.1748Z" fill="#07213E"/>
<path d="M44.4055 15.645L37.0787 3.00414C36.5395 2.46767 35.8855 2.22061 35.2435 2.30688C34.6037 2.39237 34.0409 2.80257 33.6578 3.46375L26.444 16.0151C26.0751 16.6575 26.0036 17.2457 26.254 17.6724C26.4989 18.0975 27.0476 18.3296 27.791 18.3288L42.2728 18.2951C43.0397 18.2951 43.674 18.0081 44.068 17.4936C44.4597 16.9798 44.568 16.2927 44.4055 15.645Z" fill="#07213E"/>
<path d="M12.2363 2.48808L12.0903 3.31631C12.106 3.70455 12.23 4.09592 12.4498 4.47866L19.7202 16.9939C20.1024 17.6497 20.5914 18.0112 21.0977 18.0112C21.6041 18.0088 22.0931 17.6465 22.4699 16.9893L29.6837 4.43945C29.9317 4.00808 30.0542 3.55082 30.0346 3.11945L29.887 2.45043C29.6484 1.86925 29.117 1.43317 28.3948 1.22141C28.2778 1.20494 13.8384 1.23788 13.8384 1.23788C13.0048 1.46768 12.4749 1.90533 12.2363 2.48808ZM21.0954 17.2167C20.9439 17.2151 20.6739 17.0536 20.4102 16.5971L13.1383 4.07866C12.9851 3.81514 12.8972 3.53905 12.8902 3.28416L12.9694 2.7916C13.1154 2.43553 13.4663 2.16023 13.9514 2.01671C13.9569 2.03082 28.2802 1.99866 28.2802 1.99866C28.6562 2.12493 29.0055 2.40023 29.1531 2.75631C29.1531 2.75788 29.2386 3.15082 29.2386 3.15082C29.2504 3.43317 29.1672 3.74376 28.9922 4.04494L21.7799 16.5924C21.5146 17.052 21.2446 17.2151 21.0954 17.2167Z" fill="#07213E"/>
<path d="M8.07493 4.43518C8.00511 4.52459 0.816407 17.0274 0.816407 17.0274C0.774019 17.1348 0.692383 17.8611 0.692383 17.8611C0.712007 18.3026 0.8533 18.7065 1.10527 19.0328C1.50718 19.5568 2.1587 19.8454 2.93345 19.8422L17.4192 19.8093C18.1798 19.8077 18.7403 19.5638 18.9891 19.1254C18.9891 19.1238 19.1343 18.4775 19.1343 18.4775L18.7889 17.4258L11.517 4.91283C11.1309 4.24224 10.5531 3.82577 9.89686 3.73793C9.27049 3.65636 8.62604 3.90342 8.07493 4.43518ZM8.69664 4.91753C8.99886 4.64616 9.41256 4.47832 9.79486 4.52773C10.2006 4.58028 10.5688 4.85871 10.831 5.31126L18.1029 17.8265L18.34 18.512L18.2968 18.7308C18.223 18.8634 17.9475 19.0148 17.4176 19.0164L2.93345 19.0477C2.4091 19.0493 1.98287 18.8728 1.73639 18.5505C1.58332 18.3536 1.50011 18.1097 1.48833 17.8297C1.48833 17.8297 1.55035 17.3199 1.5527 17.3183C1.57154 17.3175 8.69664 4.91753 8.69664 4.91753Z" fill="#07213E"/>
<path d="M1.27545 22.1575C0.985797 22.53 0.848428 23.0045 0.868052 23.5182L0.949688 24.0515C0.996787 24.159 6.09513 32.9441 6.09513 32.9441L8.24278 36.6366C8.86367 37.2547 9.51211 37.4978 10.1346 37.4139C10.7939 37.3245 11.3646 36.9064 11.7547 36.2335L18.9646 23.6869C19.3391 23.039 19.4089 22.4186 19.1609 21.9864C18.9026 21.5464 18.346 21.3064 17.5854 21.3096L3.10128 21.3418C2.32494 21.3433 1.67735 21.632 1.27545 22.1575ZM1.664 23.4876C1.65223 23.159 1.73544 22.8664 1.90813 22.6414C2.15461 22.3175 2.58006 22.1378 3.10285 22.1363L17.5894 22.1049C18.1208 22.1033 18.394 22.2555 18.4717 22.3864C18.4929 22.4264 18.507 22.4829 18.5125 22.5551C18.518 22.7237 18.4599 22.9739 18.2777 23.2876L11.0616 35.8366C10.8017 36.2915 10.4352 36.5715 10.0294 36.6257C9.651 36.6775 9.23574 36.5072 8.86137 36.152C8.85745 36.1175 6.78354 32.5426 6.78354 32.5426L1.68285 23.7606C1.72602 23.8672 1.664 23.4876 1.664 23.4876Z" fill="#07213E"/>
<path d="M19.948 24.0511L12.7342 36.5977C12.4862 37.0291 12.3637 37.4863 12.381 37.9161L12.5286 38.586C12.7695 39.1687 13.3009 39.6048 14.0286 39.8173C14.1393 39.8322 28.5771 39.8 28.5771 39.8C29.4131 39.5679 29.943 39.1294 30.1816 38.5491L30.3276 37.7232C30.3119 37.3311 30.1894 36.942 29.9666 36.56L22.6986 24.044C22.3163 23.3867 21.8272 23.0283 21.3209 23.0283C20.8138 23.0275 20.3264 23.3899 19.948 24.0511ZM14.1377 39.0361C13.7594 38.9099 13.4124 38.6345 13.2648 38.28L13.1777 37.884C13.1683 37.604 13.2491 37.2957 13.4257 36.9938L20.6396 24.4456C20.9033 23.9851 21.1734 23.822 21.3225 23.822C21.474 23.822 21.7417 23.9828 22.0094 24.4424L29.2797 36.9585C29.4328 37.222 29.5206 37.4989 29.5301 37.753C29.5301 37.753 29.4468 38.2448 29.4468 38.2471C29.2993 38.5977 28.9523 38.873 28.4633 39.0189C28.4602 39.0056 14.1377 39.0361 14.1377 39.0361Z" fill="#07213E"/>
<path d="M23.3503 21.8598C23.0959 22.3006 23.1697 22.903 23.5505 23.5602L30.8185 36.0787C31.2085 36.7492 31.7848 37.1649 32.4402 37.2504C33.065 37.3296 33.7095 37.0842 34.2605 36.5587C34.328 36.4685 41.5206 23.9594 41.5206 23.9594C41.5575 23.8543 41.6447 23.1273 41.6447 23.1273C41.6274 22.6873 41.4853 22.2802 41.2318 21.9539C40.8299 21.4285 40.1784 21.143 39.402 21.1445L24.9179 21.1751C24.1596 21.1806 23.6007 21.4214 23.3503 21.8598ZM24.2373 23.1602C24.0701 22.8731 24.0065 22.6425 23.9987 22.4779C23.9948 22.3791 24.012 22.3054 24.0371 22.2551C24.1133 22.1265 24.3904 21.9743 24.9179 21.972L39.402 21.9391C39.9279 21.9391 40.3542 22.1171 40.6046 22.4379C40.7561 22.6379 40.8377 22.8794 40.8511 23.1602C40.8511 23.1602 40.7867 23.6676 40.7867 23.67C40.7655 23.6739 33.6404 36.0724 33.6404 36.0724C33.3374 36.3398 32.9222 36.5108 32.5407 36.4622C32.1348 36.4112 31.7682 36.132 31.5068 35.6802L24.2373 23.1602Z" fill="#07213E"/>
<mask id="mask2_280_466" style="mask-type:luminance" maskUnits="userSpaceOnUse" x="0" y="0" width="159" height="41">
<path d="M158.444 0.964844H0.666504V40.9648H158.444V0.964844Z" fill="white"/>
</mask>
<g mask="url(#mask2_280_466)">
<path d="M53.0876 21.6045L57.9426 32.9818L54.4519 32.988L53.5264 31.097L47.6046 31.1064L46.6831 33.0029L43.1924 33.0076L47.9963 21.6155L53.0876 21.6045ZM50.3088 24.1582L48.7122 28.1575L52.3913 28.1519L50.7845 24.1582H50.3088Z" fill="#07213E"/>
<path d="M68.0417 21.5781C69.4813 21.5781 71.0316 21.7813 71.0356 24.7907C71.0395 26.048 70.5779 26.8315 70.0481 27.1178C70.9445 27.5774 71.3943 28.4205 71.3982 29.8048C71.4006 32.1319 70.5308 32.9601 68.4162 32.9624L59.3828 32.9797L59.3647 21.5946L68.0417 21.5781ZM62.357 25.8707L67.6556 25.8629C68.1076 25.8629 68.4028 25.6542 68.4004 25.0981C68.4004 24.5263 68.0998 24.3335 67.6532 24.3342L62.3562 24.3436V25.8707H62.357ZM62.3672 30.2181L67.5441 30.2103C68.0582 30.2103 68.4099 29.906 68.4099 29.3499C68.4083 28.568 68.0527 28.4111 67.5409 28.4111L62.3641 28.4189L62.3672 30.2181Z" fill="#07213E"/>
<path d="M73.3398 21.5707L84.8944 21.5527L84.901 24.4994L80.6225 24.5064L80.6358 32.9456L77.6477 32.9504L77.6344 24.5119L73.3422 24.5174L73.3398 21.5707Z" fill="#07213E"/>
<path d="M93.8385 33.0833C87.5481 33.0936 87.4266 32.7107 87.4148 27.2496C87.4081 21.8041 87.5288 21.3907 93.8192 21.379C100.08 21.3704 100.243 21.7837 100.253 27.2292C100.262 32.6574 100.097 33.0731 93.8385 33.0833ZM93.8348 30.1367C97.2548 30.1327 97.2688 30.1163 97.2629 27.2324C97.257 24.3359 97.2459 24.3202 93.8362 24.3264C90.4162 24.3304 90.4022 24.3469 90.4044 27.2441C90.4103 30.128 90.4229 30.1421 93.8348 30.1367Z" fill="#07213E"/>
<path d="M113.928 25.8834L110.935 25.8881C110.935 24.6317 110.691 24.2975 107.961 24.3023C105.026 24.3062 105.014 24.4019 105.018 27.2199C105.024 30.0537 105.037 30.118 107.97 30.114C110.661 30.1101 110.946 29.8701 110.942 28.5171L113.93 28.5093C113.935 32.4136 113.748 33.0481 107.975 33.0583C102.34 33.0685 102.041 32.5737 102.032 27.2081C102.022 21.8748 102.319 21.3642 107.958 21.3556C113.675 21.3454 113.921 22.0144 113.928 25.8834Z" fill="#07213E"/>
<path d="M116.159 21.5022L127.719 21.4834L127.723 24.4301L123.442 24.4379L123.459 32.8771L120.47 32.881L120.454 24.4418L116.164 24.4473L116.159 21.5022Z" fill="#07213E"/>
<path d="M139.277 21.4629L144.13 32.8409L140.644 32.8464L139.712 30.953L133.794 30.9624L132.873 32.8582L129.382 32.8636L134.186 21.4715L139.277 21.4629ZM136.498 24.0166L134.901 28.015L138.582 28.0096L136.973 24.0135L136.498 24.0166Z" fill="#07213E"/>
<path d="M145.852 21.4524L157.407 21.4336L157.414 24.3795L153.135 24.3873L153.148 32.8266L150.16 32.8305L150.148 24.3936L145.854 24.3991L145.852 21.4524Z" fill="#07213E"/>
<path d="M43.8396 40.9374L42.9062 40.939L44.6952 36.1703L45.5681 36.168L47.3743 40.9312L46.441 40.9319L46.094 39.9327L44.185 39.9343L43.8396 40.9374ZM45.8593 39.2119L45.1356 37.0951L44.4142 39.2127L45.8593 39.2119Z" fill="#07213E"/>
<path d="M49.3353 40.927H48.4663L48.4585 36.1639L49.3275 36.1624L49.3329 38.0682L51.4579 38.0667L51.4563 36.16L52.3292 36.1592L52.3346 40.9224L51.4618 40.9239L51.4579 38.7867L49.3329 38.7913L49.3353 40.927Z" fill="#07213E"/>
<path d="M54.3592 40.9198L53.4243 40.9206L55.2148 36.1512L56.09 36.1504L57.8947 40.9143H56.9614L56.612 39.9143L54.7069 39.9174L54.3592 40.9198ZM56.3812 39.1943L55.6551 37.079L54.9354 39.1951L56.3812 39.1943Z" fill="#07213E"/>
<path d="M58.3457 40.1883C59.3873 40.3703 59.4148 38.9804 59.4109 38.0157L59.4093 36.1428L62.6685 36.1357L62.6803 40.9028L61.8097 40.9043L61.8019 36.8589L60.2806 36.8612L60.283 38.2706C60.2845 39.4698 60.1684 41.1992 58.3464 40.9098L58.3457 40.1883Z" fill="#07213E"/>
<path d="M67.5083 36.1314L68.3623 36.1299L68.3678 40.8954L67.4949 40.8961L67.4895 37.4114L65.2272 40.9008L64.3755 40.9024L64.3677 36.1354L65.239 36.133L65.2445 39.6208L67.5083 36.1314Z" fill="#07213E"/>
<path d="M69.564 36.8489V36.1274L73.4346 36.1211L73.4362 36.8435L71.9361 36.8466L71.944 40.8882L71.0711 40.8913L71.0632 36.8466L69.564 36.8489Z" fill="#07213E"/>
<path d="M77.7809 36.1161L78.635 36.1152L78.6431 40.8784H77.7713L77.7661 37.3961L75.5017 40.8846H74.6514L74.6396 36.1215L75.5128 36.12L75.5179 39.6055L77.7809 36.1161Z" fill="#07213E"/>
<path d="M81.0195 36.1098L81.0233 37.396C81.0233 37.8517 81.0507 38.1929 82.027 38.1906C82.407 38.189 82.8218 38.1483 82.8921 38.1404L82.8862 36.1051L83.7588 36.1035L83.767 40.8706L82.8966 40.8721L82.8921 38.8643C82.624 38.8839 82.2225 38.9114 81.9181 38.9114C80.8958 38.9145 80.1521 38.6627 80.1521 37.5929L80.1484 36.1098H81.0195Z" fill="#07213E"/>
<path d="M88.7578 38.061V38.781L86.3326 38.7841L86.3348 40.148L89.1148 40.1433L89.1163 40.8641L85.463 40.8696L85.4556 36.1033L89.0333 36.0986L89.0356 36.8194L86.3289 36.8226L86.3311 38.061H88.7578Z" fill="#07213E"/>
<path d="M94.5014 39.2257C94.4392 39.9473 94.057 40.9974 92.4429 40.9991C92.074 40.9991 90.0777 40.9685 90.0732 38.5591C90.0718 36.5974 91.2021 35.9504 92.3881 35.9473C94.0221 35.9434 94.391 36.9449 94.4347 37.6241L93.5688 37.6273C93.511 37.2304 93.2777 36.668 92.3873 36.6696C91.3244 36.6696 91.0036 37.5363 91.0058 38.523C91.0073 39.6398 91.6229 40.2782 92.4784 40.2782C93.2725 40.2743 93.6088 39.7379 93.637 39.2273L94.5014 39.2257Z" fill="#07213E"/>
<path d="M98.8306 36.0789L100.001 36.0781L98.0291 38.0546L100.139 40.8405L98.9676 40.8444L97.3913 38.6421L96.7506 39.2625L96.7528 40.8476L95.878 40.8499L95.8721 36.0844L96.7454 36.0829L96.7491 38.2264L98.8306 36.0789Z" fill="#07213E"/>
<path d="M103.286 35.9307C103.701 35.9291 105.622 35.9801 105.627 38.4507C105.629 40.9228 103.709 40.9808 103.292 40.9817C102.876 40.9824 100.953 40.9314 100.953 38.4585C100.947 35.9887 102.872 35.9307 103.286 35.9307ZM103.292 40.2601C104.472 40.2577 104.695 39.1887 104.692 38.453C104.691 37.7189 104.464 36.6499 103.286 36.6507C102.106 36.6538 101.886 37.7236 101.886 38.4577C101.886 39.1934 102.115 40.2608 103.292 40.2601Z" fill="#07213E"/>
<path d="M110.348 38.0229V38.7429L107.925 38.7476V40.1092L110.707 40.1045V40.826L107.056 40.8315L107.05 36.0668L110.626 36.0605L110.628 36.7814L107.919 36.786L107.926 38.026L110.348 38.0229Z" fill="#07213E"/>
<path d="M114.394 40.8188L113.461 40.8212L115.251 36.0525L116.124 36.0518L117.932 40.8133L116.995 40.8149L116.651 39.8157L114.741 39.8164L114.394 40.8188ZM116.415 39.0941L115.69 36.9788L114.971 39.0972L116.415 39.0941Z" fill="#07213E"/>
<path d="M119.892 40.8116L119.019 40.8124L119.012 36.0485L122.132 36.043L122.134 36.7645L119.885 36.7676L119.892 40.8116Z" fill="#07213E"/>
<path d="M126.635 37.9942L126.64 38.7149L124.214 38.7188L124.215 40.082L126.998 40.0773V40.7973L123.347 40.8036L123.337 36.0397L126.915 36.0342V36.7541L124.209 36.7588L124.215 37.998L126.635 37.9942Z" fill="#07213E"/>
<path d="M129.105 40.7972L128.232 40.798L128.224 36.0317L129.094 36.0293L129.097 37.9368L131.226 37.9321L131.22 36.0254H132.092L132.1 40.7901L131.228 40.7925L131.226 38.6537L129.099 38.6575L129.105 40.7972Z" fill="#07213E"/>
<path d="M133.3 36.7439V36.0223L137.169 36.0176V36.7376L135.671 36.7423L135.676 40.7854L134.806 40.7862L134.8 36.7431H133.3V36.7439Z" fill="#07213E"/>
<path d="M142.481 39.146C142.414 39.87 142.036 40.9194 140.423 40.9201C140.054 40.9209 138.058 40.8911 138.054 38.4801C138.049 36.5201 139.179 35.8715 140.367 35.8691C142 35.866 142.371 36.866 142.413 37.5491H141.546C141.492 37.1546 141.259 36.5883 140.369 36.5915C139.305 36.5923 138.983 37.4582 138.987 38.4449C138.989 39.5617 139.604 40.2009 140.462 40.2009C141.253 40.1986 141.591 39.6589 141.618 39.1491L142.481 39.146Z" fill="#07213E"/>
<path d="M143.365 36.73L143.364 36.0069L147.234 36.0029L147.236 36.7237L145.736 36.7253L145.747 40.7684L144.871 40.77L144.867 36.726L143.365 36.73Z" fill="#07213E"/>
<path d="M150.689 35.9941C151.902 35.9933 152.143 36.6725 152.144 37.1957C152.144 37.7227 151.818 38.1384 151.355 38.2215V38.2333C151.75 38.3008 152.342 38.5714 152.342 39.4239C152.349 40.6278 151.318 40.7596 150.602 40.7604L148.449 40.7651L148.438 35.9981L150.689 35.9941ZM149.316 37.9306L150.468 37.929C150.951 37.9275 151.244 37.7784 151.244 37.3627C151.24 36.7298 150.629 36.7149 150.443 36.7149L149.314 36.7181L149.316 37.9306ZM149.317 40.0404L150.513 40.0396C151.044 40.0357 151.445 39.907 151.445 39.3282C151.444 38.6882 150.89 38.6498 150.529 38.6506L149.316 38.6521L149.317 40.0404Z" fill="#07213E"/>
<path d="M155.91 35.8438C156.329 35.8438 158.249 35.8955 158.253 38.3646C158.258 40.8375 156.337 40.8955 155.921 40.8955C155.504 40.8955 153.581 40.843 153.578 38.3755C153.576 35.9026 155.495 35.8454 155.91 35.8438ZM155.92 40.1748C157.098 40.1709 157.321 39.1034 157.321 38.3677C157.317 37.6328 157.092 36.563 155.914 36.5661C154.735 36.5677 154.513 37.6367 154.513 38.3732C154.513 39.1081 154.74 40.1748 155.92 40.1748Z" fill="#07213E"/>
<path d="M44.4055 15.645L37.0787 3.00414C36.5395 2.46767 35.8855 2.22061 35.2435 2.30688C34.6037 2.39237 34.0409 2.80257 33.6578 3.46375L26.444 16.0151C26.0751 16.6575 26.0036 17.2457 26.254 17.6724C26.4989 18.0975 27.0476 18.3296 27.791 18.3288L42.2728 18.2951C43.0397 18.2951 43.674 18.0081 44.068 17.4936C44.4597 16.9798 44.568 16.2927 44.4055 15.645Z" fill="#07213E"/>
<path d="M12.2363 2.48808L12.0903 3.31631C12.106 3.70455 12.23 4.09592 12.4498 4.47866L19.7202 16.9939C20.1024 17.6497 20.5914 18.0112 21.0977 18.0112C21.6041 18.0088 22.0931 17.6465 22.4699 16.9893L29.6837 4.43945C29.9317 4.00808 30.0542 3.55082 30.0346 3.11945L29.887 2.45043C29.6484 1.86925 29.117 1.43317 28.3948 1.22141C28.2778 1.20494 13.8384 1.23788 13.8384 1.23788C13.0048 1.46768 12.4749 1.90533 12.2363 2.48808ZM21.0954 17.2167C20.9439 17.2151 20.6739 17.0536 20.4102 16.5971L13.1383 4.07866C12.9851 3.81514 12.8972 3.53905 12.8902 3.28416L12.9694 2.7916C13.1154 2.43553 13.4663 2.16023 13.9514 2.01671C13.9569 2.03082 28.2802 1.99866 28.2802 1.99866C28.6562 2.12493 29.0055 2.40023 29.1531 2.75631C29.1531 2.75788 29.2386 3.15082 29.2386 3.15082C29.2504 3.43317 29.1672 3.74376 28.9922 4.04494L21.7799 16.5924C21.5146 17.052 21.2446 17.2151 21.0954 17.2167Z" fill="#07213E"/>
<path d="M8.07493 4.43518C8.00511 4.52459 0.816407 17.0274 0.816407 17.0274C0.774019 17.1348 0.692383 17.8611 0.692383 17.8611C0.712007 18.3026 0.8533 18.7065 1.10527 19.0328C1.50718 19.5568 2.1587 19.8454 2.93345 19.8422L17.4192 19.8093C18.1798 19.8077 18.7403 19.5638 18.9891 19.1254C18.9891 19.1238 19.1343 18.4775 19.1343 18.4775L18.7889 17.4258L11.517 4.91283C11.1309 4.24224 10.5531 3.82577 9.89686 3.73793C9.27049 3.65636 8.62604 3.90342 8.07493 4.43518ZM8.69664 4.91753C8.99886 4.64616 9.41256 4.47832 9.79486 4.52773C10.2006 4.58028 10.5688 4.85871 10.831 5.31126L18.1029 17.8265L18.34 18.512L18.2968 18.7308C18.223 18.8634 17.9475 19.0148 17.4176 19.0164L2.93345 19.0477C2.4091 19.0493 1.98287 18.8728 1.73639 18.5505C1.58332 18.3536 1.50011 18.1097 1.48833 17.8297C1.48833 17.8297 1.55035 17.3199 1.5527 17.3183C1.57154 17.3175 8.69664 4.91753 8.69664 4.91753Z" fill="#07213E"/>
<path d="M1.27545 22.1575C0.985797 22.53 0.848428 23.0045 0.868052 23.5182L0.949688 24.0515C0.996787 24.159 6.09513 32.9441 6.09513 32.9441L8.24278 36.6366C8.86367 37.2547 9.51211 37.4978 10.1346 37.4139C10.7939 37.3245 11.3646 36.9064 11.7547 36.2335L18.9646 23.6869C19.3391 23.039 19.4089 22.4186 19.1609 21.9864C18.9026 21.5464 18.346 21.3064 17.5854 21.3096L3.10128 21.3418C2.32494 21.3433 1.67735 21.632 1.27545 22.1575ZM1.664 23.4876C1.65223 23.159 1.73544 22.8664 1.90813 22.6414C2.15461 22.3175 2.58006 22.1378 3.10285 22.1363L17.5894 22.1049C18.1208 22.1033 18.394 22.2555 18.4717 22.3864C18.4929 22.4264 18.507 22.4829 18.5125 22.5551C18.518 22.7237 18.4599 22.9739 18.2777 23.2876L11.0616 35.8366C10.8017 36.2915 10.4352 36.5715 10.0294 36.6257C9.651 36.6775 9.23574 36.5072 8.86137 36.152C8.85745 36.1175 6.78354 32.5426 6.78354 32.5426L1.68285 23.7606C1.72602 23.8672 1.664 23.4876 1.664 23.4876Z" fill="#07213E"/>
<path d="M19.948 24.0511L12.7342 36.5977C12.4862 37.0291 12.3637 37.4863 12.381 37.9161L12.5286 38.586C12.7695 39.1687 13.3009 39.6048 14.0286 39.8173C14.1393 39.8322 28.5771 39.8 28.5771 39.8C29.4131 39.5679 29.943 39.1294 30.1816 38.5491L30.3276 37.7232C30.3119 37.3311 30.1894 36.942 29.9666 36.56L22.6986 24.044C22.3163 23.3867 21.8272 23.0283 21.3209 23.0283C20.8138 23.0275 20.3264 23.3899 19.948 24.0511ZM14.1377 39.0361C13.7594 38.9099 13.4124 38.6345 13.2648 38.28L13.1777 37.884C13.1683 37.604 13.2491 37.2957 13.4257 36.9938L20.6396 24.4456C20.9033 23.9851 21.1734 23.822 21.3225 23.822C21.474 23.822 21.7417 23.9828 22.0094 24.4424L29.2797 36.9585C29.4328 37.222 29.5206 37.4989 29.5301 37.753C29.5301 37.753 29.4468 38.2448 29.4468 38.2471C29.2993 38.5977 28.9523 38.873 28.4633 39.0189C28.4602 39.0056 14.1377 39.0361 14.1377 39.0361Z" fill="#07213E"/>
<path d="M23.3508 21.8598C23.0964 22.3006 23.1702 22.903 23.551 23.5602L30.8189 36.0787C31.209 36.7492 31.7852 37.1649 32.4407 37.2504C33.0655 37.3296 33.71 37.0842 34.261 36.5587C34.3285 36.4685 41.5211 23.9594 41.5211 23.9594C41.558 23.8543 41.6452 23.1273 41.6452 23.1273C41.6279 22.6873 41.4858 22.2802 41.2323 21.9539C40.8304 21.4285 40.1789 21.143 39.4025 21.1445L24.9184 21.1751C24.1601 21.1806 23.6012 21.4214 23.3508 21.8598ZM24.2378 23.1602C24.0706 22.8731 24.007 22.6425 23.9992 22.4779C23.9952 22.3791 24.0125 22.3054 24.0376 22.2551C24.1138 22.1265 24.3909 21.9743 24.9184 21.972L39.4025 21.9391C39.9284 21.9391 40.3547 22.1171 40.6051 22.4379C40.7566 22.6379 40.8382 22.8794 40.8515 23.1602C40.8515 23.1602 40.7872 23.6676 40.7872 23.67C40.766 23.6739 33.6409 36.0724 33.6409 36.0724C33.3379 36.3398 32.9227 36.5108 32.5412 36.4622C32.1353 36.4112 31.7687 36.132 31.5073 35.6802L24.2378 23.1602Z" fill="#07213E"/>
</g>
</g>
</g>
</svg>
