<?xml version="1.0" encoding="utf-8"?><svg viewBox="0 0 61 60" xmlns="http://www.w3.org/2000/svg" xmlns:xlink="http://www.w3.org/1999/xlink"><style>:root>svg{display:none}:root>svg:target{display:block}</style><svg viewBox="0 0 38 50" id="icon-address" xmlns="http://www.w3.org/2000/svg"><path d="M19-.001C9.017-.001.894 8.122.894 18.107c0 12.392 16.204 30.583 16.895 31.351a1.63 1.63 0 0 0 2.426 0c.69-.768 16.895-18.96 16.895-31.351C37.109 8.122 28.985-.001 19-.001Zm0 27.219c-5.023 0-9.11-4.087-9.11-9.111 0-5.024 4.087-9.11 9.11-9.11 5.024 0 9.111 4.087 9.111 9.11 0 5.024-4.087 9.11-9.11 9.11Z"/></svg><svg viewBox="0 0 16 16" id="icon-arrow" xmlns="http://www.w3.org/2000/svg"><path d="M16 7H3.83l5.59-5.59L8 0 0 8l8 8 1.41-1.41L3.83 9H16V7Z"/></svg><svg viewBox="0 0 16 16" id="icon-arrow-small" xmlns="http://www.w3.org/2000/svg"><path d="M8 0 6.59 1.41 12.17 7H0v2h12.17l-5.58 5.59L8 16l8-8-8-8Z"/></svg><svg viewBox="0 0 13 8" id="icon-arrow-xs" xmlns="http://www.w3.org/2000/svg"><path fill-rule="evenodd" clip-rule="evenodd" d="M6.865 7.663a.562.562 0 0 1-.795 0L.335 1.928a.562.562 0 0 1 0-.795L.6.867c.22-.22.576-.22.795 0L6.467 5.94 11.54.867c.22-.22.576-.22.796 0l.265.266c.22.22.22.575 0 .795L6.865 7.663Z"/></svg><svg viewBox="0 0 60 60" id="icon-check" xmlns="http://www.w3.org/2000/svg"><g clip-path="url(#ea)"><path d="M27.5 57.462c-15.162 0-27.5-12.337-27.5-27.5 0-15.162 12.338-27.5 27.5-27.5a27.409 27.409 0 0 1 14.835 4.347 1.876 1.876 0 1 1-2.027 3.158A23.646 23.646 0 0 0 27.5 6.212c-13.095 0-23.75 10.655-23.75 23.75s10.655 23.75 23.75 23.75 23.75-10.655 23.75-23.75c0-.783-.038-1.558-.11-2.32a1.875 1.875 0 1 1 3.733-.362c.084.882.127 1.777.127 2.682 0 15.163-12.337 27.5-27.5 27.5Z"/><path d="M30.624 36.212c-.48 0-.96-.183-1.325-.55l-11.25-11.25a1.876 1.876 0 0 1 2.653-2.653l9.925 9.926L56.799 5.512a1.876 1.876 0 0 1 2.653 2.652l-27.5 27.5a1.879 1.879 0 0 1-1.328.548Z"/></g><defs><clipPath id="ea"><path d="M0 0h60.002v60H0z"/></clipPath></defs></svg><svg viewBox="0 0 20 20" id="icon-close" xmlns="http://www.w3.org/2000/svg"><path d="M.553.553a1.89 1.89 0 0 0 0 2.673L7.328 10 .553 16.774a1.89 1.89 0 1 0 2.673 2.673L10 12.672l6.774 6.775a1.89 1.89 0 0 0 2.673-2.673L12.672 10l6.775-6.774A1.89 1.89 0 0 0 16.774.553L10 7.328 3.226.553a1.89 1.89 0 0 0-2.673 0Z"/></svg><svg viewBox="0 0 60 60" id="icon-feature-1" xmlns="http://www.w3.org/2000/svg"><g clip-path="url(#ga)"><path d="M35.675 29.51a7.795 7.795 0 0 0 2.15-5.38c0-4.315-3.51-7.826-7.826-7.826-4.315 0-7.826 3.511-7.826 7.827 0 2.082.819 3.975 2.15 5.379-3.612 2.004-6.063 5.857-6.063 10.273 0 1.08.876 1.956 1.956 1.956h19.566c1.08 0 1.956-.876 1.956-1.956 0-4.416-2.45-8.27-6.063-10.273ZM30 20.217a3.917 3.917 0 0 1 3.913 3.914A3.917 3.917 0 0 1 30 28.044a3.917 3.917 0 0 1-3.913-3.913A3.917 3.917 0 0 1 30 20.216Zm-7.578 17.61c.87-3.373 3.938-5.87 7.578-5.87s6.708 2.497 7.579 5.87H22.42Z"/><path d="M54.13 48.26a5.83 5.83 0 0 0-2.529.575l-5.054-5.055c6.721-7.952 6.752-19.666.092-27.652l4.962-4.962a5.835 5.835 0 0 0 2.53.573A5.876 5.876 0 0 0 60 5.87 5.876 5.876 0 0 0 54.13 0a5.876 5.876 0 0 0-5.87 5.87c0 .905.207 1.762.575 2.529l-4.963 4.962c-7.986-6.66-19.7-6.63-27.652.092l-5.054-5.054a5.835 5.835 0 0 0 .573-2.53A5.876 5.876 0 0 0 5.87 0 5.876 5.876 0 0 0 0 5.87a5.876 5.876 0 0 0 5.87 5.87 5.83 5.83 0 0 0 2.529-.575l5.07 5.072c-3.167 3.84-4.89 8.62-4.89 13.662 0 5.092 1.757 9.912 4.983 13.772l-5.163 5.163a5.835 5.835 0 0 0-2.53-.573A5.876 5.876 0 0 0 0 54.13 5.876 5.876 0 0 0 5.87 60a5.876 5.876 0 0 0 5.87-5.87 5.83 5.83 0 0 0-.575-2.529l5.164-5.163c3.86 3.226 8.68 4.983 13.772 4.983 5.043 0 9.821-1.723 13.662-4.89l5.072 5.07a5.835 5.835 0 0 0-.574 2.53A5.876 5.876 0 0 0 54.131 60 5.876 5.876 0 0 0 60 54.13a5.876 5.876 0 0 0-5.87-5.87Zm0-44.347c1.08 0 1.957.878 1.957 1.957a1.959 1.959 0 0 1-1.957 1.956 1.959 1.959 0 0 1-1.956-1.956c0-1.08.878-1.957 1.956-1.957ZM5.87 7.826A1.959 1.959 0 0 1 3.913 5.87c0-1.08.878-1.957 1.957-1.957A1.96 1.96 0 0 1 7.826 5.87 1.959 1.959 0 0 1 5.87 7.826Zm0 48.261a1.959 1.959 0 0 1-1.957-1.957 1.96 1.96 0 0 1 1.957-1.956c1.078 0 1.956.878 1.956 1.956a1.959 1.959 0 0 1-1.956 1.957Zm36.682-13.736A17.494 17.494 0 0 1 30.1 47.508c-9.732 0-17.61-7.876-17.61-17.609 0-9.794 7.935-17.6 17.61-17.6 4.508 0 9.018 1.717 12.45 5.15 6.866 6.865 6.866 18.036 0 24.902ZM54.13 56.087a1.959 1.959 0 0 1-1.956-1.957c0-1.078.878-1.956 1.956-1.956 1.08 0 1.957.878 1.957 1.956a1.959 1.959 0 0 1-1.957 1.957Z"/></g><defs><clipPath id="ga"><path d="M0 0h60v60H0z"/></clipPath></defs></svg><svg viewBox="0 0 61 60" id="icon-feature-2" xmlns="http://www.w3.org/2000/svg"><g clip-path="url(#ha)"><path d="M41.212 49.349h-1.758v-5.273c0-.971-.787-1.758-1.758-1.758H9.455c-.97 0-1.758.787-1.758 1.758v5.273H5.939a5.28 5.28 0 0 0-5.273 5.273v3.633c0 .97.787 1.734 1.758 1.734h42.304c.97 0 1.757-.763 1.757-1.734v-3.633a5.28 5.28 0 0 0-5.273-5.273Zm-30-3.54H35.94v3.54H11.213v-3.54ZM42.97 56.498H4.182v-1.875c0-.97.788-1.781 1.757-1.781 19.739 0 28.435.045 35.273 0 .97 0 1.758.812 1.758 1.781v1.875Z"/><path d="m59.7 47.917-.008-.011-15.717-21.912a26.003 26.003 0 0 0 3.116-3.775 4.995 4.995 0 0 0 4.105-.763l.426-.301a5.016 5.016 0 0 0 1.211-6.979l-8.41-12.04A5.01 5.01 0 0 0 37.436.928l-.426.3c-1.193.841-1.968 2.175-2.104 3.73-3.108.798-6.25 2.28-9.174 4.343-2.925 2.063-5.377 4.528-7.172 7.19a4.98 4.98 0 0 0-4.106.765l-.426.301a5.01 5.01 0 0 0-1.207 6.986L21.23 36.46a5.018 5.018 0 0 0 6.985 1.206l.426-.3a4.98 4.98 0 0 0 2.099-3.612 26.013 26.013 0 0 0 4.62-1.678l15.728 21.926a5.27 5.27 0 0 0 7.344 1.263 5.27 5.27 0 0 0 1.27-7.35ZM39.037 4.102c.437-.308.839-.674 1.544-.552.394.068.738.285.964.605l8.411 12.041c.476.675.314 1.61-.36 2.086l-.426.3a1.499 1.499 0 0 1-2.087-.36L38.677 6.306c-.48-.68-.31-1.73.36-2.203ZM26.614 34.494l-.426.3a1.499 1.499 0 0 1-2.086-.36l-8.407-11.917a1.496 1.496 0 0 1 .36-2.086c.437-.308.839-.675 1.544-.553.395.068.738.286.969.613l8.406 11.917a1.496 1.496 0 0 1-.36 2.086Zm3.218-4.135-8.376-11.873c1.557-2.32 3.713-4.484 6.303-6.311 2.59-1.828 5.352-3.133 8.06-3.821l8.376 11.873c-1.644 2.451-3.86 4.587-6.303 6.311-2.438 1.72-5.194 3.093-8.06 3.821Zm8.634.016a30.929 30.929 0 0 0 2.872-2.028l6.177 8.612-2.873 2.027-6.176-8.61Zm8.225 11.467 2.873-2.026 2.049 2.857-2.873 2.026-2.049-2.857Zm10.433 9.414c-.265 1.531-2.264 1.996-3.169.714l-.008-.011-3.158-4.403 2.873-2.026 3.169 4.418c.268.383.372.847.293 1.308Z"/></g><defs><clipPath id="ha"><path transform="translate(.666)" d="M0 0h60v60H0z"/></clipPath></defs></svg><svg viewBox="0 0 61 60" id="icon-feature-3" xmlns="http://www.w3.org/2000/svg"><g clip-path="url(#ia)"><path d="M57.43 30.968v-7.08a6.764 6.764 0 0 0-5.13-6.571l-1.446-.362a8.706 8.706 0 0 0 2.706-6.31V8.71c0-4.802-3.908-8.71-8.71-8.71-4.802 0-8.71 3.908-8.71 8.71v1.935a8.703 8.703 0 0 0 2.707 6.31l-1.446.362a6.763 6.763 0 0 0-5.132 6.572v7.079H28.4v-7.08a6.764 6.764 0 0 0-5.132-6.571l-1.445-.362a8.706 8.706 0 0 0 2.706-6.31V8.71c0-4.802-3.908-8.71-8.71-8.71-4.802 0-8.71 3.908-8.71 8.71v1.935a8.703 8.703 0 0 0 2.707 6.31l-1.446.362a6.763 6.763 0 0 0-5.132 6.572v7.079A2.907 2.907 0 0 0 .334 33.87v1.935a2.907 2.907 0 0 0 2.903 2.904V60h54.194V38.71c1.6 0 2.903-1.303 2.903-2.904v-1.935c0-1.6-1.303-2.903-2.903-2.903Zm-5.6-11.774a4.833 4.833 0 0 1 3.665 4.695v7.079h-2.064l-.849-5.944-1.915.274.81 5.67h-1.788V30c0-1.6-1.303-2.903-2.903-2.903h-.968V22.08a2.9 2.9 0 0 0 1.935-2.725v-.497c.347-.122.68-.27 1.003-.432l3.074.768Zm-5.044 9.838a.97.97 0 0 1 .967.968v.968h-5.806V30a.97.97 0 0 1 .968-.968h3.87Zm-2.904-9.677v-1.936a.97.97 0 0 1 .968-.967.97.97 0 0 1 .968.967v1.936a.97.97 0 0 1-.968.968.97.97 0 0 1-.968-.968Zm-5.806-8.71V8.71a6.782 6.782 0 0 1 6.774-6.775 6.782 6.782 0 0 1 6.774 6.775v1.935a6.77 6.77 0 0 1-3.941 6.151 2.906 2.906 0 0 0-2.833-2.28 2.906 2.906 0 0 0-2.833 2.28 6.77 6.77 0 0 1-3.941-6.15ZM34.205 23.89a4.833 4.833 0 0 1 3.666-4.695l3.074-.768c.324.162.655.31 1.003.433v.496a2.9 2.9 0 0 0 1.935 2.725v5.017h-.967A2.907 2.907 0 0 0 40.012 30v.968h-1.787l.81-5.67-1.915-.273-.85 5.943h-2.065v-7.08Zm-11.408-4.695a4.833 4.833 0 0 1 3.666 4.695v7.079h-2.064l-.849-5.944-1.915.274.809 5.67h-1.787V30c0-1.6-1.303-2.903-2.904-2.903h-.967V22.08a2.9 2.9 0 0 0 1.935-2.725v-.497c.346-.122.68-.27 1.003-.432l3.073.768Zm-5.044 9.838a.97.97 0 0 1 .968.968v.968h-5.806V30a.97.97 0 0 1 .967-.968h3.871Zm-2.903-9.677V17.42a.97.97 0 0 1 .968-.967.97.97 0 0 1 .968.967v1.936a.97.97 0 0 1-.968.968.97.97 0 0 1-.968-.968Zm-5.806-8.71V8.71a6.782 6.782 0 0 1 6.774-6.775 6.782 6.782 0 0 1 6.774 6.775v1.935a6.77 6.77 0 0 1-3.942 6.151 2.906 2.906 0 0 0-2.832-2.28 2.906 2.906 0 0 0-2.833 2.28 6.77 6.77 0 0 1-3.941-6.15ZM5.173 23.89a4.833 4.833 0 0 1 3.665-4.695l3.075-.768c.323.162.655.31 1.003.433v.496a2.9 2.9 0 0 0 1.935 2.725v5.017h-.968A2.907 2.907 0 0 0 10.98 30v.968H9.193l.81-5.67-1.917-.274-.85 5.944H5.174v-7.08Zm53.225 11.917a.969.969 0 0 1-.967.968H53.56v1.936h1.935v19.355H5.173V38.71h46.451v-1.936H3.237a.969.969 0 0 1-.968-.968v-1.935a.97.97 0 0 1 .968-.968h54.194a.97.97 0 0 1 .968.968v1.935Z"/><path d="M9.043 54.194h42.58V42.58H9.044v11.612Zm1.936-9.678h38.71v7.742h-38.71v-7.742Z"/></g><defs><clipPath id="ia"><path transform="translate(.334)" d="M0 0h60v60H0z"/></clipPath></defs></svg><svg viewBox="0 0 50 40" id="icon-mail" xmlns="http://www.w3.org/2000/svg"><path fill-rule="evenodd" clip-rule="evenodd" d="M5 .001h40a5 5 0 0 1 5 5v30a5 5 0 0 1-5 5H5a5 5 0 0 1-5-5v-30a5 5 0 0 1 5-5Zm24.125 28.625L45 17.501v-5.25L26.625 25.126a2.85 2.85 0 0 1-3.25 0L5 12.251v5.25l15.875 11.125a7.2 7.2 0 0 0 8.25 0Z"/></svg><svg viewBox="0 0 46 46" id="icon-phone" xmlns="http://www.w3.org/2000/svg"><path d="M35.5 45.5a25.18 25.18 0 0 1-11.85-2.974l-1.125-.626A45.001 45.001 0 0 1 4.2 23.576l-.625-1.125A25.175 25.175 0 0 1 .5 10.5V8.824a5 5 0 0 1 1.475-3.55L6.2 1.05a1.875 1.875 0 0 1 2.95.375l5.625 9.65a2.5 2.5 0 0 1-.4 3.025L9.65 18.826a1.25 1.25 0 0 0-.225 1.474l.875 1.65a33.827 33.827 0 0 0 13.75 13.726l1.65.9a1.25 1.25 0 0 0 1.475-.226l4.725-4.725a2.5 2.5 0 0 1 3.025-.4l9.65 5.625a1.874 1.874 0 0 1 .375 2.95l-4.225 4.226a5 5 0 0 1-3.55 1.474H35.5Z"/></svg><svg viewBox="0 0 14 20" id="icon-pin" xmlns="http://www.w3.org/2000/svg"><path d="M7 0C3.13 0 0 3.13 0 7c0 5.25 7 13 7 13s7-7.75 7-13c0-3.87-3.13-7-7-7ZM2 7c0-2.76 2.24-5 5-5s5 2.24 5 5c0 2.88-2.88 7.19-5 9.88C4.92 14.21 2 9.85 2 7Z"/><path d="M7 9.5a2.5 2.5 0 1 0 0-5 2.5 2.5 0 0 0 0 5Z"/></svg><svg viewBox="0 0 20 20" id="icon-search" xmlns="http://www.w3.org/2000/svg"><path fill-rule="evenodd" clip-rule="evenodd" d="M7.778 2.222a5.556 5.556 0 1 0 0 11.111 5.556 5.556 0 0 0 0-11.11ZM0 7.778a7.778 7.778 0 1 1 14.007 4.658l5.668 5.667a1.111 1.111 0 0 1-1.572 1.572l-5.667-5.668A7.778 7.778 0 0 1 0 7.777Z"/></svg><svg viewBox="0 0 14 14" id="icon-zoom-in" xmlns="http://www.w3.org/2000/svg"><path d="M14 8H8v6H6V8H0V6h6V0h2v6h6v2Z"/></svg><svg viewBox="0 0 14 2" id="icon-zoom-out" xmlns="http://www.w3.org/2000/svg"><path d="M14 2H0V0h14v2Z"/></svg></svg>